<?xml version="1.0" encoding="utf-8"?>
<!-- Generator: Adobe Illustrator 22.1.0, SVG Export Plug-In . SVG Version: 6.00 Build 0)  -->
<svg version="1.1" id="Camada_1" xmlns="http://www.w3.org/2000/svg" xmlns:xlink="http://www.w3.org/1999/xlink" x="0px" y="0px"
	 viewBox="0 0 200 200" style="enable-background:new 0 0 200 200;" xml:space="preserve">
<style type="text/css">
	.st0{fill:#7F5100;}
	.st1{fill:#5B3800;}
	.st2{fill:#FFDB64;}
	.st3{fill:#FFFFFF;}
	.st4{fill:#1A1A1A;}
	.st5{fill:#00CCFF;}
	.st6{fill:#CCCCCC;}
	.st7{fill:#E5AA63;}
	.st8{fill:#333333;}
	.st9{fill:#666666;}
	.st10{fill:#F94E63;}
	.st11{fill:#8899A6;}
	.st12{fill:#F4900C;}
	.st13{fill:#009B34;}
	.st14{fill:#FFDB59;}
	.st15{fill:#F59000;}
	.st16{fill:#FB4C60;}
	.st17{fill:#096EDF;}
	.st18{fill:#292F33;}
	.st19{fill:#F3D29E;}
	.st20{fill:#805100;}
	.st21{fill:#66757F;}
	.st22{fill:#138F3E;}
	.st23{fill:#CCD6DD;}
	.st24{fill:#AAB8C2;}
	.st25{fill:#F3D2A2;}
	.st26{fill-rule:evenodd;clip-rule:evenodd;fill:#292F33;}
	.st27{fill:#404040;}
	.st28{fill:#F2F2F2;}
	.st29{fill:#1771DD;}
	.st30{fill:#009B3A;}
	.st31{fill:#55ACEE;}
	.st32{fill:#999999;}
	.st33{fill:#EF9645;}
	.st34{fill:#FFA766;}
	.st35{fill:#99AAB5;}
	.st36{fill:#E1E8ED;}
	.st37{fill:#FFCC4D;}
	.st38{fill:#FFCC3E;}
	.st39{fill:#00CAFF;}
	.st40{fill:#E9CC39;}
	.st41{fill:#D6B736;}
	.st42{fill:#3AAA35;}
	.st43{fill:#95C11F;}
	.st44{fill:#E30613;}
	.st45{fill:#BE1622;}
	.st46{fill:#E6332A;}
	.st47{fill:#009FE3;}
	.st48{fill:#2791D8;}
	.st49{fill:#3BBFF2;}
	.st50{opacity:0.8;enable-background:new    ;}
	.st51{fill:#BDD7B8;}
	.st52{fill:#8E562E;}
	.st53{fill:#3558A0;}
	.st54{fill:#FAD220;}
	.st55{fill:#FF5000;}
	.st56{fill:#FF000E;}
	.st57{fill:#880082;}
	.st58{fill:#FDCB58;}
</style>
<g>
	<g>
		<circle class="st8" cx="99.9" cy="51.5" r="41.5"/>
	</g>
	<g>
		<path d="M23.7,106.9c0-42.1,34.1-76.2,76.2-76.2s76.2,34.1,76.2,76.2"/>
	</g>
	<g>
		<path d="M176.1,106.2c0,42.1-34.1,76.2-76.2,76.2s-76.2-34.1-76.2-76.2"/>
	</g>
	<g>
		<circle class="st7" cx="99.9" cy="120.8" r="69.2"/>
	</g>
	<g>
		<path class="st3" d="M127.6,144.3c0,15.3-12.4,27.7-27.7,27.7s-27.7-12.4-27.7-27.7"/>
	</g>
	<g>
		<g>
			<path class="st4" d="M80.6,120.8h-5.5c0-4.6-3.7-8.3-8.3-8.3s-8.3,3.7-8.3,8.3h-5.5c0-7.6,6.2-13.8,13.8-13.8
				S80.6,113.1,80.6,120.8z"/>
		</g>
		<g>
			<path class="st4" d="M147.1,120.8h-5.5c0-4.6-3.7-8.3-8.3-8.3s-8.3,3.7-8.3,8.3h-5.5c0-7.6,6.2-13.8,13.8-13.8
				S147.1,113.1,147.1,120.8z"/>
		</g>
	</g>
	<g>
		<path class="st5" d="M46,155.2L46,155.2l0.1-0.3c0,0,0-0.1,0.1-0.1l9.5-25.7L30,138.6c0,0-0.1,0-0.1,0.1l-0.3,0.1l0,0
			c-1.4,0.6-2.7,1.5-3.8,2.6c-4.9,4.9-4.9,12.8,0,17.6s12.8,4.9,17.6,0C44.5,157.9,45.4,156.6,46,155.2z"/>
	</g>
	<g>
		<path class="st5" d="M154,155.2L154,155.2l-0.1-0.3c0,0,0-0.1-0.1-0.1l-9.5-25.7l25.7,9.5c0,0,0.1,0,0.1,0.1l0.3,0.1l0,0
			c1.4,0.6,2.7,1.5,3.8,2.6c4.9,4.9,4.9,12.8,0,17.6s-12.8,4.9-17.6,0C155.5,157.9,154.6,156.6,154,155.2z"/>
	</g>
</g>
</svg>
