<?xml version="1.0" encoding="utf-8"?>
<!-- Generator: Adobe Illustrator 22.1.0, SVG Export Plug-In . SVG Version: 6.00 Build 0)  -->
<svg version="1.1" id="Camada_1" xmlns="http://www.w3.org/2000/svg" xmlns:xlink="http://www.w3.org/1999/xlink" x="0px" y="0px"
	 viewBox="0 0 200 200" style="enable-background:new 0 0 200 200;" xml:space="preserve">
<style type="text/css">
	.st0{fill:#7F5100;}
	.st1{fill:#5B3800;}
	.st2{fill:#FFDB64;}
	.st3{fill:#FFFFFF;}
	.st4{fill:#1A1A1A;}
	.st5{fill:#00CCFF;}
	.st6{fill:#CCCCCC;}
	.st7{fill:#E5AA63;}
	.st8{fill:#333333;}
	.st9{fill:#666666;}
	.st10{fill:#F94E63;}
	.st11{fill:#8899A6;}
	.st12{fill:#F4900C;}
	.st13{fill:#009B34;}
	.st14{fill:#FFDB59;}
	.st15{fill:#F59000;}
	.st16{fill:#FB4C60;}
	.st17{fill:#096EDF;}
	.st18{fill:#292F33;}
	.st19{fill:#F3D29E;}
	.st20{fill:#805100;}
	.st21{fill:#66757F;}
	.st22{fill:#138F3E;}
	.st23{fill:#CCD6DD;}
	.st24{fill:#AAB8C2;}
	.st25{fill:#F3D2A2;}
	.st26{fill-rule:evenodd;clip-rule:evenodd;fill:#292F33;}
	.st27{fill:#404040;}
	.st28{fill:#F2F2F2;}
	.st29{fill:#1771DD;}
	.st30{fill:#009B3A;}
	.st31{fill:#55ACEE;}
	.st32{fill:#999999;}
	.st33{fill:#EF9645;}
	.st34{fill:#FFA766;}
	.st35{fill:#99AAB5;}
	.st36{fill:#E1E8ED;}
	.st37{fill:#FFCC4D;}
	.st38{fill:#FFCC3E;}
	.st39{fill:#00CAFF;}
	.st40{fill:#E9CC39;}
	.st41{fill:#D6B736;}
	.st42{fill:#3AAA35;}
	.st43{fill:#95C11F;}
	.st44{fill:#E30613;}
	.st45{fill:#BE1622;}
	.st46{fill:#E6332A;}
	.st47{fill:#009FE3;}
	.st48{fill:#2791D8;}
	.st49{fill:#3BBFF2;}
	.st50{opacity:0.8;enable-background:new    ;}
	.st51{fill:#BDD7B8;}
	.st52{fill:#8E562E;}
	.st53{fill:#3558A0;}
	.st54{fill:#FAD220;}
	.st55{fill:#FF5000;}
	.st56{fill:#FF000E;}
	.st57{fill:#880082;}
	.st58{fill:#FDCB58;}
</style>
<g>
	<g>
		<path class="st0" d="M23.8,95.2c0-42.1,34.1-76.2,76.2-76.2s76.2,34.1,76.2,76.2"/>
	</g>
	<g>
		<path class="st1" d="M172.1,119.4h-18.3c-2.2,0-4-1.8-4-4V88.1c0-2.2,1.8-4,4-4h18.3c2.2,0,4,1.8,4,4v27.3
			C176.1,117.6,174.3,119.4,172.1,119.4z"/>
	</g>
	<g>
		<path class="st0" d="M29.4,84.1h15.2c3,0,5.5,2.5,5.5,5.5v24.2c0,3-2.5,5.5-5.5,5.5H29.4c-3,0-5.5-2.5-5.5-5.5V95.2"/>
	</g>
	<g>
		<circle class="st2" cx="100" cy="109.1" r="69.2"/>
	</g>
	<g>
		<circle class="st4" cx="66.8" cy="103.5" r="6.9"/>
	</g>
	<g>
		<circle class="st4" cx="133.2" cy="103.5" r="6.9"/>
	</g>
	<g>
		<path class="st0" d="M70.8,34.2c11.5,29.2,40,49.9,73.3,49.9h30.6l-13.5-11.4l-18.7-32.9"/>
	</g>
	<g>
		<g>
			<rect x="79.2" y="143.7" transform="matrix(0.866 -0.5 0.5 0.866 -59.8399 69.6281)" class="st4" width="41.5" height="5.5"/>
		</g>
		<g>
			<rect x="97.2" y="125.7" transform="matrix(0.5 -0.866 0.866 0.5 -76.847 159.8377)" class="st4" width="5.5" height="41.5"/>
		</g>
	</g>
</g>
</svg>
