<?xml version="1.0" encoding="utf-8"?>
<!-- Generator: Adobe Illustrator 22.1.0, SVG Export Plug-In . SVG Version: 6.00 Build 0)  -->
<svg version="1.1" id="Camada_1" xmlns="http://www.w3.org/2000/svg" xmlns:xlink="http://www.w3.org/1999/xlink" x="0px" y="0px"
	 viewBox="0 0 200 200" style="enable-background:new 0 0 200 200;" xml:space="preserve">
<style type="text/css">
	.st0{fill:#7F5100;}
	.st1{fill:#5B3800;}
	.st2{fill:#FFDB64;}
	.st3{fill:#FFFFFF;}
	.st4{fill:#1A1A1A;}
	.st5{fill:#00CCFF;}
	.st6{fill:#CCCCCC;}
	.st7{fill:#E5AA63;}
	.st8{fill:#333333;}
	.st9{fill:#666666;}
	.st10{fill:#F94E63;}
	.st11{fill:#8899A6;}
	.st12{fill:#F4900C;}
	.st13{fill:#009B34;}
	.st14{fill:#FFDB59;}
	.st15{fill:#F59000;}
	.st16{fill:#FB4C60;}
	.st17{fill:#096EDF;}
	.st18{fill:#292F33;}
	.st19{fill:#F3D29E;}
	.st20{fill:#805100;}
	.st21{fill:#66757F;}
	.st22{fill:#138F3E;}
	.st23{fill:#CCD6DD;}
	.st24{fill:#AAB8C2;}
	.st25{fill:#F3D2A2;}
	.st26{fill-rule:evenodd;clip-rule:evenodd;fill:#292F33;}
	.st27{fill:#404040;}
	.st28{fill:#F2F2F2;}
	.st29{fill:#1771DD;}
	.st30{fill:#009B3A;}
	.st31{fill:#55ACEE;}
	.st32{fill:#999999;}
	.st33{fill:#EF9645;}
	.st34{fill:#FFA766;}
	.st35{fill:#99AAB5;}
	.st36{fill:#E1E8ED;}
	.st37{fill:#FFCC4D;}
	.st38{fill:#FFCC3E;}
	.st39{fill:#00CAFF;}
	.st40{fill:#E9CC39;}
	.st41{fill:#D6B736;}
	.st42{fill:#3AAA35;}
	.st43{fill:#95C11F;}
	.st44{fill:#E30613;}
	.st45{fill:#BE1622;}
	.st46{fill:#E6332A;}
	.st47{fill:#009FE3;}
	.st48{fill:#2791D8;}
	.st49{fill:#3BBFF2;}
	.st50{opacity:0.8;enable-background:new    ;}
	.st51{fill:#BDD7B8;}
	.st52{fill:#8E562E;}
	.st53{fill:#3558A0;}
	.st54{fill:#FAD220;}
	.st55{fill:#FF5000;}
	.st56{fill:#FF000E;}
	.st57{fill:#880082;}
	.st58{fill:#FDCB58;}
</style>
<g>
	<g>
		<g>
			<path class="st9" d="M22.7,112.4c-0.3,0-0.7,0-1,0c-6.8-0.5-11.9-6.5-11.4-13.3C14,52.6,53.4,16.2,100,16.2
				c46.6,0,86,36.4,89.7,82.8c0.5,6.8-4.6,12.8-11.4,13.4c-6.8,0.5-12.8-4.6-13.4-11.4c-2.7-33.6-31.2-59.9-64.9-59.9
				c-33.8,0-62.3,26.3-64.9,59.9C34.5,107.5,29.1,112.4,22.7,112.4z"/>
		</g>
		<g>
			<circle class="st2" cx="100" cy="106.2" r="77.6"/>
		</g>
		<g>
			<path class="st9" d="M86.3,26.8v13.4c0,5.8,6.2,10.5,13.7,10.5h0c7.6,0,13.7-4.7,13.7-10.5V26.8"/>
			<path class="st9" d="M100,58.5c-12.1,0-21.5-8-21.5-18.3V26.8c0-4.3,3.5-7.8,7.8-7.8c4.3,0,7.8,3.5,7.8,7.8v13.4
				c0,0.7,2.1,2.8,6,2.8c3.9,0,6-2.1,6-2.8V26.8c0-4.3,3.5-7.8,7.8-7.8c4.3,0,7.8,3.5,7.8,7.8v13.4C121.5,50.4,112.1,58.5,100,58.5z
				"/>
		</g>
	</g>
	<g>
		<g>
			<path class="st4" d="M62.9,98.5c-7.7,0-14-6.3-14-14s6.3-14,14-14s14,6.3,14,14S70.6,98.5,62.9,98.5z"/>
		</g>
		<g>
			<path class="st3" d="M62.9,76.7c4.3,0,7.8,3.5,7.8,7.8c0,4.3-3.5,7.8-7.8,7.8s-7.8-3.5-7.8-7.8C55.1,80.2,58.6,76.7,62.9,76.7
				 M62.9,64.3c-11.1,0-20.2,9-20.2,20.2s9,20.2,20.2,20.2S83,95.6,83,84.5S74,64.3,62.9,64.3L62.9,64.3z"/>
		</g>
	</g>
	<g>
		<g>
			<circle class="st4" cx="137.3" cy="84.5" r="14"/>
		</g>
		<g>
			<path class="st3" d="M137.3,76.7c4.3,0,7.8,3.5,7.8,7.8c0,4.3-3.5,7.8-7.8,7.8s-7.8-3.5-7.8-7.8C129.6,80.2,133,76.7,137.3,76.7
				 M137.3,64.3c-11.1,0-20.2,9-20.2,20.2s9,20.2,20.2,20.2s20.2-9,20.2-20.2S148.4,64.3,137.3,64.3L137.3,64.3z"/>
		</g>
	</g>
	<g>
		<circle class="st4" cx="101" cy="145" r="7.8"/>
	</g>
</g>
</svg>
