<?xml version="1.0" encoding="utf-8"?>
<!-- Generator: Adobe Illustrator 22.1.0, SVG Export Plug-In . SVG Version: 6.00 Build 0)  -->
<svg version="1.1" id="Camada_1" xmlns="http://www.w3.org/2000/svg" xmlns:xlink="http://www.w3.org/1999/xlink" x="0px" y="0px"
	 viewBox="0 0 200 200" style="enable-background:new 0 0 200 200;" xml:space="preserve">
<style type="text/css">
	.st0{fill:#7F5100;}
	.st1{fill:#5B3800;}
	.st2{fill:#FFDB64;}
	.st3{fill:#FFFFFF;}
	.st4{fill:#1A1A1A;}
	.st5{fill:#00CCFF;}
	.st6{fill:#CCCCCC;}
	.st7{fill:#E5AA63;}
	.st8{fill:#333333;}
	.st9{fill:#666666;}
	.st10{fill:#F94E63;}
	.st11{fill:#8899A6;}
	.st12{fill:#F4900C;}
	.st13{fill:#009B34;}
	.st14{fill:#FFDB59;}
	.st15{fill:#F59000;}
	.st16{fill:#FB4C60;}
	.st17{fill:#096EDF;}
	.st18{fill:#292F33;}
	.st19{fill:#F3D29E;}
	.st20{fill:#805100;}
	.st21{fill:#66757F;}
	.st22{fill:#138F3E;}
	.st23{fill:#CCD6DD;}
	.st24{fill:#AAB8C2;}
	.st25{fill:#F3D2A2;}
	.st26{fill-rule:evenodd;clip-rule:evenodd;fill:#292F33;}
	.st27{fill:#404040;}
	.st28{fill:#F2F2F2;}
	.st29{fill:#1771DD;}
	.st30{fill:#009B3A;}
	.st31{fill:#55ACEE;}
	.st32{fill:#999999;}
	.st33{fill:#EF9645;}
	.st34{fill:#FFA766;}
	.st35{fill:#99AAB5;}
	.st36{fill:#E1E8ED;}
	.st37{fill:#FFCC4D;}
	.st38{fill:#FFCC3E;}
	.st39{fill:#00CAFF;}
	.st40{fill:#E9CC39;}
	.st41{fill:#D6B736;}
	.st42{fill:#3AAA35;}
	.st43{fill:#95C11F;}
	.st44{fill:#E30613;}
	.st45{fill:#BE1622;}
	.st46{fill:#E6332A;}
	.st47{fill:#009FE3;}
	.st48{fill:#2791D8;}
	.st49{fill:#3BBFF2;}
	.st50{opacity:0.8;enable-background:new    ;}
	.st51{fill:#BDD7B8;}
	.st52{fill:#8E562E;}
	.st53{fill:#3558A0;}
	.st54{fill:#FAD220;}
	.st55{fill:#FF5000;}
	.st56{fill:#FF000E;}
	.st57{fill:#880082;}
	.st58{fill:#FDCB58;}
</style>
<g>
	<g>
		<g>
			<path class="st9" d="M24.5,113.4c-0.3,0-0.7,0-1,0c-6.9-0.5-12.1-6.6-11.6-13.5c3.7-47.1,43.7-84,91-84c47.3,0,87.3,36.9,91,84
				c0.5,6.9-4.6,13-11.6,13.5c-6.9,0.6-13-4.6-13.5-11.6C166.1,67.7,137.2,41,102.9,41C68.7,41,39.7,67.7,37,101.8
				C36.5,108.4,31,113.4,24.5,113.4z"/>
		</g>
		<g>
			<circle class="st2" cx="102.9" cy="107.1" r="78.7"/>
		</g>
		<g>
			<path class="st9" d="M89,26.4v13.6c0,5.9,6.2,10.7,13.9,10.7h0c7.7,0,13.9-4.8,13.9-10.7V26.4"/>
			<path class="st9" d="M102.9,58.6c-12.2,0-21.8-8.2-21.8-18.6V26.4c0-4.3,3.5-7.9,7.9-7.9c4.3,0,7.9,3.5,7.9,7.9v13.6
				c0,0.7,2.1,2.8,6.1,2.8c4,0,6.1-2.1,6.1-2.8V26.4c0-4.3,3.5-7.9,7.9-7.9c4.3,0,7.9,3.5,7.9,7.9v13.6
				C124.7,50.5,115.2,58.6,102.9,58.6z"/>
		</g>
	</g>
	<g>
		<g>
			<g>
				<path class="st4" d="M81.2,107.1h-6.3c0-5.2-4.2-9.4-9.4-9.4s-9.4,4.2-9.4,9.4h-6.3c0-8.7,7.1-15.7,15.7-15.7
					S81.2,98.4,81.2,107.1z"/>
			</g>
			<g>
				<path class="st4" d="M156.7,107.1h-6.3c0-5.2-4.2-9.4-9.4-9.4c-5.2,0-9.4,4.2-9.4,9.4h-6.3c0-8.7,7.1-15.7,15.7-15.7
					C149.7,91.4,156.7,98.4,156.7,107.1z"/>
			</g>
		</g>
		<g>
			<path class="st4" d="M130,157.5h-6.3c0-11.3-9.2-20.5-20.5-20.5s-20.5,9.2-20.5,20.5h-6.3c0-14.8,12-26.8,26.8-26.8
				S130,142.7,130,157.5z"/>
		</g>
		<g>
			<path class="st5" d="M65.9,149.1L65.9,149.1l-0.1-0.3c0-0.1,0-0.1-0.1-0.2l-13-28.3l-13,28.3c0,0.1,0,0.1-0.1,0.2l-0.1,0.3l0,0
				c-0.6,1.6-1,3.4-1,5.2c0,7.8,6.3,14.2,14.2,14.2s14.2-6.3,14.2-14.2C66.9,152.5,66.6,150.7,65.9,149.1z"/>
		</g>
	</g>
</g>
</svg>
