<?xml version="1.0" encoding="utf-8"?>
<!-- Generator: Adobe Illustrator 22.1.0, SVG Export Plug-In . SVG Version: 6.00 Build 0)  -->
<svg version="1.1" id="Camada_1" xmlns="http://www.w3.org/2000/svg" xmlns:xlink="http://www.w3.org/1999/xlink" x="0px" y="0px"
	 viewBox="0 0 200 200" style="enable-background:new 0 0 200 200;" xml:space="preserve">
<style type="text/css">
	.st0{fill:#7F5100;}
	.st1{fill:#5B3800;}
	.st2{fill:#FFDB64;}
	.st3{fill:#FFFFFF;}
	.st4{fill:#1A1A1A;}
	.st5{fill:#00CCFF;}
	.st6{fill:#CCCCCC;}
	.st7{fill:#E5AA63;}
	.st8{fill:#333333;}
	.st9{fill:#666666;}
	.st10{fill:#F94E63;}
	.st11{fill:#8899A6;}
	.st12{fill:#F4900C;}
	.st13{fill:#009B34;}
	.st14{fill:#FFDB59;}
	.st15{fill:#F59000;}
	.st16{fill:#FB4C60;}
	.st17{fill:#096EDF;}
	.st18{fill:#292F33;}
	.st19{fill:#F3D29E;}
	.st20{fill:#805100;}
	.st21{fill:#66757F;}
	.st22{fill:#138F3E;}
	.st23{fill:#CCD6DD;}
	.st24{fill:#AAB8C2;}
	.st25{fill:#F3D2A2;}
	.st26{fill-rule:evenodd;clip-rule:evenodd;fill:#292F33;}
	.st27{fill:#404040;}
	.st28{fill:#F2F2F2;}
	.st29{fill:#1771DD;}
	.st30{fill:#009B3A;}
	.st31{fill:#55ACEE;}
	.st32{fill:#999999;}
	.st33{fill:#EF9645;}
	.st34{fill:#FFA766;}
	.st35{fill:#99AAB5;}
	.st36{fill:#E1E8ED;}
	.st37{fill:#FFCC4D;}
	.st38{fill:#FFCC3E;}
	.st39{fill:#00CAFF;}
	.st40{fill:#E9CC39;}
	.st41{fill:#D6B736;}
	.st42{fill:#3AAA35;}
	.st43{fill:#95C11F;}
	.st44{fill:#E30613;}
	.st45{fill:#BE1622;}
	.st46{fill:#E6332A;}
	.st47{fill:#009FE3;}
	.st48{fill:#2791D8;}
	.st49{fill:#3BBFF2;}
	.st50{opacity:0.8;enable-background:new    ;}
	.st51{fill:#BDD7B8;}
	.st52{fill:#8E562E;}
	.st53{fill:#3558A0;}
	.st54{fill:#FAD220;}
	.st55{fill:#FF5000;}
	.st56{fill:#FF000E;}
	.st57{fill:#880082;}
	.st58{fill:#FDCB58;}
</style>
<g>
	<g>
		<g>
			<polygon class="st6" points="43.4,114.5 34.4,127.3 23.8,114.5 23.8,88.4 43.4,88.4 			"/>
		</g>
		<g>
			<polygon class="st6" points="176.2,112.9 166,128.9 156.6,118.3 156.6,88.4 176.2,88.4 			"/>
		</g>
		<g>
			<path class="st6" d="M23.8,88.4c0-42.1,34.1-76.2,76.2-76.2s76.2,34.1,76.2,76.2"/>
		</g>
		<g>
			<circle class="st7" cx="100" cy="102.2" r="69.2"/>
		</g>
		<g>
			<path class="st6" d="M176.2,112.6c0,42.1-34.1,76.2-76.2,76.2s-76.2-34.1-76.2-76.2l9.8,13.2l26.2,0l80.3,0H168L176.2,112.6z"/>
		</g>
		<g>
			<path class="st6" d="M115.3,46.3H84.7c-4.4,0-8-3.6-8-8V27.7c0-4.4,3.6-8,8-8h30.6c4.4,0,8,3.6,8,8v10.6
				C123.3,42.7,119.7,46.3,115.3,46.3z"/>
		</g>
		<g>
			<path class="st6" d="M132.2,139.1H67.8c-4.4,0-8-3.6-8-8v-10.6c0-4.4,3.6-8,8-8h64.3c4.4,0,8,3.6,8,8v10.6
				C140.2,135.5,136.6,139.1,132.2,139.1z"/>
		</g>
	</g>
	<g>
		<g>
			<g>
				<path class="st4" d="M80.9,102.2h-5.5c0-4.6-3.7-8.3-8.3-8.3c-4.6,0-8.3,3.7-8.3,8.3h-5.5c0-7.6,6.2-13.8,13.8-13.8
					S80.9,94.6,80.9,102.2z"/>
			</g>
			<g>
				<path class="st4" d="M147.3,102.2h-5.5c0-4.6-3.7-8.3-8.3-8.3s-8.3,3.7-8.3,8.3h-5.5c0-7.6,6.2-13.8,13.8-13.8
					S147.3,94.6,147.3,102.2z"/>
			</g>
		</g>
		<g>
			<path class="st4" d="M123.8,146.5h-5.5c0-9.9-8.1-18-18-18s-18,8.1-18,18h-5.5c0-13,10.6-23.5,23.5-23.5S123.8,133.6,123.8,146.5
				z"/>
		</g>
		<g>
			<path class="st5" d="M67.5,139.2L67.5,139.2l-0.1-0.3c0,0,0-0.1-0.1-0.1l-11.4-24.9l-11.4,24.9c0,0,0,0.1-0.1,0.1l-0.1,0.3l0,0
				c-0.6,1.4-0.9,3-0.9,4.6c0,6.9,5.6,12.5,12.5,12.5s12.5-5.6,12.5-12.5C68.3,142.2,68,140.6,67.5,139.2z"/>
		</g>
	</g>
</g>
</svg>
