<?xml version="1.0" encoding="utf-8"?>
<!-- Generator: Adobe Illustrator 22.1.0, SVG Export Plug-In . SVG Version: 6.00 Build 0)  -->
<svg version="1.1" id="Camada_1" xmlns="http://www.w3.org/2000/svg" xmlns:xlink="http://www.w3.org/1999/xlink" x="0px" y="0px"
	 viewBox="0 0 200 200" style="enable-background:new 0 0 200 200;" xml:space="preserve">
<style type="text/css">
	.st0{fill:#7F5100;}
	.st1{fill:#5B3800;}
	.st2{fill:#FFDB64;}
	.st3{fill:#FFFFFF;}
	.st4{fill:#1A1A1A;}
	.st5{fill:#00CCFF;}
	.st6{fill:#CCCCCC;}
	.st7{fill:#E5AA63;}
	.st8{fill:#333333;}
	.st9{fill:#666666;}
	.st10{fill:#F94E63;}
	.st11{fill:#8899A6;}
	.st12{fill:#F4900C;}
	.st13{fill:#009B34;}
	.st14{fill:#FFDB59;}
	.st15{fill:#F59000;}
	.st16{fill:#FB4C60;}
	.st17{fill:#096EDF;}
	.st18{fill:#292F33;}
	.st19{fill:#F3D29E;}
	.st20{fill:#805100;}
	.st21{fill:#66757F;}
	.st22{fill:#138F3E;}
	.st23{fill:#CCD6DD;}
	.st24{fill:#AAB8C2;}
	.st25{fill:#F3D2A2;}
	.st26{fill-rule:evenodd;clip-rule:evenodd;fill:#292F33;}
	.st27{fill:#404040;}
	.st28{fill:#F2F2F2;}
	.st29{fill:#1771DD;}
	.st30{fill:#009B3A;}
	.st31{fill:#55ACEE;}
	.st32{fill:#999999;}
	.st33{fill:#EF9645;}
	.st34{fill:#FFA766;}
	.st35{fill:#99AAB5;}
	.st36{fill:#E1E8ED;}
	.st37{fill:#FFCC4D;}
	.st38{fill:#FFCC3E;}
	.st39{fill:#00CAFF;}
	.st40{fill:#E9CC39;}
	.st41{fill:#D6B736;}
	.st42{fill:#3AAA35;}
	.st43{fill:#95C11F;}
	.st44{fill:#E30613;}
	.st45{fill:#BE1622;}
	.st46{fill:#E6332A;}
	.st47{fill:#009FE3;}
	.st48{fill:#2791D8;}
	.st49{fill:#3BBFF2;}
	.st50{opacity:0.8;enable-background:new    ;}
	.st51{fill:#BDD7B8;}
	.st52{fill:#8E562E;}
	.st53{fill:#3558A0;}
	.st54{fill:#FAD220;}
	.st55{fill:#FF5000;}
	.st56{fill:#FF000E;}
	.st57{fill:#880082;}
	.st58{fill:#FDCB58;}
</style>
<g>
	<g>
		<g>
			<path class="st1" d="M136.8,34.4c0,0.1-0.1,0.2-0.1,0.2c0,0,0,0.1-0.1,0.1l-0.7-1.3L136.8,34.4z"/>
			<polygon class="st1" points="76.9,91.5 66.1,92.1 62.7,90.2 65.1,85.9 65.7,85 66.8,85.7 			"/>
			<polygon class="st1" points="136,87.8 128.8,88.2 134.4,85 			"/>
		</g>
		<g>
			<path class="st2" d="M136.7,34.6c0,0,0,0.1-0.1,0.1l-0.7-1.3L136.7,34.6z"/>
			<path class="st2" d="M174.1,112.3l-12.7-26.2l-24.8-51.4C123.2,61,97.9,80.6,66.8,85.7l10,5.8l8.2,4.7l-3,5.2l-16-9.2l-3.4-2
				l2.4-4.2c-0.1,0-0.1,0-0.2,0c-6.2,0.9-12.3,1.2-18.3,0.8c-6.6-0.3-13.1-1.3-19.3-3c-0.8,3.5-1.3,7.1-1.5,10.8
				c0,0.9-0.1,1.8-0.1,2.7v29.9c0,32.9,26.9,59.8,59.8,59.8h29.9c32.9,0,59.8-26.9,59.8-59.8v-13.1L174.1,112.3z M128.8,88.2
				L128.8,88.2l5.6-3.2l1.6,2.8l1.4,2.4l-19.4,11.2l-3-5.2L128.8,88.2z M64.2,113.8c-4.1,0-7.5-3.3-7.5-7.5c0-4.1,3.3-7.5,7.5-7.5
				s7.5,3.3,7.5,7.5C71.6,110.5,68.3,113.8,64.2,113.8z M116.8,156.3c-3.5-6-9.9-9.7-16.8-9.7s-13.3,3.7-16.8,9.7l-5.2-3
				c4.5-7.8,13-12.7,22-12.7s17.4,4.9,22,12.7L116.8,156.3z M135.9,113.8c-4.1,0-7.5-3.3-7.5-7.5c0-4.1,3.3-7.5,7.5-7.5
				s7.5,3.3,7.5,7.5C143.3,110.5,140,113.8,135.9,113.8z"/>
			<circle class="st2" cx="64.2" cy="106.3" r="7.5"/>
			<polygon class="st2" points="85.1,96.2 82.1,101.4 66.1,92.1 62.7,90.2 65.1,85.9 65.7,85 66.8,85.7 76.9,91.5 			"/>
			<path class="st2" d="M122,153.3l-5.2,3c-3.5-6-9.9-9.7-16.8-9.7s-13.3,3.7-16.8,9.7l-5.2-3c4.5-7.8,13-12.7,22-12.7
				S117.4,145.5,122,153.3z"/>
			<polygon class="st2" points="137.4,90.2 117.9,101.4 115,96.2 128.8,88.2 128.8,88.2 134.4,85 136,87.8 			"/>
			<circle class="st2" cx="135.9" cy="106.3" r="7.5"/>
		</g>
		<g>
			<path class="st1" d="M181.7,83.4c0,0,0,0.9,0,1.4v23.3c0,3.3-2.7,6-6,6h-0.7l-1-1.9l-12.7-26.2l-24.8-51.4c0,0,0.1-0.1,0.1-0.1
				c0-0.1,0.1-0.1,0.1-0.2l-0.9-1l0.7,1.3C123.2,61,97.9,80.6,66.8,85.7L65.7,85l-0.6,1c-0.1,0-0.1,0-0.2,0
				c-6.2,0.9-12.3,1.2-18.3,0.8c-6.6-0.3-13.1-1.3-19.3-3c-0.8,3.5-1.3,7.1-1.5,10.8c0,0.9-0.1,1.8-0.1,2.7v16.8h-1.5
				c-3.3,0-6-2.7-6-6V95.1C18.3,49.8,55,13,100.4,13C141.8,13,176.1,43.6,181.7,83.4z"/>
			<path class="st1" d="M66.8,85.7c-0.6,0.1-1.2,0.2-1.7,0.3l0.6-1L66.8,85.7z"/>
			<path class="st1" d="M136.8,34.4c0,0.1-0.1,0.2-0.1,0.2c0,0,0,0.1-0.1,0.1l-0.7-1.3L136.8,34.4z"/>
		</g>
		<g>
			<g>
				<path class="st1" d="M136.8,34.4c0,0.1-0.1,0.2-0.1,0.2c0,0,0,0.1-0.1,0.1l-0.7-1.3L136.8,34.4z"/>
			</g>
		</g>
	</g>
	<g>
		<g>
			<circle class="st4" cx="64.2" cy="106.3" r="7.5"/>
		</g>
		<g>
			<circle class="st4" cx="135.9" cy="106.3" r="7.5"/>
		</g>
		<g>
			<path class="st4" d="M122,153.3l-5.2,3c-3.5-6-9.9-9.7-16.8-9.7s-13.3,3.7-16.8,9.7l-5.2-3c4.5-7.8,13-12.7,22-12.7
				S117.4,145.5,122,153.3z"/>
		</g>
		<g>
			<polygon class="st4" points="85.1,96.2 82.1,101.4 66.1,92.1 62.7,90.2 65.1,85.9 65.7,85 66.8,85.7 76.9,91.5 			"/>
		</g>
		<g>
			<polygon class="st4" points="137.4,90.2 117.9,101.4 115,96.2 128.8,88.2 128.8,88.2 134.4,85 136,87.8 			"/>
		</g>
	</g>
</g>
</svg>
