<?xml version="1.0" encoding="utf-8"?>
<!-- Generator: Adobe Illustrator 22.1.0, SVG Export Plug-In . SVG Version: 6.00 Build 0)  -->
<svg version="1.1" id="Camada_1" xmlns="http://www.w3.org/2000/svg" xmlns:xlink="http://www.w3.org/1999/xlink" x="0px" y="0px"
	 viewBox="0 0 200 200" style="enable-background:new 0 0 200 200;" xml:space="preserve">
<style type="text/css">
	.st0{fill:#7F5100;}
	.st1{fill:#5B3800;}
	.st2{fill:#FFDB64;}
	.st3{fill:#FFFFFF;}
	.st4{fill:#1A1A1A;}
	.st5{fill:#00CCFF;}
	.st6{fill:#CCCCCC;}
	.st7{fill:#E5AA63;}
	.st8{fill:#333333;}
	.st9{fill:#666666;}
	.st10{fill:#F94E63;}
	.st11{fill:#8899A6;}
	.st12{fill:#F4900C;}
	.st13{fill:#009B34;}
	.st14{fill:#FFDB59;}
	.st15{fill:#F59000;}
	.st16{fill:#FB4C60;}
	.st17{fill:#096EDF;}
	.st18{fill:#292F33;}
	.st19{fill:#F3D29E;}
	.st20{fill:#805100;}
	.st21{fill:#66757F;}
	.st22{fill:#138F3E;}
	.st23{fill:#CCD6DD;}
	.st24{fill:#AAB8C2;}
	.st25{fill:#F3D2A2;}
	.st26{fill-rule:evenodd;clip-rule:evenodd;fill:#292F33;}
	.st27{fill:#404040;}
	.st28{fill:#F2F2F2;}
	.st29{fill:#1771DD;}
	.st30{fill:#009B3A;}
	.st31{fill:#55ACEE;}
	.st32{fill:#999999;}
	.st33{fill:#EF9645;}
	.st34{fill:#FFA766;}
	.st35{fill:#99AAB5;}
	.st36{fill:#E1E8ED;}
	.st37{fill:#FFCC4D;}
	.st38{fill:#FFCC3E;}
	.st39{fill:#00CAFF;}
	.st40{fill:#E9CC39;}
	.st41{fill:#D6B736;}
	.st42{fill:#3AAA35;}
	.st43{fill:#95C11F;}
	.st44{fill:#E30613;}
	.st45{fill:#BE1622;}
	.st46{fill:#E6332A;}
	.st47{fill:#009FE3;}
	.st48{fill:#2791D8;}
	.st49{fill:#3BBFF2;}
	.st50{opacity:0.8;enable-background:new    ;}
	.st51{fill:#BDD7B8;}
	.st52{fill:#8E562E;}
	.st53{fill:#3558A0;}
	.st54{fill:#FAD220;}
	.st55{fill:#FF5000;}
	.st56{fill:#FF000E;}
	.st57{fill:#880082;}
	.st58{fill:#FDCB58;}
</style>
<g>
	<g>
		<path class="st2" d="M174.3,105.7c0,2.6-0.1,5.2-0.4,7.8c-2.3,21.7-13.9,40.7-30.8,52.7v-39c0-5.2-4.3-9.6-9.6-9.6h-67
			c-5.2,0-9.5,4.3-9.5,9.6v39c-16.9-12-28.6-31-30.8-52.7c-0.3-2.6-0.4-5.2-0.4-7.8c0-5.1,0.5-10.1,1.5-14.9
			c0.1-0.7,0.3-1.4,0.4-2.1c4.9-20.9,18.6-38.5,37.1-48.4C75,46.7,87,50.4,100,50.4c13,0,25-3.7,35.2-10.1
			c18.5,9.9,32.2,27.5,37.1,48.4c0.2,0.7,0.3,1.4,0.5,2.1C173.8,95.7,174.3,100.6,174.3,105.7z"/>
	</g>
	<g>
		<path class="st4" d="M180.9,90.2v17.4c0,3.3-2.7,5.9-5.9,5.9h-1.1c0.3-2.6,0.4-5.2,0.4-7.8c0-5.1-0.5-10.1-1.5-14.9
			c-0.1-0.7-0.3-1.4-0.5-2.1c-4.9-20.9-18.6-38.5-37.1-48.4C125,46.7,113,50.4,100,50.4c-13,0-25-3.7-35.2-10.1
			c-18.5,10-32.2,27.5-37.1,48.4c-0.2,0.7-0.3,1.4-0.4,2.1c-1,4.8-1.5,9.8-1.5,14.9c0,2.6,0.1,5.2,0.4,7.8h-1.1
			c-3.3,0-5.9-2.7-5.9-5.9V90.2h0C19.5,45.8,55.6,10,100,10S180.5,45.8,180.9,90.2L180.9,90.2z"/>
	</g>
	<g>
		<path class="st4" d="M133.5,117.7h-67c-5.2,0-9.5,4.3-9.5,9.6v40.4c0,2.4,0.9,4.7,2.5,6.1C70.8,184,84.8,190,100,190
			c15.2,0,29.2-6,40.5-16.3c1.6-1.4,2.5-3.7,2.5-6.1v-40.4C143.1,122,138.8,117.7,133.5,117.7z M100,160.7
			c-9.3,0-17.7-4.3-23.1-11.1c-4.1-5.1-6.6-11.6-6.6-18.6h59.4c0,7.1-2.5,13.6-6.6,18.6C117.7,156.4,109.3,160.7,100,160.7z"/>
	</g>
	<g>
		<g>
			<circle class="st4" cx="64.3" cy="99.8" r="7.4"/>
		</g>
		<g>
			<circle class="st4" cx="135.6" cy="99.8" r="7.4"/>
		</g>
	</g>
	<g>
		<path class="st3" d="M129.7,131c0,7.1-2.5,13.6-6.6,18.6c-5.4,6.8-13.8,11.1-23.1,11.1c-9.3,0-17.7-4.3-23.1-11.1
			c-4.1-5.1-6.6-11.6-6.6-18.6H129.7z"/>
	</g>
</g>
</svg>
