<?xml version="1.0" encoding="utf-8"?>
<!-- Generator: Adobe Illustrator 22.1.0, SVG Export Plug-In . SVG Version: 6.00 Build 0)  -->
<svg version="1.1" id="Camada_1" xmlns="http://www.w3.org/2000/svg" xmlns:xlink="http://www.w3.org/1999/xlink" x="0px" y="0px"
	 viewBox="0 0 200 200" style="enable-background:new 0 0 200 200;" xml:space="preserve">
<style type="text/css">
	.st0{fill:#7F5100;}
	.st1{fill:#5B3800;}
	.st2{fill:#FFDB64;}
	.st3{fill:#FFFFFF;}
	.st4{fill:#1A1A1A;}
	.st5{fill:#00CCFF;}
	.st6{fill:#CCCCCC;}
	.st7{fill:#E5AA63;}
	.st8{fill:#333333;}
	.st9{fill:#666666;}
	.st10{fill:#F94E63;}
	.st11{fill:#8899A6;}
	.st12{fill:#F4900C;}
	.st13{fill:#009B34;}
	.st14{fill:#FFDB59;}
	.st15{fill:#F59000;}
	.st16{fill:#FB4C60;}
	.st17{fill:#096EDF;}
	.st18{fill:#292F33;}
	.st19{fill:#F3D29E;}
	.st20{fill:#805100;}
	.st21{fill:#66757F;}
	.st22{fill:#138F3E;}
	.st23{fill:#CCD6DD;}
	.st24{fill:#AAB8C2;}
	.st25{fill:#F3D2A2;}
	.st26{fill-rule:evenodd;clip-rule:evenodd;fill:#292F33;}
	.st27{fill:#404040;}
	.st28{fill:#F2F2F2;}
	.st29{fill:#1771DD;}
	.st30{fill:#009B3A;}
	.st31{fill:#55ACEE;}
	.st32{fill:#999999;}
	.st33{fill:#EF9645;}
	.st34{fill:#FFA766;}
	.st35{fill:#99AAB5;}
	.st36{fill:#E1E8ED;}
	.st37{fill:#FFCC4D;}
	.st38{fill:#FFCC3E;}
	.st39{fill:#00CAFF;}
	.st40{fill:#E9CC39;}
	.st41{fill:#D6B736;}
	.st42{fill:#3AAA35;}
	.st43{fill:#95C11F;}
	.st44{fill:#E30613;}
	.st45{fill:#BE1622;}
	.st46{fill:#E6332A;}
	.st47{fill:#009FE3;}
	.st48{fill:#2791D8;}
	.st49{fill:#3BBFF2;}
	.st50{opacity:0.8;enable-background:new    ;}
	.st51{fill:#BDD7B8;}
	.st52{fill:#8E562E;}
	.st53{fill:#3558A0;}
	.st54{fill:#FAD220;}
	.st55{fill:#FF5000;}
	.st56{fill:#FF000E;}
	.st57{fill:#880082;}
	.st58{fill:#FDCB58;}
</style>
<g>
	<g>
		<path class="st0" d="M72,108c0,4.1-3.3,7.4-7.4,7.4c-4.1,0-7.4-3.3-7.4-7.4c0-4.1,3.3-7.4,7.4-7.4C68.7,100.6,72,103.9,72,108z"/>
		
			<rect x="71.3" y="83.9" transform="matrix(0.4994 -0.8664 0.8664 0.4994 -45.1243 111.8622)" class="st0" width="5.9" height="22.1"/>
		<polygon class="st0" points="136.8,92 117.7,103.1 114.7,98 131.8,88.1 133.9,86.9 134.7,88.4 		"/>
		<path class="st0" d="M142.7,108c0,4.1-3.3,7.4-7.4,7.4c-4.1,0-7.4-3.3-7.4-7.4c0-4.1,3.3-7.4,7.4-7.4
			C139.4,100.6,142.7,103.9,142.7,108z"/>
	</g>
	<g>
		<path class="st2" d="M169.2,88.8H142c-2.5,0-4.9-0.1-7.3-0.3l2.1,3.6l-19.1,11l-2.9-5.1l17-9.8C105,84.9,82.1,69.2,69,47
			c-25.2,11.7-42.6,37.2-42.6,66.8c0,16.7,5.5,32.1,14.9,44.4c4.8,6.3,10.5,11.8,17,16.3c2.6,1.8,5.2,3.4,8,4.8
			c10.1,5.2,21.5,8.1,33.6,8.1c12.1,0,23.5-2.9,33.6-8.1c9.5-4.9,17.7-11.7,24.2-20c0.3-0.4,0.6-0.7,0.9-1.1
			c9.3-12.3,14.9-27.7,14.9-44.4C173.6,105,172.1,96.6,169.2,88.8z M66.1,86.9l19.1,11l-2.9,5.1L63.2,92L66.1,86.9z M64.7,115.3
			c-4.1,0-7.4-3.3-7.4-7.4c0-4.1,3.3-7.4,7.4-7.4c4.1,0,7.4,3.3,7.4,7.4C72,112,68.7,115.3,64.7,115.3z M116.6,157.2
			c-0.4-0.6-0.8-1.3-1.2-1.8c-3.6-4.8-9.3-7.7-15.3-7.7c-6.8,0-13.1,3.7-16.6,9.6l-5.1-2.9c4.5-7.7,12.8-12.5,21.6-12.5
			c8.6,0,16.6,4.4,21.1,11.6c0.2,0.3,0.4,0.6,0.5,0.9L116.6,157.2z M135.3,115.3c-4.1,0-7.4-3.3-7.4-7.4c0-4.1,3.3-7.4,7.4-7.4
			c4.1,0,7.4,3.3,7.4,7.4C142.7,112,139.4,115.3,135.3,115.3z"/>
		<path class="st2" d="M72,108c0,4.1-3.3,7.4-7.4,7.4c-4.1,0-7.4-3.3-7.4-7.4c0-4.1,3.3-7.4,7.4-7.4C68.7,100.6,72,103.9,72,108z"/>
		
			<rect x="71.3" y="83.9" transform="matrix(0.4994 -0.8664 0.8664 0.4994 -45.1243 111.8622)" class="st2" width="5.9" height="22.1"/>
		<polygon class="st2" points="136.8,92 117.7,103.1 114.7,98 131.8,88.1 133.9,86.9 134.7,88.4 		"/>
		<path class="st2" d="M142.7,108c0,4.1-3.3,7.4-7.4,7.4c-4.1,0-7.4-3.3-7.4-7.4c0-4.1,3.3-7.4,7.4-7.4
			C139.4,100.6,142.7,103.9,142.7,108z"/>
	</g>
	<g>
		<g>
			<path class="st4" d="M72,108c0,4.1-3.3,7.4-7.4,7.4c-4.1,0-7.4-3.3-7.4-7.4c0-4.1,3.3-7.4,7.4-7.4C68.7,100.6,72,103.9,72,108z"
				/>
		</g>
		<g>
			<path class="st4" d="M142.7,108c0,4.1-3.3,7.4-7.4,7.4c-4.1,0-7.4-3.3-7.4-7.4c0-4.1,3.3-7.4,7.4-7.4
				C139.4,100.6,142.7,103.9,142.7,108z"/>
		</g>
		<g>
			<path class="st4" d="M121.6,154.2l-5.1,2.9c-0.4-0.6-0.8-1.3-1.2-1.8c-3.6-4.8-9.3-7.7-15.3-7.7c-6.8,0-13.1,3.7-16.6,9.6
				l-5.1-2.9c4.5-7.7,12.8-12.5,21.6-12.5c8.6,0,16.6,4.4,21.1,11.6C121.3,153.7,121.5,153.9,121.6,154.2z"/>
		</g>
		<g>
			
				<rect x="71.3" y="83.9" transform="matrix(0.4994 -0.8664 0.8664 0.4994 -45.1243 111.8622)" class="st4" width="5.9" height="22.1"/>
		</g>
		<g>
			<polygon class="st4" points="136.8,92 117.7,103.1 114.7,98 131.8,88.1 133.9,86.9 134.7,88.4 			"/>
		</g>
	</g>
	<g>
		<path class="st0" d="M180.1,99.1v88.8c-5.2,2.4-11,3.7-17.2,3.7c-11.5,0-21.9-4.7-29.3-12.3c9.5-4.9,17.7-11.7,24.2-20
			c0.3-0.4,0.6-0.7,0.9-1.1c9.3-12.3,14.9-27.7,14.9-44.4c0-8.8-1.5-17.2-4.4-25.1H142c-2.5,0-4.9-0.1-7.3-0.3l-0.9-1.5l-2.1,1.2
			C105,84.9,82.1,69.2,69,47c-25.2,11.7-42.6,37.2-42.6,66.8c0,16.7,5.5,32.1,14.9,44.4c4.8,6.3,10.5,11.8,17,16.3
			c2.6,1.8,5.2,3.4,8,4.8c-7.5,7.6-17.9,12.3-29.4,12.3c-6.1,0-11.9-1.3-17.1-3.7l0.4-0.6l-0.4,0.1V99.1C19.9,54.8,55.8,19,100,19
			S180.1,54.8,180.1,99.1z"/>
		<path class="st0" d="M134.7,88.4c-1-0.1-2-0.2-3-0.3l2.1-1.2L134.7,88.4z"/>
	</g>
</g>
</svg>
