<?xml version="1.0" encoding="utf-8"?>
<!-- Generator: Adobe Illustrator 22.1.0, SVG Export Plug-In . SVG Version: 6.00 Build 0)  -->
<svg version="1.1" id="Camada_1" xmlns="http://www.w3.org/2000/svg" xmlns:xlink="http://www.w3.org/1999/xlink" x="0px" y="0px"
	 viewBox="0 0 200 200" style="enable-background:new 0 0 200 200;" xml:space="preserve">
<style type="text/css">
	.st0{fill:#7F5100;}
	.st1{fill:#5B3800;}
	.st2{fill:#FFDB64;}
	.st3{fill:#FFFFFF;}
	.st4{fill:#1A1A1A;}
	.st5{fill:#00CCFF;}
	.st6{fill:#CCCCCC;}
	.st7{fill:#E5AA63;}
	.st8{fill:#333333;}
	.st9{fill:#666666;}
	.st10{fill:#F94E63;}
	.st11{fill:#8899A6;}
	.st12{fill:#F4900C;}
	.st13{fill:#009B34;}
	.st14{fill:#FFDB59;}
	.st15{fill:#F59000;}
	.st16{fill:#FB4C60;}
	.st17{fill:#096EDF;}
	.st18{fill:#292F33;}
	.st19{fill:#F3D29E;}
	.st20{fill:#805100;}
	.st21{fill:#66757F;}
	.st22{fill:#138F3E;}
	.st23{fill:#CCD6DD;}
	.st24{fill:#AAB8C2;}
	.st25{fill:#F3D2A2;}
	.st26{fill-rule:evenodd;clip-rule:evenodd;fill:#292F33;}
	.st27{fill:#404040;}
	.st28{fill:#F2F2F2;}
	.st29{fill:#1771DD;}
	.st30{fill:#009B3A;}
	.st31{fill:#55ACEE;}
	.st32{fill:#999999;}
	.st33{fill:#EF9645;}
	.st34{fill:#FFA766;}
	.st35{fill:#99AAB5;}
	.st36{fill:#E1E8ED;}
	.st37{fill:#FFCC4D;}
	.st38{fill:#FFCC3E;}
	.st39{fill:#00CAFF;}
	.st40{fill:#E9CC39;}
	.st41{fill:#D6B736;}
	.st42{fill:#3AAA35;}
	.st43{fill:#95C11F;}
	.st44{fill:#E30613;}
	.st45{fill:#BE1622;}
	.st46{fill:#E6332A;}
	.st47{fill:#009FE3;}
	.st48{fill:#2791D8;}
	.st49{fill:#3BBFF2;}
	.st50{opacity:0.8;enable-background:new    ;}
	.st51{fill:#BDD7B8;}
	.st52{fill:#8E562E;}
	.st53{fill:#3558A0;}
	.st54{fill:#FAD220;}
	.st55{fill:#FF5000;}
	.st56{fill:#FF000E;}
	.st57{fill:#880082;}
	.st58{fill:#FDCB58;}
</style>
<g>
	<g>
		<g>
			<path class="st9" d="M27,111.7c-0.3,0-0.6,0-0.9,0c-6.5-0.5-11.3-6.2-10.8-12.6c3.5-43.9,40.7-78.2,84.7-78.2
				c44,0,81.3,34.4,84.7,78.2c0.5,6.5-4.3,12.1-10.8,12.6c-6.4,0.5-12.1-4.3-12.6-10.8c-2.5-31.7-29.5-56.6-61.4-56.6
				c-31.9,0-58.9,24.9-61.4,56.6C38.2,107.1,33,111.7,27,111.7z"/>
		</g>
		<g>
			<circle class="st2" cx="100" cy="105.9" r="73.3"/>
		</g>
		<g>
			<path class="st9" d="M87,30.8v12.7c0,5.5,5.8,9.9,13,9.9h0c7.2,0,13-4.5,13-9.9V30.8"/>
			<path class="st9" d="M100,60.8c-11.4,0-20.3-7.6-20.3-17.3V30.8c0-4,3.3-7.3,7.3-7.3s7.3,3.3,7.3,7.3v12.7c0,0.7,1.9,2.6,5.7,2.6
				c3.7,0,5.7-1.9,5.7-2.6V30.8c0-4,3.3-7.3,7.3-7.3s7.3,3.3,7.3,7.3v12.7C120.3,53.2,111.4,60.8,100,60.8z"/>
		</g>
	</g>
	<g>
		<path class="st3" d="M129.3,130.8c0,16.2-13.1,29.3-29.3,29.3S70.7,147,70.7,130.8"/>
	</g>
	<g>
		<circle class="st4" cx="64.8" cy="100" r="7.3"/>
	</g>
	<g>
		<circle class="st4" cx="135.2" cy="100" r="7.3"/>
	</g>
</g>
</svg>
