<?xml version="1.0" encoding="utf-8"?>
<!-- Generator: Adobe Illustrator 22.1.0, SVG Export Plug-In . SVG Version: 6.00 Build 0)  -->
<svg version="1.1" id="Camada_1" xmlns="http://www.w3.org/2000/svg" xmlns:xlink="http://www.w3.org/1999/xlink" x="0px" y="0px"
	 viewBox="0 0 200 200" style="enable-background:new 0 0 200 200;" xml:space="preserve">
<style type="text/css">
	.st0{fill:#7F5100;}
	.st1{fill:#5B3800;}
	.st2{fill:#FFDB64;}
	.st3{fill:#FFFFFF;}
	.st4{fill:#1A1A1A;}
	.st5{fill:#00CCFF;}
	.st6{fill:#CCCCCC;}
	.st7{fill:#E5AA63;}
	.st8{fill:#333333;}
	.st9{fill:#666666;}
	.st10{fill:#F94E63;}
	.st11{fill:#8899A6;}
	.st12{fill:#F4900C;}
	.st13{fill:#009B34;}
	.st14{fill:#FFDB59;}
	.st15{fill:#F59000;}
	.st16{fill:#FB4C60;}
	.st17{fill:#096EDF;}
	.st18{fill:#292F33;}
	.st19{fill:#F3D29E;}
	.st20{fill:#805100;}
	.st21{fill:#66757F;}
	.st22{fill:#138F3E;}
	.st23{fill:#CCD6DD;}
	.st24{fill:#AAB8C2;}
	.st25{fill:#F3D2A2;}
	.st26{fill-rule:evenodd;clip-rule:evenodd;fill:#292F33;}
	.st27{fill:#404040;}
	.st28{fill:#F2F2F2;}
	.st29{fill:#1771DD;}
	.st30{fill:#009B3A;}
	.st31{fill:#55ACEE;}
	.st32{fill:#999999;}
	.st33{fill:#EF9645;}
	.st34{fill:#FFA766;}
	.st35{fill:#99AAB5;}
	.st36{fill:#E1E8ED;}
	.st37{fill:#FFCC4D;}
	.st38{fill:#FFCC3E;}
	.st39{fill:#00CAFF;}
	.st40{fill:#E9CC39;}
	.st41{fill:#D6B736;}
	.st42{fill:#3AAA35;}
	.st43{fill:#95C11F;}
	.st44{fill:#E30613;}
	.st45{fill:#BE1622;}
	.st46{fill:#E6332A;}
	.st47{fill:#009FE3;}
	.st48{fill:#2791D8;}
	.st49{fill:#3BBFF2;}
	.st50{opacity:0.8;enable-background:new    ;}
	.st51{fill:#BDD7B8;}
	.st52{fill:#8E562E;}
	.st53{fill:#3558A0;}
	.st54{fill:#FAD220;}
	.st55{fill:#FF5000;}
	.st56{fill:#FF000E;}
	.st57{fill:#880082;}
	.st58{fill:#FDCB58;}
</style>
<g>
	<g>
		<path class="st2" d="M171.9,100c0,39.8-32.2,72-71.9,72s-71.9-32.2-71.9-72S60.3,28,100,28S171.9,60.2,171.9,100"/>
	</g>
	<g>
		<path class="st6" d="M60,39.5C42.5,49.7,30.8,68.6,30.8,90.3l13.1-9.4L60,39.5z"/>
	</g>
	<g>
		<path class="st6" d="M30.8,96.1c-0.9,0-1.8-0.2-2.6-0.6c-1.9-1-3.1-3-3.1-5.1C25,67.4,37.3,46,57.1,34.6c2.1-1.2,4.8-1,6.6,0.6
			c1.9,1.6,2.5,4.2,1.6,6.5L49.2,83c-0.4,1-1.1,1.9-2,2.6L34.1,95C33.1,95.7,31.9,96.1,30.8,96.1z M45.5,60.8C42,66,39.4,71.9,38,78
			l1.1-0.8L45.5,60.8z"/>
	</g>
	<g>
		<path class="st6" d="M140,39.5c17.5,10.1,29.3,29.1,29.3,50.8l-13.1-9.4L140,39.5z"/>
	</g>
	<g>
		<path class="st6" d="M169.2,96.1c-1.2,0-2.4-0.4-3.4-1.1l-13.1-9.4c-0.9-0.6-1.6-1.5-2-2.6l-16.2-41.3c-0.9-2.3-0.2-4.9,1.6-6.5
			c1.9-1.6,4.5-1.8,6.6-0.6C162.7,46,175,67.4,175,90.3c0,2.2-1.2,4.1-3.1,5.1C171,95.9,170.1,96.1,169.2,96.1z M160.9,77.2L162,78
			c-1.5-6.2-4-12-7.6-17.2L160.9,77.2z"/>
	</g>
	<g>
		<path class="st4" d="M77,92.7c0,4-3.2,7.2-7.2,7.2c-4,0-7.2-3.2-7.2-7.2c0-4,3.2-7.2,7.2-7.2C73.8,85.5,77,88.7,77,92.7"/>
	</g>
	<g>
		<path class="st4" d="M123.1,92.7c0,4,3.2,7.2,7.2,7.2c4,0,7.2-3.2,7.2-7.2c0-4-3.2-7.2-7.2-7.2C126.3,85.5,123.1,88.7,123.1,92.7"
			/>
	</g>
	<g>
		<path d="M67.7,112c-0.7,0-1.5,0-2.2,0l0,0c-0.1,0-10.2-0.2-15.3-4.9c-1.3-0.9-4.3-4.1-6.3-13.3c0-0.1,0-0.2,0-0.2
			c-0.3-2-0.7-6.9,1-11.3c0.5-1.4,3.2-7.3,14.3-8.3c0,0,0,0,0.1,0c2.2-0.2,7.4-0.6,11.3-0.5l0,0c0,0,7.6,0.3,12.5,1.4
			c1.2,0.2,9.4,1.7,12.4,6.9c0.8,1.2,3,6.1-0.9,16c-0.5,1.4-3.4,8.2-11.7,11.6l0,0C80.6,110.3,75.1,112,67.7,112z M49.5,92.6
			c1.7,7.9,4,9.8,4,9.8c0.2,0.1,0.3,0.2,0.4,0.3c2.9,2.8,9.9,3.4,11.6,3.4c0.8,0,1.4,0,2.1,0c7.7,0,12.3-2,12.7-2.1
			c0.1,0,0.1-0.1,0.2-0.1c6.2-2.6,8.2-7.7,8.5-8.3c0,0,0-0.1,0-0.1h0c3.1-7.8,1.4-10.9,1.4-10.9c-1.4-2.4-6.3-3.9-8.5-4.2
			c-0.1,0-0.1,0-0.2,0c-3.8-0.8-10.1-1.2-11.5-1.3c-3.6-0.1-8.5,0.3-10.5,0.4c0,0-0.1,0-0.1,0v0c-8,0.7-9.3,4.3-9.4,4.4
			c0,0.1,0,0.1-0.1,0.2C49.2,86.8,49.2,90.3,49.5,92.6z M91.8,96.7L91.8,96.7L91.8,96.7z"/>
	</g>
	<g>
		<path d="M132.3,112c-7.4,0-12.9-1.6-15.1-2.7l0,0c-8.3-3.4-11.2-10.2-11.7-11.6c-3.9-9.9-1.7-14.8-0.9-16c3-5.1,11.2-6.7,12.4-6.8
			c4.9-1.1,12.5-1.4,12.6-1.4c3.8-0.1,9,0.3,11.1,0.5c0.1,0,0.1,0,0.2,0c11.1,1,13.8,6.8,14.3,8.3c1.7,4.4,1.3,9.3,1,11.2l0,0
			c0,0.1,0,0.2,0,0.3c-1.9,9.3-5,12.4-6.3,13.3c-5.2,4.7-15.3,4.9-15.4,4.9C133.8,111.9,133.1,112,132.3,112z M119.6,104.1
			c0.4,0.2,5,2.1,12.7,2.1c0.7,0,1.4,0,2,0c1.8,0,8.8-0.7,11.7-3.4c0.2-0.2,0.3-0.3,0.5-0.4c0,0,0,0,0,0c0,0,2.3-1.9,3.9-9.7
			c0.3-2.4,0.3-5.8-0.7-8.4c0-0.1-0.1-0.2-0.1-0.3c-0.1-0.3-1.6-3.7-9.4-4.4v0c0,0-0.1,0-0.1,0c-2-0.2-6.9-0.5-10.5-0.4
			c-1.4,0.1-7.7,0.4-11.5,1.3c-0.1,0-0.1,0-0.2,0c-2.1,0.3-7,1.8-8.4,4.1c-0.1,0.1-1.7,3.2,1.4,11l0,0c0,0,0,0.1,0,0.1
			c0.2,0.6,2.2,5.7,8.5,8.3C119.5,104,119.5,104.1,119.6,104.1z"/>
	</g>
	<g>
		<path d="M109.7,83.4H90.3c-1.6,0-2.9-1.3-2.9-2.9c0-1.6,1.3-2.9,2.9-2.9h19.5c1.6,0,2.9,1.3,2.9,2.9
			C112.6,82.1,111.3,83.4,109.7,83.4z"/>
	</g>
	<g>
		<path class="st3" d="M128.8,124.5c0,15.9-12.9,28.8-28.8,28.8c-15.9,0-28.8-12.9-28.8-28.8"/>
	</g>
</g>
</svg>
