<?xml version="1.0" encoding="utf-8"?>
<!-- Generator: Adobe Illustrator 22.1.0, SVG Export Plug-In . SVG Version: 6.00 Build 0)  -->
<svg version="1.1" id="Camada_1" xmlns="http://www.w3.org/2000/svg" xmlns:xlink="http://www.w3.org/1999/xlink" x="0px" y="0px"
	 viewBox="0 0 200 200" style="enable-background:new 0 0 200 200;" xml:space="preserve">
<style type="text/css">
	.st0{fill:#7F5100;}
	.st1{fill:#5B3800;}
	.st2{fill:#FFDB64;}
	.st3{fill:#FFFFFF;}
	.st4{fill:#1A1A1A;}
	.st5{fill:#00CCFF;}
	.st6{fill:#CCCCCC;}
	.st7{fill:#E5AA63;}
	.st8{fill:#333333;}
	.st9{fill:#666666;}
	.st10{fill:#F94E63;}
	.st11{fill:#8899A6;}
	.st12{fill:#F4900C;}
	.st13{fill:#009B34;}
	.st14{fill:#FFDB59;}
	.st15{fill:#F59000;}
	.st16{fill:#FB4C60;}
	.st17{fill:#096EDF;}
	.st18{fill:#292F33;}
	.st19{fill:#F3D29E;}
	.st20{fill:#805100;}
	.st21{fill:#66757F;}
	.st22{fill:#138F3E;}
	.st23{fill:#CCD6DD;}
	.st24{fill:#AAB8C2;}
	.st25{fill:#F3D2A2;}
	.st26{fill-rule:evenodd;clip-rule:evenodd;fill:#292F33;}
	.st27{fill:#404040;}
	.st28{fill:#F2F2F2;}
	.st29{fill:#1771DD;}
	.st30{fill:#009B3A;}
	.st31{fill:#55ACEE;}
	.st32{fill:#999999;}
	.st33{fill:#EF9645;}
	.st34{fill:#FFA766;}
	.st35{fill:#99AAB5;}
	.st36{fill:#E1E8ED;}
	.st37{fill:#FFCC4D;}
	.st38{fill:#FFCC3E;}
	.st39{fill:#00CAFF;}
	.st40{fill:#E9CC39;}
	.st41{fill:#D6B736;}
	.st42{fill:#3AAA35;}
	.st43{fill:#95C11F;}
	.st44{fill:#E30613;}
	.st45{fill:#BE1622;}
	.st46{fill:#E6332A;}
	.st47{fill:#009FE3;}
	.st48{fill:#2791D8;}
	.st49{fill:#3BBFF2;}
	.st50{opacity:0.8;enable-background:new    ;}
	.st51{fill:#BDD7B8;}
	.st52{fill:#8E562E;}
	.st53{fill:#3558A0;}
	.st54{fill:#FAD220;}
	.st55{fill:#FF5000;}
	.st56{fill:#FF000E;}
	.st57{fill:#880082;}
	.st58{fill:#FDCB58;}
</style>
<g>
	<g>
		<g>
			<path class="st0" d="M66.3,174c-7.5,7.6-17.9,12.3-29.4,12.3c-6.1,0-11.9-1.3-17.1-3.7l0.4-0.6l-0.4,0.1v-34.4
				c0.4,0.5,0.8,1,1.3,1.5c4.9,4.9,12.8,5.2,18,0.7c0.7,1,1.4,2,2.2,3c4.8,6.3,10.5,11.8,17,16.3C60.8,171,63.5,172.6,66.3,174z"/>
		</g>
		<g>
			<path class="st0" d="M180,148v34.6c-5.2,2.4-11,3.7-17.1,3.7c-11.5,0-21.9-4.7-29.4-12.3c9.4-4.9,17.7-11.7,24.2-20
				c0.3-0.4,0.6-0.7,0.9-1.1c0.8-1,1.5-2.1,2.2-3.1c5.2,4.6,13.1,4.4,18.1-0.6C179.3,148.8,179.7,148.5,180,148z"/>
			<path class="st0" d="M129.9,145.1l-3.5,1.2c0.2-0.4,0.4-0.8,0.5-1.2H129.9z"/>
			<path class="st0" d="M158.6,152.9c-0.3,0.4-0.6,0.7-0.9,1.1l-7-8.9h2.2L158.6,152.9z"/>
		</g>
		<g>
			<path class="st0" d="M52.9,117.4l-10.2,27.3c0,0,0,0.1,0,0.1l-0.1,0.3c-0.6,1.5-1.6,2.9-2.8,4.1c-0.3,0.3-0.5,0.5-0.8,0.7
				c-5.2,4.4-13.1,4.2-18-0.7c-0.5-0.5-0.9-1-1.3-1.5V132c0.4-0.5,0.8-1,1.3-1.5c1.2-1.2,2.6-2.1,4.1-2.8l0.3-0.1c0,0,0.1,0,0.1-0.1
				l2.9-1.1L52.9,117.4z"/>
			<path class="st0" d="M79.4,108.6h-5.9c0-4.9-4-8.8-8.8-8.8c-4.9,0-8.8,4-8.8,8.8H50c0-8.1,6.6-14.7,14.7-14.7
				C72.8,93.9,79.4,100.4,79.4,108.6z"/>
			<path class="st0" d="M129.9,145.1l-3.5,1.2c0.2-0.4,0.4-0.8,0.5-1.2H129.9z"/>
			<path class="st0" d="M150,108.6h-5.9c0-4.9-4-8.8-8.8-8.8c-4.9,0-8.8,4-8.8,8.8h-5.9c0-8.1,6.6-14.7,14.7-14.7
				C143.4,93.9,150,100.4,150,108.6z"/>
			<path class="st0" d="M158.6,152.9c-0.3,0.4-0.6,0.7-0.9,1.1l-7-8.9h2.2L158.6,152.9z"/>
			<path class="st0" d="M180,131.7V148c-0.3,0.4-0.7,0.8-1.1,1.2c-5,5-12.9,5.2-18.1,0.6c-0.2-0.2-0.4-0.4-0.6-0.6
				c-1.2-1.2-2.1-2.6-2.8-4.1l-0.1-0.3c0,0,0-0.1-0.1-0.1l-10.1-27.3l24.2,9l3.1,1.2c0,0,0.1,0,0.1,0.1l0.3,0.1
				c1.5,0.6,2.9,1.6,4.1,2.8C179.3,130.9,179.7,131.3,180,131.7z"/>
		</g>
		<g>
			<path class="st2" d="M173.5,108.5c0-8.8-1.5-17.2-4.4-25.1h-27.2c-31.1,0-58.3-16.8-73-41.7C43.7,53.4,26.3,79,26.3,108.5
				c0,6.2,0.8,12.2,2.2,17.9l24.4-9.1l-10.2,27.3c0,0,0,0.1,0,0.1l-0.1,0.3c-0.6,1.5-1.6,2.9-2.8,4.1c-0.3,0.3-0.5,0.5-0.8,0.7
				c0.7,1,1.4,2,2.2,3c4.8,6.3,10.5,11.8,17,16.3c2.6,1.8,5.3,3.4,8,4.8c10.1,5.2,21.5,8.1,33.6,8.1s23.6-2.9,33.6-8.1
				c9.4-4.9,17.7-11.7,24.2-20l-7-8.9h2.2l5.7,7.8c0.8-1,1.5-2.1,2.2-3.1c-0.2-0.2-0.4-0.4-0.6-0.6c-1.2-1.2-2.1-2.6-2.8-4.1
				l-0.1-0.3c0,0,0-0.1-0.1-0.1l-10.1-27.3l24.2,9C172.7,120.7,173.5,114.7,173.5,108.5z M64.7,99.7c-4.9,0-8.8,4-8.8,8.8H50
				c0-8.1,6.6-14.7,14.7-14.7c8.1,0,14.7,6.6,14.7,14.7h-5.9C73.5,103.7,69.5,99.7,64.7,99.7z M126.5,146.3
				c-1.1,2.3-2.5,4.4-4.1,6.3C117,159,108.9,163,99.9,163c-4.9,0-9.5-1.2-13.5-3.3c-3.4-1.8-6.5-4.2-8.9-7.1
				c-1.9-2.2-3.5-4.8-4.7-7.5c-1.5-3.5-2.3-7.4-2.3-11.5h58.9c0,4.1-0.8,8-2.3,11.5h2.9L126.5,146.3z M144.2,108.6
				c0-4.9-4-8.8-8.8-8.8c-4.9,0-8.8,4-8.8,8.8h-5.9c0-8.1,6.6-14.7,14.7-14.7c8.1,0,14.7,6.6,14.7,14.7H144.2z"/>
			<path class="st2" d="M52.9,117.4l-10.2,27.3c0,0,0,0.1,0,0.1l-0.1,0.3c-0.6,1.5-1.6,2.9-2.8,4.1c-0.3,0.3-0.5,0.5-0.8,0.7
				c-4.8-7.1-8.4-15-10.5-23.5L52.9,117.4z"/>
			<path class="st2" d="M79.4,108.6h-5.9c0-4.9-4-8.8-8.8-8.8c-4.9,0-8.8,4-8.8,8.8H50c0-8.1,6.6-14.7,14.7-14.7
				C72.8,93.9,79.4,100.4,79.4,108.6z"/>
			<path class="st2" d="M129.9,145.1l-3.5,1.2c0.2-0.4,0.4-0.8,0.5-1.2H129.9z"/>
			<path class="st2" d="M150,108.6h-5.9c0-4.9-4-8.8-8.8-8.8c-4.9,0-8.8,4-8.8,8.8h-5.9c0-8.1,6.6-14.7,14.7-14.7
				C143.4,93.9,150,100.4,150,108.6z"/>
			<path class="st2" d="M158.6,152.9c-0.3,0.4-0.6,0.7-0.9,1.1l-7-8.9h2.2L158.6,152.9z"/>
			<path class="st2" d="M171.3,126.4c-2.1,8.5-5.7,16.4-10.5,23.4c-0.2-0.2-0.4-0.4-0.6-0.6c-1.2-1.2-2.1-2.6-2.8-4.1l-0.1-0.3
				c0,0,0-0.1-0.1-0.1l-10.1-27.3L171.3,126.4z"/>
		</g>
		<g>
			<path class="st0" d="M180,93.8v37.9c-0.3-0.4-0.7-0.8-1.1-1.2c-1.2-1.2-2.6-2.1-4.1-2.8l-0.3-0.1c-0.1,0-0.1,0-0.1-0.1l-3.1-1.2
				c1.4-5.7,2.2-11.7,2.2-17.9c0-8.8-1.5-17.2-4.4-25.1h-27.2c-31.1,0-58.3-16.8-73-41.7C43.7,53.4,26.3,79,26.3,108.5
				c0,6.2,0.8,12.2,2.2,17.9l-2.9,1.1c0,0-0.1,0-0.1,0.1l-0.3,0.1c-1.5,0.6-2.9,1.6-4.1,2.8c-0.5,0.5-0.9,1-1.3,1.5V93.8
				c0-44.2,35.9-80.1,80.1-80.1C144.1,13.7,180,49.6,180,93.8z"/>
		</g>
	</g>
	<g>
		<path class="st3" d="M129.3,133.6c0,4.1-0.8,8-2.3,11.5c-0.2,0.4-0.4,0.8-0.5,1.2c-1.1,2.3-2.5,4.4-4.1,6.3
			C117,159,108.9,163,99.9,163c-4.9,0-9.5-1.2-13.5-3.3c-3.4-1.8-6.5-4.2-8.9-7.1c-1.9-2.2-3.5-4.8-4.7-7.5
			c-1.5-3.5-2.3-7.4-2.3-11.5H129.3z"/>
	</g>
	<g>
		<g>
			<path class="st4" d="M79.4,108.6h-5.9c0-4.9-4-8.8-8.8-8.8c-4.9,0-8.8,4-8.8,8.8H50c0-8.1,6.6-14.7,14.7-14.7
				C72.8,93.9,79.4,100.4,79.4,108.6z"/>
		</g>
		<g>
			<path class="st4" d="M150,108.6h-5.9c0-4.9-4-8.8-8.8-8.8c-4.9,0-8.8,4-8.8,8.8h-5.9c0-8.1,6.6-14.7,14.7-14.7
				C143.4,93.9,150,100.4,150,108.6z"/>
		</g>
	</g>
	<g>
		<path class="st5" d="M52.9,117.4l-10.2,27.3c0,0,0,0.1,0,0.1l-0.1,0.3c-0.6,1.5-1.6,2.9-2.8,4.1c-0.3,0.3-0.5,0.5-0.8,0.7
			c-5.2,4.4-13.1,4.2-18-0.7c-0.5-0.5-0.9-1-1.3-1.5c-3.4-4.7-3.4-11.1,0-15.7c0.4-0.5,0.8-1,1.3-1.5c1.2-1.2,2.6-2.1,4.1-2.8
			l0.3-0.1c0,0,0.1,0,0.1-0.1l2.9-1.1L52.9,117.4z"/>
	</g>
	<g>
		<path class="st5" d="M180,148c-0.3,0.4-0.7,0.8-1.1,1.2c-5,5-12.9,5.2-18.1,0.6c-0.2-0.2-0.4-0.4-0.6-0.6
			c-1.2-1.2-2.1-2.6-2.8-4.1l-0.1-0.3c0,0,0-0.1-0.1-0.1l-10.1-27.3l24.2,9l3.1,1.2c0,0,0.1,0,0.1,0.1l0.3,0.1
			c1.5,0.6,2.9,1.6,4.1,2.8c0.4,0.4,0.8,0.8,1.1,1.2C183.7,136.5,183.7,143.2,180,148z"/>
	</g>
</g>
</svg>
