<?xml version="1.0" encoding="utf-8"?>
<!-- Generator: Adobe Illustrator 22.1.0, SVG Export Plug-In . SVG Version: 6.00 Build 0)  -->
<svg version="1.1" id="Camada_1" xmlns="http://www.w3.org/2000/svg" xmlns:xlink="http://www.w3.org/1999/xlink" x="0px" y="0px"
	 viewBox="0 0 200 200" style="enable-background:new 0 0 200 200;" xml:space="preserve">
<style type="text/css">
	.st0{fill:#7F5100;}
	.st1{fill:#5B3800;}
	.st2{fill:#FFDB64;}
	.st3{fill:#FFFFFF;}
	.st4{fill:#1A1A1A;}
	.st5{fill:#00CCFF;}
	.st6{fill:#CCCCCC;}
	.st7{fill:#E5AA63;}
	.st8{fill:#333333;}
	.st9{fill:#666666;}
	.st10{fill:#F94E63;}
	.st11{fill:#8899A6;}
	.st12{fill:#F4900C;}
	.st13{fill:#009B34;}
	.st14{fill:#FFDB59;}
	.st15{fill:#F59000;}
	.st16{fill:#FB4C60;}
	.st17{fill:#096EDF;}
	.st18{fill:#292F33;}
	.st19{fill:#F3D29E;}
	.st20{fill:#805100;}
	.st21{fill:#66757F;}
	.st22{fill:#138F3E;}
	.st23{fill:#CCD6DD;}
	.st24{fill:#AAB8C2;}
	.st25{fill:#F3D2A2;}
	.st26{fill-rule:evenodd;clip-rule:evenodd;fill:#292F33;}
	.st27{fill:#404040;}
	.st28{fill:#F2F2F2;}
	.st29{fill:#1771DD;}
	.st30{fill:#009B3A;}
	.st31{fill:#55ACEE;}
	.st32{fill:#999999;}
	.st33{fill:#EF9645;}
	.st34{fill:#FFA766;}
	.st35{fill:#99AAB5;}
	.st36{fill:#E1E8ED;}
	.st37{fill:#FFCC4D;}
	.st38{fill:#FFCC3E;}
	.st39{fill:#00CAFF;}
	.st40{fill:#E9CC39;}
	.st41{fill:#D6B736;}
	.st42{fill:#3AAA35;}
	.st43{fill:#95C11F;}
	.st44{fill:#E30613;}
	.st45{fill:#BE1622;}
	.st46{fill:#E6332A;}
	.st47{fill:#009FE3;}
	.st48{fill:#2791D8;}
	.st49{fill:#3BBFF2;}
	.st50{opacity:0.8;enable-background:new    ;}
	.st51{fill:#BDD7B8;}
	.st52{fill:#8E562E;}
	.st53{fill:#3558A0;}
	.st54{fill:#FAD220;}
	.st55{fill:#FF5000;}
	.st56{fill:#FF000E;}
	.st57{fill:#880082;}
	.st58{fill:#FDCB58;}
</style>
<g>
	<g>
		<g>
			<path class="st1" d="M136.8,34.4c0,0.1-0.1,0.2-0.1,0.2c0,0,0,0.1-0.1,0.1l-0.7-1.3L136.8,34.4z"/>
		</g>
		<g>
			<path class="st2" d="M136.7,34.6c0,0,0,0.1-0.1,0.1l-0.7-1.3L136.7,34.6z"/>
			<path class="st2" d="M175.1,114.2v13.1c0,32.9-26.9,59.8-59.8,59.8H85.5c-32.9,0-59.8-26.9-59.8-59.8V97.4c0-0.9,0-1.8,0.1-2.7
				c0.2-3.7,0.7-7.3,1.5-10.8c6.2,1.6,12.7,2.7,19.3,3c6,0.3,12.1,0,18.3-0.8c32-4.6,58-24.5,71.7-51.2l24.9,51.4l12.7,26.2
				L175.1,114.2z"/>
		</g>
		<g>
			<path class="st1" d="M181.7,83.4c0,0,0,0.9,0,1.4v23.3c0,3.3-2.7,6-6,6h-0.7l-1-1.9l-12.7-26.2l-24.9-51.4c0,0,0.1-0.1,0.1-0.1
				c0-0.1,0.1-0.1,0.1-0.2l-0.9-1l0.7,1.3C122.9,61.5,96.9,81.4,64.9,86c-6.2,0.9-12.3,1.2-18.3,0.8c-6.6-0.3-13.1-1.3-19.3-3
				c-0.8,3.5-1.3,7.1-1.5,10.8c0,0.9-0.1,1.8-0.1,2.7v16.8h-1.5c-3.3,0-6-2.7-6-6V95.1l0,0c0-45.4,36.8-82.1,82.2-82.1
				C141.8,13,176.1,43.6,181.7,83.4z"/>
			<path class="st1" d="M136.8,34.4c0,0.1-0.1,0.2-0.1,0.2c0,0,0,0.1-0.1,0.1l-0.7-1.3L136.8,34.4z"/>
		</g>
		<g>
			<g>
				<path class="st1" d="M136.8,34.4c0,0.1-0.1,0.2-0.1,0.2c0,0,0,0.1-0.1,0.1l-0.7-1.3L136.8,34.4z"/>
			</g>
		</g>
	</g>
	<g>
		<path class="st3" d="M129.9,137.7c0,16.5-13.4,29.9-29.9,29.9s-29.9-13.4-29.9-29.9"/>
	</g>
	<g>
		<circle class="st4" cx="64.2" cy="106.3" r="7.5"/>
	</g>
	<g>
		<circle class="st4" cx="135.9" cy="106.3" r="7.5"/>
	</g>
</g>
</svg>
