<?xml version="1.0" encoding="utf-8"?>
<!-- Generator: Adobe Illustrator 22.1.0, SVG Export Plug-In . SVG Version: 6.00 Build 0)  -->
<svg version="1.1" id="Camada_1" xmlns="http://www.w3.org/2000/svg" xmlns:xlink="http://www.w3.org/1999/xlink" x="0px" y="0px"
	 viewBox="0 0 200 200" style="enable-background:new 0 0 200 200;" xml:space="preserve">
<style type="text/css">
	.st0{fill:#7F5100;}
	.st1{fill:#5B3800;}
	.st2{fill:#FFDB64;}
	.st3{fill:#FFFFFF;}
	.st4{fill:#1A1A1A;}
	.st5{fill:#00CCFF;}
	.st6{fill:#CCCCCC;}
	.st7{fill:#E5AA63;}
	.st8{fill:#333333;}
	.st9{fill:#666666;}
	.st10{fill:#F94E63;}
	.st11{fill:#8899A6;}
	.st12{fill:#F4900C;}
	.st13{fill:#009B34;}
	.st14{fill:#FFDB59;}
	.st15{fill:#F59000;}
	.st16{fill:#FB4C60;}
	.st17{fill:#096EDF;}
	.st18{fill:#292F33;}
	.st19{fill:#F3D29E;}
	.st20{fill:#805100;}
	.st21{fill:#66757F;}
	.st22{fill:#138F3E;}
	.st23{fill:#CCD6DD;}
	.st24{fill:#AAB8C2;}
	.st25{fill:#F3D2A2;}
	.st26{fill-rule:evenodd;clip-rule:evenodd;fill:#292F33;}
	.st27{fill:#404040;}
	.st28{fill:#F2F2F2;}
	.st29{fill:#1771DD;}
	.st30{fill:#009B3A;}
	.st31{fill:#55ACEE;}
	.st32{fill:#999999;}
	.st33{fill:#EF9645;}
	.st34{fill:#FFA766;}
	.st35{fill:#99AAB5;}
	.st36{fill:#E1E8ED;}
	.st37{fill:#FFCC4D;}
	.st38{fill:#FFCC3E;}
	.st39{fill:#00CAFF;}
	.st40{fill:#E9CC39;}
	.st41{fill:#D6B736;}
	.st42{fill:#3AAA35;}
	.st43{fill:#95C11F;}
	.st44{fill:#E30613;}
	.st45{fill:#BE1622;}
	.st46{fill:#E6332A;}
	.st47{fill:#009FE3;}
	.st48{fill:#2791D8;}
	.st49{fill:#3BBFF2;}
	.st50{opacity:0.8;enable-background:new    ;}
	.st51{fill:#BDD7B8;}
	.st52{fill:#8E562E;}
	.st53{fill:#3558A0;}
	.st54{fill:#FAD220;}
	.st55{fill:#FF5000;}
	.st56{fill:#FF000E;}
	.st57{fill:#880082;}
	.st58{fill:#FDCB58;}
</style>
<g>
	<g>
		<g>
			<path class="st4" d="M180.9,90.9v16.7c0,3.3-2.7,5.9-5.9,5.9h-1.1c0.3-2.6,0.4-5.2,0.4-7.8c0-5.1-0.5-10.1-1.5-14.9
				c-0.1-0.7-0.3-1.4-0.4-2.1c-4.9-20.9-18.6-38.5-37.1-48.4C125,46.7,112.9,50.4,100,50.4s-25-3.7-35.2-10.1
				c-18.5,10-32.2,27.5-37.1,48.4c-0.2,0.7-0.3,1.4-0.4,2.1c-1,4.8-1.5,9.8-1.5,14.9c0,2.6,0.1,5.2,0.4,7.8h-1.1
				c-3.3,0-5.9-2.7-5.9-5.9V90.9c0-0.2,0-0.5,0-0.7C19.5,45.8,55.6,10,100,10s80.5,35.8,80.9,80.2C180.9,90.4,180.9,90.6,180.9,90.9
				z"/>
		</g>
		<g>
			<path class="st4" d="M180.9,90.2v0.7C180.9,90.6,180.9,90.4,180.9,90.2L180.9,90.2z"/>
		</g>
		<g>
			<path class="st4" d="M19.1,90.2c0,0.2,0,0.5,0,0.7L19.1,90.2L19.1,90.2z"/>
		</g>
		<g>
			<path class="st2" d="M172.8,90.9c-0.1-0.7-0.3-1.4-0.4-2.1c-4.9-20.9-18.6-38.5-37.1-48.4C125,46.7,112.9,50.4,100,50.4
				s-25-3.7-35.2-10.1c-18.5,10-32.2,27.5-37.1,48.4c-0.2,0.7-0.3,1.4-0.4,2.1c-1,4.8-1.5,9.8-1.5,14.9c0,2.6,0.1,5.2,0.4,7.8
				c2.3,21.7,13.9,40.7,30.8,52.7v-39c0-5.2,4.3-9.6,9.5-9.6h67c5.2,0,9.5,4.3,9.5,9.6v39c16.9-12,28.6-31,30.8-52.7
				c0.3-2.6,0.4-5.2,0.4-7.8C174.3,100.6,173.8,95.7,172.8,90.9z M64.5,107.3c-4.1,0-7.4-3.3-7.4-7.4s3.3-7.4,7.4-7.4
				c4.1,0,7.4,3.3,7.4,7.4S68.6,107.3,64.5,107.3z M135.8,107.3c-4.1,0-7.4-3.3-7.4-7.4s3.3-7.4,7.4-7.4c4.1,0,7.4,3.3,7.4,7.4
				S139.9,107.3,135.8,107.3z"/>
			<circle class="st2" cx="64.5" cy="99.8" r="7.4"/>
			<circle class="st2" cx="135.8" cy="99.8" r="7.4"/>
			<polygon class="st2" points="112.7,149.7 121,154.5 118,159.6 100.8,149.7 99.6,149.7 82.4,159.6 79.4,154.5 87.7,149.7 
				94.2,145.9 79.4,137.3 82.4,132.2 100.2,142.5 118,132.2 121,137.3 106.1,145.9 			"/>
		</g>
		<g>
			<polygon class="st4" points="106.1,145.9 112.7,149.7 87.7,149.7 94.2,145.9 79.4,137.3 82.4,132.2 100.2,142.5 118,132.2 
				121,137.3 			"/>
		</g>
		<g>
			<path class="st4" d="M133.5,117.7h-67c-5.2,0-9.5,4.3-9.5,9.6v40.4c0,2.4,0.9,4.7,2.5,6.1C70.8,184,84.8,190,100,190
				s29.2-6,40.5-16.3c1.6-1.4,2.5-3.7,2.5-6.1v-40.4C143.1,122,138.8,117.7,133.5,117.7z M118,159.6l-17.2-9.9h-1.2l-17.2,9.9
				l-3-5.1l8.3-4.8l6.6-3.8l-14.8-8.6l3-5.1l17.8,10.3l17.8-10.3l3,5.1l-14.8,8.6l6.6,3.8l8.3,4.8L118,159.6z"/>
			<polygon class="st4" points="112.7,149.7 121,154.5 118,159.6 100.8,149.7 99.6,149.7 82.4,159.6 79.4,154.5 87.7,149.7 
				94.2,145.9 79.4,137.3 82.4,132.2 100.2,142.5 118,132.2 121,137.3 106.1,145.9 			"/>
		</g>
	</g>
	<g>
		<circle class="st4" cx="64.5" cy="99.8" r="7.4"/>
	</g>
	<g>
		<circle class="st4" cx="135.8" cy="99.8" r="7.4"/>
	</g>
	<polygon class="st2" points="112.7,149.7 121,154.5 118,159.6 100.8,149.7 100.2,149.3 99.6,149.7 82.4,159.6 79.4,154.5 
		87.7,149.7 94.2,145.9 79.4,137.3 82.4,132.2 100.2,142.5 118,132.2 121,137.3 106.1,145.9 	"/>
</g>
</svg>
