<?xml version="1.0" encoding="utf-8"?>
<!-- Generator: Adobe Illustrator 22.1.0, SVG Export Plug-In . SVG Version: 6.00 Build 0)  -->
<svg version="1.1" id="Camada_1" xmlns="http://www.w3.org/2000/svg" xmlns:xlink="http://www.w3.org/1999/xlink" x="0px" y="0px"
	 viewBox="0 0 200 200" style="enable-background:new 0 0 200 200;" xml:space="preserve">
<style type="text/css">
	.st0{fill:#7F5100;}
	.st1{fill:#5B3800;}
	.st2{fill:#FFDB64;}
	.st3{fill:#FFFFFF;}
	.st4{fill:#1A1A1A;}
	.st5{fill:#00CCFF;}
	.st6{fill:#CCCCCC;}
	.st7{fill:#E5AA63;}
	.st8{fill:#333333;}
	.st9{fill:#666666;}
	.st10{fill:#F94E63;}
	.st11{fill:#8899A6;}
	.st12{fill:#F4900C;}
	.st13{fill:#009B34;}
	.st14{fill:#FFDB59;}
	.st15{fill:#F59000;}
	.st16{fill:#FB4C60;}
	.st17{fill:#096EDF;}
	.st18{fill:#292F33;}
	.st19{fill:#F3D29E;}
	.st20{fill:#805100;}
	.st21{fill:#66757F;}
	.st22{fill:#138F3E;}
	.st23{fill:#CCD6DD;}
	.st24{fill:#AAB8C2;}
	.st25{fill:#F3D2A2;}
	.st26{fill-rule:evenodd;clip-rule:evenodd;fill:#292F33;}
	.st27{fill:#404040;}
	.st28{fill:#F2F2F2;}
	.st29{fill:#1771DD;}
	.st30{fill:#009B3A;}
	.st31{fill:#55ACEE;}
	.st32{fill:#999999;}
	.st33{fill:#EF9645;}
	.st34{fill:#FFA766;}
	.st35{fill:#99AAB5;}
	.st36{fill:#E1E8ED;}
	.st37{fill:#FFCC4D;}
	.st38{fill:#FFCC3E;}
	.st39{fill:#00CAFF;}
	.st40{fill:#E9CC39;}
	.st41{fill:#D6B736;}
	.st42{fill:#3AAA35;}
	.st43{fill:#95C11F;}
	.st44{fill:#E30613;}
	.st45{fill:#BE1622;}
	.st46{fill:#E6332A;}
	.st47{fill:#009FE3;}
	.st48{fill:#2791D8;}
	.st49{fill:#3BBFF2;}
	.st50{opacity:0.8;enable-background:new    ;}
	.st51{fill:#BDD7B8;}
	.st52{fill:#8E562E;}
	.st53{fill:#3558A0;}
	.st54{fill:#FAD220;}
	.st55{fill:#FF5000;}
	.st56{fill:#FF000E;}
	.st57{fill:#880082;}
	.st58{fill:#FDCB58;}
</style>
<g>
	<g>
		<g>
			<path class="st0" d="M130,145.1l-3.5,1.2c0.2-0.4,0.4-0.8,0.5-1.2H130z"/>
		</g>
		<g>
			<circle class="st0" cx="64.7" cy="102.7" r="7.4"/>
			<path class="st0" d="M130,145.1l-3.5,1.2c0.2-0.4,0.4-0.8,0.5-1.2H130z"/>
			<circle class="st0" cx="135.3" cy="102.7" r="7.4"/>
		</g>
		<g>
			<path class="st2" d="M169.2,83.5H142c-31.1,0-58.3-16.8-73-41.7c-25.2,11.7-42.6,37.2-42.6,66.8c0,16.7,5.5,32.1,14.9,44.4
				c4.8,6.3,10.5,11.8,17,16.3c2.6,1.8,5.3,3.4,8,4.8c10.1,5.2,21.5,8.1,33.6,8.1s23.6-2.9,33.6-8.1c9.4-4.9,17.7-11.7,24.2-20
				c0.3-0.4,0.6-0.7,0.9-1.1c9.3-12.3,14.9-27.7,14.9-44.4C173.6,99.7,172.1,91.3,169.2,83.5z M64.7,110c-4.1,0-7.4-3.3-7.4-7.4
				c0-4.1,3.3-7.4,7.4-7.4s7.4,3.3,7.4,7.4C72,106.7,68.7,110,64.7,110z M126.6,146.3c-1.1,2.3-2.5,4.4-4.1,6.3
				C117.1,159,109,163,100,163c-4.9,0-9.5-1.2-13.5-3.3h0c-3.4-1.8-6.5-4.2-8.9-7.1c-1.9-2.2-3.5-4.8-4.7-7.5
				c-1.5-3.5-2.3-7.4-2.3-11.5h58.9c0,4.1-0.8,8-2.3,11.5h2.9L126.6,146.3z M135.3,110c-4.1,0-7.4-3.3-7.4-7.4
				c0-4.1,3.3-7.4,7.4-7.4c4.1,0,7.4,3.3,7.4,7.4C142.7,106.7,139.4,110,135.3,110z"/>
			<circle class="st2" cx="64.7" cy="102.7" r="7.4"/>
			<circle class="st2" cx="135.3" cy="102.7" r="7.4"/>
			<path class="st2" d="M130,145.1l-3.5,1.2c0.2-0.4,0.4-0.8,0.5-1.2H130z"/>
		</g>
		<g>
			<path class="st0" d="M180.1,93.8v88.8c-5.2,2.4-11,3.7-17.1,3.7c-11.5,0-21.9-4.7-29.4-12.3c9.4-4.9,17.7-11.7,24.2-20
				c0.3-0.4,0.6-0.7,0.9-1.1c9.3-12.3,14.9-27.7,14.9-44.4c0-8.8-1.5-17.2-4.4-25.1H142c-31.1,0-58.3-16.8-73-41.7
				c-25.2,11.7-42.6,37.2-42.6,66.8c0,16.7,5.5,32.1,14.9,44.4c4.8,6.3,10.5,11.8,17,16.3c2.6,1.8,5.3,3.4,8,4.8
				c-7.5,7.6-17.9,12.3-29.3,12.3c-6.1,0-11.9-1.3-17.1-3.7l0.4-0.6l-0.4,0.1V93.8c0-44.2,35.9-80.1,80.1-80.1
				S180.1,49.6,180.1,93.8z"/>
		</g>
	</g>
	<g>
		<path class="st3" d="M129.4,133.6c0,4.1-0.8,8-2.3,11.5c-0.2,0.4-0.4,0.8-0.5,1.2c-1.1,2.3-2.5,4.4-4.1,6.3
			C117.1,159,109,163,100,163c-4.9,0-9.5-1.2-13.5-3.3h0c-3.4-1.8-6.5-4.2-8.9-7.1c-1.9-2.2-3.5-4.8-4.7-7.5
			c-1.5-3.5-2.3-7.4-2.3-11.5H129.4z"/>
	</g>
	<g>
		<circle class="st4" cx="64.7" cy="102.7" r="7.4"/>
	</g>
	<g>
		<circle class="st4" cx="135.3" cy="102.7" r="7.4"/>
	</g>
</g>
</svg>
