<?xml version="1.0" encoding="utf-8"?>
<!-- Generator: Adobe Illustrator 22.1.0, SVG Export Plug-In . SVG Version: 6.00 Build 0)  -->
<svg version="1.1" id="Camada_1" xmlns="http://www.w3.org/2000/svg" xmlns:xlink="http://www.w3.org/1999/xlink" x="0px" y="0px"
	 viewBox="0 0 200 200" style="enable-background:new 0 0 200 200;" xml:space="preserve">
<style type="text/css">
	.st0{fill:#7F5100;}
	.st1{fill:#5B3800;}
	.st2{fill:#FFDB64;}
	.st3{fill:#FFFFFF;}
	.st4{fill:#1A1A1A;}
	.st5{fill:#00CCFF;}
	.st6{fill:#CCCCCC;}
	.st7{fill:#E5AA63;}
	.st8{fill:#333333;}
	.st9{fill:#666666;}
	.st10{fill:#F94E63;}
	.st11{fill:#8899A6;}
	.st12{fill:#F4900C;}
	.st13{fill:#009B34;}
	.st14{fill:#FFDB59;}
	.st15{fill:#F59000;}
	.st16{fill:#FB4C60;}
	.st17{fill:#096EDF;}
	.st18{fill:#292F33;}
	.st19{fill:#F3D29E;}
	.st20{fill:#805100;}
	.st21{fill:#66757F;}
	.st22{fill:#138F3E;}
	.st23{fill:#CCD6DD;}
	.st24{fill:#AAB8C2;}
	.st25{fill:#F3D2A2;}
	.st26{fill-rule:evenodd;clip-rule:evenodd;fill:#292F33;}
	.st27{fill:#404040;}
	.st28{fill:#F2F2F2;}
	.st29{fill:#1771DD;}
	.st30{fill:#009B3A;}
	.st31{fill:#55ACEE;}
	.st32{fill:#999999;}
	.st33{fill:#EF9645;}
	.st34{fill:#FFA766;}
	.st35{fill:#99AAB5;}
	.st36{fill:#E1E8ED;}
	.st37{fill:#FFCC4D;}
	.st38{fill:#FFCC3E;}
	.st39{fill:#00CAFF;}
	.st40{fill:#E9CC39;}
	.st41{fill:#D6B736;}
	.st42{fill:#3AAA35;}
	.st43{fill:#95C11F;}
	.st44{fill:#E30613;}
	.st45{fill:#BE1622;}
	.st46{fill:#E6332A;}
	.st47{fill:#009FE3;}
	.st48{fill:#2791D8;}
	.st49{fill:#3BBFF2;}
	.st50{opacity:0.8;enable-background:new    ;}
	.st51{fill:#BDD7B8;}
	.st52{fill:#8E562E;}
	.st53{fill:#3558A0;}
	.st54{fill:#FAD220;}
	.st55{fill:#FF5000;}
	.st56{fill:#FF000E;}
	.st57{fill:#880082;}
	.st58{fill:#FDCB58;}
</style>
<g>
	<g>
		<g>
			<path class="st4" d="M180.9,90.9v16.7c0,3.3-2.7,5.9-5.9,5.9h-1.1c0.3-2.6,0.4-5.2,0.4-7.8c0-5.1-0.5-10.1-1.5-14.9
				c-0.1-0.7-0.3-1.4-0.4-2.1c-4.9-20.9-18.6-38.5-37.1-48.4C125,46.7,112.9,50.4,100,50.4c-12.9,0-25-3.7-35.2-10.1
				c-18.5,10-32.2,27.5-37.1,48.4c-0.2,0.7-0.3,1.4-0.4,2.1c-1,4.8-1.5,9.8-1.5,14.9c0,2.6,0.1,5.2,0.4,7.8h-1.1
				c-3.3,0-5.9-2.7-5.9-5.9V90.9c0-0.2,0-0.5,0-0.7C19.5,45.8,55.6,10,100,10c44.5,0,80.5,35.8,80.9,80.2
				C180.9,90.4,180.9,90.6,180.9,90.9z"/>
			<path class="st4" d="M143.2,85c0,2.4-1.2,4.6-3,5.9h-8.9c-1.8-1.3-3-3.5-3-5.9c0-4.1,3.3-7.4,7.4-7.4
				C139.8,77.5,143.2,80.9,143.2,85z"/>
			<path class="st4" d="M155,85.9c-0.1,1.7-0.4,3.4-0.9,4.9h-1.5v-5.3L155,85.9z"/>
		</g>
		<g>
			<path class="st4" d="M155,85.9c-0.1,1.7-0.4,3.4-0.9,4.9c-0.4,1.2-0.9,2.3-1.5,3.4v-8.8L155,85.9z"/>
			<path class="st4" d="M180.9,90.2v0.7C180.9,90.6,180.9,90.4,180.9,90.2L180.9,90.2z"/>
		</g>
		<g>
			<path class="st4" d="M19.1,90.2c0,0.2,0,0.5,0,0.7L19.1,90.2L19.1,90.2z"/>
			<path class="st4" d="M47.4,90.9V94c-0.5-1-1-2-1.3-3.1H47.4z"/>
		</g>
		<g>
			<path class="st2" d="M172.8,90.9c-0.1-0.7-0.3-1.4-0.4-2.1c-4.9-20.9-18.6-38.5-37.1-48.4C125,46.7,112.9,50.4,100,50.4
				c-12.9,0-25-3.7-35.2-10.1c-18.5,10-32.2,27.5-37.1,48.4c-0.2,0.7-0.3,1.4-0.4,2.1c-1,4.8-1.5,9.8-1.5,14.9
				c0,2.6,0.1,5.2,0.4,7.8c2.3,21.7,13.9,40.7,30.8,52.7v-39c0-5.2,4.3-9.6,9.6-9.6h67c5.3,0,9.6,4.3,9.6,9.6v39
				c16.9-12,28.5-31,30.8-52.7c0.3-2.6,0.4-5.2,0.4-7.8C174.3,100.6,173.8,95.7,172.8,90.9z M82.8,90.9c-2.5,7.8-9.8,13.4-18.4,13.4
				c-7.4,0-13.8-4.2-17.1-10.3c-0.5-1-1-2-1.3-3.1c-0.5-1.6-0.8-3.2-0.9-5c0-0.3,0-0.6,0-1c0-10.7,8.7-19.3,19.3-19.3
				c10.7,0,19.3,8.7,19.3,19.3C83.7,87,83.4,89,82.8,90.9z M155,85.9c-0.1,1.7-0.4,3.4-0.9,4.9c-0.4,1.2-0.9,2.3-1.5,3.4
				c-3.3,6-9.6,10-16.9,10c-8.6,0-15.9-5.6-18.4-13.4c-0.6-1.9-0.9-3.8-0.9-5.9c0-10.7,8.7-19.3,19.3-19.3
				c10.7,0,19.3,8.7,19.3,19.3C155.1,85.3,155,85.6,155,85.9z"/>
			<path class="st2" d="M47.4,90.9V94c-0.5-1-1-2-1.3-3.1H47.4z"/>
			<path class="st2" d="M108.4,148.9c0,0.3,0,0.5-0.1,0.8c-0.4,3.7-3.6,6.6-7.4,6.6c-3.8,0-7-2.9-7.4-6.6c0-0.3-0.1-0.5-0.1-0.8
				c0-4.1,3.3-7.4,7.4-7.4S108.4,144.8,108.4,148.9z"/>
			<path class="st2" d="M143.2,85c0,2.4-1.2,4.6-3,5.9c-1.2,1-2.8,1.5-4.5,1.5c-1.7,0-3.2-0.6-4.5-1.5c-1.8-1.3-3-3.5-3-5.9
				c0-4.1,3.3-7.4,7.4-7.4C139.8,77.5,143.2,80.9,143.2,85z"/>
			<path class="st2" d="M155,85.9c-0.1,1.7-0.4,3.4-0.9,4.9c-0.4,1.2-0.9,2.3-1.5,3.4v-8.8L155,85.9z"/>
		</g>
		<g>
			<path class="st4" d="M133.5,117.7h-67c-5.3,0-9.6,4.3-9.6,9.6v40.4c0,2.4,0.9,4.7,2.5,6.1C70.8,184,84.8,190,100,190
				c15.2,0,29.2-6,40.5-16.3c1.6-1.4,2.5-3.7,2.5-6.1v-40.4C143.1,122,138.8,117.7,133.5,117.7z M93.6,148.9c0-4.1,3.3-7.4,7.4-7.4
				s7.4,3.3,7.4,7.4c0,0.3,0,0.5-0.1,0.8c-0.4,3.7-3.6,6.6-7.4,6.6c-3.8,0-7-2.9-7.4-6.6C93.6,149.4,93.6,149.1,93.6,148.9z"/>
			<path class="st4" d="M108.4,148.9c0,0.3,0,0.5-0.1,0.8H93.6c0-0.3-0.1-0.5-0.1-0.8c0-4.1,3.3-7.4,7.4-7.4
				S108.4,144.8,108.4,148.9z"/>
		</g>
		<g>
			<path class="st4" d="M108.4,148.9c0,0.3,0,0.5-0.1,0.8c-0.4,3.7-3.6,6.6-7.4,6.6c-3.8,0-7-2.9-7.4-6.6c0-0.3-0.1-0.5-0.1-0.8
				c0-4.1,3.3-7.4,7.4-7.4S108.4,144.8,108.4,148.9z"/>
		</g>
	</g>
	<g>
		<g>
			<path class="st3" d="M46,90.9c0.3,1.1,0.8,2.1,1.3,3.1v-3.1H46z"/>
			<path class="st3" d="M64.4,65.6c-10.6,0-19.3,8.7-19.3,19.3c0,0.3,0,0.6,0,1c0.1,1.7,0.4,3.4,0.9,5h1.3V94
				c3.3,6.1,9.7,10.3,17.1,10.3c8.6,0,15.9-5.6,18.4-13.4c0.6-1.9,0.9-3.8,0.9-5.9C83.7,74.3,75.1,65.6,64.4,65.6z M68.9,90.9
				c-1.2,1-2.8,1.5-4.5,1.5c-1.7,0-3.2-0.6-4.5-1.5c-1.8-1.3-3-3.5-3-5.9c0-4.1,3.3-7.4,7.4-7.4c4.1,0,7.4,3.3,7.4,7.4
				C71.9,87.4,70.7,89.5,68.9,90.9z"/>
			<path class="st4" d="M71.9,85c0,2.4-1.2,4.6-3,5.9c-1.2,1-2.8,1.5-4.5,1.5c-1.7,0-3.2-0.6-4.5-1.5c-1.8-1.3-3-3.5-3-5.9
				c0-4.1,3.3-7.4,7.4-7.4C68.5,77.5,71.9,80.9,71.9,85z"/>
		</g>
	</g>
	<g>
		<g>
			<path class="st3" d="M135.7,65.6c-10.6,0-19.3,8.7-19.3,19.3c0,2.1,0.3,4.1,0.9,5.9c2.5,7.8,9.8,13.4,18.4,13.4
				c7.3,0,13.6-4,16.9-10v-8.8l2.4,0.4c0-0.3,0-0.6,0-1C155.1,74.3,146.4,65.6,135.7,65.6z M135.7,92.4c-1.7,0-3.2-0.6-4.5-1.5
				c-1.8-1.3-3-3.5-3-5.9c0-4.1,3.3-7.4,7.4-7.4c4.1,0,7.4,3.3,7.4,7.4c0,2.4-1.2,4.6-3,5.9C139,91.8,137.4,92.4,135.7,92.4z"/>
			<path class="st4" d="M143.2,85c0,2.4-1.2,4.6-3,5.9c-1.2,1-2.8,1.5-4.5,1.5c-1.7,0-3.2-0.6-4.5-1.5c-1.8-1.3-3-3.5-3-5.9
				c0-4.1,3.3-7.4,7.4-7.4C139.8,77.5,143.2,80.9,143.2,85z"/>
		</g>
		<g>
			<path class="st3" d="M152.6,85.5v8.8c0.6-1.1,1.1-2.2,1.5-3.4c0.5-1.6,0.8-3.2,0.9-4.9L152.6,85.5z"/>
		</g>
	</g>
	<g>
		<path class="st3" d="M108.4,148.9c0,0.3,0,0.5-0.1,0.8c-0.4,3.7-3.6,6.6-7.4,6.6c-3.8,0-7-2.9-7.4-6.6c0-0.3-0.1-0.5-0.1-0.8
			c0-4.1,3.3-7.4,7.4-7.4S108.4,144.8,108.4,148.9z"/>
	</g>
</g>
</svg>
