<?xml version="1.0" encoding="utf-8"?>
<!-- Generator: Adobe Illustrator 22.1.0, SVG Export Plug-In . SVG Version: 6.00 Build 0)  -->
<svg version="1.1" id="Camada_1" xmlns="http://www.w3.org/2000/svg" xmlns:xlink="http://www.w3.org/1999/xlink" x="0px" y="0px"
	 viewBox="0 0 200 200" style="enable-background:new 0 0 200 200;" xml:space="preserve">
<style type="text/css">
	.st0{fill:#7F5100;}
	.st1{fill:#5B3800;}
	.st2{fill:#FFDB64;}
	.st3{fill:#FFFFFF;}
	.st4{fill:#1A1A1A;}
	.st5{fill:#00CCFF;}
	.st6{fill:#CCCCCC;}
	.st7{fill:#E5AA63;}
	.st8{fill:#333333;}
	.st9{fill:#666666;}
	.st10{fill:#F94E63;}
	.st11{fill:#8899A6;}
	.st12{fill:#F4900C;}
	.st13{fill:#009B34;}
	.st14{fill:#FFDB59;}
	.st15{fill:#F59000;}
	.st16{fill:#FB4C60;}
	.st17{fill:#096EDF;}
	.st18{fill:#292F33;}
	.st19{fill:#F3D29E;}
	.st20{fill:#805100;}
	.st21{fill:#66757F;}
	.st22{fill:#138F3E;}
	.st23{fill:#CCD6DD;}
	.st24{fill:#AAB8C2;}
	.st25{fill:#F3D2A2;}
	.st26{fill-rule:evenodd;clip-rule:evenodd;fill:#292F33;}
	.st27{fill:#404040;}
	.st28{fill:#F2F2F2;}
	.st29{fill:#1771DD;}
	.st30{fill:#009B3A;}
	.st31{fill:#55ACEE;}
	.st32{fill:#999999;}
	.st33{fill:#EF9645;}
	.st34{fill:#FFA766;}
	.st35{fill:#99AAB5;}
	.st36{fill:#E1E8ED;}
	.st37{fill:#FFCC4D;}
	.st38{fill:#FFCC3E;}
	.st39{fill:#00CAFF;}
	.st40{fill:#E9CC39;}
	.st41{fill:#D6B736;}
	.st42{fill:#3AAA35;}
	.st43{fill:#95C11F;}
	.st44{fill:#E30613;}
	.st45{fill:#BE1622;}
	.st46{fill:#E6332A;}
	.st47{fill:#009FE3;}
	.st48{fill:#2791D8;}
	.st49{fill:#3BBFF2;}
	.st50{opacity:0.8;enable-background:new    ;}
	.st51{fill:#BDD7B8;}
	.st52{fill:#8E562E;}
	.st53{fill:#3558A0;}
	.st54{fill:#FAD220;}
	.st55{fill:#FF5000;}
	.st56{fill:#FF000E;}
	.st57{fill:#880082;}
	.st58{fill:#FDCB58;}
</style>
<g>
	<g>
		<circle class="st0" cx="64.8" cy="91.6" r="19.1"/>
		<circle class="st0" cx="101" cy="149.1" r="7.4"/>
		<path class="st0" d="M154.6,91.6c0,10.6-8.6,19.1-19.1,19.1c-10.6,0-19.1-8.6-19.1-19.1c0-5.6,2.4-10.6,6.2-14.1
			c3.4-3.1,8-5,12.9-5c6.1,0,11.5,2.8,15,7.3C153,83.1,154.6,87.2,154.6,91.6z"/>
	</g>
	<g>
		<path class="st2" d="M166.1,79.8h-15.6c2.6,3.3,4.1,7.4,4.1,11.9c0,10.6-8.6,19.1-19.1,19.1c-10.6,0-19.1-8.6-19.1-19.1
			c0-5.6,2.4-10.6,6.2-14.1c-20.4-4.8-38-17-49.8-33.7c-27.2,10.8-46.3,37.4-46.3,68.4c0,16.7,5.5,32.1,14.9,44.4
			c4.8,6.3,10.5,11.8,17,16.3c2.6,1.8,5.3,3.4,8,4.8c10.1,5.2,21.5,8.1,33.6,8.1c12.1,0,23.6-2.9,33.6-8.1
			c9.4-4.9,17.7-11.7,24.2-20c0.3-0.3,0.6-0.7,0.9-1.1c9.4-12.3,14.9-27.7,14.9-44.4C173.6,100.6,170.9,89.6,166.1,79.8z
			 M64.8,110.8c-10.6,0-19.1-8.6-19.1-19.1c0-10.6,8.6-19.1,19.1-19.1c10.6,0,19.1,8.6,19.1,19.1C83.9,102.2,75.3,110.8,64.8,110.8z
			 M101,156.4c-4.1,0-7.4-3.3-7.4-7.4c0-4.1,3.3-7.4,7.4-7.4c4.1,0,7.4,3.3,7.4,7.4C108.4,153.1,105.1,156.4,101,156.4z"/>
		<circle class="st2" cx="64.8" cy="91.6" r="19.1"/>
		<circle class="st2" cx="101" cy="149.1" r="7.4"/>
		<path class="st2" d="M154.6,91.6c0,10.6-8.6,19.1-19.1,19.1c-10.6,0-19.1-8.6-19.1-19.1c0-5.6,2.4-10.6,6.2-14.1
			c3.4-3.1,8-5,12.9-5c6.1,0,11.5,2.8,15,7.3C153,83.1,154.6,87.2,154.6,91.6z"/>
	</g>
	<g>
		<g>
			<circle class="st4" cx="64.8" cy="91.6" r="13.2"/>
		</g>
		<g>
			<path class="st3" d="M64.8,72.5c-10.6,0-19.1,8.6-19.1,19.1c0,10.6,8.6,19.1,19.1,19.1s19.1-8.6,19.1-19.1
				C83.9,81.1,75.3,72.5,64.8,72.5z M64.8,99c-4.1,0-7.4-3.3-7.4-7.4s3.3-7.4,7.4-7.4c4.1,0,7.4,3.3,7.4,7.4S68.8,99,64.8,99z"/>
		</g>
	</g>
	<g>
		<g>
			<circle class="st4" cx="135.4" cy="91.6" r="13.2"/>
		</g>
		<g>
			<path class="st3" d="M150.4,79.8c-3.5-4.4-8.9-7.3-15-7.3c-5,0-9.5,1.9-12.9,5c-3.8,3.5-6.2,8.5-6.2,14.1
				c0,10.6,8.6,19.1,19.1,19.1c10.6,0,19.1-8.6,19.1-19.1C154.6,87.2,153,83.1,150.4,79.8z M135.4,99c-4.1,0-7.4-3.3-7.4-7.4
				s3.3-7.4,7.4-7.4c4.1,0,7.4,3.3,7.4,7.4S139.5,99,135.4,99z"/>
		</g>
	</g>
	<g>
		<circle class="st4" cx="101" cy="149.1" r="7.4"/>
	</g>
	<g>
		<path class="st0" d="M180.1,90.1v96.1c-5.2,2.4-11,3.7-17.1,3.7c-11.5,0-21.9-4.7-29.3-12.3c9.4-4.9,17.7-11.7,24.2-20
			c0.3-0.3,0.6-0.7,0.9-1.1c9.4-12.3,14.9-27.7,14.9-44.4c0-11.6-2.7-22.6-7.5-32.4h-15.6c-3.5-4.4-8.9-7.3-15-7.3
			c-5,0-9.5,1.9-12.9,5c-20.4-4.8-38-17-49.8-33.7c-27.2,10.8-46.3,37.4-46.3,68.4c0,16.7,5.5,32.1,14.9,44.4
			c4.8,6.3,10.5,11.8,17,16.3c2.6,1.8,5.3,3.4,8,4.8C58.9,185.3,48.5,190,37,190c-6.1,0-11.9-1.3-17.2-3.7l0.4-0.6l-0.4,0.1V90.1
			C19.9,45.9,55.8,10,100,10S180.1,45.9,180.1,90.1z"/>
		<path class="st0" d="M150.4,79.8h-9.1c-3.4,0-6.8-0.3-10.1-0.7c0,0,0,0,0,0c-2.9-0.4-5.8-0.9-8.7-1.6c3.4-3.1,8-5,12.9-5
			C141.5,72.5,146.9,75.4,150.4,79.8z"/>
	</g>
</g>
</svg>
