<?xml version="1.0" encoding="utf-8"?>
<!-- Generator: Adobe Illustrator 22.1.0, SVG Export Plug-In . SVG Version: 6.00 Build 0)  -->
<svg version="1.1" id="Camada_1" xmlns="http://www.w3.org/2000/svg" xmlns:xlink="http://www.w3.org/1999/xlink" x="0px" y="0px"
	 viewBox="0 0 300 300" style="enable-background:new 0 0 300 300;" xml:space="preserve">
<style type="text/css">
	.st0{fill:#7F5100;}
	.st1{fill:#5B3800;}
	.st2{fill:#FFDB64;}
	.st3{fill:#FFFFFF;}
	.st4{fill:#1A1A1A;}
	.st5{fill:#00CCFF;}
	.st6{fill:#CCCCCC;}
	.st7{fill:#E5AA63;}
	.st8{fill:#333333;}
	.st9{fill:#666666;}
</style>
<g>
	<g>
		<path class="st0" d="M43.4,145.2c0-58.8,47.6-106.4,106.4-106.4s106.4,47.6,106.4,106.4"/>
	</g>
	<g>
		<path class="st1" d="M252.3,179h-28.8c-2.2,0-4-1.8-4-4v-41.3c0-2.2,1.8-4,4-4h28.8c2.2,0,4,1.8,4,4V175
			C256.3,177.2,254.5,179,252.3,179z"/>
	</g>
	<g>
		<path class="st0" d="M51.2,129.7h21.3c4.3,0,7.7,3.5,7.7,7.7v33.9c0,4.3-3.5,7.7-7.7,7.7H51.2c-4.3,0-7.7-3.5-7.7-7.7v-26.1"/>
	</g>
	<g>
		<circle class="st2" cx="149.9" cy="164.5" r="96.7"/>
	</g>
	<g>
		<path class="st3" d="M188.6,197.4c0,21.4-17.3,38.7-38.7,38.7s-38.7-17.3-38.7-38.7"/>
	</g>
	<g>
		<path class="st0" d="M109.1,59.9c16.1,40.9,55.9,69.8,102.4,69.8h42.7l-18.8-15.9l-26.2-46"/>
	</g>
	<g>
		<g>
			<path class="st4" d="M122.9,164.5h-7.7c0-6.4-5.2-11.6-11.6-11.6S92,158.1,92,164.5h-7.7c0-10.7,8.7-19.3,19.3-19.3
				C114.2,145.2,122.9,153.9,122.9,164.5z"/>
		</g>
		<g>
			<path class="st4" d="M215.8,164.5H208c0-6.4-5.2-11.6-11.6-11.6c-6.4,0-11.6,5.2-11.6,11.6h-7.7c0-10.7,8.7-19.3,19.3-19.3
				C207.1,145.2,215.8,153.9,215.8,164.5z"/>
		</g>
	</g>
	<g>
		<path class="st5" d="M74.5,212.6L74.5,212.6l0.1-0.4c0-0.1,0-0.1,0.1-0.2l13.3-35.9l-35.9,13.3c-0.1,0-0.1,0-0.2,0.1l-0.4,0.1l0,0
			c-1.9,0.8-3.8,2.1-5.4,3.7c-6.8,6.8-6.8,17.8,0,24.6s17.8,6.8,24.6,0C72.5,216.4,73.7,214.6,74.5,212.6z"/>
	</g>
	<g>
		<path class="st5" d="M225.5,212.6L225.5,212.6l-0.1-0.4c0-0.1,0-0.1-0.1-0.2l-13.3-35.9l35.9,13.3c0.1,0,0.1,0,0.2,0.1l0.4,0.1
			l0,0c1.9,0.8,3.8,2.1,5.4,3.7c6.8,6.8,6.8,17.8,0,24.6c-6.8,6.8-17.8,6.8-24.6,0C227.5,216.4,226.3,214.6,225.5,212.6z"/>
	</g>
</g>
</svg>
