<?xml version="1.0" encoding="utf-8"?>
<!-- Generator: Adobe Illustrator 22.1.0, SVG Export Plug-In . SVG Version: 6.00 Build 0)  -->
<svg version="1.1" id="Camada_1" xmlns="http://www.w3.org/2000/svg" xmlns:xlink="http://www.w3.org/1999/xlink" x="0px" y="0px"
	 viewBox="0 0 200 200" style="enable-background:new 0 0 200 200;" xml:space="preserve">
<style type="text/css">
	.st0{fill:#7F5100;}
	.st1{fill:#5B3800;}
	.st2{fill:#FFDB64;}
	.st3{fill:#FFFFFF;}
	.st4{fill:#1A1A1A;}
	.st5{fill:#00CCFF;}
	.st6{fill:#CCCCCC;}
	.st7{fill:#E5AA63;}
	.st8{fill:#333333;}
	.st9{fill:#666666;}
	.st10{fill:#F94E63;}
	.st11{fill:#8899A6;}
	.st12{fill:#F4900C;}
	.st13{fill:#009B34;}
	.st14{fill:#FFDB59;}
	.st15{fill:#F59000;}
	.st16{fill:#FB4C60;}
	.st17{fill:#096EDF;}
	.st18{fill:#292F33;}
	.st19{fill:#F3D29E;}
	.st20{fill:#805100;}
	.st21{fill:#66757F;}
	.st22{fill:#138F3E;}
	.st23{fill:#CCD6DD;}
	.st24{fill:#AAB8C2;}
	.st25{fill:#F3D2A2;}
	.st26{fill-rule:evenodd;clip-rule:evenodd;fill:#292F33;}
	.st27{fill:#404040;}
	.st28{fill:#F2F2F2;}
	.st29{fill:#1771DD;}
	.st30{fill:#009B3A;}
	.st31{fill:#55ACEE;}
	.st32{fill:#999999;}
	.st33{fill:#EF9645;}
	.st34{fill:#FFA766;}
	.st35{fill:#99AAB5;}
	.st36{fill:#E1E8ED;}
	.st37{fill:#FFCC4D;}
	.st38{fill:#FFCC3E;}
	.st39{fill:#00CAFF;}
	.st40{fill:#E9CC39;}
	.st41{fill:#D6B736;}
	.st42{fill:#3AAA35;}
	.st43{fill:#95C11F;}
	.st44{fill:#E30613;}
	.st45{fill:#BE1622;}
	.st46{fill:#E6332A;}
	.st47{fill:#009FE3;}
	.st48{fill:#2791D8;}
	.st49{fill:#3BBFF2;}
	.st50{opacity:0.8;enable-background:new    ;}
	.st51{fill:#BDD7B8;}
	.st52{fill:#8E562E;}
	.st53{fill:#3558A0;}
	.st54{fill:#FAD220;}
	.st55{fill:#FF5000;}
	.st56{fill:#FF000E;}
	.st57{fill:#880082;}
	.st58{fill:#FDCB58;}
</style>
<g>
	<g>
		<path class="st2" d="M181.5,107.3c0,45-36.5,81.6-81.5,81.6c-45,0-81.5-36.5-81.5-81.6S55,25.8,100,25.8
			C145,25.8,181.5,62.3,181.5,107.3"/>
	</g>
	<g>
		<path class="st6" d="M54.7,38.8C34.9,50.3,21.6,71.8,21.6,96.4l14.8-10.7L54.7,38.8z"/>
	</g>
	<g>
		<path class="st6" d="M21.6,102.9c-1,0-2-0.2-3-0.7c-2.2-1.1-3.5-3.4-3.5-5.8c0-26,14-50.2,36.4-63.2c2.4-1.4,5.4-1.1,7.5,0.7
			c2.1,1.8,2.8,4.7,1.8,7.3L42.5,88.1c-0.5,1.2-1.2,2.2-2.3,2.9l-14.8,10.7C24.2,102.5,22.9,102.9,21.6,102.9z M38.3,63
			c-4,5.9-6.9,12.5-8.6,19.5l1.3-0.9L38.3,63z"/>
	</g>
	<g>
		<path class="st6" d="M145.3,38.8c19.8,11.5,33.2,32.9,33.2,57.5l-14.8-10.7L145.3,38.8z"/>
	</g>
	<g>
		<path class="st6" d="M178.4,102.9c-1.3,0-2.7-0.4-3.8-1.2L159.8,91c-1-0.7-1.8-1.7-2.3-2.9l-18.3-46.8c-1-2.6-0.3-5.5,1.8-7.3
			c2.1-1.8,5.1-2.1,7.5-0.7C171,46.2,185,70.4,185,96.4c0,2.4-1.4,4.7-3.5,5.8C180.5,102.6,179.5,102.9,178.4,102.9z M169,81.5
			l1.3,0.9c-1.7-7-4.6-13.6-8.6-19.5L169,81.5z"/>
	</g>
	<g>
		
			<rect x="75.7" y="148.1" transform="matrix(0.8657 -0.5005 0.5005 0.8657 -62.317 70.4738)" class="st4" width="48.9" height="6.5"/>
	</g>
	<g>
		
			<rect x="96.9" y="126.9" transform="matrix(0.5004 -0.8658 0.8658 0.5004 -81.0134 162.3819)" class="st4" width="6.5" height="48.9"/>
	</g>
	<g>
		<path class="st4" d="M73.9,99c0,4.5-3.6,8.2-8.1,8.2s-8.1-3.7-8.1-8.2s3.6-8.2,8.1-8.2S73.9,94.5,73.9,99"/>
	</g>
	<g>
		<path class="st4" d="M126.1,99c0,4.5,3.6,8.2,8.1,8.2c4.5,0,8.1-3.7,8.1-8.2s-3.6-8.2-8.1-8.2C129.8,90.9,126.1,94.5,126.1,99"/>
	</g>
	<g>
		<path d="M63.4,120.9c-0.8,0-1.7,0-2.5-0.1l0,0c-0.1,0-11.5-0.2-17.3-5.5c-1.5-1.1-4.9-4.6-7.1-15.1c0-0.1,0-0.2,0-0.3
			c-0.3-2.2-0.8-7.8,1.2-12.8c0.6-1.6,3.6-8.2,16.2-9.4c0,0,0,0,0.1,0c2.5-0.2,8.4-0.7,12.8-0.5l0,0c0,0,8.6,0.4,14.1,1.6
			c1.3,0.2,10.6,1.9,14.1,7.8c0.9,1.4,3.4,6.9-1.1,18.1c-0.6,1.6-3.8,9.3-13.2,13.1l0,0C78.1,119,71.8,120.9,63.4,120.9z M42.8,99
			c1.9,8.9,4.5,11,4.5,11.1c0.2,0.1,0.3,0.2,0.5,0.4c3.2,3.1,11.2,3.9,13.2,3.9c0.9,0,1.6,0.1,2.4,0.1c8.7,0,14-2.2,14.4-2.4
			c0.1,0,0.2-0.1,0.2-0.1c7.1-2.9,9.3-8.7,9.6-9.4c0,0,0-0.1,0-0.1h0c3.5-8.8,1.6-12.3,1.6-12.4c-1.6-2.8-7.2-4.4-9.6-4.8
			c-0.1,0-0.2,0-0.2,0c-4.3-0.9-11.5-1.4-13-1.4c-4-0.1-9.7,0.3-11.9,0.5c0,0-0.1,0-0.1,0v0c-9.1,0.8-10.6,4.8-10.6,5
			c0,0.1,0,0.1-0.1,0.3C42.5,92.4,42.5,96.3,42.8,99z M90.7,103.6L90.7,103.6L90.7,103.6z"/>
	</g>
	<g>
		<path d="M136.6,120.9c-8.4,0-14.7-1.8-17.1-3l0,0c-9.4-3.9-12.6-11.6-13.2-13.1c-4.5-11.2-1.9-16.8-1-18.2
			c3.4-5.8,12.7-7.5,14.1-7.8c5.6-1.2,14.2-1.6,14.2-1.6c4.3-0.1,10.2,0.3,12.6,0.5c0.1,0,0.1,0,0.2,0c12.5,1.2,15.6,7.8,16.2,9.4
			c2,5,1.5,10.6,1.2,12.7l0,0c0,0.1,0,0.2,0,0.3c-2.2,10.5-5.6,14-7.1,15.1c-5.8,5.4-17.3,5.5-17.4,5.5
			C138.3,120.9,137.5,120.9,136.6,120.9z M122.2,112c0.4,0.2,5.7,2.4,14.4,2.4c0.8,0,1.5,0,2.3,0c2,0,10-0.8,13.2-3.9
			c0.2-0.2,0.4-0.3,0.6-0.5c0,0,0,0,0,0c0,0,2.6-2.2,4.4-11c0.4-2.7,0.4-6.6-0.8-9.5c-0.1-0.1-0.1-0.3-0.1-0.4c0,0-1.5-4-10.6-4.9v0
			c-0.1,0-0.1,0-0.1,0c-2.2-0.2-7.9-0.6-11.9-0.5c-1.5,0.1-8.8,0.5-13,1.4c-0.1,0-0.2,0-0.2,0c-2.4,0.4-7.9,2-9.5,4.7
			c-0.1,0.1-2,3.6,1.5,12.4h0c0,0,0,0.1,0,0.1c0.2,0.7,2.5,6.4,9.6,9.4C122,111.9,122.1,111.9,122.2,112z"/>
	</g>
	<g>
		<path d="M111,88.5H89c-1.8,0-3.3-1.5-3.3-3.3c0-1.8,1.5-3.3,3.3-3.3H111c1.8,0,3.3,1.5,3.3,3.3C114.3,87.1,112.8,88.5,111,88.5z"
			/>
	</g>
</g>
</svg>
