<?xml version="1.0" encoding="utf-8"?>
<!-- Generator: Adobe Illustrator 22.1.0, SVG Export Plug-In . SVG Version: 6.00 Build 0)  -->
<svg version="1.1" id="Camada_1" xmlns="http://www.w3.org/2000/svg" xmlns:xlink="http://www.w3.org/1999/xlink" x="0px" y="0px"
	 viewBox="0 0 200 200" style="enable-background:new 0 0 200 200;" xml:space="preserve">
<style type="text/css">
	.st0{fill:#7F5100;}
	.st1{fill:#5B3800;}
	.st2{fill:#FFDB64;}
	.st3{fill:#FFFFFF;}
	.st4{fill:#1A1A1A;}
	.st5{fill:#00CCFF;}
	.st6{fill:#CCCCCC;}
	.st7{fill:#E5AA63;}
	.st8{fill:#333333;}
	.st9{fill:#666666;}
	.st10{fill:#F94E63;}
	.st11{fill:#8899A6;}
	.st12{fill:#F4900C;}
	.st13{fill:#009B34;}
	.st14{fill:#FFDB59;}
	.st15{fill:#F59000;}
	.st16{fill:#FB4C60;}
	.st17{fill:#096EDF;}
	.st18{fill:#292F33;}
	.st19{fill:#F3D29E;}
	.st20{fill:#805100;}
	.st21{fill:#66757F;}
	.st22{fill:#138F3E;}
	.st23{fill:#CCD6DD;}
	.st24{fill:#AAB8C2;}
	.st25{fill:#F3D2A2;}
	.st26{fill-rule:evenodd;clip-rule:evenodd;fill:#292F33;}
	.st27{fill:#404040;}
	.st28{fill:#F2F2F2;}
	.st29{fill:#1771DD;}
	.st30{fill:#009B3A;}
	.st31{fill:#55ACEE;}
	.st32{fill:#999999;}
	.st33{fill:#EF9645;}
	.st34{fill:#FFA766;}
	.st35{fill:#99AAB5;}
	.st36{fill:#E1E8ED;}
	.st37{fill:#FFCC4D;}
	.st38{fill:#FFCC3E;}
	.st39{fill:#00CAFF;}
	.st40{fill:#E9CC39;}
	.st41{fill:#D6B736;}
	.st42{fill:#3AAA35;}
	.st43{fill:#95C11F;}
	.st44{fill:#E30613;}
	.st45{fill:#BE1622;}
	.st46{fill:#E6332A;}
	.st47{fill:#009FE3;}
	.st48{fill:#2791D8;}
	.st49{fill:#3BBFF2;}
	.st50{opacity:0.8;enable-background:new    ;}
	.st51{fill:#BDD7B8;}
	.st52{fill:#8E562E;}
	.st53{fill:#3558A0;}
	.st54{fill:#FAD220;}
	.st55{fill:#FF5000;}
	.st56{fill:#FF000E;}
	.st57{fill:#880082;}
	.st58{fill:#FDCB58;}
</style>
<g>
	<g>
		<g>
			<path class="st4" d="M180.8,90.9v16.7c0,3.3-2.7,5.9-5.9,5.9h-1.1c0.3-2.6,0.4-5.2,0.4-7.8c0-5.1-0.5-10.1-1.5-14.9
				c-0.1-0.7-0.3-1.4-0.4-2.1c-4.9-20.9-18.6-38.5-37.1-48.4c-10.2,6.4-22.3,10.1-35.2,10.1c-13,0-25-3.7-35.2-10.1
				c-18.5,9.9-32.2,27.5-37.1,48.4c-0.2,0.7-0.3,1.4-0.5,2.1c-1,4.8-1.5,9.8-1.5,14.9c0,2.6,0.1,5.2,0.4,7.8H25
				c-3.3,0-5.9-2.7-5.9-5.9V90.9c0-0.2,0-0.5,0-0.7C19.4,45.8,55.5,10,99.9,10c44.4,0,80.5,35.8,80.9,80.2
				C180.8,90.4,180.8,90.6,180.8,90.9z"/>
		</g>
		<g>
			<path class="st4" d="M180.8,90.2v0.7C180.8,90.6,180.8,90.4,180.8,90.2L180.8,90.2z"/>
		</g>
		<g>
			<path class="st4" d="M19,90.2c0,0.2,0,0.5,0,0.7L19,90.2L19,90.2z"/>
		</g>
		<g>
			<path class="st2" d="M73.3,105.8c0-4.9-4-8.9-8.9-8.9s-8.9,4-8.9,8.9h-5.9c0-8.2,6.7-14.9,14.9-14.9s14.9,6.7,14.9,14.9H73.3z
				 M144.6,105.8c0-4.9-4-8.9-8.9-8.9c-4.9,0-8.9,4-8.9,8.9h-5.9c0-8.2,6.7-14.9,14.9-14.9c8.2,0,14.9,6.7,14.9,14.9H144.6z
				 M172.7,90.9c-0.1-0.7-0.3-1.4-0.4-2.1c-4.9-20.9-18.6-38.5-37.1-48.4c-10.2,6.4-22.3,10.1-35.2,10.1c-13,0-25-3.7-35.2-10.1
				c-18.5,9.9-32.2,27.5-37.1,48.4c-0.2,0.7-0.3,1.4-0.5,2.1c-1,4.8-1.5,9.8-1.5,14.9c0,2.6,0.1,5.2,0.4,7.8c0.4,3.5,1,6.9,1.8,10.3
				l24.6-9.1l-10.2,27.6c0,0,0,0.1-0.1,0.1l-0.1,0.3c-0.6,1.5-1.6,2.9-2.8,4.1c-0.3,0.3-0.5,0.5-0.8,0.7c5,7.3,11.2,13.6,18.4,18.8
				v-39c0-5.2,4.3-9.6,9.5-9.6h67c5.2,0,9.5,4.3,9.5,9.6v39c7.2-5.1,13.5-11.5,18.4-18.9c-0.2-0.2-0.4-0.4-0.6-0.6
				c-1.2-1.2-2.2-2.6-2.8-4.1l-0.1-0.3c0,0,0-0.1-0.1-0.1l-10.2-27.6l24.4,9.1c0.8-3.3,1.4-6.7,1.8-10.2c0.3-2.6,0.4-5.2,0.4-7.8
				C174.2,100.6,173.7,95.7,172.7,90.9z"/>
			<path class="st2" d="M52.5,114.7l-10.2,27.6c0,0,0,0.1-0.1,0.1l-0.1,0.3c-0.6,1.5-1.6,2.9-2.8,4.1c-0.3,0.3-0.5,0.5-0.8,0.7
				c-4.8-7.1-8.5-15.1-10.6-23.7L52.5,114.7z"/>
			<path class="st2" d="M79.2,105.8h-5.9c0-4.9-4-8.9-8.9-8.9s-8.9,4-8.9,8.9h-5.9c0-8.2,6.7-14.9,14.9-14.9S79.2,97.6,79.2,105.8z"
				/>
			<path class="st2" d="M129.6,131c0,16.4-13.3,29.7-29.7,29.7c-16.4,0-29.7-13.3-29.7-29.7H129.6z"/>
			<path class="st2" d="M150.5,105.8h-5.9c0-4.9-4-8.9-8.9-8.9c-4.9,0-8.9,4-8.9,8.9h-5.9c0-8.2,6.7-14.9,14.9-14.9
				C143.8,90.9,150.5,97.6,150.5,105.8z"/>
			<path class="st2" d="M172,123.7c-2.1,8.6-5.7,16.6-10.6,23.7c-0.2-0.2-0.4-0.4-0.6-0.6c-1.2-1.2-2.2-2.6-2.8-4.1l-0.1-0.3
				c0,0,0-0.1-0.1-0.1l-10.2-27.6L172,123.7z"/>
		</g>
		<path class="st4" d="M133.4,117.7h-67c-5.2,0-9.5,4.3-9.5,9.6v40.4c0,2.4,0.9,4.7,2.5,6.1C70.7,184,84.7,190,99.9,190
			c15.2,0,29.2-6,40.5-16.3c1.6-1.4,2.5-3.7,2.5-6.1v-40.4C143,122,138.7,117.7,133.4,117.7z M129.6,131c0,16.4-13.3,29.7-29.7,29.7
			c-16.4,0-29.7-13.3-29.7-29.7H129.6z"/>
		<path class="st4" d="M129.6,131c0,16.4-13.3,29.7-29.7,29.7c-16.4,0-29.7-13.3-29.7-29.7H129.6z"/>
	</g>
	<g>
		<path class="st3" d="M129.6,131c0,16.4-13.3,29.7-29.7,29.7c-16.4,0-29.7-13.3-29.7-29.7H129.6z"/>
	</g>
	<g>
		<g>
			<path class="st4" d="M79.2,105.8h-5.9c0-4.9-4-8.9-8.9-8.9s-8.9,4-8.9,8.9h-5.9c0-8.2,6.7-14.9,14.9-14.9S79.2,97.6,79.2,105.8z"
				/>
		</g>
		<g>
			<path class="st4" d="M150.5,105.8h-5.9c0-4.9-4-8.9-8.9-8.9c-4.9,0-8.9,4-8.9,8.9h-5.9c0-8.2,6.7-14.9,14.9-14.9
				C143.8,90.9,150.5,97.6,150.5,105.8z"/>
		</g>
	</g>
	<g>
		<path class="st5" d="M52.5,114.7l-10.2,27.6c0,0,0,0.1-0.1,0.1l-0.1,0.3c-0.6,1.5-1.6,2.9-2.8,4.1c-0.3,0.3-0.5,0.5-0.8,0.7
			c-5.2,4.5-13.2,4.2-18.1-0.7c-5.2-5.2-5.2-13.7,0-18.9c1.2-1.2,2.6-2.2,4.1-2.8l0.3-0.1c0.1,0,0.1,0,0.1-0.1l3-1.1L52.5,114.7z"/>
	</g>
	<g>
		<path class="st5" d="M179.7,146.8c-5,5-13,5.2-18.3,0.6c-0.2-0.2-0.4-0.4-0.6-0.6c-1.2-1.2-2.2-2.6-2.8-4.1l-0.1-0.3
			c0,0,0-0.1-0.1-0.1l-10.2-27.6l24.4,9.1l3.2,1.2c0,0,0.1,0,0.1,0.1l0.3,0.1c1.5,0.6,2.9,1.6,4.1,2.8
			C184.9,133.1,184.9,141.6,179.7,146.8z"/>
	</g>
</g>
</svg>
