<?xml version="1.0" encoding="utf-8"?>
<!-- Generator: Adobe Illustrator 22.1.0, SVG Export Plug-In . SVG Version: 6.00 Build 0)  -->
<svg version="1.1" id="Camada_1" xmlns="http://www.w3.org/2000/svg" xmlns:xlink="http://www.w3.org/1999/xlink" x="0px" y="0px"
	 viewBox="0 0 200 200" style="enable-background:new 0 0 200 200;" xml:space="preserve">
<style type="text/css">
	.st0{fill:#7F5100;}
	.st1{fill:#5B3800;}
	.st2{fill:#FFDB64;}
	.st3{fill:#FFFFFF;}
	.st4{fill:#1A1A1A;}
	.st5{fill:#00CCFF;}
	.st6{fill:#CCCCCC;}
	.st7{fill:#E5AA63;}
	.st8{fill:#333333;}
	.st9{fill:#666666;}
	.st10{fill:#F94E63;}
	.st11{fill:#8899A6;}
	.st12{fill:#F4900C;}
	.st13{fill:#009B34;}
	.st14{fill:#FFDB59;}
	.st15{fill:#F59000;}
	.st16{fill:#FB4C60;}
	.st17{fill:#096EDF;}
	.st18{fill:#292F33;}
	.st19{fill:#F3D29E;}
	.st20{fill:#805100;}
	.st21{fill:#66757F;}
	.st22{fill:#138F3E;}
	.st23{fill:#CCD6DD;}
	.st24{fill:#AAB8C2;}
	.st25{fill:#F3D2A2;}
	.st26{fill-rule:evenodd;clip-rule:evenodd;fill:#292F33;}
	.st27{fill:#404040;}
	.st28{fill:#F2F2F2;}
	.st29{fill:#1771DD;}
	.st30{fill:#009B3A;}
	.st31{fill:#55ACEE;}
	.st32{fill:#999999;}
	.st33{fill:#EF9645;}
	.st34{fill:#FFA766;}
	.st35{fill:#99AAB5;}
	.st36{fill:#E1E8ED;}
	.st37{fill:#FFCC4D;}
	.st38{fill:#FFCC3E;}
	.st39{fill:#00CAFF;}
	.st40{fill:#E9CC39;}
	.st41{fill:#D6B736;}
	.st42{fill:#3AAA35;}
	.st43{fill:#95C11F;}
	.st44{fill:#E30613;}
	.st45{fill:#BE1622;}
	.st46{fill:#E6332A;}
	.st47{fill:#009FE3;}
	.st48{fill:#2791D8;}
	.st49{fill:#3BBFF2;}
	.st50{opacity:0.8;enable-background:new    ;}
	.st51{fill:#BDD7B8;}
	.st52{fill:#8E562E;}
	.st53{fill:#3558A0;}
	.st54{fill:#FAD220;}
	.st55{fill:#FF5000;}
	.st56{fill:#FF000E;}
	.st57{fill:#880082;}
	.st58{fill:#FDCB58;}
</style>
<g>
	<g>
		<path class="st2" d="M181.4,100c0,45-36.5,81.6-81.5,81.6c-45,0-81.5-36.5-81.5-81.6s36.5-81.6,81.5-81.6
			C144.9,18.4,181.4,55,181.4,100"/>
	</g>
	<g>
		<path class="st6" d="M54.6,31.5C34.8,43,21.4,64.4,21.4,89l14.8-10.7L54.6,31.5z"/>
	</g>
	<g>
		<path class="st6" d="M21.4,95.5c-1,0-2-0.2-3-0.7c-2.2-1.1-3.5-3.4-3.5-5.8c0-26,14-50.2,36.4-63.2c2.4-1.4,5.4-1.1,7.5,0.7
			c2.1,1.8,2.8,4.7,1.8,7.3L42.3,80.7c-0.5,1.2-1.2,2.2-2.3,2.9L25.2,94.3C24.1,95.1,22.8,95.5,21.4,95.5z M38.2,55.6
			c-4,5.9-6.9,12.5-8.6,19.5l1.3-0.9L38.2,55.6z"/>
	</g>
	<g>
		<path class="st6" d="M145.2,31.5C165,43,178.3,64.4,178.3,89l-14.8-10.7L145.2,31.5z"/>
	</g>
	<g>
		<path class="st6" d="M178.3,95.5c-1.3,0-2.7-0.4-3.8-1.2l-14.8-10.7c-1-0.7-1.8-1.7-2.3-2.9l-18.3-46.8c-1-2.6-0.3-5.5,1.8-7.3
			c2.1-1.8,5.1-2.1,7.5-0.7c22.5,13,36.4,37.2,36.4,63.2c0,2.4-1.4,4.7-3.5,5.8C180.4,95.3,179.3,95.5,178.3,95.5z M168.9,74.2
			l1.3,0.9c-1.7-7-4.6-13.6-8.6-19.5L168.9,74.2z"/>
	</g>
	<g>
		<path class="st3" d="M132.5,127.7c0,18-14.6,32.6-32.6,32.6s-32.6-14.6-32.6-32.6"/>
	</g>
	<g>
		<path d="M63.3,113.5c-0.8,0-1.7,0-2.5-0.1l0,0c-0.1,0-11.5-0.2-17.3-5.5c-1.5-1.1-4.9-4.6-7.1-15.1c0-0.1,0-0.2,0-0.3
			c-0.3-2.2-0.8-7.8,1.2-12.8c0.6-1.6,3.6-8.2,16.2-9.4c0,0,0,0,0.1,0c2.5-0.2,8.4-0.7,12.8-0.5l0,0c0,0,8.6,0.4,14.1,1.6
			c1.3,0.2,10.6,1.9,14.1,7.8c0.9,1.4,3.4,6.9-1.1,18.1c-0.6,1.6-3.8,9.3-13.2,13.1l0,0C77.9,111.7,71.6,113.5,63.3,113.5z
			 M42.7,91.6c1.9,8.9,4.5,11,4.5,11.1c0.2,0.1,0.3,0.2,0.5,0.4c3.2,3.1,11.2,3.9,13.2,3.9c0.9,0,1.6,0.1,2.4,0.1
			c8.7,0,14-2.2,14.4-2.4c0.1,0,0.2-0.1,0.2-0.1c7.1-2.9,9.3-8.7,9.6-9.4c0,0,0-0.1,0-0.1h0c3.5-8.8,1.6-12.3,1.6-12.4
			c-1.6-2.8-7.2-4.4-9.6-4.8c-0.1,0-0.2,0-0.2,0c-4.3-0.9-11.5-1.4-13-1.4c-4-0.1-9.7,0.3-11.9,0.5c0,0-0.1,0-0.1,0v0
			c-9.1,0.8-10.6,4.8-10.6,5c0,0.1,0,0.1-0.1,0.3C42.4,85.1,42.3,89,42.7,91.6z M90.6,96.2L90.6,96.2L90.6,96.2z"/>
	</g>
	<g>
		<path d="M136.5,113.5c-8.4,0-14.7-1.8-17.1-3l0,0c-9.4-3.9-12.6-11.6-13.2-13.1c-4.5-11.3-1.9-16.8-1-18.2
			c3.4-5.8,12.7-7.5,14-7.7c5.6-1.2,14.2-1.6,14.2-1.6c4.3-0.1,10.2,0.3,12.6,0.5c0.1,0,0.1,0,0.2,0c12.6,1.2,15.6,7.8,16.2,9.4
			c2,5,1.5,10.6,1.2,12.7l0,0c0,0.1,0,0.2,0,0.3c-2.2,10.5-5.6,14.1-7.1,15.1c-5.8,5.4-17.3,5.5-17.4,5.5
			C138.2,113.5,137.3,113.5,136.5,113.5z M122.1,104.6c0.4,0.2,5.7,2.4,14.4,2.4c0.8,0,1.5,0,2.3,0c2,0,10-0.8,13.2-3.9
			c0.2-0.2,0.4-0.3,0.6-0.5c0,0,0,0,0,0c0,0,2.6-2.2,4.4-11c0.4-2.7,0.4-6.6-0.8-9.5c-0.1-0.1-0.1-0.3-0.1-0.4c0,0-1.5-4-10.6-4.9v0
			c-0.1,0-0.1,0-0.1,0c-2.2-0.2-7.9-0.6-11.9-0.5c-1.5,0.1-8.8,0.5-13,1.4c-0.1,0-0.2,0-0.3,0c-2.4,0.4-7.9,2-9.5,4.7
			c-0.1,0.1-2,3.6,1.5,12.4h0c0,0,0,0.1,0,0.1c0.2,0.7,2.5,6.4,9.6,9.4C121.9,104.6,122,104.6,122.1,104.6z"/>
	</g>
	<g>
		<path d="M110.9,81.2H88.8c-1.8,0-3.3-1.5-3.3-3.3s1.5-3.3,3.3-3.3h22.1c1.8,0,3.3,1.5,3.3,3.3S112.7,81.2,110.9,81.2z"/>
	</g>
	<g>
		<path class="st4" d="M79.1,96.6h-6.5c0-3.6-2.9-6.5-6.5-6.5c-3.6,0-6.5,2.9-6.5,6.5H53c0-7.2,5.8-13,13-13S79.1,89.4,79.1,96.6z"
			/>
	</g>
	<g>
		<path class="st4" d="M146.7,96.6h-6.5c0-3.6-2.9-6.5-6.5-6.5s-6.5,2.9-6.5,6.5h-6.5c0-7.2,5.8-13,13-13S146.7,89.4,146.7,96.6z"/>
	</g>
	<g>
		<path class="st5" d="M36.4,143.8L36.4,143.8l0.1-0.3c0-0.1,0-0.1,0.1-0.2l11.2-30.3l-30.3,11.2c-0.1,0-0.1,0-0.2,0.1l-0.3,0.1
			c-1.6,0.7-3.2,1.7-4.5,3.1c-5.7,5.7-5.7,15,0,20.8c5.7,5.7,15,5.7,20.7,0C34.7,147,35.7,145.5,36.4,143.8"/>
	</g>
	<g>
		<path class="st5" d="M163.6,143.8L163.6,143.8l-0.1-0.3c0-0.1,0-0.1-0.1-0.2l-11.2-30.3l30.3,11.2c0.1,0,0.1,0,0.2,0.1l0.3,0.1
			c1.6,0.7,3.2,1.7,4.5,3.1c5.7,5.7,5.7,15,0,20.8c-5.7,5.7-15,5.7-20.7,0C165.3,147,164.3,145.5,163.6,143.8"/>
	</g>
</g>
</svg>
