<?xml version="1.0" encoding="utf-8"?>
<!-- Generator: Adobe Illustrator 22.1.0, SVG Export Plug-In . SVG Version: 6.00 Build 0)  -->
<svg version="1.1" id="Camada_1" xmlns="http://www.w3.org/2000/svg" xmlns:xlink="http://www.w3.org/1999/xlink" x="0px" y="0px"
	 viewBox="0 0 200 200" style="enable-background:new 0 0 200 200;" xml:space="preserve">
<style type="text/css">
	.st0{fill:#7F5100;}
	.st1{fill:#5B3800;}
	.st2{fill:#FFDB64;}
	.st3{fill:#FFFFFF;}
	.st4{fill:#1A1A1A;}
	.st5{fill:#00CCFF;}
	.st6{fill:#CCCCCC;}
	.st7{fill:#E5AA63;}
	.st8{fill:#333333;}
	.st9{fill:#666666;}
	.st10{fill:#F94E63;}
	.st11{fill:#8899A6;}
	.st12{fill:#F4900C;}
	.st13{fill:#009B34;}
	.st14{fill:#FFDB59;}
	.st15{fill:#F59000;}
	.st16{fill:#FB4C60;}
	.st17{fill:#096EDF;}
	.st18{fill:#292F33;}
	.st19{fill:#F3D29E;}
	.st20{fill:#805100;}
	.st21{fill:#66757F;}
	.st22{fill:#138F3E;}
	.st23{fill:#CCD6DD;}
	.st24{fill:#AAB8C2;}
	.st25{fill:#F3D2A2;}
	.st26{fill-rule:evenodd;clip-rule:evenodd;fill:#292F33;}
	.st27{fill:#404040;}
	.st28{fill:#F2F2F2;}
	.st29{fill:#1771DD;}
	.st30{fill:#009B3A;}
	.st31{fill:#55ACEE;}
	.st32{fill:#999999;}
	.st33{fill:#EF9645;}
	.st34{fill:#FFA766;}
	.st35{fill:#99AAB5;}
	.st36{fill:#E1E8ED;}
	.st37{fill:#FFCC4D;}
	.st38{fill:#FFCC3E;}
	.st39{fill:#00CAFF;}
	.st40{fill:#E9CC39;}
	.st41{fill:#D6B736;}
	.st42{fill:#3AAA35;}
	.st43{fill:#95C11F;}
	.st44{fill:#E30613;}
	.st45{fill:#BE1622;}
	.st46{fill:#E6332A;}
	.st47{fill:#009FE3;}
	.st48{fill:#2791D8;}
	.st49{fill:#3BBFF2;}
	.st50{opacity:0.8;enable-background:new    ;}
	.st51{fill:#BDD7B8;}
	.st52{fill:#8E562E;}
	.st53{fill:#3558A0;}
	.st54{fill:#FAD220;}
	.st55{fill:#FF5000;}
	.st56{fill:#FF000E;}
	.st57{fill:#880082;}
	.st58{fill:#FDCB58;}
</style>
<g>
	<g>
		<g>
			<path class="st1" d="M136.7,34.6c0,0,0,0.1-0.1,0.1l-0.7-1.3l0.9,1C136.7,34.5,136.7,34.6,136.7,34.6z"/>
		</g>
		<g>
			<path class="st2" d="M136.7,34.6c0,0,0,0.1-0.1,0.1l-0.7-1.3L136.7,34.6z"/>
			<path class="st2" d="M174.1,112.3l-12.7-26.2l-24.9-51.4C122.9,61.5,96.9,81.4,64.9,86c-6.2,0.9-12.3,1.2-18.3,0.8
				c-6.6-0.3-13.1-1.3-19.4-3c-0.8,3.5-1.3,7.1-1.5,10.8c0,0.9-0.1,1.8-0.1,2.7v29.9c0,32.9,26.9,59.8,59.8,59.8h29.9
				c32.9,0,59.8-26.9,59.8-59.8v-13.1L174.1,112.3z M52.4,170.6c-7.4,0-13.4-6-13.4-13.4c0-1.7,0.3-3.4,0.9-4.9l0.1-0.3
				c0,0,0-0.1,0.1-0.1l12.3-26.9l12.3,26.9c0,0.1,0,0.1,0.1,0.1l0.1,0.3c0.6,1.5,0.9,3.2,0.9,4.9C65.8,164.6,59.8,170.6,52.4,170.6z
				 M64.4,103.4c-4.9,0-9,4-9,9h-6c0-8.2,6.7-14.9,14.9-14.9c8.2,0,14.9,6.7,14.9,14.9h-6C73.4,107.4,69.4,103.4,64.4,103.4z
				 M119.7,160.1c0-10.7-8.7-19.4-19.4-19.4s-19.4,8.7-19.4,19.4h-6c0-14,11.4-25.4,25.4-25.4c14,0,25.4,11.4,25.4,25.4H119.7z
				 M145.1,112.3c0-4.9-4-9-9-9s-9,4-9,9h-6c0-8.2,6.7-14.9,14.9-14.9c8.2,0,14.9,6.7,14.9,14.9H145.1z"/>
			<path class="st2" d="M64.9,152.2c0.6,1.5,0.9,3.2,0.9,4.9c0,7.4-6,13.4-13.4,13.4s-13.4-6-13.4-13.4c0-1.7,0.3-3.4,0.9-4.9
				l0.1-0.3c0,0,0-0.1,0.1-0.1l12.3-26.9l12.3,26.9c0,0.1,0,0.1,0.1,0.1L64.9,152.2z"/>
			<path class="st2" d="M79.4,112.3h-6c0-4.9-4-9-9-9s-9,4-9,9h-6c0-8.2,6.7-14.9,14.9-14.9C72.7,97.4,79.4,104.1,79.4,112.3z"/>
			<path class="st2" d="M125.7,160.1h-6c0-10.7-8.7-19.4-19.4-19.4s-19.4,8.7-19.4,19.4h-6c0-14,11.4-25.4,25.4-25.4
				C114.3,134.7,125.7,146.1,125.7,160.1z"/>
			<path class="st2" d="M151.1,112.3h-6c0-4.9-4-9-9-9s-9,4-9,9h-6c0-8.2,6.7-14.9,14.9-14.9C144.4,97.4,151.1,104.1,151.1,112.3z"
				/>
		</g>
		<g>
			<path class="st1" d="M181.7,83.4c0,0,0,0.9,0,1.4v23.3c0,3.3-2.7,6-6,6h-0.7l-1-1.9l-12.7-26.2l-24.9-51.4c0,0,0.1-0.1,0.1-0.1
				c0-0.1,0.1-0.1,0.1-0.2l-0.9-1l0.7,1.3C122.9,61.5,96.9,81.4,64.9,86c-6.2,0.9-12.3,1.2-18.3,0.8c-6.6-0.3-13.1-1.3-19.4-3
				c-0.8,3.5-1.3,7.1-1.5,10.8c0,0.9-0.1,1.8-0.1,2.7v16.8h-1.5c-3.3,0-6-2.7-6-6V95.1C18.3,49.8,55,13,100.4,13
				C141.8,13,176.1,43.6,181.7,83.4z"/>
			<path class="st1" d="M136.8,34.4c0,0.1-0.1,0.2-0.1,0.2c0,0,0,0.1-0.1,0.1l-0.7-1.3L136.8,34.4z"/>
		</g>
		<g>
			<g>
				<path class="st1" d="M136.8,34.4c0,0.1-0.1,0.2-0.1,0.2c0,0,0,0.1-0.1,0.1l-0.7-1.3L136.8,34.4z"/>
			</g>
		</g>
	</g>
	<g>
		<g>
			<g>
				<path class="st4" d="M79.4,112.3h-6c0-4.9-4-9-9-9s-9,4-9,9h-6c0-8.2,6.7-14.9,14.9-14.9C72.7,97.4,79.4,104.1,79.4,112.3z"/>
			</g>
			<g>
				<path class="st4" d="M151.1,112.3h-6c0-4.9-4-9-9-9s-9,4-9,9h-6c0-8.2,6.7-14.9,14.9-14.9C144.4,97.4,151.1,104.1,151.1,112.3z"
					/>
			</g>
		</g>
		<g>
			<path class="st4" d="M125.7,160.1h-6c0-10.7-8.7-19.4-19.4-19.4s-19.4,8.7-19.4,19.4h-6c0-14,11.4-25.4,25.4-25.4
				C114.3,134.7,125.7,146.1,125.7,160.1z"/>
		</g>
		<g>
			<path class="st5" d="M65.8,157.1c0,7.4-6,13.4-13.4,13.4s-13.4-6-13.4-13.4c0-1.7,0.3-3.4,0.9-4.9l0.1-0.3c0,0,0-0.1,0.1-0.1
				l12.3-26.9l12.3,26.9c0,0.1,0,0.1,0.1,0.1l0.1,0.3C65.5,153.7,65.8,155.4,65.8,157.1z"/>
		</g>
	</g>
</g>
</svg>
