<?xml version="1.0" encoding="utf-8"?>
<!-- Generator: Adobe Illustrator 22.1.0, SVG Export Plug-In . SVG Version: 6.00 Build 0)  -->
<svg version="1.1" id="Camada_1" xmlns="http://www.w3.org/2000/svg" xmlns:xlink="http://www.w3.org/1999/xlink" x="0px" y="0px"
	 viewBox="0 0 200 200" style="enable-background:new 0 0 200 200;" xml:space="preserve">
<style type="text/css">
	.st0{fill:#7F5100;}
	.st1{fill:#5B3800;}
	.st2{fill:#FFDB64;}
	.st3{fill:#FFFFFF;}
	.st4{fill:#1A1A1A;}
	.st5{fill:#00CCFF;}
	.st6{fill:#CCCCCC;}
	.st7{fill:#E5AA63;}
	.st8{fill:#333333;}
	.st9{fill:#666666;}
	.st10{fill:#F94E63;}
	.st11{fill:#8899A6;}
	.st12{fill:#F4900C;}
	.st13{fill:#009B34;}
	.st14{fill:#FFDB59;}
	.st15{fill:#F59000;}
	.st16{fill:#FB4C60;}
	.st17{fill:#096EDF;}
	.st18{fill:#292F33;}
	.st19{fill:#F3D29E;}
	.st20{fill:#805100;}
	.st21{fill:#66757F;}
	.st22{fill:#138F3E;}
	.st23{fill:#CCD6DD;}
	.st24{fill:#AAB8C2;}
	.st25{fill:#F3D2A2;}
	.st26{fill-rule:evenodd;clip-rule:evenodd;fill:#292F33;}
	.st27{fill:#404040;}
	.st28{fill:#F2F2F2;}
	.st29{fill:#1771DD;}
	.st30{fill:#009B3A;}
	.st31{fill:#55ACEE;}
	.st32{fill:#999999;}
	.st33{fill:#EF9645;}
	.st34{fill:#FFA766;}
	.st35{fill:#99AAB5;}
	.st36{fill:#E1E8ED;}
	.st37{fill:#FFCC4D;}
	.st38{fill:#FFCC3E;}
	.st39{fill:#00CAFF;}
	.st40{fill:#E9CC39;}
	.st41{fill:#D6B736;}
	.st42{fill:#3AAA35;}
	.st43{fill:#95C11F;}
	.st44{fill:#E30613;}
	.st45{fill:#BE1622;}
	.st46{fill:#E6332A;}
	.st47{fill:#009FE3;}
	.st48{fill:#2791D8;}
	.st49{fill:#3BBFF2;}
	.st50{opacity:0.8;enable-background:new    ;}
	.st51{fill:#BDD7B8;}
	.st52{fill:#8E562E;}
	.st53{fill:#3558A0;}
	.st54{fill:#FAD220;}
	.st55{fill:#FF5000;}
	.st56{fill:#FF000E;}
	.st57{fill:#880082;}
	.st58{fill:#FDCB58;}
</style>
<g>
	<g>
		<g>
			<path class="st9" d="M27.5,111.7c-0.3,0-0.6,0-0.9,0c-6.4-0.5-11.2-6.1-10.7-12.5c3.4-43.6,40.4-77.7,84.1-77.7
				c43.7,0,80.7,34.1,84.1,77.7c0.5,6.4-4.3,12-10.7,12.5c-6.4,0.5-12-4.3-12.5-10.7c-2.5-31.5-29.3-56.2-60.9-56.2
				c-31.7,0-58.4,24.7-60.9,56.2C38.6,107,33.5,111.7,27.5,111.7z"/>
		</g>
		<g>
			<circle class="st2" cx="100" cy="105.8" r="72.7"/>
		</g>
		<g>
			<path class="st9" d="M87.1,31.3v12.6c0,5.5,5.8,9.9,12.9,9.9h0c7.1,0,12.9-4.4,12.9-9.9V31.3"/>
			<path class="st9" d="M100,61c-11.3,0-20.2-7.5-20.2-17.2V31.3c0-4,3.3-7.3,7.3-7.3c4,0,7.3,3.3,7.3,7.3v12.6
				c0,0.7,1.9,2.6,5.6,2.6c3.7,0,5.6-1.9,5.6-2.6V31.3c0-4,3.3-7.3,7.3-7.3c4,0,7.3,3.3,7.3,7.3v12.6C120.2,53.5,111.3,61,100,61z"
				/>
		</g>
	</g>
	<g>
		<path class="st3" d="M129.1,130.6c0,16.1-13,29.1-29.1,29.1s-29.1-13-29.1-29.1"/>
	</g>
	<g>
		<g>
			<path class="st4" d="M79.7,105.8h-5.8c0-4.8-3.9-8.7-8.7-8.7c-4.8,0-8.7,3.9-8.7,8.7h-5.8c0-8,6.5-14.5,14.5-14.5
				C73.2,91.3,79.7,97.8,79.7,105.8z"/>
		</g>
		<g>
			<path class="st4" d="M149.6,105.8h-5.8c0-4.8-3.9-8.7-8.7-8.7s-8.7,3.9-8.7,8.7h-5.8c0-8,6.5-14.5,14.5-14.5
				S149.6,97.8,149.6,105.8z"/>
		</g>
	</g>
	<g>
		<path class="st5" d="M43.4,142L43.4,142l0.1-0.3c0,0,0-0.1,0.1-0.1l10-27l-27,10c0,0-0.1,0-0.1,0.1l-0.3,0.1l0,0
			c-1.5,0.6-2.8,1.6-4,2.8c-5.1,5.1-5.1,13.4,0,18.5c5.1,5.1,13.4,5.1,18.5,0C41.8,144.8,42.7,143.5,43.4,142z"/>
	</g>
	<g>
		<path class="st5" d="M156.9,142L156.9,142l-0.1-0.3c0,0,0-0.1-0.1-0.1l-10-27l27,10c0,0,0.1,0,0.1,0.1l0.3,0.1l0,0
			c1.5,0.6,2.8,1.6,4,2.8c5.1,5.1,5.1,13.4,0,18.5c-5.1,5.1-13.4,5.1-18.5,0C158.4,144.8,157.5,143.5,156.9,142z"/>
	</g>
</g>
</svg>
