<?xml version="1.0" encoding="utf-8"?>
<!-- Generator: Adobe Illustrator 22.1.0, SVG Export Plug-In . SVG Version: 6.00 Build 0)  -->
<svg version="1.1" id="Camada_1" xmlns="http://www.w3.org/2000/svg" xmlns:xlink="http://www.w3.org/1999/xlink" x="0px" y="0px"
	 viewBox="0 0 200 200" style="enable-background:new 0 0 200 200;" xml:space="preserve">
<style type="text/css">
	.st0{fill:#7F5100;}
	.st1{fill:#5B3800;}
	.st2{fill:#FFDB64;}
	.st3{fill:#FFFFFF;}
	.st4{fill:#1A1A1A;}
	.st5{fill:#00CCFF;}
	.st6{fill:#CCCCCC;}
	.st7{fill:#E5AA63;}
	.st8{fill:#333333;}
	.st9{fill:#666666;}
	.st10{fill:#F94E63;}
	.st11{fill:#8899A6;}
	.st12{fill:#F4900C;}
	.st13{fill:#009B34;}
	.st14{fill:#FFDB59;}
	.st15{fill:#F59000;}
	.st16{fill:#FB4C60;}
	.st17{fill:#096EDF;}
	.st18{fill:#292F33;}
	.st19{fill:#F3D29E;}
	.st20{fill:#805100;}
	.st21{fill:#66757F;}
	.st22{fill:#138F3E;}
	.st23{fill:#CCD6DD;}
	.st24{fill:#AAB8C2;}
	.st25{fill:#F3D2A2;}
	.st26{fill-rule:evenodd;clip-rule:evenodd;fill:#292F33;}
	.st27{fill:#404040;}
	.st28{fill:#F2F2F2;}
	.st29{fill:#1771DD;}
	.st30{fill:#009B3A;}
	.st31{fill:#55ACEE;}
	.st32{fill:#999999;}
	.st33{fill:#EF9645;}
	.st34{fill:#FFA766;}
	.st35{fill:#99AAB5;}
	.st36{fill:#E1E8ED;}
	.st37{fill:#FFCC4D;}
	.st38{fill:#FFCC3E;}
	.st39{fill:#00CAFF;}
	.st40{fill:#E9CC39;}
	.st41{fill:#D6B736;}
	.st42{fill:#3AAA35;}
	.st43{fill:#95C11F;}
	.st44{fill:#E30613;}
	.st45{fill:#BE1622;}
	.st46{fill:#E6332A;}
	.st47{fill:#009FE3;}
	.st48{fill:#2791D8;}
	.st49{fill:#3BBFF2;}
	.st50{opacity:0.8;enable-background:new    ;}
	.st51{fill:#BDD7B8;}
	.st52{fill:#8E562E;}
	.st53{fill:#3558A0;}
	.st54{fill:#FAD220;}
	.st55{fill:#FF5000;}
	.st56{fill:#FF000E;}
	.st57{fill:#880082;}
	.st58{fill:#FDCB58;}
</style>
<g>
	<g>
		<path class="st0" d="M24.7,96.5c0-42.1,34.1-76.2,76.2-76.2s76.2,34.1,76.2,76.2"/>
	</g>
	<g>
		<path class="st1" d="M173,120.8h-18.3c-2.2,0-4-1.8-4-4V89.5c0-2.2,1.8-4,4-4H173c2.2,0,4,1.8,4,4v27.3
			C177,119,175.2,120.8,173,120.8z"/>
	</g>
	<g>
		<path class="st0" d="M30.3,85.5h15.2c3,0,5.5,2.5,5.5,5.5v24.2c0,3-2.5,5.5-5.5,5.5H30.3c-3,0-5.5-2.5-5.5-5.5V96.5"/>
	</g>
	<g>
		<circle class="st2" cx="100.9" cy="110.4" r="69.2"/>
	</g>
	<g>
		<path class="st3" d="M128.6,133.9c0,15.3-12.4,27.7-27.7,27.7s-27.7-12.4-27.7-27.7"/>
	</g>
	<g>
		<path class="st0" d="M71.7,35.5c11.5,29.2,40,49.9,73.3,49.9h30.6l-13.5-11.4l-18.7-32.9"/>
	</g>
	<g>
		<g>
			<path class="st4" d="M81.6,110.4h-5.5c0-4.6-3.7-8.3-8.3-8.3s-8.3,3.7-8.3,8.3h-5.5c0-7.6,6.2-13.8,13.8-13.8
				S81.6,102.8,81.6,110.4z"/>
		</g>
		<g>
			<path class="st4" d="M148.1,110.4h-5.5c0-4.6-3.7-8.3-8.3-8.3c-4.6,0-8.3,3.7-8.3,8.3h-5.5c0-7.6,6.2-13.8,13.8-13.8
				C141.9,96.5,148.1,102.8,148.1,110.4z"/>
		</g>
	</g>
	<g>
		<path class="st5" d="M47,144.8L47,144.8l0.1-0.3c0,0,0-0.1,0.1-0.1l9.5-25.7L31,128.2c0,0-0.1,0-0.1,0.1l-0.3,0.1l0,0
			c-1.4,0.6-2.7,1.5-3.8,2.6c-4.9,4.9-4.9,12.8,0,17.6s12.8,4.9,17.6,0C45.5,147.5,46.4,146.2,47,144.8z"/>
	</g>
	<g>
		<path class="st5" d="M155,144.8L155,144.8l-0.1-0.3c0,0,0-0.1-0.1-0.1l-9.5-25.7l25.7,9.5c0,0,0.1,0,0.1,0.1l0.3,0.1l0,0
			c1.4,0.6,2.7,1.5,3.8,2.6c4.9,4.9,4.9,12.8,0,17.6s-12.8,4.9-17.6,0C156.5,147.5,155.6,146.2,155,144.8z"/>
	</g>
</g>
</svg>
