<?xml version="1.0" encoding="utf-8"?>
<!-- Generator: Adobe Illustrator 22.1.0, SVG Export Plug-In . SVG Version: 6.00 Build 0)  -->
<svg version="1.1" id="Camada_1" xmlns="http://www.w3.org/2000/svg" xmlns:xlink="http://www.w3.org/1999/xlink" x="0px" y="0px"
	 viewBox="0 0 200 200" style="enable-background:new 0 0 200 200;" xml:space="preserve">
<style type="text/css">
	.st0{fill:#7F5100;}
	.st1{fill:#5B3800;}
	.st2{fill:#FFDB64;}
	.st3{fill:#FFFFFF;}
	.st4{fill:#1A1A1A;}
	.st5{fill:#00CCFF;}
	.st6{fill:#CCCCCC;}
	.st7{fill:#E5AA63;}
	.st8{fill:#333333;}
	.st9{fill:#666666;}
	.st10{fill:#F94E63;}
	.st11{fill:#8899A6;}
	.st12{fill:#F4900C;}
	.st13{fill:#009B34;}
	.st14{fill:#FFDB59;}
	.st15{fill:#F59000;}
	.st16{fill:#FB4C60;}
	.st17{fill:#096EDF;}
	.st18{fill:#292F33;}
	.st19{fill:#F3D29E;}
	.st20{fill:#805100;}
	.st21{fill:#66757F;}
	.st22{fill:#138F3E;}
	.st23{fill:#CCD6DD;}
	.st24{fill:#AAB8C2;}
	.st25{fill:#F3D2A2;}
	.st26{fill-rule:evenodd;clip-rule:evenodd;fill:#292F33;}
	.st27{fill:#404040;}
	.st28{fill:#F2F2F2;}
	.st29{fill:#1771DD;}
	.st30{fill:#009B3A;}
	.st31{fill:#55ACEE;}
	.st32{fill:#999999;}
	.st33{fill:#EF9645;}
	.st34{fill:#FFA766;}
	.st35{fill:#99AAB5;}
	.st36{fill:#E1E8ED;}
	.st37{fill:#FFCC4D;}
	.st38{fill:#FFCC3E;}
	.st39{fill:#00CAFF;}
	.st40{fill:#E9CC39;}
	.st41{fill:#D6B736;}
	.st42{fill:#3AAA35;}
	.st43{fill:#95C11F;}
	.st44{fill:#E30613;}
	.st45{fill:#BE1622;}
	.st46{fill:#E6332A;}
	.st47{fill:#009FE3;}
	.st48{fill:#2791D8;}
	.st49{fill:#3BBFF2;}
	.st50{opacity:0.8;enable-background:new    ;}
	.st51{fill:#BDD7B8;}
	.st52{fill:#8E562E;}
	.st53{fill:#3558A0;}
	.st54{fill:#FAD220;}
	.st55{fill:#FF5000;}
	.st56{fill:#FF000E;}
	.st57{fill:#880082;}
	.st58{fill:#FDCB58;}
</style>
<g>
	<g>
		<g>
			<path class="st1" d="M136.7,34.4c0,0.1-0.1,0.2-0.1,0.2c0,0,0,0.1-0.1,0.1l-0.7-1.3L136.7,34.4z"/>
		</g>
		<g>
			<path class="st2" d="M136.6,34.6c0,0,0,0.1-0.1,0.1l-0.7-1.3L136.6,34.6z"/>
			<path class="st2" d="M174,112.3l-12.7-26.2l-24.8-51.4C122.8,61.5,96.8,81.4,64.8,86c-6.2,0.9-12.3,1.2-18.3,0.8
				c-6.6-0.3-13.1-1.3-19.3-3c-0.8,3.5-1.3,7.1-1.5,10.8c0,0.9-0.1,1.8-0.1,2.7v29.9c0,1.3,0,2.6,0.1,3.9l26.5-9.8L41.9,149
				c0,0.1,0,0.1,0,0.1l-0.1,0.3c-0.7,1.5-1.6,2.9-2.8,4.1c-1.6,1.6-3.4,2.7-5.4,3.3c10.3,18,29.7,30.1,51.8,30.1h29.9
				c22,0,41.4-12.1,51.7-30c-2.2-0.6-4.2-1.7-5.9-3.5c-1.2-1.2-2.2-2.6-2.8-4.1l-0.1-0.3c0,0,0-0.1-0.1-0.1l-10.3-27.7l27,10.1
				c0.1-1.3,0.1-2.7,0.1-4.1v-13.1L174,112.3z M55.2,112.3h-6c0-8.2,6.7-14.9,14.9-14.9c8.2,0,14.9,6.7,14.9,14.9h-6c0-4.9-4-9-9-9
				S55.2,107.4,55.2,112.3z M99.9,167.6c-16.5,0-29.9-13.4-29.9-29.9h59.8C129.8,154.2,116.4,167.6,99.9,167.6z M144.8,112.3
				c0-4.9-4-9-9-9s-9,4-9,9h-6c0-8.2,6.7-14.9,14.9-14.9c8.2,0,14.9,6.7,14.9,14.9H144.8z"/>
			<path class="st2" d="M52.2,121.3L41.9,149c0,0.1,0,0.1,0,0.1l-0.1,0.3c-0.7,1.5-1.6,2.9-2.8,4.1c-1.6,1.6-3.4,2.7-5.4,3.3
				c-4.4-7.7-7.2-16.4-7.8-25.8L52.2,121.3z"/>
			<path class="st2" d="M79.1,112.3h-6c0-4.9-4-9-9-9s-9,4-9,9h-6c0-8.2,6.7-14.9,14.9-14.9C72.4,97.4,79.1,104.1,79.1,112.3z"/>
			<path class="st2" d="M129.8,137.7c0,16.5-13.4,29.9-29.9,29.9c-16.5,0-29.9-13.4-29.9-29.9H129.8z"/>
			<path class="st2" d="M150.8,112.3h-6c0-4.9-4-9-9-9s-9,4-9,9h-6c0-8.2,6.7-14.9,14.9-14.9C144.1,97.4,150.8,104.1,150.8,112.3z"
				/>
			<path class="st2" d="M174.8,131.3c-0.6,9.3-3.4,18-7.9,25.7c-2.2-0.6-4.2-1.7-5.9-3.5c-1.2-1.2-2.2-2.6-2.8-4.1l-0.1-0.3
				c0,0,0-0.1-0.1-0.1l-10.3-27.7L174.8,131.3z"/>
		</g>
		<g>
			<path class="st1" d="M181.6,83.4c0,0,0,0.9,0,1.4v23.3c0,3.3-2.7,6-6,6H175l-1-1.9l-12.7-26.2l-24.8-51.4c0,0,0.1-0.1,0.1-0.1
				c0-0.1,0.1-0.1,0.1-0.2l-0.9-1l0.7,1.3C122.8,61.5,96.8,81.4,64.8,86c-6.2,0.9-12.3,1.2-18.3,0.8c-6.6-0.3-13.1-1.3-19.3-3
				c-0.8,3.5-1.3,7.1-1.5,10.8c0,0.9-0.1,1.8-0.1,2.7v16.8h-1.5c-3.3,0-6-2.7-6-6V95.1c0-45.4,36.8-82.2,82.2-82.2
				C141.7,13,176,43.6,181.6,83.4z"/>
			<path class="st1" d="M136.7,34.4c0,0.1-0.1,0.2-0.1,0.2c0,0,0,0.1-0.1,0.1l-0.7-1.3L136.7,34.4z"/>
		</g>
		<g>
			<g>
				<path class="st1" d="M136.7,34.4c0,0.1-0.1,0.2-0.1,0.2c0,0,0,0.1-0.1,0.1l-0.7-1.3L136.7,34.4z"/>
			</g>
		</g>
	</g>
	<g>
		<path class="st3" d="M129.8,137.7c0,16.5-13.4,29.9-29.9,29.9c-16.5,0-29.9-13.4-29.9-29.9H129.8z"/>
	</g>
	<g>
		<g>
			<path class="st4" d="M79.1,112.3h-6c0-4.9-4-9-9-9s-9,4-9,9h-6c0-8.2,6.7-14.9,14.9-14.9C72.4,97.4,79.1,104.1,79.1,112.3z"/>
		</g>
		<g>
			<path class="st4" d="M150.8,112.3h-6c0-4.9-4-9-9-9s-9,4-9,9h-6c0-8.2,6.7-14.9,14.9-14.9C144.1,97.4,150.8,104.1,150.8,112.3z"
				/>
		</g>
	</g>
	<g>
		<path class="st5" d="M52.2,121.3L41.9,149c0,0.1,0,0.1,0,0.1l-0.1,0.3c-0.7,1.5-1.6,2.9-2.8,4.1c-1.6,1.6-3.4,2.7-5.4,3.3
			c-4.7,1.5-9.9,0.4-13.6-3.3c-5.2-5.2-5.2-13.8,0-19c1.2-1.2,2.6-2.2,4.2-2.8l0.3-0.1c0,0,0.1,0,0.1,0l1.3-0.5L52.2,121.3z"/>
	</g>
	<g>
		<path class="st5" d="M180.1,153.6c-3.6,3.6-8.6,4.7-13.1,3.5c-2.2-0.6-4.2-1.7-5.9-3.5c-1.2-1.2-2.2-2.6-2.8-4.1l-0.1-0.3
			c0,0,0-0.1-0.1-0.1l-10.3-27.7l27,10.1l0.7,0.3c0,0,0.1,0,0.1,0l0.3,0.1c1.5,0.7,2.9,1.6,4.1,2.8
			C185.4,139.8,185.4,148.4,180.1,153.6z"/>
	</g>
</g>
</svg>
