<?xml version="1.0" encoding="utf-8"?>
<!-- Generator: Adobe Illustrator 22.1.0, SVG Export Plug-In . SVG Version: 6.00 Build 0)  -->
<svg version="1.1" id="Camada_1" xmlns="http://www.w3.org/2000/svg" xmlns:xlink="http://www.w3.org/1999/xlink" x="0px" y="0px"
	 viewBox="0 0 200 200" style="enable-background:new 0 0 200 200;" xml:space="preserve">
<style type="text/css">
	.st0{fill:#7F5100;}
	.st1{fill:#5B3800;}
	.st2{fill:#FFDB64;}
	.st3{fill:#FFFFFF;}
	.st4{fill:#1A1A1A;}
	.st5{fill:#00CCFF;}
	.st6{fill:#CCCCCC;}
	.st7{fill:#E5AA63;}
	.st8{fill:#333333;}
	.st9{fill:#666666;}
	.st10{fill:#F94E63;}
	.st11{fill:#8899A6;}
	.st12{fill:#F4900C;}
	.st13{fill:#009B34;}
	.st14{fill:#FFDB59;}
	.st15{fill:#F59000;}
	.st16{fill:#FB4C60;}
	.st17{fill:#096EDF;}
	.st18{fill:#292F33;}
	.st19{fill:#F3D29E;}
	.st20{fill:#805100;}
	.st21{fill:#66757F;}
	.st22{fill:#138F3E;}
	.st23{fill:#CCD6DD;}
	.st24{fill:#AAB8C2;}
	.st25{fill:#F3D2A2;}
	.st26{fill-rule:evenodd;clip-rule:evenodd;fill:#292F33;}
	.st27{fill:#404040;}
	.st28{fill:#F2F2F2;}
	.st29{fill:#1771DD;}
	.st30{fill:#009B3A;}
	.st31{fill:#55ACEE;}
	.st32{fill:#999999;}
	.st33{fill:#EF9645;}
	.st34{fill:#FFA766;}
	.st35{fill:#99AAB5;}
	.st36{fill:#E1E8ED;}
	.st37{fill:#FFCC4D;}
	.st38{fill:#FFCC3E;}
	.st39{fill:#00CAFF;}
	.st40{fill:#E9CC39;}
	.st41{fill:#D6B736;}
	.st42{fill:#3AAA35;}
	.st43{fill:#95C11F;}
	.st44{fill:#E30613;}
	.st45{fill:#BE1622;}
	.st46{fill:#E6332A;}
	.st47{fill:#009FE3;}
	.st48{fill:#2791D8;}
	.st49{fill:#3BBFF2;}
	.st50{opacity:0.8;enable-background:new    ;}
	.st51{fill:#BDD7B8;}
	.st52{fill:#8E562E;}
	.st53{fill:#3558A0;}
	.st54{fill:#FAD220;}
	.st55{fill:#FF5000;}
	.st56{fill:#FF000E;}
	.st57{fill:#880082;}
	.st58{fill:#FDCB58;}
</style>
<g>
	<g>
		<path class="st1" d="M46.6,86.2v4.2l-1.4,0.1C45.5,89,46,87.5,46.6,86.2z"/>
	</g>
	<g>
		<path class="st1" d="M136.8,31.4c-0.1,0.1-0.1,0.3-0.2,0.4l-0.1-0.3l-0.5-1L136.8,31.4z"/>
		<path class="st1" d="M45.2,90.5c0.3-1.5,0.8-2.9,1.4-4.3v4.2L45.2,90.5z"/>
		<path class="st1" d="M46.6,83.8c0.4,0,0.9,0.1,1.3,0.1c-0.5,0.7-0.9,1.5-1.3,2.3V83.8z"/>
		<path class="st1" d="M69.4,88.9l-10.9,0.7c1.4-1.7,3.5-2.7,5.8-2.7C66.2,86.9,68,87.7,69.4,88.9z"/>
		<path class="st3" d="M152.2,83.7c-3.5-5.3-9.5-8.8-16.2-8.8c-7.7,0-14.3,4.5-17.4,10.9c-1.3,2.6-2,5.5-2,8.5
			c0,10.7,8.7,19.4,19.4,19.4s19.4-8.7,19.4-19.4C155.4,90.5,154.2,86.8,152.2,83.7z M128.5,94.4c0-4.1,3.3-7.5,7.5-7.5
			s7.5,3.3,7.5,7.5c0,4.1-3.3,7.5-7.5,7.5S128.5,98.5,128.5,94.4z"/>
	</g>
	<g>
		<path class="st2" d="M136.8,31.4c-0.1,0.1-0.1,0.3-0.2,0.4l-0.1-0.3L136.8,31.4z"/>
		<path class="st2" d="M174.1,109.3l-12.7-26.2l-24.9-51.3c-11.8,23.1-32.8,41.1-59,48.5c2.3,2.1,4,4.8,5,7.8c0.7,2,1,4.1,1,6.3
			c0,10.7-8.7,19.4-19.4,19.4c-7.8,0-14.5-4.6-17.6-11.2c-1.2-2.5-1.8-5.3-1.8-8.2c0-1.3,0.1-2.7,0.4-3.9c0.3-1.5,0.8-2.9,1.4-4.3
			v-2.4c-6-0.3-12-1.2-17.7-2.6c-1.2,3.3-2,6.8-2.5,10.4c-0.4,2.9-0.6,5.8-0.6,8.7v29.9c0,32.9,26.9,59.8,59.8,59.8h29.9
			c32.9,0,59.8-26.9,59.8-59.8v-19.1L174.1,109.3z M101,160.1c-4.1,0-7.5-3.3-7.5-7.5c0-4.1,3.3-7.5,7.5-7.5c4.1,0,7.5,3.3,7.5,7.5
			C108.5,156.8,105.1,160.1,101,160.1z M135.9,113.8c-10.7,0-19.4-8.7-19.4-19.4c0-3,0.7-5.9,2-8.5c3.2-6.5,9.8-10.9,17.4-10.9
			c6.8,0,12.8,3.5,16.2,8.8c2,3.1,3.2,6.7,3.2,10.6C155.4,105.1,146.6,113.8,135.9,113.8z"/>
		<path class="st2" d="M45.2,90.5c0.3-1.5,0.8-2.9,1.4-4.3v4.2L45.2,90.5z"/>
		<path class="st2" d="M46.6,83.8c0.4,0,0.9,0.1,1.3,0.1c-0.5,0.7-0.9,1.5-1.3,2.3V83.8z"/>
		<path class="st2" d="M71.7,94.4c0,4.1-3.3,7.5-7.5,7.5c-4.1,0-7.5-3.3-7.5-7.5c0-1.8,0.6-3.5,1.7-4.8c1.4-1.7,3.5-2.7,5.8-2.7
			c2,0,3.8,0.8,5.1,2C70.8,90.3,71.7,92.2,71.7,94.4z"/>
		<circle class="st2" cx="101" cy="152.7" r="7.5"/>
		<circle class="st2" cx="135.9" cy="94.4" r="7.5"/>
	</g>
	<g>
		<g>
			<path class="st1" d="M136.8,31.4c-0.1,0.1-0.1,0.3-0.2,0.4l-0.1-0.3l-0.5-1L136.8,31.4z"/>
		</g>
	</g>
	<g>
		<g>
			<path class="st4" d="M71.7,94.4c0,4.1-3.3,7.5-7.5,7.5c-4.1,0-7.5-3.3-7.5-7.5c0-1.8,0.6-3.5,1.7-4.8c1.4-1.7,3.5-2.7,5.8-2.7
				c2,0,3.8,0.8,5.1,2C70.8,90.3,71.7,92.2,71.7,94.4z"/>
		</g>
		<g>
			<path class="st3" d="M45.2,90.5l1.4-0.1v-4.2C46,87.5,45.5,89,45.2,90.5z"/>
			<path class="st3" d="M82.6,88.1c-1-3-2.8-5.7-5-7.8c-2.5,0.7-5.1,1.3-7.8,1.8c-1.6,0.3-3.2,0.6-4.9,0.8c-3,0.4-6,0.7-9,0.8
				c-2.7,0.1-5.3,0.2-8,0c-0.5,0.7-0.9,1.5-1.3,2.3v4.2l-1.4,0.1c-0.3,1.3-0.4,2.6-0.4,3.9c0,2.9,0.7,5.7,1.8,8.2
				c3.1,6.6,9.8,11.2,17.6,11.2c10.7,0,19.4-8.7,19.4-19.4C83.7,92.2,83.3,90.1,82.6,88.1z M64.2,86.9c2,0,3.8,0.8,5.1,2
				c1.4,1.4,2.3,3.3,2.3,5.4c0,4.1-3.3,7.5-7.5,7.5c-4.1,0-7.5-3.3-7.5-7.5c0-1.8,0.6-3.5,1.7-4.8C59.8,88,61.9,86.9,64.2,86.9z"/>
		</g>
	</g>
	<g>
		<g>
			<circle class="st4" cx="135.9" cy="94.4" r="7.5"/>
		</g>
	</g>
	<g>
		<circle class="st4" cx="101" cy="152.7" r="7.5"/>
	</g>
	<g>
		<path class="st1" d="M181.7,80.5c0,0,0,0.9,0,1.4v23.3c0,3.3-2.7,6-6,6h-0.7l-1-1.9l-12.7-26.2l-24.9-51.3
			c0.1-0.1,0.1-0.3,0.2-0.4l-0.9-1l0.5,1l0.1,0.3c-11.8,23.1-32.8,41.1-59,48.5c-2.5,0.7-5.1,1.3-7.8,1.8c-1.6,0.3-3.2,0.6-4.9,0.8
			c-3,0.4-6,0.7-9,0.8c-2.7,0.1-5.3,0.2-8,0c-0.4,0-0.9,0-1.3-0.1c-6-0.3-12-1.2-17.7-2.6c-1.2,3.3-2,6.8-2.5,10.4
			c-0.4,2.9-0.6,5.8-0.6,8.7v10.8h-1.5c-3.3,0-6-2.7-6-6V92.2C18.3,46.8,55,10,100.4,10C141.8,10,176.1,40.6,181.7,80.5z"/>
		<path class="st1" d="M136.8,31.4c-0.1,0.1-0.1,0.3-0.2,0.4l-0.1-0.3l-0.5-1L136.8,31.4z"/>
	</g>
</g>
</svg>
