<?xml version="1.0" encoding="utf-8"?>
<!-- Generator: Adobe Illustrator 22.1.0, SVG Export Plug-In . SVG Version: 6.00 Build 0)  -->
<svg version="1.1" id="Camada_1" xmlns="http://www.w3.org/2000/svg" xmlns:xlink="http://www.w3.org/1999/xlink" x="0px" y="0px"
	 viewBox="0 0 200 200" style="enable-background:new 0 0 200 200;" xml:space="preserve">
<style type="text/css">
	.st0{fill:#7F5100;}
	.st1{fill:#5B3800;}
	.st2{fill:#FFDB64;}
	.st3{fill:#FFFFFF;}
	.st4{fill:#1A1A1A;}
	.st5{fill:#00CCFF;}
	.st6{fill:#CCCCCC;}
	.st7{fill:#E5AA63;}
	.st8{fill:#333333;}
	.st9{fill:#666666;}
	.st10{fill:#F94E63;}
	.st11{fill:#8899A6;}
	.st12{fill:#F4900C;}
	.st13{fill:#009B34;}
	.st14{fill:#FFDB59;}
	.st15{fill:#F59000;}
	.st16{fill:#FB4C60;}
	.st17{fill:#096EDF;}
	.st18{fill:#292F33;}
	.st19{fill:#F3D29E;}
	.st20{fill:#805100;}
	.st21{fill:#66757F;}
	.st22{fill:#138F3E;}
	.st23{fill:#CCD6DD;}
	.st24{fill:#AAB8C2;}
	.st25{fill:#F3D2A2;}
	.st26{fill-rule:evenodd;clip-rule:evenodd;fill:#292F33;}
	.st27{fill:#404040;}
	.st28{fill:#F2F2F2;}
	.st29{fill:#1771DD;}
	.st30{fill:#009B3A;}
	.st31{fill:#55ACEE;}
	.st32{fill:#999999;}
	.st33{fill:#EF9645;}
	.st34{fill:#FFA766;}
	.st35{fill:#99AAB5;}
	.st36{fill:#E1E8ED;}
	.st37{fill:#FFCC4D;}
	.st38{fill:#FFCC3E;}
	.st39{fill:#00CAFF;}
	.st40{fill:#E9CC39;}
	.st41{fill:#D6B736;}
	.st42{fill:#3AAA35;}
	.st43{fill:#95C11F;}
	.st44{fill:#E30613;}
	.st45{fill:#BE1622;}
	.st46{fill:#E6332A;}
	.st47{fill:#009FE3;}
	.st48{fill:#2791D8;}
	.st49{fill:#3BBFF2;}
	.st50{opacity:0.8;enable-background:new    ;}
	.st51{fill:#BDD7B8;}
	.st52{fill:#8E562E;}
	.st53{fill:#3558A0;}
	.st54{fill:#FAD220;}
	.st55{fill:#FF5000;}
	.st56{fill:#FF000E;}
	.st57{fill:#880082;}
	.st58{fill:#FDCB58;}
</style>
<g>
	<g>
		<path class="st2" d="M181.5,108.4c0,45-36.5,81.6-81.5,81.6c-45,0-81.5-36.5-81.5-81.6S55,26.9,100,26.9
			C145,26.9,181.5,63.4,181.5,108.4"/>
	</g>
	<g>
		<path class="st6" d="M54.7,39.9C34.9,51.4,21.6,72.9,21.6,97.5l14.8-10.7L54.7,39.9z"/>
	</g>
	<g>
		<path class="st6" d="M21.6,104c-1,0-2-0.2-3-0.7c-2.2-1.1-3.5-3.4-3.5-5.8c0-26,14-50.2,36.4-63.2c2.4-1.4,5.4-1.1,7.5,0.7
			c2.1,1.8,2.8,4.7,1.8,7.3L42.5,89.2c-0.5,1.2-1.2,2.2-2.3,2.9l-14.8,10.7C24.2,103.6,22.9,104,21.6,104z M38.3,64.1
			c-4,5.9-6.9,12.5-8.6,19.5l1.3-0.9L38.3,64.1z"/>
	</g>
	<g>
		<path class="st6" d="M145.3,39.9c19.8,11.5,33.2,32.9,33.2,57.5l-14.8-10.7L145.3,39.9z"/>
	</g>
	<g>
		<path class="st6" d="M178.4,104c-1.3,0-2.7-0.4-3.8-1.2l-14.8-10.7c-1-0.7-1.8-1.7-2.3-2.9l-18.3-46.8c-1-2.6-0.3-5.5,1.8-7.3
			c2.1-1.8,5.1-2.1,7.5-0.7C171,47.3,185,71.5,185,97.5c0,2.4-1.4,4.7-3.5,5.8C180.5,103.8,179.5,104,178.4,104z M169,82.6l1.3,0.9
			c-1.7-7-4.6-13.6-8.6-19.5L169,82.6z"/>
	</g>
	<g>
		<path class="st4" d="M66.2,100.3c-8.1,0-14.7-6.6-14.7-14.7s6.6-14.7,14.7-14.7s14.7,6.6,14.7,14.7S74.3,100.3,66.2,100.3"/>
	</g>
	<g>
		<path class="st3" d="M66.2,77.4c4.5,0,8.1,3.7,8.1,8.2s-3.6,8.2-8.1,8.2s-8.1-3.7-8.1-8.2S61.7,77.4,66.2,77.4 M66.2,64.4
			C54.5,64.4,45,73.9,45,85.6s9.5,21.2,21.2,21.2s21.2-9.5,21.2-21.2S77.9,64.4,66.2,64.4"/>
	</g>
	<g>
		<path class="st4" d="M133.8,100.3c-8.1,0-14.7-6.6-14.7-14.7s6.6-14.7,14.7-14.7s14.7,6.6,14.7,14.7S141.9,100.3,133.8,100.3"/>
	</g>
	<g>
		<path class="st3" d="M133.8,77.4c4.5,0,8.1,3.7,8.1,8.2s-3.6,8.2-8.1,8.2c-4.5,0-8.1-3.7-8.1-8.2S129.3,77.4,133.8,77.4
			 M133.8,64.4c-11.7,0-21.2,9.5-21.2,21.2s9.5,21.2,21.2,21.2c11.7,0,21.2-9.5,21.2-21.2S145.5,64.4,133.8,64.4"/>
	</g>
	<g>
		<path class="st4" d="M109.2,149.2c0,4.5-3.6,8.2-8.1,8.2c-4.5,0-8.1-3.7-8.1-8.2s3.6-8.2,8.1-8.2
			C105.6,141.1,109.2,144.7,109.2,149.2"/>
	</g>
	<g>
		<path d="M72.1,56.5c-3.3,0-7.9-0.4-13.1-1.8c-0.8-0.2-1.5-0.4-2.3-0.7c-0.1,0-11.2-3.1-15.5-9.9c-1.1-1.4-3.6-5.7-3-16.4
			c0-0.1,0-0.2,0-0.3c0.3-2.2,1.2-7.7,4.4-12c1-1.4,5.7-7,18.1-4.9c0,0,0,0,0.1,0c2.4,0.4,8.3,1.5,12.5,2.8l0,0
			c0,0,8.2,2.6,13.2,5.2c1.2,0.5,9.7,4.5,11.6,11.2c0.5,1.5,1.5,7.5-5.7,17.2c-1,1.4-6.1,8-16.2,9.3l0,0
			C75.4,56.3,73.9,56.5,72.1,56.5z M44.8,28.1C44.3,37.3,46.3,40,46.3,40c0.2,0.2,0.2,0.3,0.4,0.5c2.3,3.9,9.8,6.6,11.7,7.2l0.2,0.1
			c0.7,0.2,1.4,0.4,2.1,0.6c8.4,2.3,14.1,1.5,14.5,1.4c0.1,0,0.2,0,0.3,0c7.6-1,11.3-6,11.7-6.6c0,0,0.1-0.1,0.1-0.1l0,0
			c5.7-7.6,4.7-11.5,4.7-11.5c-0.9-3.1-5.8-6.1-8-7.1c-0.1,0-0.1-0.1-0.2-0.1c-3.9-2-10.7-4.3-12.2-4.8c-3.9-1.2-9.4-2.2-11.6-2.6
			c0,0-0.1,0-0.1,0v0c-9-1.5-11.4,1.9-11.5,2.1c-0.1,0.1-0.1,0.1-0.2,0.2C46.1,21.7,45.1,25.5,44.8,28.1z M89.8,45L89.8,45L89.8,45z
			"/>
	</g>
	<g>
		<path d="M141.1,75.3c-4.8,0-8.9-1.1-9-1.1c-0.7-0.2-1.5-0.4-2.4-0.6c-8.1-2.2-13.7-5.6-15.8-7.4l0,0c-8.1-6.2-9.2-14.4-9.4-16.1
			c-1.4-12.1,2.5-16.7,3.7-17.8c4.9-4.8,14.3-4,15.6-3.8c5.7,0.3,14.1,2.2,14.2,2.2c4.2,1,9.8,3,12,3.7c0.1,0,0.1,0,0.2,0.1
			c11.9,4.4,13.1,11.5,13.2,13.3c0.6,5.3-1.3,10.6-2.2,12.6l0,0c0,0.1-0.1,0.2-0.1,0.3c-4.8,9.6-9.1,12.1-10.8,12.8
			C147.5,74.8,144.2,75.3,141.1,75.3z M118.1,61.3c0.4,0.3,4.9,3.8,13.3,6c0.7,0.2,1.5,0.4,2.3,0.6c2,0.5,9.8,1.8,13.8-0.3
			c0.2-0.1,0.4-0.2,0.6-0.2c0.3-0.1,3.3-1.7,7.2-9.5c1.1-2.5,2-6.2,1.7-9.3c0-0.1,0-0.2,0-0.3c0-0.4-0.6-4.5-9-7.5v0
			c0,0-0.1,0-0.1,0c-2.1-0.8-7.4-2.6-11.4-3.6c-0.1,0-8-1.8-13-2c-0.1,0-0.2,0-0.2,0c-2.4-0.3-8.2-0.1-10.4,2.1
			c-0.1,0.1-2.8,3-1.7,12.4h0c0,0,0,0.1,0,0.1c0.1,0.7,0.7,6.9,6.8,11.5C118,61.1,118.1,61.2,118.1,61.3z M148.2,67.2
			c0,0-0.1,0-0.1,0C148.1,67.3,148.1,67.2,148.2,67.2z M156.9,48c0,0,0,0.1,0,0.1C156.9,48.1,156.9,48,156.9,48z"/>
	</g>
	<g>
		<path d="M114.2,35.8c-0.3,0-0.6,0-0.8-0.1L92.1,30c-1.7-0.5-2.8-2.3-2.3-4c0.5-1.7,2.2-2.8,4-2.3l21.3,5.7c1.7,0.5,2.8,2.3,2.3,4
			C117,34.9,115.7,35.8,114.2,35.8z"/>
	</g>
</g>
</svg>
