<?xml version="1.0" encoding="utf-8"?>
<!-- Generator: Adobe Illustrator 22.1.0, SVG Export Plug-In . SVG Version: 6.00 Build 0)  -->
<svg version="1.1" id="Camada_1" xmlns="http://www.w3.org/2000/svg" xmlns:xlink="http://www.w3.org/1999/xlink" x="0px" y="0px"
	 viewBox="0 0 200 200" style="enable-background:new 0 0 200 200;" xml:space="preserve">
<style type="text/css">
	.st0{fill:#7F5100;}
	.st1{fill:#5B3800;}
	.st2{fill:#FFDB64;}
	.st3{fill:#FFFFFF;}
	.st4{fill:#1A1A1A;}
	.st5{fill:#00CCFF;}
	.st6{fill:#CCCCCC;}
	.st7{fill:#E5AA63;}
	.st8{fill:#333333;}
	.st9{fill:#666666;}
	.st10{fill:#F94E63;}
	.st11{fill:#8899A6;}
	.st12{fill:#F4900C;}
	.st13{fill:#009B34;}
	.st14{fill:#FFDB59;}
	.st15{fill:#F59000;}
	.st16{fill:#FB4C60;}
	.st17{fill:#096EDF;}
	.st18{fill:#292F33;}
	.st19{fill:#F3D29E;}
	.st20{fill:#805100;}
	.st21{fill:#66757F;}
	.st22{fill:#138F3E;}
	.st23{fill:#CCD6DD;}
	.st24{fill:#AAB8C2;}
	.st25{fill:#F3D2A2;}
	.st26{fill-rule:evenodd;clip-rule:evenodd;fill:#292F33;}
	.st27{fill:#404040;}
	.st28{fill:#F2F2F2;}
	.st29{fill:#1771DD;}
	.st30{fill:#009B3A;}
	.st31{fill:#55ACEE;}
	.st32{fill:#999999;}
	.st33{fill:#EF9645;}
	.st34{fill:#FFA766;}
	.st35{fill:#99AAB5;}
	.st36{fill:#E1E8ED;}
	.st37{fill:#FFCC4D;}
	.st38{fill:#FFCC3E;}
	.st39{fill:#00CAFF;}
	.st40{fill:#E9CC39;}
	.st41{fill:#D6B736;}
	.st42{fill:#3AAA35;}
	.st43{fill:#95C11F;}
	.st44{fill:#E30613;}
	.st45{fill:#BE1622;}
	.st46{fill:#E6332A;}
	.st47{fill:#009FE3;}
	.st48{fill:#2791D8;}
	.st49{fill:#3BBFF2;}
	.st50{opacity:0.8;enable-background:new    ;}
	.st51{fill:#BDD7B8;}
	.st52{fill:#8E562E;}
	.st53{fill:#3558A0;}
	.st54{fill:#FAD220;}
	.st55{fill:#FF5000;}
	.st56{fill:#FF000E;}
	.st57{fill:#880082;}
	.st58{fill:#FDCB58;}
</style>
<g>
	<g>
		<g>
			<path class="st4" d="M180.9,90.2l-8.5-1.4c-4.9-20.9-18.6-38.5-37.1-48.4C125,46.7,112.9,50.4,100,50.4c-13,0-25-3.7-35.2-10.1
				c-18.5,10-32.2,27.5-37.1,48.4l-8.5,1.4C19.5,45.8,55.6,10,100,10C144.4,10,180.5,45.8,180.9,90.2z"/>
			<path class="st4" d="M27.7,88.8c-0.2,0.7-0.3,1.4-0.4,2.1h-8.1c0-0.2,0-0.5,0-0.7L27.7,88.8z"/>
			<path class="st4" d="M180.9,90.9h-8.1c-0.1-0.7-0.3-1.4-0.5-2.1l8.5,1.4C180.9,90.4,180.9,90.6,180.9,90.9z"/>
		</g>
		<g>
			<path class="st4" d="M180.9,90.2v17.4c0,3.3-2.7,5.9-5.9,5.9h-1.1c0.3-2.6,0.4-5.2,0.4-7.8c0-5.1-0.5-10.1-1.5-14.9
				c-0.1-0.7-0.3-1.4-0.5-2.1L180.9,90.2L180.9,90.2z"/>
		</g>
		<g>
			<path class="st4" d="M27.2,90.9c-1,4.8-1.5,9.8-1.5,14.9c0,2.6,0.1,5.2,0.4,7.8h-1.1c-3.3,0-5.9-2.7-5.9-5.9V90.2h0l8.5-1.4
				C27.5,89.5,27.3,90.2,27.2,90.9z"/>
		</g>
		<g>
			<path class="st2" d="M73.5,105.8c0-4.9-4-8.9-8.9-8.9c-4.9,0-8.9,4-8.9,8.9h-5.9c0-8.2,6.7-14.9,14.9-14.9
				c8.2,0,14.9,6.7,14.9,14.9H73.5z M144.9,105.8c0-4.9-4-8.9-8.9-8.9c-4.9,0-8.9,4-8.9,8.9h-5.9c0-8.2,6.7-14.9,14.9-14.9
				c8.2,0,14.9,6.7,14.9,14.9H144.9z M172.8,90.9c-0.1-0.7-0.3-1.4-0.5-2.1c-4.9-20.9-18.6-38.5-37.1-48.4
				C125,46.7,112.9,50.4,100,50.4c-13,0-25-3.7-35.2-10.1c-18.5,10-32.2,27.5-37.1,48.4c-0.2,0.7-0.3,1.4-0.4,2.1
				c-1,4.8-1.5,9.8-1.5,14.9c0,2.6,0.1,5.2,0.4,7.8c1.4,13,6.1,25,13.3,35.1c0.1-1.1,0.4-2.2,0.8-3.3l0.1-0.3c0-0.1,0-0.1,0.1-0.1
				l12.3-26.8l4.3,9.3v-0.4c0-5.2,4.3-9.6,9.6-9.6h67c5.3,0,9.6,4.3,9.6,9.6v39c16.9-12,28.5-31,30.8-52.7c0.3-2.6,0.4-5.2,0.4-7.8
				C174.3,100.6,173.8,95.7,172.8,90.9z"/>
			<path class="st2" d="M79.5,105.8h-5.9c0-4.9-4-8.9-8.9-8.9c-4.9,0-8.9,4-8.9,8.9h-5.9c0-8.2,6.7-14.9,14.9-14.9
				C72.8,90.9,79.5,97.6,79.5,105.8z"/>
			<path class="st2" d="M53.5,163.7c1.2-0.1,2.3-0.3,3.4-0.7v3.3C55.8,165.4,54.6,164.6,53.5,163.7z"/>
			<path class="st2" d="M150.8,105.8h-5.9c0-4.9-4-8.9-8.9-8.9c-4.9,0-8.9,4-8.9,8.9h-5.9c0-8.2,6.7-14.9,14.9-14.9
				C144.1,90.9,150.8,97.6,150.8,105.8z"/>
		</g>
		<g>
			<path class="st4" d="M119.6,156.3c0-2.3-0.4-4.5-1.2-6.6c-2.7-7.4-9.8-12.7-18.2-12.7c-8.3,0-15.5,5.3-18.2,12.7
				c-0.7,2.1-1.2,4.3-1.2,6.6H75c0-2.3,0.3-4.5,0.9-6.6c2.9-10.7,12.7-18.6,24.4-18.6c11.6,0,21.5,7.9,24.4,18.6
				c0.6,2.1,0.9,4.3,0.9,6.6H119.6z M133.5,117.7h-67c-5.3,0-9.6,4.3-9.6,9.6v0.4l2.3,4.9l5.7,12.5c0,0,0,0.1,0.1,0.1l0.1,0.3
				c0.5,1.3,0.8,2.7,0.9,4.2c0,0.2,0,0.4,0,0.7c0,5.9-3.8,10.9-9.1,12.7v4.6c0,2.4,0.9,4.7,2.5,6.1C70.8,184,84.8,190,100,190
				c15.2,0,29.2-6,40.5-16.3c1.6-1.4,2.5-3.7,2.5-6.1v-40.4C143.1,122,138.8,117.7,133.5,117.7z"/>
		</g>
	</g>
	<g>
		<g>
			<path class="st4" d="M79.5,105.8h-5.9c0-4.9-4-8.9-8.9-8.9c-4.9,0-8.9,4-8.9,8.9h-5.9c0-8.2,6.7-14.9,14.9-14.9
				C72.8,90.9,79.5,97.6,79.5,105.8z"/>
		</g>
		<g>
			<path class="st4" d="M150.8,105.8h-5.9c0-4.9-4-8.9-8.9-8.9c-4.9,0-8.9,4-8.9,8.9h-5.9c0-8.2,6.7-14.9,14.9-14.9
				C144.1,90.9,150.8,97.6,150.8,105.8z"/>
		</g>
	</g>
	<g>
		<path class="st2" d="M125.5,156.3h-5.9c0-2.3-0.4-4.5-1.2-6.6c-2.7-7.4-9.8-12.7-18.2-12.7c-8.3,0-15.5,5.3-18.2,12.7
			c-0.7,2.1-1.2,4.3-1.2,6.6H75c0-2.3,0.3-4.5,0.9-6.6c2.9-10.7,12.7-18.6,24.4-18.6c11.6,0,21.5,7.9,24.4,18.6
			C125.2,151.8,125.5,154,125.5,156.3z"/>
	</g>
	<g>
		<path class="st5" d="M66,150.3c0,5.9-3.8,10.9-9.1,12.7c-1.1,0.4-2.2,0.6-3.4,0.7c-0.3,0-0.6,0-0.9,0c-7.4,0-13.4-6-13.4-13.4
			c0-0.6,0-1.1,0.1-1.6c0.1-1.1,0.4-2.2,0.8-3.3l0.1-0.3c0-0.1,0-0.1,0.1-0.1l12.3-26.8l4.3,9.3l2.3,4.9l5.7,12.5c0,0,0,0.1,0.1,0.1
			l0.1,0.3c0.5,1.3,0.8,2.7,0.9,4.2C66,149.9,66,150.1,66,150.3z"/>
	</g>
</g>
</svg>
