<?xml version="1.0" encoding="utf-8"?>
<!-- Generator: Adobe Illustrator 22.1.0, SVG Export Plug-In . SVG Version: 6.00 Build 0)  -->
<svg version="1.1" id="Camada_1" xmlns="http://www.w3.org/2000/svg" xmlns:xlink="http://www.w3.org/1999/xlink" x="0px" y="0px"
	 viewBox="0 0 200 200" style="enable-background:new 0 0 200 200;" xml:space="preserve">
<style type="text/css">
	.st0{fill:#7F5100;}
	.st1{fill:#5B3800;}
	.st2{fill:#FFDB64;}
	.st3{fill:#FFFFFF;}
	.st4{fill:#1A1A1A;}
	.st5{fill:#00CCFF;}
	.st6{fill:#CCCCCC;}
	.st7{fill:#E5AA63;}
	.st8{fill:#333333;}
	.st9{fill:#666666;}
	.st10{fill:#F94E63;}
	.st11{fill:#8899A6;}
	.st12{fill:#F4900C;}
	.st13{fill:#009B34;}
	.st14{fill:#FFDB59;}
	.st15{fill:#F59000;}
	.st16{fill:#FB4C60;}
	.st17{fill:#096EDF;}
	.st18{fill:#292F33;}
	.st19{fill:#F3D29E;}
	.st20{fill:#805100;}
	.st21{fill:#66757F;}
	.st22{fill:#138F3E;}
	.st23{fill:#CCD6DD;}
	.st24{fill:#AAB8C2;}
	.st25{fill:#F3D2A2;}
	.st26{fill-rule:evenodd;clip-rule:evenodd;fill:#292F33;}
	.st27{fill:#404040;}
	.st28{fill:#F2F2F2;}
	.st29{fill:#1771DD;}
	.st30{fill:#009B3A;}
	.st31{fill:#55ACEE;}
	.st32{fill:#999999;}
	.st33{fill:#EF9645;}
	.st34{fill:#FFA766;}
	.st35{fill:#99AAB5;}
	.st36{fill:#E1E8ED;}
	.st37{fill:#FFCC4D;}
	.st38{fill:#FFCC3E;}
	.st39{fill:#00CAFF;}
	.st40{fill:#E9CC39;}
	.st41{fill:#D6B736;}
	.st42{fill:#3AAA35;}
	.st43{fill:#95C11F;}
	.st44{fill:#E30613;}
	.st45{fill:#BE1622;}
	.st46{fill:#E6332A;}
	.st47{fill:#009FE3;}
	.st48{fill:#2791D8;}
	.st49{fill:#3BBFF2;}
	.st50{opacity:0.8;enable-background:new    ;}
	.st51{fill:#BDD7B8;}
	.st52{fill:#8E562E;}
	.st53{fill:#3558A0;}
	.st54{fill:#FAD220;}
	.st55{fill:#FF5000;}
	.st56{fill:#FF000E;}
	.st57{fill:#880082;}
	.st58{fill:#FDCB58;}
</style>
<g>
	<circle class="st8" cx="101.2" cy="52.3" r="41.5"/>
	<path d="M25,107.7c0-42.1,34.1-76.2,76.2-76.2s76.2,34.1,76.2,76.2"/>
	<path d="M177.3,107c0,42.1-34.1,76.2-76.2,76.2S25,149.1,25,107"/>
	<circle class="st7" cx="101.2" cy="121.5" r="69.2"/>
	<g>
		<g>
			<circle class="st4" cx="67.9" cy="116" r="6.9"/>
		</g>
		<g>
			<circle class="st4" cx="134.4" cy="116" r="6.9"/>
		</g>
		<g>
			<path class="st4" d="M116.7,162.3c-3.2-5.6-9.2-9-15.6-9c-6.4,0-12.4,3.5-15.6,9l-4.8-2.8c4.2-7.3,12-11.8,20.4-11.8
				c8.4,0,16.2,4.5,20.4,11.8L116.7,162.3z"/>
		</g>
		<g>
			<rect x="74.2" y="93.4" transform="matrix(0.5 -0.866 0.866 0.5 -51.4254 118.5278)" class="st4" width="5.5" height="20.8"/>
		</g>
		<g>
			<rect x="115" y="101" transform="matrix(0.866 -0.5 0.5 0.866 -35.0989 76.6167)" class="st4" width="20.8" height="5.5"/>
		</g>
	</g>
</g>
</svg>
