<?xml version="1.0" encoding="utf-8"?>
<!-- Generator: Adobe Illustrator 22.1.0, SVG Export Plug-In . SVG Version: 6.00 Build 0)  -->
<svg version="1.1" id="Camada_1" xmlns="http://www.w3.org/2000/svg" xmlns:xlink="http://www.w3.org/1999/xlink" x="0px" y="0px"
	 viewBox="0 0 200 200" style="enable-background:new 0 0 200 200;" xml:space="preserve">
<style type="text/css">
	.st0{fill:#7F5100;}
	.st1{fill:#5B3800;}
	.st2{fill:#FFDB64;}
	.st3{fill:#FFFFFF;}
	.st4{fill:#1A1A1A;}
	.st5{fill:#00CCFF;}
	.st6{fill:#CCCCCC;}
	.st7{fill:#E5AA63;}
	.st8{fill:#333333;}
	.st9{fill:#666666;}
	.st10{fill:#F94E63;}
	.st11{fill:#8899A6;}
	.st12{fill:#F4900C;}
	.st13{fill:#009B34;}
	.st14{fill:#FFDB59;}
	.st15{fill:#F59000;}
	.st16{fill:#FB4C60;}
	.st17{fill:#096EDF;}
	.st18{fill:#292F33;}
	.st19{fill:#F3D29E;}
	.st20{fill:#805100;}
	.st21{fill:#66757F;}
	.st22{fill:#138F3E;}
	.st23{fill:#CCD6DD;}
	.st24{fill:#AAB8C2;}
	.st25{fill:#F3D2A2;}
	.st26{fill-rule:evenodd;clip-rule:evenodd;fill:#292F33;}
	.st27{fill:#404040;}
	.st28{fill:#F2F2F2;}
	.st29{fill:#1771DD;}
	.st30{fill:#009B3A;}
	.st31{fill:#55ACEE;}
	.st32{fill:#999999;}
	.st33{fill:#EF9645;}
	.st34{fill:#FFA766;}
	.st35{fill:#99AAB5;}
	.st36{fill:#E1E8ED;}
	.st37{fill:#FFCC4D;}
	.st38{fill:#FFCC3E;}
	.st39{fill:#00CAFF;}
	.st40{fill:#E9CC39;}
	.st41{fill:#D6B736;}
	.st42{fill:#3AAA35;}
	.st43{fill:#95C11F;}
	.st44{fill:#E30613;}
	.st45{fill:#BE1622;}
	.st46{fill:#E6332A;}
	.st47{fill:#009FE3;}
	.st48{fill:#2791D8;}
	.st49{fill:#3BBFF2;}
	.st50{opacity:0.8;enable-background:new    ;}
	.st51{fill:#BDD7B8;}
	.st52{fill:#8E562E;}
	.st53{fill:#3558A0;}
	.st54{fill:#FAD220;}
	.st55{fill:#FF5000;}
	.st56{fill:#FF000E;}
	.st57{fill:#880082;}
	.st58{fill:#FDCB58;}
</style>
<g>
	<g>
		<path d="M100,190c-49.6,0-90-40.4-90-90s40.4-90,90-90s90,40.4,90,90S149.6,190,100,190z M100,12c-48.5,0-88,39.5-88,88
			s39.5,88,88,88s88-39.5,88-88S148.5,12,100,12z"/>
	</g>
	<g>
		<g>
			<path d="M100,141.8c-13.3,0-24.1-10.8-24.1-24.1V81.5c0-13.3,10.8-24.1,24.1-24.1c13.3,0,24.1,10.8,24.1,24.1v36.3
				C124.1,131,113.3,141.8,100,141.8z M100,59.4c-12.2,0-22.1,9.9-22.1,22.1v36.3c0,12.2,9.9,22.1,22.1,22.1
				c12.2,0,22.1-9.9,22.1-22.1V81.5C122.1,69.3,112.2,59.4,100,59.4z"/>
		</g>
		<g>
			<path d="M100,153.4c-19.6,0-35.6-16-35.6-35.6V100c0-0.5,0.4-1,1-1s1,0.4,1,1v17.7c0,18.5,15.1,33.6,33.6,33.6
				s33.6-15.1,33.6-33.6V100c0-0.5,0.4-1,1-1s1,0.4,1,1v17.7C135.6,137.4,119.6,153.4,100,153.4z"/>
		</g>
		<g>
			<path d="M100,190c-0.5,0-1-0.4-1-1v-36.6c0-0.5,0.4-1,1-1s1,0.4,1,1V189C101,189.6,100.5,190,100,190z"/>
		</g>
	</g>
</g>
</svg>
