<?xml version="1.0" encoding="utf-8"?>
<!-- Generator: Adobe Illustrator 22.1.0, SVG Export Plug-In . SVG Version: 6.00 Build 0)  -->
<svg version="1.1" id="Camada_1" xmlns="http://www.w3.org/2000/svg" xmlns:xlink="http://www.w3.org/1999/xlink" x="0px" y="0px"
	 viewBox="0 0 200 200" style="enable-background:new 0 0 200 200;" xml:space="preserve">
<style type="text/css">
	.st0{fill:#7F5100;}
	.st1{fill:#5B3800;}
	.st2{fill:#FFDB64;}
	.st3{fill:#FFFFFF;}
	.st4{fill:#1A1A1A;}
	.st5{fill:#00CCFF;}
	.st6{fill:#CCCCCC;}
	.st7{fill:#E5AA63;}
	.st8{fill:#333333;}
	.st9{fill:#666666;}
	.st10{fill:#F94E63;}
	.st11{fill:#8899A6;}
	.st12{fill:#F4900C;}
	.st13{fill:#009B34;}
	.st14{fill:#FFDB59;}
	.st15{fill:#F59000;}
	.st16{fill:#FB4C60;}
	.st17{fill:#096EDF;}
	.st18{fill:#292F33;}
	.st19{fill:#F3D29E;}
	.st20{fill:#805100;}
	.st21{fill:#66757F;}
	.st22{fill:#138F3E;}
	.st23{fill:#CCD6DD;}
	.st24{fill:#AAB8C2;}
	.st25{fill:#F3D2A2;}
	.st26{fill-rule:evenodd;clip-rule:evenodd;fill:#292F33;}
	.st27{fill:#404040;}
	.st28{fill:#F2F2F2;}
	.st29{fill:#1771DD;}
	.st30{fill:#009B3A;}
	.st31{fill:#55ACEE;}
	.st32{fill:#999999;}
	.st33{fill:#EF9645;}
	.st34{fill:#FFA766;}
	.st35{fill:#99AAB5;}
	.st36{fill:#E1E8ED;}
	.st37{fill:#FFCC4D;}
	.st38{fill:#FFCC3E;}
	.st39{fill:#00CAFF;}
	.st40{fill:#E9CC39;}
	.st41{fill:#D6B736;}
	.st42{fill:#3AAA35;}
	.st43{fill:#95C11F;}
	.st44{fill:#E30613;}
	.st45{fill:#BE1622;}
	.st46{fill:#E6332A;}
	.st47{fill:#009FE3;}
	.st48{fill:#2791D8;}
	.st49{fill:#3BBFF2;}
	.st50{opacity:0.8;enable-background:new    ;}
	.st51{fill:#BDD7B8;}
	.st52{fill:#8E562E;}
	.st53{fill:#3558A0;}
	.st54{fill:#FAD220;}
	.st55{fill:#FF5000;}
	.st56{fill:#FF000E;}
	.st57{fill:#880082;}
	.st58{fill:#FDCB58;}
</style>
<g>
	<g>
		<path class="st6" d="M100,191c-50.2,0-91-40.8-91-91S49.8,9,100,9s91,40.8,91,91S150.2,191,100,191z M100,11
			c-49.1,0-89,39.9-89,89s39.9,89,89,89s89-39.9,89-89S149.1,11,100,11z"/>
	</g>
	<g>
		<g>
			<path class="st6" d="M100,142.3c-13.4,0-24.3-10.9-24.3-24.3V81.3C75.7,67.9,86.6,57,100,57c13.4,0,24.3,10.9,24.3,24.3v36.7
				C124.3,131.4,113.4,142.3,100,142.3z M100,59c-12.3,0-22.3,10-22.3,22.3v36.7c0,12.3,10,22.3,22.3,22.3c12.3,0,22.3-10,22.3-22.3
				V81.3C122.3,69,112.3,59,100,59z"/>
		</g>
		<g>
			<path class="st6" d="M100,153.9c-19.9,0-36-16.1-36-36V100c0-0.6,0.4-1,1-1s1,0.4,1,1v17.9c0,18.7,15.3,34,34,34s34-15.3,34-34
				V100c0-0.6,0.4-1,1-1s1,0.4,1,1v17.9C136,137.8,119.9,153.9,100,153.9z"/>
		</g>
		<g>
			<path class="st6" d="M100,191c-0.6,0-1-0.4-1-1v-37.1c0-0.6,0.4-1,1-1s1,0.4,1,1V190C101,190.6,100.6,191,100,191z"/>
		</g>
	</g>
</g>
</svg>
