<?xml version="1.0" encoding="utf-8"?>
<!-- Generator: Adobe Illustrator 22.1.0, SVG Export Plug-In . SVG Version: 6.00 Build 0)  -->
<svg version="1.1" id="Camada_1" xmlns="http://www.w3.org/2000/svg" xmlns:xlink="http://www.w3.org/1999/xlink" x="0px" y="0px"
	 viewBox="0 0 200 200" style="enable-background:new 0 0 200 200;" xml:space="preserve">
<style type="text/css">
	.st0{fill:#7F5100;}
	.st1{fill:#5B3800;}
	.st2{fill:#FFDB64;}
	.st3{fill:#FFFFFF;}
	.st4{fill:#1A1A1A;}
	.st5{fill:#00CCFF;}
	.st6{fill:#CCCCCC;}
	.st7{fill:#E5AA63;}
	.st8{fill:#333333;}
	.st9{fill:#666666;}
	.st10{fill:#F94E63;}
	.st11{fill:#8899A6;}
	.st12{fill:#F4900C;}
	.st13{fill:#009B34;}
	.st14{fill:#FFDB59;}
	.st15{fill:#F59000;}
	.st16{fill:#FB4C60;}
	.st17{fill:#096EDF;}
	.st18{fill:#292F33;}
	.st19{fill:#F3D29E;}
	.st20{fill:#805100;}
	.st21{fill:#66757F;}
	.st22{fill:#138F3E;}
	.st23{fill:#CCD6DD;}
	.st24{fill:#AAB8C2;}
	.st25{fill:#F3D2A2;}
	.st26{fill-rule:evenodd;clip-rule:evenodd;fill:#292F33;}
	.st27{fill:#404040;}
	.st28{fill:#F2F2F2;}
	.st29{fill:#1771DD;}
	.st30{fill:#009B3A;}
	.st31{fill:#55ACEE;}
	.st32{fill:#999999;}
	.st33{fill:#EF9645;}
	.st34{fill:#FFA766;}
	.st35{fill:#99AAB5;}
	.st36{fill:#E1E8ED;}
	.st37{fill:#FFCC4D;}
	.st38{fill:#FFCC3E;}
	.st39{fill:#00CAFF;}
	.st40{fill:#E9CC39;}
	.st41{fill:#D6B736;}
	.st42{fill:#3AAA35;}
	.st43{fill:#95C11F;}
	.st44{fill:#E30613;}
	.st45{fill:#BE1622;}
	.st46{fill:#E6332A;}
	.st47{fill:#009FE3;}
	.st48{fill:#2791D8;}
	.st49{fill:#3BBFF2;}
	.st50{opacity:0.8;enable-background:new    ;}
	.st51{fill:#BDD7B8;}
	.st52{fill:#8E562E;}
	.st53{fill:#3558A0;}
	.st54{fill:#FAD220;}
	.st55{fill:#FF5000;}
	.st56{fill:#FF000E;}
	.st57{fill:#880082;}
	.st58{fill:#FDCB58;}
</style>
<g>
	<g>
		<path d="M100,190c-49.6,0-90-40.4-90-90s40.4-90,90-90s90,40.4,90,90S149.6,190,100,190z M100,13.7c-47.6,0-86.3,38.7-86.3,86.3
			s38.7,86.3,86.3,86.3s86.3-38.7,86.3-86.3S147.6,13.7,100,13.7z"/>
	</g>
	<g>
		<g>
			<path d="M70.6,141c-1,0-1.8-0.8-1.8-1.8V80.4c0-1,0.8-1.8,1.8-1.8s1.8,0.8,1.8,1.8v58.8C72.4,140.2,71.6,141,70.6,141z"/>
		</g>
		<g>
			<path d="M100,141c-1,0-1.8-0.8-1.8-1.8v-49c0-1,0.8-1.8,1.8-1.8s1.8,0.8,1.8,1.8v49C101.8,140.2,101,141,100,141z"/>
		</g>
		<g>
			<path d="M129.4,141c-1,0-1.8-0.8-1.8-1.8V60.8c0-1,0.8-1.8,1.8-1.8s1.8,0.8,1.8,1.8v78.4C131.2,140.2,130.4,141,129.4,141z"/>
		</g>
		<g>
			<path d="M150.4,141H49.6c-1,0-1.8-0.8-1.8-1.8c0-1,0.8-1.8,1.8-1.8h100.7c1,0,1.8,0.8,1.8,1.8C152.2,140.2,151.4,141,150.4,141z"
				/>
		</g>
	</g>
</g>
</svg>
