<?xml version="1.0" encoding="utf-8"?>
<!-- Generator: Adobe Illustrator 22.1.0, SVG Export Plug-In . SVG Version: 6.00 Build 0)  -->
<svg version="1.1" id="Camada_1" xmlns="http://www.w3.org/2000/svg" xmlns:xlink="http://www.w3.org/1999/xlink" x="0px" y="0px"
	 viewBox="0 0 200 200" style="enable-background:new 0 0 200 200;" xml:space="preserve">
<style type="text/css">
	.st0{fill:#7F5100;}
	.st1{fill:#5B3800;}
	.st2{fill:#FFDB64;}
	.st3{fill:#FFFFFF;}
	.st4{fill:#1A1A1A;}
	.st5{fill:#00CCFF;}
	.st6{fill:#CCCCCC;}
	.st7{fill:#E5AA63;}
	.st8{fill:#333333;}
	.st9{fill:#666666;}
	.st10{fill:#F94E63;}
	.st11{fill:#8899A6;}
	.st12{fill:#F4900C;}
	.st13{fill:#009B34;}
	.st14{fill:#FFDB59;}
	.st15{fill:#F59000;}
	.st16{fill:#FB4C60;}
	.st17{fill:#096EDF;}
	.st18{fill:#292F33;}
	.st19{fill:#F3D29E;}
	.st20{fill:#805100;}
	.st21{fill:#66757F;}
	.st22{fill:#138F3E;}
	.st23{fill:#CCD6DD;}
	.st24{fill:#AAB8C2;}
	.st25{fill:#F3D2A2;}
	.st26{fill-rule:evenodd;clip-rule:evenodd;fill:#292F33;}
	.st27{fill:#404040;}
	.st28{fill:#F2F2F2;}
	.st29{fill:#1771DD;}
	.st30{fill:#009B3A;}
	.st31{fill:#55ACEE;}
	.st32{fill:#999999;}
	.st33{fill:#EF9645;}
	.st34{fill:#FFA766;}
	.st35{fill:#99AAB5;}
	.st36{fill:#E1E8ED;}
	.st37{fill:#FFCC4D;}
	.st38{fill:#FFCC3E;}
	.st39{fill:#00CAFF;}
	.st40{fill:#E9CC39;}
	.st41{fill:#D6B736;}
	.st42{fill:#3AAA35;}
	.st43{fill:#95C11F;}
	.st44{fill:#E30613;}
	.st45{fill:#BE1622;}
	.st46{fill:#E6332A;}
	.st47{fill:#009FE3;}
	.st48{fill:#2791D8;}
	.st49{fill:#3BBFF2;}
	.st50{opacity:0.8;enable-background:new    ;}
	.st51{fill:#BDD7B8;}
	.st52{fill:#8E562E;}
	.st53{fill:#3558A0;}
	.st54{fill:#FAD220;}
	.st55{fill:#FF5000;}
	.st56{fill:#FF000E;}
	.st57{fill:#880082;}
	.st58{fill:#FDCB58;}
</style>
<g>
	<path class="st10" d="M163.5,172.9l-21-5.6c-0.6-0.2-1.3,0.2-1.4,0.8l-5.6,21.1c-0.3,1-1.6,1.2-2.2,0.3L100,131.9l-33.2,57.5
		c-0.5,0.9-1.9,0.7-2.2-0.3L59,168c-0.2-0.6-0.8-1-1.4-0.8l-21,5.6c-1,0.3-1.9-0.8-1.3-1.7l53.4-92.4l0,0c5.3-8.5,17.7-8.5,23,0l0,0
		l53.3,92.4C165.4,172,164.5,173.1,163.5,172.9z"/>
	<path class="st12" d="M162.8,77.1l-6.3,6.7l3.8,8.4c1.5,3.3,0,7.3-3.3,8.8l-8.4,3.8l0.3,9.2c0.1,3.6-2.8,6.7-6.4,6.9l-9.2,0.3
		l-3.2,8.6c-1.3,3.4-5.1,5.2-8.5,3.9l-8.6-3.2l-6.3,6.7c-2.5,2.7-6.7,2.8-9.4,0.3l-6.7-6.2l-8.4,3.8c-3.3,1.5-7.3,0-8.8-3.3
		l-3.8-8.4l-9.2,0.3c-3.6,0.1-6.7-2.8-6.9-6.4l-0.3-9.2l-8.6-3.2c-3.4-1.3-5.2-5.1-3.9-8.5l3.2-8.6l-6.7-6.3
		c-2.7-2.5-2.8-6.7-0.3-9.4l6.3-6.7L39.6,57c-1.5-3.3,0-7.3,3.3-8.8l8.4-3.8l-0.3-9.2c-0.1-3.6,2.8-6.7,6.4-6.9l9.2-0.3l3.2-8.6
		c1.3-3.4,5.1-5.2,8.5-3.9l8.6,3.2l6.3-6.7c2.5-2.7,6.7-2.8,9.4-0.3l6.7,6.3l8.4-3.8c3.3-1.5,7.3,0,8.8,3.3l3.8,8.4l9.2-0.3
		c3.6-0.1,6.7,2.8,6.9,6.4l0.3,9.2l8.6,3.2c3.4,1.3,5.2,5.1,3.9,8.5l-3.2,8.6l6.7,6.3C165.2,70.2,165.3,74.4,162.8,77.1z"/>
	<circle class="st3" cx="100" cy="75.2" r="44.2"/>
	<g>
		<path class="st8" d="M86.7,89.4c-0.8-0.7-1.5-1.9-1.5-3.1c0-2.3,1.9-4.2,4.2-4.2c1.3,0,2.1,0.5,2.8,1.1c2.3,1.9,4.7,3,7.8,3
			c3.3,0,5.6-1.9,5.6-4.8v-0.1c0-3.3-2.9-5.1-7.8-5.1h-1.4c-2.1,0-3.8-1.7-3.8-3.8c0-1.2,0.5-2.2,1.9-3.6l7.8-7.8H90.2
			c-2.1,0-3.8-1.7-3.8-3.8s1.7-3.8,3.8-3.8h19.5c2.6,0,4.5,1.5,4.5,3.9c0,2.2-1,3.4-2.6,4.9l-7.8,7.5c5.4,0.9,10.7,3.8,10.7,11.2
			v0.1c0,7.5-5.5,13.1-14.4,13.1C94.3,93.9,90,92.1,86.7,89.4z"/>
	</g>
</g>
</svg>
