<?xml version="1.0" encoding="utf-8"?>
<!-- Generator: Adobe Illustrator 22.1.0, SVG Export Plug-In . SVG Version: 6.00 Build 0)  -->
<svg version="1.1" id="Camada_1" xmlns="http://www.w3.org/2000/svg" xmlns:xlink="http://www.w3.org/1999/xlink" x="0px" y="0px"
	 viewBox="0 0 200 200" style="enable-background:new 0 0 200 200;" xml:space="preserve">
<style type="text/css">
	.st0{fill:#7F5100;}
	.st1{fill:#5B3800;}
	.st2{fill:#FFDB64;}
	.st3{fill:#FFFFFF;}
	.st4{fill:#1A1A1A;}
	.st5{fill:#00CCFF;}
	.st6{fill:#CCCCCC;}
	.st7{fill:#E5AA63;}
	.st8{fill:#333333;}
	.st9{fill:#666666;}
	.st10{fill:#F94E63;}
	.st11{fill:#8899A6;}
	.st12{fill:#F4900C;}
	.st13{fill:#009B34;}
	.st14{fill:#FFDB59;}
	.st15{fill:#F59000;}
	.st16{fill:#FB4C60;}
	.st17{fill:#096EDF;}
	.st18{fill:#292F33;}
	.st19{fill:#F3D29E;}
	.st20{fill:#805100;}
	.st21{fill:#66757F;}
	.st22{fill:#138F3E;}
	.st23{fill:#CCD6DD;}
	.st24{fill:#AAB8C2;}
	.st25{fill:#F3D2A2;}
	.st26{fill-rule:evenodd;clip-rule:evenodd;fill:#292F33;}
	.st27{fill:#404040;}
	.st28{fill:#F2F2F2;}
	.st29{fill:#1771DD;}
	.st30{fill:#009B3A;}
	.st31{fill:#55ACEE;}
	.st32{fill:#999999;}
	.st33{fill:#EF9645;}
	.st34{fill:#FFA766;}
	.st35{fill:#99AAB5;}
	.st36{fill:#E1E8ED;}
	.st37{fill:#FFCC4D;}
	.st38{fill:#FFCC3E;}
	.st39{fill:#00CAFF;}
	.st40{fill:#E9CC39;}
	.st41{fill:#D6B736;}
	.st42{fill:#3AAA35;}
	.st43{fill:#95C11F;}
	.st44{fill:#E30613;}
	.st45{fill:#BE1622;}
	.st46{fill:#E6332A;}
	.st47{fill:#009FE3;}
	.st48{fill:#2791D8;}
	.st49{fill:#3BBFF2;}
	.st50{opacity:0.8;enable-background:new    ;}
	.st51{fill:#BDD7B8;}
	.st52{fill:#8E562E;}
	.st53{fill:#3558A0;}
	.st54{fill:#FAD220;}
	.st55{fill:#FF5000;}
	.st56{fill:#FF000E;}
	.st57{fill:#880082;}
	.st58{fill:#FDCB58;}
</style>
<g>
	<path class="st6" d="M100,190c-49.6,0-90-40.4-90-90s40.4-90,90-90s90,40.4,90,90S149.6,190,100,190z M100,13.7
		c-47.6,0-86.3,38.7-86.3,86.3s38.7,86.3,86.3,86.3s86.3-38.7,86.3-86.3S147.6,13.7,100,13.7z"/>
</g>
<g>
	<path class="st6" d="M64.8,159.6c-0.5,0-1-0.1-1.5-0.4c-1.2-0.7-1.8-2.2-1.2-3.5l14.8-39.1L58,105.8c-0.8-0.5-1.5-1.3-1.7-2.3
		c-0.2-1-0.1-2,0.5-2.8C63.7,90,76.2,84,88.9,85l15.4-40.7c0.6-1.7,1.9-2.9,3.6-3.5c1.7-0.6,3.5-0.4,5,0.5l27.9,16.1
		c1.5,0.9,2.6,2.4,2.9,4.1c0.3,1.7-0.1,3.5-1.3,4.9L114.9,100c7.2,10.5,8.2,24.3,2.4,35.7c-0.4,0.9-1.2,1.5-2.2,1.8
		c-0.9,0.3-2,0.2-2.8-0.3l-18.9-10.9L67,158.6C66.4,159.3,65.6,159.6,64.8,159.6z M86.1,88.5c-10.5,0-20.5,5.3-26.3,14.2l20.2,11.6
		c0.8,0.5,1.1,1.4,0.8,2.2l-13.6,35.9l24.3-29.7c0.6-0.7,1.6-0.9,2.3-0.4l20.3,11.7c5.2-10.5,4.1-23.5-3.1-33
		c-0.5-0.7-0.5-1.6,0-2.3L139.6,64c0.4-0.5,0.6-1.2,0.5-1.9c-0.1-0.7-0.5-1.3-1.1-1.6l0,0l-27.9-16.1c-0.6-0.4-1.3-0.4-2-0.2
		c-0.7,0.2-1.2,0.7-1.4,1.4l-15.9,42c-0.3,0.8-1.1,1.3-1.9,1.2C88.6,88.6,87.4,88.5,86.1,88.5z"/>
</g>
</svg>
