<?xml version="1.0" encoding="utf-8"?>
<!-- Generator: Adobe Illustrator 22.1.0, SVG Export Plug-In . SVG Version: 6.00 Build 0)  -->
<svg version="1.1" id="Camada_1" xmlns="http://www.w3.org/2000/svg" xmlns:xlink="http://www.w3.org/1999/xlink" x="0px" y="0px"
	 viewBox="0 0 200 200" style="enable-background:new 0 0 200 200;" xml:space="preserve">
<style type="text/css">
	.st0{fill:#7F5100;}
	.st1{fill:#5B3800;}
	.st2{fill:#FFDB64;}
	.st3{fill:#FFFFFF;}
	.st4{fill:#1A1A1A;}
	.st5{fill:#00CCFF;}
	.st6{fill:#CCCCCC;}
	.st7{fill:#E5AA63;}
	.st8{fill:#333333;}
	.st9{fill:#666666;}
	.st10{fill:#F94E63;}
	.st11{fill:#8899A6;}
	.st12{fill:#F4900C;}
	.st13{fill:#009B34;}
	.st14{fill:#FFDB59;}
	.st15{fill:#F59000;}
	.st16{fill:#FB4C60;}
	.st17{fill:#096EDF;}
	.st18{fill:#292F33;}
	.st19{fill:#F3D29E;}
	.st20{fill:#805100;}
	.st21{fill:#66757F;}
	.st22{fill:#138F3E;}
	.st23{fill:#CCD6DD;}
	.st24{fill:#AAB8C2;}
	.st25{fill:#F3D2A2;}
	.st26{fill-rule:evenodd;clip-rule:evenodd;fill:#292F33;}
	.st27{fill:#404040;}
	.st28{fill:#F2F2F2;}
	.st29{fill:#1771DD;}
	.st30{fill:#009B3A;}
	.st31{fill:#55ACEE;}
	.st32{fill:#999999;}
	.st33{fill:#EF9645;}
	.st34{fill:#FFA766;}
	.st35{fill:#99AAB5;}
	.st36{fill:#E1E8ED;}
	.st37{fill:#FFCC4D;}
	.st38{fill:#FFCC3E;}
	.st39{fill:#00CAFF;}
	.st40{fill:#E9CC39;}
	.st41{fill:#D6B736;}
	.st42{fill:#3AAA35;}
	.st43{fill:#95C11F;}
	.st44{fill:#E30613;}
	.st45{fill:#BE1622;}
	.st46{fill:#E6332A;}
	.st47{fill:#009FE3;}
	.st48{fill:#2791D8;}
	.st49{fill:#3BBFF2;}
	.st50{opacity:0.8;enable-background:new    ;}
	.st51{fill:#BDD7B8;}
	.st52{fill:#8E562E;}
	.st53{fill:#3558A0;}
	.st54{fill:#FAD220;}
	.st55{fill:#FF5000;}
	.st56{fill:#FF000E;}
	.st57{fill:#880082;}
	.st58{fill:#FDCB58;}
</style>
<g>
	<path class="st21" d="M183,151.4H17c-3.9,0-7-3.1-7-7V55.6c0-3.9,3.1-7,7-7h166c3.9,0,7,3.1,7,7v88.8
		C190,148.2,186.9,151.4,183,151.4z"/>
	<path class="st6" d="M183,145.2H17c-3.9,0-7-3.2-7-7V55.6c0-3.9,3.1-7,7-7h166c3.9,0,7,3.1,7,7v82.6C190,142,186.9,145.2,183,145.2
		z"/>
	<g>
		<path d="M121.7,77.7h-13.6c-1.4,0-2.6-1.2-2.6-2.6v-9c0-1.4,1.2-2.6,2.6-2.6h13.6c1.4,0,2.6,1.2,2.6,2.6v9
			C124.3,76.5,123.1,77.7,121.7,77.7z"/>
		<path d="M149.3,77.7h-13.6c-1.4,0-2.6-1.2-2.6-2.6v-9c0-1.4,1.2-2.6,2.6-2.6h13.6c1.4,0,2.6,1.2,2.6,2.6v9
			C151.9,76.5,150.7,77.7,149.3,77.7z"/>
		<path d="M176.9,77.7h-13.6c-1.4,0-2.6-1.2-2.6-2.6v-9c0-1.4,1.2-2.6,2.6-2.6h13.6c1.4,0,2.6,1.2,2.6,2.6v9
			C179.5,76.5,178.3,77.7,176.9,77.7z"/>
		<path d="M121.7,97.3h-13.6c-1.4,0-2.6-1.2-2.6-2.6v-9c0-1.4,1.2-2.6,2.6-2.6h13.6c1.4,0,2.6,1.2,2.6,2.6v9
			C124.3,96.1,123.1,97.3,121.7,97.3z"/>
		<path d="M149.3,97.3h-13.6c-1.4,0-2.6-1.2-2.6-2.6v-9c0-1.4,1.2-2.6,2.6-2.6h13.6c1.4,0,2.6,1.2,2.6,2.6v9
			C151.9,96.1,150.7,97.3,149.3,97.3z"/>
		<path d="M176.9,97.3h-13.6c-1.4,0-2.6-1.2-2.6-2.6v-9c0-1.4,1.2-2.6,2.6-2.6h13.6c1.4,0,2.6,1.2,2.6,2.6v9
			C179.5,96.1,178.3,97.3,176.9,97.3z"/>
		<path d="M121.7,116.9h-13.6c-1.4,0-2.6-1.2-2.6-2.6v-9c0-1.4,1.2-2.6,2.6-2.6h13.6c1.4,0,2.6,1.2,2.6,2.6v9
			C124.3,115.7,123.1,116.9,121.7,116.9z"/>
		<path d="M149.3,116.9h-13.6c-1.4,0-2.6-1.2-2.6-2.6v-9c0-1.4,1.2-2.6,2.6-2.6h13.6c1.4,0,2.6,1.2,2.6,2.6v9
			C151.9,115.7,150.7,116.9,149.3,116.9z"/>
		<path d="M176.9,116.9h-13.6c-1.4,0-2.6-1.2-2.6-2.6v-9c0-1.4,1.2-2.6,2.6-2.6h13.6c1.4,0,2.6,1.2,2.6,2.6v9
			C179.5,115.7,178.3,116.9,176.9,116.9z"/>
		<path class="st3" d="M121.7,136.5h-13.6c-1.4,0-2.6-1.2-2.6-2.6v-9c0-1.4,1.2-2.6,2.6-2.6h13.6c1.4,0,2.6,1.2,2.6,2.6v9
			C124.3,135.3,123.1,136.5,121.7,136.5z"/>
		<path class="st10" d="M149.3,136.5h-13.6c-1.4,0-2.6-1.2-2.6-2.6v-9c0-1.4,1.2-2.6,2.6-2.6h13.6c1.4,0,2.6,1.2,2.6,2.6v9
			C151.9,135.3,150.7,136.5,149.3,136.5z"/>
		<path class="st22" d="M176.9,136.5h-13.6c-1.4,0-2.6-1.2-2.6-2.6v-9c0-1.4,1.2-2.6,2.6-2.6h13.6c1.4,0,2.6,1.2,2.6,2.6v9
			C179.5,135.3,178.3,136.5,176.9,136.5z"/>
	</g>
	<path class="st21" d="M91.4,116.9h-66c-3.3,0-6-2.7-6-6v-41c0-3.3,2.7-6,6-6h66c3.3,0,6,2.7,6,6v41
		C97.4,114.2,94.8,116.9,91.4,116.9z"/>
</g>
</svg>
