<svg xmlns="http://www.w3.org/2000/svg" width="72" height="12" viewBox="0 0 72 12">
    <g fill="#FFF" fill-rule="nonzero">
        <path d="M26.936 7.43v-.025c0-2.454 1.844-4.464 4.486-4.464 1.29 0 2.163.345 2.875.875.197.148.369.42.369.753a.924.924 0 0 1-.934.924.986.986 0 0 1-.565-.185c-.528-.396-1.082-.616-1.757-.616-1.45 0-2.495 1.208-2.495 2.686v.025c0 1.48 1.02 2.714 2.495 2.714.799 0 1.326-.247 1.868-.68a.881.881 0 0 1 .565-.209c.48 0 .884.394.884.876 0 .296-.147.53-.32.678-.773.678-1.682 1.084-3.059 1.084-2.53.002-4.412-1.957-4.412-4.437zM36.469 3.964c0-.53.417-.95.945-.95s.947.42.947.95v6.881a.94.94 0 0 1-.947.948.94.94 0 0 1-.945-.948v-6.88zm.429-1.8c0-.111.061-.234.123-.333l.676-1.06c.159-.26.392-.42.7-.42.454 0 1.044.283 1.044.566 0 .173-.097.31-.244.444l-.763.716c-.357.333-.651.407-1.07.407-.27 0-.466-.123-.466-.32zM42.806 11.104l-2.789-6.696a1.156 1.156 0 0 1-.11-.456c0-.53.416-.937.945-.937.49 0 .811.283.958.666l2.15 5.584 2.177-5.646a.98.98 0 0 1 .909-.604c.515 0 .933.394.933.913 0 .147-.049.308-.098.42l-2.813 6.757c-.197.468-.554.751-1.069.751h-.125c-.514 0-.87-.283-1.068-.752zM49.51 3.964c0-.53.42-.95.948-.95a.94.94 0 0 1 .945.95v6.881a.94.94 0 0 1-.945.948.94.94 0 0 1-.947-.948v-6.88zM53.171 7.43v-.025c0-2.454 1.844-4.464 4.486-4.464 1.29 0 2.162.345 2.874.875a.95.95 0 0 1 .37.753.924.924 0 0 1-.934.924.988.988 0 0 1-.567-.185c-.526-.396-1.08-.616-1.756-.616-1.45 0-2.494 1.208-2.494 2.686v.025c0 1.48 1.018 2.714 2.494 2.714.798 0 1.326-.247 1.869-.68a.879.879 0 0 1 .564-.209c.48 0 .884.394.884.876 0 .296-.147.53-.318.678-.775.678-1.683 1.084-3.06 1.084-2.532.002-4.412-1.957-4.412-4.437zM61.99 7.43v-.025c0-2.454 1.93-4.464 4.584-4.464s4.559 1.985 4.559 4.439v.025c0 2.453-1.93 4.463-4.585 4.463-2.654 0-4.558-1.985-4.558-4.439zm7.164 0v-.025c0-1.48-1.081-2.713-2.605-2.713s-2.58 1.209-2.58 2.688v.024c0 1.479 1.081 2.713 2.605 2.713 1.523 0 2.58-1.208 2.58-2.688z"/>
        <g>
            <path d="M.063 11.22l3.578-7.848c.126-.278.314-.443.63-.443h.05c.302 0 .503.165.617.443l3.578 7.836a.68.68 0 0 1 .063.253.48.48 0 0 1-.48.481c-.238 0-.402-.166-.49-.366l-.92-2.036H1.852l-.92 2.06c-.088.216-.25.342-.478.342A.451.451 0 0 1 0 11.487c0-.077.014-.164.063-.266zm6.235-2.59L4.27 4.104 2.242 8.63h4.056zM10.475 3.535c0-.278.227-.503.491-.503h2.81c1.99 0 3.3 1.06 3.3 2.804v.025c0 1.91-1.588 2.894-3.464 2.894H11.47v2.68a.507.507 0 0 1-.504.506.505.505 0 0 1-.491-.506v-7.9zm3.175 4.312c1.461 0 2.42-.786 2.42-1.946v-.027c0-1.263-.946-1.92-2.37-1.92h-2.23v3.893h2.18zM18.886 3.535c0-.278.227-.503.49-.503h2.81c1.99 0 3.3 1.06 3.3 2.804v.025c0 1.91-1.587 2.894-3.465 2.894H19.88v2.68a.507.507 0 0 1-.503.506.505.505 0 0 1-.491-.506v-7.9zm3.174 4.312c1.461 0 2.418-.786 2.418-1.946v-.027c0-1.263-.944-1.92-2.366-1.92H19.88v3.893h2.18z"/>
        </g>
    </g>
</svg>
