<?xml version="1.0" encoding="utf-8"?>
<!-- Generator: Adobe Illustrator 22.1.0, SVG Export Plug-In . SVG Version: 6.00 Build 0)  -->
<svg version="1.1" id="Camada_1" xmlns="http://www.w3.org/2000/svg" xmlns:xlink="http://www.w3.org/1999/xlink" x="0px" y="0px"
	 viewBox="0 0 200 200" style="enable-background:new 0 0 200 200;" xml:space="preserve">
<style type="text/css">
	.st0{fill:#7F5100;}
	.st1{fill:#5B3800;}
	.st2{fill:#FFDB64;}
	.st3{fill:#FFFFFF;}
	.st4{fill:#1A1A1A;}
	.st5{fill:#00CCFF;}
	.st6{fill:#CCCCCC;}
	.st7{fill:#E5AA63;}
	.st8{fill:#333333;}
	.st9{fill:#666666;}
	.st10{fill:#F94E63;}
	.st11{fill:#8899A6;}
	.st12{fill:#F4900C;}
	.st13{fill:#009B34;}
	.st14{fill:#FFDB59;}
	.st15{fill:#F59000;}
	.st16{fill:#FB4C60;}
	.st17{fill:#096EDF;}
	.st18{fill:#292F33;}
	.st19{fill:#F3D29E;}
	.st20{fill:#805100;}
	.st21{fill:#66757F;}
	.st22{fill:#138F3E;}
	.st23{fill:#CCD6DD;}
	.st24{fill:#AAB8C2;}
	.st25{fill:#F3D2A2;}
	.st26{fill-rule:evenodd;clip-rule:evenodd;fill:#292F33;}
	.st27{fill:#404040;}
	.st28{fill:#F2F2F2;}
	.st29{fill:#1771DD;}
	.st30{fill:#009B3A;}
	.st31{fill:#55ACEE;}
	.st32{fill:#999999;}
	.st33{fill:#EF9645;}
	.st34{fill:#FFA766;}
	.st35{fill:#99AAB5;}
	.st36{fill:#E1E8ED;}
	.st37{fill:#FFCC4D;}
	.st38{fill:#FFCC3E;}
	.st39{fill:#00CAFF;}
	.st40{fill:#E9CC39;}
	.st41{fill:#D6B736;}
	.st42{fill:#3AAA35;}
	.st43{fill:#95C11F;}
	.st44{fill:#E30613;}
	.st45{fill:#BE1622;}
	.st46{fill:#E6332A;}
	.st47{fill:#009FE3;}
	.st48{fill:#2791D8;}
	.st49{fill:#3BBFF2;}
	.st50{opacity:0.8;enable-background:new    ;}
	.st51{fill:#BDD7B8;}
	.st52{fill:#8E562E;}
	.st53{fill:#3558A0;}
	.st54{fill:#FAD220;}
	.st55{fill:#FF5000;}
	.st56{fill:#FF000E;}
	.st57{fill:#880082;}
	.st58{fill:#FDCB58;}
</style>
<g>
	<path class="st6" d="M152.6,49.9v92.3c0,5.7-4.7,10.4-10.5,10.4H69.8l-31.1,31c-2.8,2.8-7.6,0.8-7.6-3.1v-27.9H17.3
		c-5.7,0-10.4-4.7-10.4-10.4V49.9c0-5.7,4.7-10.4,10.4-10.4h124.8C147.9,39.5,152.6,44.2,152.6,49.9z"/>
	<g>
		<path class="st10" d="M192.2,116.4l-13.1-3.5c-0.4-0.1-0.8,0.1-0.9,0.5l-3.5,13.1c-0.2,0.6-1,0.7-1.3,0.2l-20.7-35.8L132,126.7
			c-0.3,0.6-1.2,0.4-1.3-0.2l-3.5-13.1c-0.1-0.4-0.5-0.6-0.9-0.5l-13.1,3.5c-0.6,0.2-1.2-0.5-0.8-1.1l33.2-57.5v0
			c3.3-5.3,11-5.3,14.3,0l0,0l33.2,57.5C193.3,115.9,192.8,116.6,192.2,116.4z"/>
		<g>
			<path class="st2" d="M191.8,56.8l-3.9,4.2l2.4,5.2c0.9,2.1,0,4.5-2.1,5.5L183,74l0.2,5.7c0.1,2.3-1.7,4.2-4,4.3l-5.7,0.2l-2,5.4
				c-0.8,2.1-3.2,3.2-5.3,2.4l-5.4-2l-3.9,4.2c-1.6,1.7-4.2,1.8-5.8,0.2l-4.2-3.9l-5.2,2.4c-2.1,0.9-4.5,0-5.5-2.1l-2.4-5.2
				l-5.7,0.2c-2.3,0.1-4.2-1.7-4.3-4l-0.2-5.7l-5.4-2c-2.1-0.8-3.2-3.2-2.4-5.3l2-5.4l-4.2-3.9c-1.7-1.6-1.8-4.2-0.2-5.8l3.9-4.2
				l-2.4-5.2c-0.9-2.1,0-4.5,2.1-5.5l5.2-2.4l-0.2-5.7c-0.1-2.3,1.7-4.2,4-4.3l5.7-0.2l2-5.4c0.8-2.1,3.2-3.2,5.3-2.4l5.4,2l3.9-4.2
				c1.6-1.7,4.2-1.8,5.8-0.2l4.2,3.9l5.2-2.4c2.1-0.9,4.5,0,5.5,2l2.4,5.2l5.7-0.2c2.3-0.1,4.2,1.7,4.3,4l0.2,5.7l5.4,2
				c2.1,0.8,3.2,3.2,2.4,5.3l-2,5.4l4.2,3.9C193.2,52.5,193.3,55.1,191.8,56.8z"/>
		</g>
		<circle class="st3" cx="152.6" cy="55.6" r="27.5"/>
	</g>
</g>
</svg>
