<?xml version="1.0" encoding="utf-8"?>
<!-- Generator: Adobe Illustrator 22.1.0, SVG Export Plug-In . SVG Version: 6.00 Build 0)  -->
<svg version="1.1" id="Camada_1" xmlns="http://www.w3.org/2000/svg" xmlns:xlink="http://www.w3.org/1999/xlink" x="0px" y="0px"
	 viewBox="0 0 200 200" style="enable-background:new 0 0 200 200;" xml:space="preserve">
<style type="text/css">
	.st0{fill:#7F5100;}
	.st1{fill:#5B3800;}
	.st2{fill:#FFDB64;}
	.st3{fill:#FFFFFF;}
	.st4{fill:#1A1A1A;}
	.st5{fill:#00CCFF;}
	.st6{fill:#CCCCCC;}
	.st7{fill:#E5AA63;}
	.st8{fill:#333333;}
	.st9{fill:#666666;}
	.st10{fill:#F94E63;}
	.st11{fill:#8899A6;}
	.st12{fill:#F4900C;}
	.st13{fill:#009B34;}
	.st14{fill:#FFDB59;}
	.st15{fill:#F59000;}
	.st16{fill:#FB4C60;}
	.st17{fill:#096EDF;}
	.st18{fill:#292F33;}
	.st19{fill:#F3D29E;}
	.st20{fill:#805100;}
	.st21{fill:#66757F;}
	.st22{fill:#138F3E;}
	.st23{fill:#CCD6DD;}
	.st24{fill:#AAB8C2;}
	.st25{fill:#F3D2A2;}
	.st26{fill-rule:evenodd;clip-rule:evenodd;fill:#292F33;}
	.st27{fill:#404040;}
	.st28{fill:#F2F2F2;}
	.st29{fill:#1771DD;}
	.st30{fill:#009B3A;}
	.st31{fill:#55ACEE;}
	.st32{fill:#999999;}
	.st33{fill:#EF9645;}
	.st34{fill:#FFA766;}
	.st35{fill:#99AAB5;}
	.st36{fill:#E1E8ED;}
	.st37{fill:#FFCC4D;}
	.st38{fill:#FFCC3E;}
	.st39{fill:#00CAFF;}
	.st40{fill:#E9CC39;}
	.st41{fill:#D6B736;}
	.st42{fill:#3AAA35;}
	.st43{fill:#95C11F;}
	.st44{fill:#E30613;}
	.st45{fill:#BE1622;}
	.st46{fill:#E6332A;}
	.st47{fill:#009FE3;}
	.st48{fill:#2791D8;}
	.st49{fill:#3BBFF2;}
	.st50{opacity:0.8;enable-background:new    ;}
	.st51{fill:#BDD7B8;}
	.st52{fill:#8E562E;}
	.st53{fill:#3558A0;}
	.st54{fill:#FAD220;}
	.st55{fill:#FF5000;}
	.st56{fill:#FF000E;}
	.st57{fill:#880082;}
	.st58{fill:#FDCB58;}
</style>
<g>
	<g>
		<path class="st2" d="M189.6,42.7V140c0,6-5,11-11,11H164v29.4c0,4.1-5,6.2-8,3.3L123.3,151H47c-6.1,0-11-4.9-11-11V42.7
			c0-6,5-11,11-11h131.5C184.6,31.7,189.6,36.7,189.6,42.7z"/>
	</g>
	<path class="st29" d="M164,26v97.2c0,6.1-5,11-11,11H76.7L44,166.9c-2.9,2.9-8,0.9-8-3.3v-29.4H21.4c-6.1,0-11-4.9-11-11V26
		c0-6.1,4.9-11,11-11H153C159,15,164,19.9,164,26z"/>
	<path class="st3" d="M128.9,65.7c-1.3-2.2-4.2-3-6.4-1.7l-15.4,8.9l-9.7-16.7l15.4-8.9c2.2-1.3,3-4.2,1.7-6.4
		c-1.3-2.2-4.2-3-6.4-1.7L92.8,48l-8.9-15.4c-1.3-2.2-4.2-3-6.4-1.7c-2.2,1.3-3,4.2-1.7,6.4l8.9,15.4l-16.7,9.7L59.1,47
		c-1.3-2.2-4.2-3-6.4-1.7c-2.2,1.3-3,4.2-1.7,6.4l8.9,15.4l-15.4,8.9c-2.2,1.3-3,4.2-1.7,6.4c0.9,1.5,2.4,2.3,4.1,2.3
		c0.8,0,1.6-0.2,2.3-0.6l15.4-8.9l9.7,16.7l-15.4,8.9c-2.2,1.3-3,4.2-1.7,6.4c0.9,1.5,2.4,2.3,4.1,2.3c0.8,0,1.6-0.2,2.3-0.6
		l15.4-8.9l8.9,15.4c0.9,1.5,2.4,2.3,4.1,2.3c0.8,0,1.6-0.2,2.3-0.6c2.2-1.3,3-4.2,1.7-6.4L87,95.4l16.7-9.7l8.9,15.4
		c0.9,1.5,2.4,2.3,4.1,2.3c0.8,0,1.6-0.2,2.3-0.6c2.2-1.3,3-4.2,1.7-6.4L111.8,81l15.4-8.9C129.4,70.9,130.2,68,128.9,65.7z
		 M82.3,87.3l-9.7-16.7l16.7-9.7L99,77.6L82.3,87.3z"/>
</g>
</svg>
