<?xml version="1.0" encoding="utf-8"?>
<!-- Generator: Adobe Illustrator 22.1.0, SVG Export Plug-In . SVG Version: 6.00 Build 0)  -->
<svg version="1.1" id="Camada_1" xmlns="http://www.w3.org/2000/svg" xmlns:xlink="http://www.w3.org/1999/xlink" x="0px" y="0px"
	 viewBox="0 0 200 200" style="enable-background:new 0 0 200 200;" xml:space="preserve">
<style type="text/css">
	.st0{fill:#7F5100;}
	.st1{fill:#5B3800;}
	.st2{fill:#FFDB64;}
	.st3{fill:#FFFFFF;}
	.st4{fill:#1A1A1A;}
	.st5{fill:#00CCFF;}
	.st6{fill:#CCCCCC;}
	.st7{fill:#E5AA63;}
	.st8{fill:#333333;}
	.st9{fill:#666666;}
	.st10{fill:#F94E63;}
	.st11{fill:#8899A6;}
	.st12{fill:#F4900C;}
	.st13{fill:#009B34;}
	.st14{fill:#FFDB59;}
	.st15{fill:#F59000;}
	.st16{fill:#FB4C60;}
	.st17{fill:#096EDF;}
	.st18{fill:#292F33;}
	.st19{fill:#F3D29E;}
	.st20{fill:#805100;}
	.st21{fill:#66757F;}
	.st22{fill:#138F3E;}
	.st23{fill:#CCD6DD;}
	.st24{fill:#AAB8C2;}
	.st25{fill:#F3D2A2;}
	.st26{fill-rule:evenodd;clip-rule:evenodd;fill:#292F33;}
	.st27{fill:#404040;}
	.st28{fill:#F2F2F2;}
	.st29{fill:#1771DD;}
	.st30{fill:#009B3A;}
	.st31{fill:#55ACEE;}
	.st32{fill:#999999;}
	.st33{fill:#EF9645;}
	.st34{fill:#FFA766;}
	.st35{fill:#99AAB5;}
	.st36{fill:#E1E8ED;}
	.st37{fill:#FFCC4D;}
	.st38{fill:#FFCC3E;}
	.st39{fill:#00CAFF;}
	.st40{fill:#E9CC39;}
	.st41{fill:#D6B736;}
	.st42{fill:#3AAA35;}
	.st43{fill:#95C11F;}
	.st44{fill:#E30613;}
	.st45{fill:#BE1622;}
	.st46{fill:#E6332A;}
	.st47{fill:#009FE3;}
	.st48{fill:#2791D8;}
	.st49{fill:#3BBFF2;}
	.st50{opacity:0.8;enable-background:new    ;}
	.st51{fill:#BDD7B8;}
	.st52{fill:#8E562E;}
	.st53{fill:#3558A0;}
	.st54{fill:#FAD220;}
	.st55{fill:#FF5000;}
	.st56{fill:#FF000E;}
	.st57{fill:#880082;}
	.st58{fill:#FDCB58;}
</style>
<g>
	<g>
		<path class="st21" d="M104.6,31.1v5.7c-1.3,0.6-2.8,1-4.3,1s-3-0.3-4.3-1v-5.7H104.6z"/>
	</g>
	<g>
		<g>
			<path class="st21" d="M168.6,168.9V183H31.4v-14.1c0-3.7,3-6.7,6.6-6.7h48l6.9,6.9l6,6c1.6,1.6,4.2,1.6,5.8,0l6-6l6.9-6.9h44.3
				C165.6,162.2,168.6,165.2,168.6,168.9z"/>
			<path class="st21" d="M117.6,162.2l-6.9,6.9l-6,6c-1.6,1.6-4.2,1.6-5.8,0l-6-6l-6.9-6.9H117.6z"/>
			<path class="st21" d="M149.4,62v1.7c-0.1,0-0.3,0-0.4,0H51.6c-0.1,0-0.3,0-0.4,0V62c0-3.8,3.1-6.9,6.9-6.9H96V36.8
				c1.3,0.6,2.8,1,4.3,1s3-0.3,4.3-1v18.2h37.9C146.3,55.1,149.4,58.2,149.4,62z"/>
			<path class="st21" d="M88,86.3H59.8c3.4-4.1,8.4-6.6,14.1-6.6C79.5,79.6,84.6,82.2,88,86.3z"/>
			<path class="st21" d="M140.9,86.3h-28.2c3.4-4.1,8.4-6.6,14.1-6.6C132.4,79.6,137.5,82.2,140.9,86.3z"/>
			<path class="st6" d="M73.9,116.4c-10.1,0-18.3-8.2-18.3-18.4c0-4.5,1.6-8.6,4.2-11.8c3.4-4.1,8.4-6.6,14.1-6.6
				c5.7,0,10.7,2.6,14.1,6.6c2.7,3.2,4.2,7.3,4.2,11.8C92.2,108.2,84,116.4,73.9,116.4z M126.8,116.4c-10.1,0-18.3-8.2-18.3-18.4
				c0-4.5,1.6-8.6,4.2-11.8c3.4-4.1,8.4-6.6,14.1-6.6c5.7,0,10.7,2.6,14.1,6.6c2.7,3.2,4.2,7.3,4.2,11.8
				C145.1,108.2,136.9,116.4,126.8,116.4z"/>
			<path class="st6" d="M145.1,141.6c0,5.7-4.6,10.2-10.2,10.2H65.7c-5.6,0-10.2-4.6-10.2-10.2v-0.3c0-5.7,4.6-10.2,10.2-10.2h69.2
				c5.6,0,10.2,4.6,10.2,10.2V141.6z M149.4,63.7c-0.1,0-0.3,0-0.4,0H51.6c-0.1,0-0.3,0-0.4,0c-4.3,0.2-7.8,3.8-7.8,8.2V161
				c0,0.4,0,0.9,0.1,1.3h42.5l6.9,6.9l6,6c1.6,1.6,4.2,1.6,5.8,0l6-6l6.9-6.9h39.5c0.1-0.4,0.1-0.8,0.1-1.3V71.9
				C157.2,67.5,153.7,63.9,149.4,63.7z"/>
			<path class="st6" d="M55.5,98c0-4.5,1.6-8.6,4.2-11.8c3.4-4.1,8.4-6.6,14.1-6.6c5.7,0,10.7,2.6,14.1,6.6
				c2.7,3.2,4.2,7.3,4.2,11.8c0,10.2-8.2,18.4-18.3,18.4S55.5,108.2,55.5,98z"/>
			<path class="st6" d="M108.5,98c0-4.5,1.6-8.6,4.2-11.8c3.4-4.1,8.4-6.6,14.1-6.6c5.7,0,10.7,2.6,14.1,6.6
				c2.7,3.2,4.2,7.3,4.2,11.8c0,10.2-8.2,18.4-18.3,18.4C116.6,116.4,108.5,108.2,108.5,98z"/>
			<path class="st3" d="M92.2,98c0,10.2-8.2,18.4-18.3,18.4S55.5,108.2,55.5,98c0-4.5,1.6-8.6,4.2-11.8c3.4-4.1,8.4-6.6,14.1-6.6
				c5.7,0,10.7,2.6,14.1,6.6C90.6,89.5,92.2,93.6,92.2,98z"/>
			<path class="st3" d="M145.1,98c0,10.2-8.2,18.4-18.3,18.4c-10.1,0-18.3-8.2-18.3-18.4c0-4.5,1.6-8.6,4.2-11.8
				c3.4-4.1,8.4-6.6,14.1-6.6c5.7,0,10.7,2.6,14.1,6.6C143.5,89.5,145.1,93.6,145.1,98z"/>
			<path class="st10" d="M131.1,107.3c0,2.4-1.9,4.3-4.3,4.3c-2.4,0-4.3-1.9-4.3-4.3V88.8c0-2.4,1.9-4.3,4.3-4.3
				c2.4,0,4.3,1.9,4.3,4.3V107.3z"/>
			<path class="st10" d="M78.2,107.3c0,2.4-1.9,4.3-4.3,4.3s-4.3-1.9-4.3-4.3V88.8c0-2.4,1.9-4.3,4.3-4.3s4.3,1.9,4.3,4.3V107.3z"/>
			<path class="st10" d="M110.7,27.4c0,4.2-2.5,7.8-6,9.4c-1.3,0.6-2.8,1-4.3,1s-3-0.3-4.3-1c-3.6-1.6-6-5.2-6-9.4
				c0-5.7,4.6-10.4,10.3-10.4C106,17,110.7,21.7,110.7,27.4z"/>
			<path class="st3" d="M145.1,141.3v0.3c0,5.7-4.6,10.2-10.2,10.2H65.7c-5.6,0-10.2-4.6-10.2-10.2v-0.3c0-5.7,4.6-10.2,10.2-10.2
				h69.2C140.5,131.1,145.1,135.7,145.1,141.3z"/>
			<rect x="67.6" y="131.1" class="st21" width="13.8" height="20.7"/>
			<rect x="93.4" y="131.1" class="st21" width="13.8" height="20.7"/>
			<rect x="119.3" y="131.1" class="st21" width="13.8" height="20.7"/>
		</g>
	</g>
</g>
</svg>
