<?xml version="1.0" encoding="utf-8"?>
<!-- Generator: Adobe Illustrator 22.1.0, SVG Export Plug-In . SVG Version: 6.00 Build 0)  -->
<svg version="1.1" id="Camada_1" xmlns="http://www.w3.org/2000/svg" xmlns:xlink="http://www.w3.org/1999/xlink" x="0px" y="0px"
	 viewBox="0 0 200 200" style="enable-background:new 0 0 200 200;" xml:space="preserve">
<style type="text/css">
	.st0{fill:#7F5100;}
	.st1{fill:#5B3800;}
	.st2{fill:#FFDB64;}
	.st3{fill:#FFFFFF;}
	.st4{fill:#1A1A1A;}
	.st5{fill:#00CCFF;}
	.st6{fill:#CCCCCC;}
	.st7{fill:#E5AA63;}
	.st8{fill:#333333;}
	.st9{fill:#666666;}
	.st10{fill:#F94E63;}
	.st11{fill:#8899A6;}
	.st12{fill:#F4900C;}
	.st13{fill:#009B34;}
	.st14{fill:#FFDB59;}
	.st15{fill:#F59000;}
	.st16{fill:#FB4C60;}
	.st17{fill:#096EDF;}
	.st18{fill:#292F33;}
	.st19{fill:#F3D29E;}
	.st20{fill:#805100;}
	.st21{fill:#66757F;}
	.st22{fill:#138F3E;}
	.st23{fill:#CCD6DD;}
	.st24{fill:#AAB8C2;}
	.st25{fill:#F3D2A2;}
	.st26{fill-rule:evenodd;clip-rule:evenodd;fill:#292F33;}
	.st27{fill:#404040;}
	.st28{fill:#F2F2F2;}
	.st29{fill:#1771DD;}
	.st30{fill:#009B3A;}
	.st31{fill:#55ACEE;}
	.st32{fill:#999999;}
	.st33{fill:#EF9645;}
	.st34{fill:#FFA766;}
	.st35{fill:#99AAB5;}
	.st36{fill:#E1E8ED;}
	.st37{fill:#FFCC4D;}
	.st38{fill:#FFCC3E;}
	.st39{fill:#00CAFF;}
	.st40{fill:#E9CC39;}
	.st41{fill:#D6B736;}
	.st42{fill:#3AAA35;}
	.st43{fill:#95C11F;}
	.st44{fill:#E30613;}
	.st45{fill:#BE1622;}
	.st46{fill:#E6332A;}
	.st47{fill:#009FE3;}
	.st48{fill:#2791D8;}
	.st49{fill:#3BBFF2;}
	.st50{opacity:0.8;enable-background:new    ;}
	.st51{fill:#BDD7B8;}
	.st52{fill:#8E562E;}
	.st53{fill:#3558A0;}
	.st54{fill:#FAD220;}
	.st55{fill:#FF5000;}
	.st56{fill:#FF000E;}
	.st57{fill:#880082;}
	.st58{fill:#FDCB58;}
</style>
<g>
	<g>
		<g>
			<path class="st19" d="M146.8,90.3l-4.7,16.4c-1.9,6.5-3.6,13-4.5,19.7c-2.6,18.9-18.9,33.4-38.5,33.3c-10.9,0-20.7-4.6-27.7-11.8
				l50.5-50.5v10.9c1-0.1,2.1-0.1,3.2-0.1l9.4-22.1c0,0,2.1-6.1,8.2-4C148.8,84.2,146.8,90.3,146.8,90.3z"/>
		</g>
		<g>
			<g>
				<path class="st20" d="M103.4,42.2c0,0,0-6.4-6.4-6.4c-6.4,0-6.4,6.4-6.4,6.4l-0.1,45.2c-1.1,0.1-2.2,0.1-3.2,0.2l0.1-38.9
					c0,0,0-6.4-6.4-6.4c-6.4,0-6.4,6.4-6.4,6.4l-0.1,41.4c-1.1,0.4-2.2,0.8-3.2,1.3l0.1-29.9c0,0,0-6.4-6.4-6.4s-6.4,6.4-6.4,6.4
					l-0.1,48.2v3.2c0,6,1.3,11.8,3.8,16.8l42.3-42.1c-0.3,0-0.6-0.1-1-0.1L103.4,42.2z"/>
			</g>
			<path class="st20" d="M113,39.1c-6.4,0-6.4,6.4-6.4,6.4l-0.1,39.8l12.9-12.8l0.1-26.9C119.5,45.5,119.5,39.1,113,39.1z"/>
		</g>
		<g>
			<g>
				<path class="st3" d="M52.6,154.9L52.6,154.9c0.1,0,0.2,0,0.2,0.1l-0.1,0.1l-0.1-0.1L52.6,154.9z"/>
			</g>
		</g>
		<g>
			<g>
				<path class="st18" d="M52.7,154.8L52.7,154.8L52.7,154.8l0.1,0.2l0.1-0.1C52.8,154.9,52.8,154.8,52.7,154.8z"/>
				<path class="st18" d="M52.8,154.9L52.8,154.9l0.1,0L52.8,154.9z"/>
			</g>
		</g>
	</g>
	<polygon class="st18" points="52.8,154.9 52.6,154.9 52.7,154.8 	"/>
	<path class="st18" d="M100,10c-49.6,0-90,40.4-90,90s40.4,90,90,90s90-40.4,90-90S149.6,10,100,10z M22.8,100
		c0-42.5,34.6-77.2,77.2-77.2c19,0,36.4,6.9,49.8,18.3L41.1,149.8C29.7,136.4,22.8,119,22.8,100z M100,177.2
		c-19,0-36.3-6.9-49.8-18.3L158.9,50.2c11.4,13.4,18.3,30.8,18.3,49.8C177.2,142.5,142.5,177.2,100,177.2z"/>
</g>
</svg>
