<?xml version="1.0" encoding="utf-8"?>
<!-- Generator: Adobe Illustrator 22.1.0, SVG Export Plug-In . SVG Version: 6.00 Build 0)  -->
<svg version="1.1" id="Camada_1" xmlns="http://www.w3.org/2000/svg" xmlns:xlink="http://www.w3.org/1999/xlink" x="0px" y="0px"
	 viewBox="0 0 200 200" style="enable-background:new 0 0 200 200;" xml:space="preserve">
<style type="text/css">
	.st0{fill:#7F5100;}
	.st1{fill:#5B3800;}
	.st2{fill:#FFDB64;}
	.st3{fill:#FFFFFF;}
	.st4{fill:#1A1A1A;}
	.st5{fill:#00CCFF;}
	.st6{fill:#CCCCCC;}
	.st7{fill:#E5AA63;}
	.st8{fill:#333333;}
	.st9{fill:#666666;}
	.st10{fill:#F94E63;}
	.st11{fill:#8899A6;}
	.st12{fill:#F4900C;}
	.st13{fill:#009B34;}
	.st14{fill:#FFDB59;}
	.st15{fill:#F59000;}
	.st16{fill:#FB4C60;}
	.st17{fill:#096EDF;}
	.st18{fill:#292F33;}
	.st19{fill:#F3D29E;}
	.st20{fill:#805100;}
	.st21{fill:#66757F;}
	.st22{fill:#138F3E;}
	.st23{fill:#CCD6DD;}
	.st24{fill:#AAB8C2;}
	.st25{fill:#F3D2A2;}
	.st26{fill-rule:evenodd;clip-rule:evenodd;fill:#292F33;}
	.st27{fill:#404040;}
	.st28{fill:#F2F2F2;}
	.st29{fill:#1771DD;}
	.st30{fill:#009B3A;}
	.st31{fill:#55ACEE;}
	.st32{fill:#999999;}
	.st33{fill:#EF9645;}
	.st34{fill:#FFA766;}
	.st35{fill:#99AAB5;}
	.st36{fill:#E1E8ED;}
	.st37{fill:#FFCC4D;}
	.st38{fill:#FFCC3E;}
	.st39{fill:#00CAFF;}
	.st40{fill:#E9CC39;}
	.st41{fill:#D6B736;}
	.st42{fill:#3AAA35;}
	.st43{fill:#95C11F;}
	.st44{fill:#E30613;}
	.st45{fill:#BE1622;}
	.st46{fill:#E6332A;}
	.st47{fill:#009FE3;}
	.st48{fill:#2791D8;}
	.st49{fill:#3BBFF2;}
	.st50{opacity:0.8;enable-background:new    ;}
	.st51{fill:#BDD7B8;}
	.st52{fill:#8E562E;}
	.st53{fill:#3558A0;}
	.st54{fill:#FAD220;}
	.st55{fill:#FF5000;}
	.st56{fill:#FF000E;}
	.st57{fill:#880082;}
	.st58{fill:#FDCB58;}
</style>
<g>
	<g>
		<path class="st2" d="M39.2,61.7c-0.2,0-0.3,0.1-0.5,0.2c0-0.1,0.1-0.1,0.1-0.2H39.2z"/>
		<path class="st2" d="M161.2,61.9c-0.1,0-0.3-0.1-0.4-0.2h0.3C161.2,61.8,161.2,61.8,161.2,61.9z"/>
		<path class="st2" d="M178.7,111.3c0,43.5-35.2,78.7-78.7,78.7c-43.5,0-78.7-35.2-78.7-78.7c0-14.1,3.7-27.4,10.3-38.9
			c0.6-1.1,1.3-2.2,2-3.3h132.9c0.7,1.1,1.4,2.2,2,3.3C175,83.9,178.7,97.2,178.7,111.3z"/>
	</g>
	<g>
		<circle class="st4" cx="62.2" cy="105" r="7.9"/>
	</g>
	<g>
		<circle class="st4" cx="137.8" cy="105" r="7.9"/>
	</g>
	<g>
		<path class="st4" d="M100,159.3c-9.5,0-18.4-5.1-23.1-13.4l5.4-3.2C86,149.1,92.7,153,100,153c7.3,0,14-3.9,17.7-10.2l5.4,3.2
			C118.4,154.2,109.5,159.3,100,159.3z"/>
	</g>
	<g>
		<g>
			<path class="st18" d="M170.2,69.1c0,1.1-0.6,2.3-1.8,3.3c-7.2,6.6-35.1,11.5-68.4,11.5c-33.4,0-61.3-4.9-68.4-11.5
				c-1.1-1.1-1.8-2.2-1.8-3.3H170.2z"/>
		</g>
		<g>
			<path class="st21" d="M100,10c-41,0-70.2,26.3-70.2,26.3v25.5h140.4V36.3C170.2,36.3,141,10,100,10z M100,54.3
				c-8.2,0-14.8-6.6-14.8-14.8c0-2,0.4-4,1.2-5.8c2.3-5.3,7.5-9,13.6-9c6.1,0,11.3,3.7,13.6,9c0.8,1.8,1.2,3.7,1.2,5.8
				C114.8,47.7,108.2,54.3,100,54.3z"/>
		</g>
		<g>
			<path class="st2" d="M114.8,39.6c0,8.2-6.6,14.8-14.8,14.8s-14.8-6.6-14.8-14.8c0-2,0.4-4,1.2-5.8c2.3-5.3,7.5-9,13.6-9
				c6.1,0,11.3,3.7,13.6,9C114.4,35.6,114.8,37.5,114.8,39.6z"/>
		</g>
		<g>
			<path class="st58" d="M173.9,65.4c0,2-1.7,3.7-3.7,3.7H29.8c-2,0-3.7-1.7-3.7-3.7s1.7-3.7,3.7-3.7h9.1c0,0-0.1,0.1-0.1,0.2
				c0.1-0.1,0.3-0.1,0.5-0.2h121.6c0.1,0,0.3,0.1,0.4,0.2c0-0.1-0.1-0.1-0.1-0.2h9.1C172.2,61.7,173.9,63.4,173.9,65.4z"/>
			<path class="st58" d="M39.2,61.7c-0.2,0-0.3,0.1-0.5,0.2c0-0.1,0.1-0.1,0.1-0.2H39.2z"/>
			<path class="st58" d="M161.2,61.9c-0.1,0-0.3-0.1-0.4-0.2h0.3C161.2,61.8,161.2,61.8,161.2,61.9z"/>
		</g>
	</g>
</g>
</svg>
