<?xml version="1.0" encoding="utf-8"?>
<!-- Generator: Adobe Illustrator 22.1.0, SVG Export Plug-In . SVG Version: 6.00 Build 0)  -->
<svg version="1.1" id="Camada_1" xmlns="http://www.w3.org/2000/svg" xmlns:xlink="http://www.w3.org/1999/xlink" x="0px" y="0px"
	 viewBox="0 0 200 200" style="enable-background:new 0 0 200 200;" xml:space="preserve">
<style type="text/css">
	.st0{fill:#7F5100;}
	.st1{fill:#5B3800;}
	.st2{fill:#FFDB64;}
	.st3{fill:#FFFFFF;}
	.st4{fill:#1A1A1A;}
	.st5{fill:#00CCFF;}
	.st6{fill:#CCCCCC;}
	.st7{fill:#E5AA63;}
	.st8{fill:#333333;}
	.st9{fill:#666666;}
	.st10{fill:#F94E63;}
	.st11{fill:#8899A6;}
	.st12{fill:#F4900C;}
	.st13{fill:#009B34;}
	.st14{fill:#FFDB59;}
	.st15{fill:#F59000;}
	.st16{fill:#FB4C60;}
	.st17{fill:#096EDF;}
	.st18{fill:#292F33;}
	.st19{fill:#F3D29E;}
	.st20{fill:#805100;}
	.st21{fill:#66757F;}
	.st22{fill:#138F3E;}
	.st23{fill:#CCD6DD;}
	.st24{fill:#AAB8C2;}
	.st25{fill:#F3D2A2;}
	.st26{fill-rule:evenodd;clip-rule:evenodd;fill:#292F33;}
	.st27{fill:#404040;}
	.st28{fill:#F2F2F2;}
	.st29{fill:#1771DD;}
	.st30{fill:#009B3A;}
	.st31{fill:#55ACEE;}
	.st32{fill:#999999;}
	.st33{fill:#EF9645;}
	.st34{fill:#FFA766;}
	.st35{fill:#99AAB5;}
	.st36{fill:#E1E8ED;}
	.st37{fill:#FFCC4D;}
	.st38{fill:#FFCC3E;}
	.st39{fill:#00CAFF;}
	.st40{fill:#E9CC39;}
	.st41{fill:#D6B736;}
	.st42{fill:#3AAA35;}
	.st43{fill:#95C11F;}
	.st44{fill:#E30613;}
	.st45{fill:#BE1622;}
	.st46{fill:#E6332A;}
	.st47{fill:#009FE3;}
	.st48{fill:#2791D8;}
	.st49{fill:#3BBFF2;}
	.st50{opacity:0.8;enable-background:new    ;}
	.st51{fill:#BDD7B8;}
	.st52{fill:#8E562E;}
	.st53{fill:#3558A0;}
	.st54{fill:#FAD220;}
	.st55{fill:#FF5000;}
	.st56{fill:#FF000E;}
	.st57{fill:#880082;}
	.st58{fill:#FDCB58;}
</style>
<g>
	<g>
		<path class="st2" d="M79.9,54.9L62.1,72.6c0.4-0.5,0.8-1.1,1.4-1.5L79.9,54.9L79.9,54.9z"/>
		<path class="st2" d="M159.6,114.1l-5.6-5.6L112.4,67c-3-2.8-7.9-2.8-10.9,0.2L85.4,81.1c-4.2,3.2-8.2,5-11.9,5
			c-4.4,0-8.3-2.5-11.7-8.2c-1.1-1.7-0.8-3.6,0.3-5.2c0,0,0,0,0,0c0.4-0.5,0.8-1.1,1.4-1.5l16.3-16.3L56.5,31.5c-3-3-7.8-3-10.8,0
			L12.2,65c-3,3-3,7.8,0,10.8l16.8,16.8c3.4-0.8,7.2,0.1,9.9,2.8c0,0,0,0.1,0.1,0.1c2.3,2.4,3.2,5.6,2.9,8.6
			c2.7,0.4,5.4,1.7,7.5,3.7c2.6,2.7,3.9,6.1,3.9,9.5c3.4,0,6.9,1.3,9.5,3.9c2.6,2.7,3.9,6.1,3.9,9.5c7.4,0.1,13.4,6.1,13.4,13.4
			c0,2-0.5,4-1.3,5.7c-1.3,2.8-3.6,5.1-6.5,6.5l12.8,12.8c3,3,7.8,3,10.8,0l4.8-4.8l4.3,4.3c3,3,7.8,3,10.8,0l43.7-43.7
			C162.5,121.9,162.5,117.1,159.6,114.1z M122,160.8c-0.6,0.6-1.3,0.9-2.1,0.9c-0.8,0-1.5-0.3-2.1-0.9l-8-8l-9.9-9.9
			c-1.1-1.2-1.1-3,0-4.2c1.2-1.1,3-1.1,4.2,0l9.9,9.9l8,8C123.1,157.8,123.1,159.6,122,160.8z M136.8,146c-0.6,0.6-1.3,0.9-2.1,0.9
			c-0.8,0-1.5-0.3-2.1-0.9l-8-8l-10-9.9c-1.2-1.2-1.2-3,0-4.2c1.2-1.2,3-1.2,4.2,0l10,9.9l8,8C137.9,143,137.9,144.8,136.8,146z
			 M151.5,131.2c-0.6,0.6-1.3,0.9-2.1,0.9c-0.8,0-1.5-0.3-2.1-0.9l-8-8l-10-9.9c-1.2-1.1-1.2-3,0-4.2c1.1-1.2,3-1.2,4.2,0l10,9.9
			l8,8C152.7,128.2,152.7,130.1,151.5,131.2z"/>
	</g>
	<g>
		<path class="st33" d="M122,160.8c-0.6,0.6-1.3,0.9-2.1,0.9c-0.8,0-1.5-0.3-2.1-0.9l-8-8l-9.9-9.9c-1.1-1.2-1.1-3,0-4.2
			c1.2-1.1,3-1.1,4.2,0l9.9,9.9l8,8C123.1,157.8,123.1,159.6,122,160.8z"/>
	</g>
	<g>
		<path class="st33" d="M136.8,146c-0.6,0.6-1.3,0.9-2.1,0.9c-0.8,0-1.5-0.3-2.1-0.9l-8-8l-10-9.9c-1.2-1.2-1.2-3,0-4.2
			c1.2-1.2,3-1.2,4.2,0l10,9.9l8,8C137.9,143,137.9,144.8,136.8,146z"/>
	</g>
	<g>
		<path class="st33" d="M151.5,131.2c-0.6,0.6-1.3,0.9-2.1,0.9c-0.8,0-1.5-0.3-2.1-0.9l-8-8l-10-9.9c-1.2-1.1-1.2-3,0-4.2
			c1.1-1.2,3-1.2,4.2,0l10,9.9l8,8C152.7,128.2,152.7,130.1,151.5,131.2z"/>
	</g>
	<g>
		<g>
			<g>
				<path class="st52" d="M187.8,74.8L154,108.6L112.4,67c-3-2.8-7.9-2.8-10.9,0.2L85.4,81.1c-4.2,3.2-8.2,5-11.9,5
					c-4.4,0-8.3-2.5-11.7-8.2c-1.1-1.7-0.8-3.6,0.3-5.2c0,0,0,0,0,0l17.8-17.8l11.2-11.2c0,0,0.5-0.7,1.4-1.5
					c2.4-2.2,7.8-5.3,14.6,1.5c9.4,9.4,11.9,11.9,11.9,11.9l24.7-24.7c3-3,7.8-3,10.8,0L187.8,64C190.7,67,190.7,71.8,187.8,74.8z"
					/>
				<path class="st52" d="M92.5,42.1c-0.9,0.8-1.4,1.5-1.4,1.5L79.9,54.9L62.1,72.6c0.4-0.5,0.8-1.1,1.4-1.5L92.5,42.1L92.5,42.1z"
					/>
			</g>
		</g>
	</g>
	<g>
		<path class="st52" d="M80.1,144.2c0,2-0.5,4-1.3,5.7c-1.3,2.8-3.6,5.1-6.5,6.5c-1.7,0.8-3.7,1.3-5.7,1.3c-1.8,0-3.5-0.3-5-1
			c-1.6-0.6-3-1.6-4.2-2.7L30,126.3c-3.3-3.7-4.1-9-2.5-13.5c-1.3-0.6-2.5-1.3-3.5-2.3c-4.1-4.1-4.1-10.8,0-14.9
			c1.5-1.5,3.2-2.4,5.1-2.8c3.4-0.8,7.2,0.1,9.9,2.8c0,0,0,0.1,0.1,0.1c2.3,2.4,3.2,5.6,2.9,8.6c2.7,0.4,5.4,1.7,7.5,3.7
			c2.6,2.7,3.9,6.1,3.9,9.5c3.4,0,6.9,1.3,9.5,3.9c2.6,2.7,3.9,6.1,3.9,9.5C74.1,130.8,80.1,136.8,80.1,144.2z"/>
	</g>
</g>
</svg>
