<?xml version="1.0" encoding="utf-8"?>
<!-- Generator: Adobe Illustrator 22.1.0, SVG Export Plug-In . SVG Version: 6.00 Build 0)  -->
<svg version="1.1" id="Camada_1" xmlns="http://www.w3.org/2000/svg" xmlns:xlink="http://www.w3.org/1999/xlink" x="0px" y="0px"
	 viewBox="0 0 200 200" style="enable-background:new 0 0 200 200;" xml:space="preserve">
<style type="text/css">
	.st0{fill:#7F5100;}
	.st1{fill:#5B3800;}
	.st2{fill:#FFDB64;}
	.st3{fill:#FFFFFF;}
	.st4{fill:#1A1A1A;}
	.st5{fill:#00CCFF;}
	.st6{fill:#CCCCCC;}
	.st7{fill:#E5AA63;}
	.st8{fill:#333333;}
	.st9{fill:#666666;}
	.st10{fill:#F94E63;}
	.st11{fill:#8899A6;}
	.st12{fill:#F4900C;}
	.st13{fill:#009B34;}
	.st14{fill:#FFDB59;}
	.st15{fill:#F59000;}
	.st16{fill:#FB4C60;}
	.st17{fill:#096EDF;}
	.st18{fill:#292F33;}
	.st19{fill:#F3D29E;}
	.st20{fill:#805100;}
	.st21{fill:#66757F;}
	.st22{fill:#138F3E;}
	.st23{fill:#CCD6DD;}
	.st24{fill:#AAB8C2;}
	.st25{fill:#F3D2A2;}
	.st26{fill-rule:evenodd;clip-rule:evenodd;fill:#292F33;}
	.st27{fill:#404040;}
	.st28{fill:#F2F2F2;}
	.st29{fill:#1771DD;}
	.st30{fill:#009B3A;}
	.st31{fill:#55ACEE;}
	.st32{fill:#999999;}
	.st33{fill:#EF9645;}
	.st34{fill:#FFA766;}
	.st35{fill:#99AAB5;}
	.st36{fill:#E1E8ED;}
	.st37{fill:#FFCC4D;}
	.st38{fill:#FFCC3E;}
	.st39{fill:#00CAFF;}
	.st40{fill:#E9CC39;}
	.st41{fill:#D6B736;}
	.st42{fill:#3AAA35;}
	.st43{fill:#95C11F;}
	.st44{fill:#E30613;}
	.st45{fill:#BE1622;}
	.st46{fill:#E6332A;}
	.st47{fill:#009FE3;}
	.st48{fill:#2791D8;}
	.st49{fill:#3BBFF2;}
	.st50{opacity:0.8;enable-background:new    ;}
	.st51{fill:#BDD7B8;}
	.st52{fill:#8E562E;}
	.st53{fill:#3558A0;}
	.st54{fill:#FAD220;}
	.st55{fill:#FF5000;}
	.st56{fill:#FF000E;}
	.st57{fill:#880082;}
	.st58{fill:#FDCB58;}
</style>
<g>
	<g>
		<g>
			<polygon class="st13" points="84.4,107.8 83.7,108.4 66.9,125.2 55.4,125.2 55.4,107.8 			"/>
			<polygon class="st13" points="144.6,107.8 144.6,125.2 94,125.2 110.8,108.4 111.4,107.8 			"/>
		</g>
		<g>
			<polygon class="st14" points="101.1,90.9 100.5,91.6 84.4,107.8 83.7,108.4 55.4,108.4 55.4,90.9 			"/>
			<polygon class="st14" points="144.6,90.9 144.6,108.4 110.8,108.4 111.4,107.8 127.6,91.6 128.2,90.9 			"/>
		</g>
		<g>
			<polygon class="st15" points="117.9,74.1 117.4,74.7 101.1,90.9 100.5,91.6 55.4,91.6 55.4,74.1 			"/>
			<polygon class="st15" points="144.6,74.5 144.6,91.6 127.6,91.6 128.2,90.9 144.4,74.7 			"/>
		</g>
		<g>
			<path class="st16" d="M134.1,57.9l-16.1,16.2l-0.6,0.6H55.4v-9.8c0-3.9,3.1-7,7-7H134.1z"/>
			<polygon class="st16" points="144.6,74.5 144.6,74.7 144.4,74.7 			"/>
		</g>
		<g>
			<path class="st17" d="M66.9,125.3l-11.3,11.3c-0.1-0.5-0.2-1-0.2-1.5v-9.8H66.9z"/>
			<path class="st17" d="M144.6,125.3v9.8c0,3.9-3.1,7-7,7H77.2L94,125.3H144.6z"/>
		</g>
	</g>
	<g>
		<path class="st18" d="M100,10c-49.6,0-90,40.4-90,90s40.4,90,90,90s90-40.4,90-90S149.6,10,100,10z M22.8,100
			c0-42.5,34.6-77.2,77.2-77.2c19,0,36.4,6.9,49.8,18.3L41.1,149.8C29.7,136.4,22.8,119,22.8,100z M100,177.2
			c-19,0-36.3-6.9-49.8-18.3L158.9,50.2c11.4,13.4,18.3,30.8,18.3,49.8C177.2,142.5,142.5,177.2,100,177.2z"/>
	</g>
</g>
</svg>
