<?xml version="1.0" encoding="utf-8"?>
<!-- Generator: Adobe Illustrator 22.1.0, SVG Export Plug-In . SVG Version: 6.00 Build 0)  -->
<svg version="1.1" id="Camada_1" xmlns="http://www.w3.org/2000/svg" xmlns:xlink="http://www.w3.org/1999/xlink" x="0px" y="0px"
	 viewBox="0 0 200 200" style="enable-background:new 0 0 200 200;" xml:space="preserve">
<style type="text/css">
	.st0{fill:#7F5100;}
	.st1{fill:#5B3800;}
	.st2{fill:#FFDB64;}
	.st3{fill:#FFFFFF;}
	.st4{fill:#1A1A1A;}
	.st5{fill:#00CCFF;}
	.st6{fill:#CCCCCC;}
	.st7{fill:#E5AA63;}
	.st8{fill:#333333;}
	.st9{fill:#666666;}
	.st10{fill:#F94E63;}
	.st11{fill:#8899A6;}
	.st12{fill:#F4900C;}
	.st13{fill:#009B34;}
	.st14{fill:#FFDB59;}
	.st15{fill:#F59000;}
	.st16{fill:#FB4C60;}
	.st17{fill:#096EDF;}
	.st18{fill:#292F33;}
	.st19{fill:#F3D29E;}
	.st20{fill:#805100;}
	.st21{fill:#66757F;}
	.st22{fill:#138F3E;}
	.st23{fill:#CCD6DD;}
	.st24{fill:#AAB8C2;}
	.st25{fill:#F3D2A2;}
	.st26{fill-rule:evenodd;clip-rule:evenodd;fill:#292F33;}
	.st27{fill:#404040;}
	.st28{fill:#F2F2F2;}
	.st29{fill:#1771DD;}
	.st30{fill:#009B3A;}
	.st31{fill:#55ACEE;}
	.st32{fill:#999999;}
	.st33{fill:#EF9645;}
	.st34{fill:#FFA766;}
	.st35{fill:#99AAB5;}
	.st36{fill:#E1E8ED;}
	.st37{fill:#FFCC4D;}
	.st38{fill:#FFCC3E;}
	.st39{fill:#00CAFF;}
	.st40{fill:#E9CC39;}
	.st41{fill:#D6B736;}
	.st42{fill:#3AAA35;}
	.st43{fill:#95C11F;}
	.st44{fill:#E30613;}
	.st45{fill:#BE1622;}
	.st46{fill:#E6332A;}
	.st47{fill:#009FE3;}
	.st48{fill:#2791D8;}
	.st49{fill:#3BBFF2;}
	.st50{opacity:0.8;enable-background:new    ;}
	.st51{fill:#BDD7B8;}
	.st52{fill:#8E562E;}
	.st53{fill:#3558A0;}
	.st54{fill:#FAD220;}
	.st55{fill:#FF5000;}
	.st56{fill:#FF000E;}
	.st57{fill:#880082;}
	.st58{fill:#FDCB58;}
</style>
<g>
	<path class="st29" d="M39.1,178V22c0-6.6,5.4-12,12-12h97.9c6.6,0,12,5.4,12,12v156c0,6.6-5.4,12-12,12H51.1
		C44.5,190,39.1,184.6,39.1,178z"/>
</g>
<g>
	<g>
		<path class="st3" d="M99.8,76.9c3.9,0,7.6,1.1,10.8,2.9l-6.4-19.7c-1.3-4.1-7.1-4.1-8.4,0l-6.3,19.4
			C92.6,77.9,96.1,76.9,99.8,76.9z"/>
	</g>
	<g>
		<path class="st3" d="M78.6,98.1c0-6.4,2.8-12.1,7.2-15.9H65.4c-4.3,0-6,5.5-2.6,8l16,11.6C78.7,100.6,78.6,99.4,78.6,98.1z"/>
	</g>
	<g>
		<path class="st3" d="M119.3,106.6c-2.9,6.7-9.1,11.5-16.5,12.5l16,11.6c3.4,2.5,8.1-0.8,6.8-4.9L119.3,106.6z"/>
	</g>
	<g>
		<path class="st3" d="M80.6,107.1l-6.1,18.7c-1.3,4.1,3.3,7.4,6.8,4.9l15.9-11.6C89.8,118.3,83.6,113.6,80.6,107.1z"/>
	</g>
	<g>
		<path class="st3" d="M134.5,82.2h-20.7c4.4,3.9,7.2,9.6,7.2,15.9c0,1.4-0.1,2.7-0.4,4l16.5-12C140.6,87.7,138.8,82.2,134.5,82.2z"
			/>
	</g>
	<g>
		<path class="st3" d="M104.8,124.3l-4.8-3.4l-4.8,3.4l-1,0.7l-6.2,4.6l1.1,1.8c0.8,1.4,2.6,1.8,3.9,1.1l7-4.1l7,4.1
			c1.4,0.8,3.2,0.4,3.9-1.1l1.1-1.8l-6.2-4.6L104.8,124.3z"/>
	</g>
	<g>
		<path class="st3" d="M133.8,95.9l-6.2,4.6l-1,0.7l-4.7,3.5l1.8,5.5l0.4,1.1l2.5,7.3l2-0.4c1.5-0.4,2.5-1.9,2.2-3.4l-1.8-7.9l6-5.5
			c1.2-1.1,1.3-2.9,0.2-4.1L133.8,95.9z"/>
	</g>
	<g>
		<path class="st3" d="M75.8,110.2l1.8-5.5l-4.7-3.5l-1-0.7l-6.2-4.6l-1.4,1.5c-1.1,1.2-1,3,0.2,4.1l6,5.5l-1.8,7.9
			c-0.4,1.5,0.6,3.1,2.2,3.4l2,0.4l2.5-7.3L75.8,110.2z"/>
	</g>
	<g>
		<path class="st3" d="M72,79.6h7.7h1.2h5.9l1.8-5.6l0.4-1.1l2.4-7.4l-1.9-0.8c-1.5-0.6-3.2,0-3.8,1.5l-3.3,7.4l-8.1,0.8
			c-1.6,0.1-2.7,1.6-2.6,3.2L72,79.6z"/>
	</g>
	<g>
		<path class="st3" d="M111.3,74l1.8,5.6h5.9h1.2h7.7l0.2-2c0.1-1.6-1-3-2.6-3.2l-8.1-0.8l-3.3-7.4c-0.6-1.5-2.4-2.1-3.8-1.5
			l-1.9,0.8l2.4,7.4L111.3,74z"/>
	</g>
	<g>
		<path class="st3" d="M99.8,84.8c-7.4,0-13.3,6-13.3,13.3c0,7.4,6,13.3,13.3,13.3s13.3-6,13.3-13.3
			C113.1,90.8,107.1,84.8,99.8,84.8z M97.3,95l-1,0.7l0.4,1.2c0.1,0.2-0.2,0.4-0.4,0.3l-1-0.7l-0.6,0.4l-0.5,0.4
			c-0.1,0.1-0.2,0.1-0.3,0C94,97.1,93.9,97,94,96.9l0.4-1.2l-0.5-0.4L93.3,95l-0.1-0.1c0-0.1-0.1-0.1,0-0.2c0-0.1,0.1-0.1,0.2-0.1
			h1.2l0.1-0.3l0.3-0.8c0.1-0.2,0.4-0.2,0.4,0l0,0l0.4,1.2H97c0.1,0,0.1,0.1,0.1,0.1C97.5,94.8,97.5,94.9,97.3,95z M103.8,105.1
			l-1,0.7l0.4,1.2l0,0l0,0c0,0.1,0,0.1,0,0.1c-0.1,0.1-0.2,0.2-0.4,0.1l-1-0.7l-0.7,0.5l-0.3,0.2c-0.1,0.1-0.2,0.1-0.3-0.1
			c-0.1-0.1-0.1-0.1-0.1-0.2l0.4-1.2l-1-0.7c0,0,0-0.1-0.1-0.1c-0.1-0.1,0-0.4,0.2-0.4h1.3l0.4-1.2c0.1-0.1,0.2-0.2,0.4-0.1
			c0.1,0,0.1,0.1,0.1,0.1l0.2,0.7l0.1,0.5h1.3c0.1,0,0.3,0.1,0.2,0.3C103.9,105,103.8,105,103.8,105.1z M103.9,89.8
			c0,0.1-0.1,0.1-0.1,0.1l-1,0.7l0.4,1.2l0,0l0,0c0,0.1,0,0.1,0,0.1c-0.1,0.1-0.2,0.2-0.4,0.1l0,0l0,0l-0.2-0.1l-0.8-0.6L101,92
			l-0.1,0.1c-0.1,0.1-0.2,0.1-0.3,0c-0.1-0.1-0.1-0.1-0.1-0.3l0.3-0.8l0.1-0.4l-1-0.7l0,0c-0.1-0.1-0.1-0.4,0.1-0.4h1.3l0.4-1.2
			c0.1-0.1,0.3-0.2,0.4-0.1l0.1,0.1l0.2,0.6l0.1,0.6h1.3C103.8,89.5,103.9,89.7,103.9,89.8z M109,94.1L109,94.1L109,94.1l-0.2,0.2
			l-0.8,0.6l0.4,1.2l0,0l0,0c0,0.1,0,0.2-0.1,0.3l0,0l0,0c0,0-0.1,0.1-0.1,0.1c-0.1,0-0.1,0-0.1-0.1l-0.6-0.5l-0.4-0.2l-1,0.7l0,0
			c-0.1,0.1-0.1,0.1-0.2,0c-0.1-0.1-0.2-0.1-0.1-0.3l0.1-0.5l0.2-0.7l-0.5-0.4l-0.6-0.4c-0.2-0.1-0.1-0.4,0.1-0.4h1.3l0.4-1.2
			c0-0.1,0.1-0.1,0.1-0.1c0.1-0.1,0.3-0.1,0.4,0.1l0.1,0.5l0.2,0.6h1.3C109.1,93.7,109.2,94,109,94.1L109,94.1z"/>
	</g>
</g>
<g>
	<path class="st3" d="M129.5,162.8H70.5c-0.8,0-1.4-0.6-1.4-1.4v-5c0-0.8,0.6-1.4,1.4-1.4h59.1c0.8,0,1.4,0.6,1.4,1.4v5
		C130.9,162.2,130.3,162.8,129.5,162.8z"/>
</g>
<g>
	<path class="st3" d="M129.5,37.3H70.5c-0.8,0-1.4-0.6-1.4-1.4v-5c0-0.8,0.6-1.4,1.4-1.4h59.1c0.8,0,1.4,0.6,1.4,1.4v5
		C130.9,36.7,130.3,37.3,129.5,37.3z"/>
</g>
<g>
	<g>
		<path class="st29" d="M39.1,178V22c0-6.6,5.4-12,12-12h97.9c6.6,0,12,5.4,12,12v156c0,6.6-5.4,12-12,12H51.1
			C44.5,190,39.1,184.6,39.1,178z"/>
	</g>
	<g>
		<g>
			<path class="st3" d="M99.8,76.9c3.9,0,7.6,1.1,10.8,2.9l-6.4-19.7c-1.3-4.1-7.1-4.1-8.4,0l-6.3,19.4
				C92.6,77.9,96.1,76.9,99.8,76.9z"/>
		</g>
		<g>
			<path class="st3" d="M78.6,98.1c0-6.4,2.8-12.1,7.2-15.9H65.4c-4.3,0-6,5.5-2.6,8l16,11.6C78.7,100.6,78.6,99.4,78.6,98.1z"/>
		</g>
		<g>
			<path class="st3" d="M119.3,106.6c-2.9,6.7-9.1,11.5-16.5,12.5l16,11.6c3.4,2.5,8.1-0.8,6.8-4.9L119.3,106.6z"/>
		</g>
		<g>
			<path class="st3" d="M80.6,107.1l-6.1,18.7c-1.3,4.1,3.3,7.4,6.8,4.9l15.9-11.6C89.8,118.3,83.6,113.6,80.6,107.1z"/>
		</g>
		<g>
			<path class="st3" d="M134.5,82.2h-20.7c4.4,3.9,7.2,9.6,7.2,15.9c0,1.4-0.1,2.7-0.4,4l16.5-12C140.6,87.7,138.8,82.2,134.5,82.2z
				"/>
		</g>
		<g>
			<path class="st3" d="M104.8,124.3l-4.8-3.4l-4.8,3.4l-1,0.7l-6.2,4.6l1.1,1.8c0.8,1.4,2.6,1.8,3.9,1.1l7-4.1l7,4.1
				c1.4,0.8,3.2,0.4,3.9-1.1l1.1-1.8l-6.2-4.6L104.8,124.3z"/>
		</g>
		<g>
			<path class="st3" d="M133.8,95.9l-6.2,4.6l-1,0.7l-4.7,3.5l1.8,5.5l0.4,1.1l2.5,7.3l2-0.4c1.5-0.4,2.5-1.9,2.2-3.4l-1.8-7.9
				l6-5.5c1.2-1.1,1.3-2.9,0.2-4.1L133.8,95.9z"/>
		</g>
		<g>
			<path class="st3" d="M75.8,110.2l1.8-5.5l-4.7-3.5l-1-0.7l-6.2-4.6l-1.4,1.5c-1.1,1.2-1,3,0.2,4.1l6,5.5l-1.8,7.9
				c-0.4,1.5,0.6,3.1,2.2,3.4l2,0.4l2.5-7.3L75.8,110.2z"/>
		</g>
		<g>
			<path class="st3" d="M72,79.6h7.7h1.2h5.9l1.8-5.6l0.4-1.1l2.4-7.4l-1.9-0.8c-1.5-0.6-3.2,0-3.8,1.5l-3.3,7.4l-8.1,0.8
				c-1.6,0.1-2.7,1.6-2.6,3.2L72,79.6z"/>
		</g>
		<g>
			<path class="st3" d="M111.3,74l1.8,5.6h5.9h1.2h7.7l0.2-2c0.1-1.6-1-3-2.6-3.2l-8.1-0.8l-3.3-7.4c-0.6-1.5-2.4-2.1-3.8-1.5
				l-1.9,0.8l2.4,7.4L111.3,74z"/>
		</g>
		<g>
			<path class="st3" d="M99.8,84.8c-7.4,0-13.3,6-13.3,13.3c0,7.4,6,13.3,13.3,13.3s13.3-6,13.3-13.3
				C113.1,90.8,107.1,84.8,99.8,84.8z M97.3,95l-1,0.7l0.4,1.2c0.1,0.2-0.2,0.4-0.4,0.3l-1-0.7l-0.6,0.4l-0.5,0.4
				c-0.1,0.1-0.2,0.1-0.3,0C94,97.1,93.9,97,94,96.9l0.4-1.2l-0.5-0.4L93.3,95l-0.1-0.1c0-0.1-0.1-0.1,0-0.2c0-0.1,0.1-0.1,0.2-0.1
				h1.2l0.1-0.3l0.3-0.8c0.1-0.2,0.4-0.2,0.4,0l0,0l0.4,1.2H97c0.1,0,0.1,0.1,0.1,0.1C97.5,94.8,97.5,94.9,97.3,95z M103.8,105.1
				l-1,0.7l0.4,1.2l0,0l0,0c0,0.1,0,0.1,0,0.1c-0.1,0.1-0.2,0.2-0.4,0.1l-1-0.7l-0.7,0.5l-0.3,0.2c-0.1,0.1-0.2,0.1-0.3-0.1
				c-0.1-0.1-0.1-0.1-0.1-0.2l0.4-1.2l-1-0.7c0,0,0-0.1-0.1-0.1c-0.1-0.1,0-0.4,0.2-0.4h1.3l0.4-1.2c0.1-0.1,0.2-0.2,0.4-0.1
				c0.1,0,0.1,0.1,0.1,0.1l0.2,0.7l0.1,0.5h1.3c0.1,0,0.3,0.1,0.2,0.3C103.9,105,103.8,105,103.8,105.1z M103.9,89.8
				c0,0.1-0.1,0.1-0.1,0.1l-1,0.7l0.4,1.2l0,0l0,0c0,0.1,0,0.1,0,0.1c-0.1,0.1-0.2,0.2-0.4,0.1l0,0l0,0l-0.2-0.1l-0.8-0.6L101,92
				l-0.1,0.1c-0.1,0.1-0.2,0.1-0.3,0c-0.1-0.1-0.1-0.1-0.1-0.3l0.3-0.8l0.1-0.4l-1-0.7l0,0c-0.1-0.1-0.1-0.4,0.1-0.4h1.3l0.4-1.2
				c0.1-0.1,0.3-0.2,0.4-0.1l0.1,0.1l0.2,0.6l0.1,0.6h1.3C103.8,89.5,103.9,89.7,103.9,89.8z M109,94.1L109,94.1L109,94.1l-0.2,0.2
				l-0.8,0.6l0.4,1.2l0,0l0,0c0,0.1,0,0.2-0.1,0.3l0,0l0,0c0,0-0.1,0.1-0.1,0.1c-0.1,0-0.1,0-0.1-0.1l-0.6-0.5l-0.4-0.2l-1,0.7l0,0
				c-0.1,0.1-0.1,0.1-0.2,0c-0.1-0.1-0.2-0.1-0.1-0.3l0.1-0.5l0.2-0.7l-0.5-0.4l-0.6-0.4c-0.2-0.1-0.1-0.4,0.1-0.4h1.3l0.4-1.2
				c0-0.1,0.1-0.1,0.1-0.1c0.1-0.1,0.3-0.1,0.4,0.1l0.1,0.5l0.2,0.6h1.3C109.1,93.7,109.2,94,109,94.1L109,94.1z"/>
		</g>
	</g>
	<g>
		<path class="st3" d="M129.5,162.8H70.5c-0.8,0-1.4-0.6-1.4-1.4v-5c0-0.8,0.6-1.4,1.4-1.4h59.1c0.8,0,1.4,0.6,1.4,1.4v5
			C130.9,162.2,130.3,162.8,129.5,162.8z"/>
	</g>
	<g>
		<path class="st3" d="M129.5,37.3H70.5c-0.8,0-1.4-0.6-1.4-1.4v-5c0-0.8,0.6-1.4,1.4-1.4h59.1c0.8,0,1.4,0.6,1.4,1.4v5
			C130.9,36.7,130.3,37.3,129.5,37.3z"/>
	</g>
</g>
</svg>
