<?xml version="1.0" encoding="utf-8"?>
<!-- Generator: Adobe Illustrator 22.1.0, SVG Export Plug-In . SVG Version: 6.00 Build 0)  -->
<svg version="1.1" id="Camada_1" xmlns="http://www.w3.org/2000/svg" xmlns:xlink="http://www.w3.org/1999/xlink" x="0px" y="0px"
	 viewBox="0 0 200 200" style="enable-background:new 0 0 200 200;" xml:space="preserve">
<style type="text/css">
	.st0{fill:#7F5100;}
	.st1{fill:#5B3800;}
	.st2{fill:#FFDB64;}
	.st3{fill:#FFFFFF;}
	.st4{fill:#1A1A1A;}
	.st5{fill:#00CCFF;}
	.st6{fill:#CCCCCC;}
	.st7{fill:#E5AA63;}
	.st8{fill:#333333;}
	.st9{fill:#666666;}
	.st10{fill:#F94E63;}
	.st11{fill:#8899A6;}
	.st12{fill:#F4900C;}
	.st13{fill:#009B34;}
	.st14{fill:#FFDB59;}
	.st15{fill:#F59000;}
	.st16{fill:#FB4C60;}
	.st17{fill:#096EDF;}
	.st18{fill:#292F33;}
	.st19{fill:#F3D29E;}
	.st20{fill:#805100;}
	.st21{fill:#66757F;}
	.st22{fill:#138F3E;}
	.st23{fill:#CCD6DD;}
	.st24{fill:#AAB8C2;}
	.st25{fill:#F3D2A2;}
	.st26{fill-rule:evenodd;clip-rule:evenodd;fill:#292F33;}
	.st27{fill:#404040;}
	.st28{fill:#F2F2F2;}
	.st29{fill:#1771DD;}
	.st30{fill:#009B3A;}
	.st31{fill:#55ACEE;}
	.st32{fill:#999999;}
	.st33{fill:#EF9645;}
	.st34{fill:#FFA766;}
	.st35{fill:#99AAB5;}
	.st36{fill:#E1E8ED;}
	.st37{fill:#FFCC4D;}
	.st38{fill:#FFCC3E;}
	.st39{fill:#00CAFF;}
	.st40{fill:#E9CC39;}
	.st41{fill:#D6B736;}
	.st42{fill:#3AAA35;}
	.st43{fill:#95C11F;}
	.st44{fill:#E30613;}
	.st45{fill:#BE1622;}
	.st46{fill:#E6332A;}
	.st47{fill:#009FE3;}
	.st48{fill:#2791D8;}
	.st49{fill:#3BBFF2;}
	.st50{opacity:0.8;enable-background:new    ;}
	.st51{fill:#BDD7B8;}
	.st52{fill:#8E562E;}
	.st53{fill:#3558A0;}
	.st54{fill:#FAD220;}
	.st55{fill:#FF5000;}
	.st56{fill:#FF000E;}
	.st57{fill:#880082;}
	.st58{fill:#FDCB58;}
</style>
<g>
	<g>
		<g>
			<circle class="st2" cx="100" cy="100" r="90"/>
		</g>
		<circle class="st6" cx="100.2" cy="99.5" r="70"/>
	</g>
	<g>
		<path class="st21" d="M100.8,63.3c2.5,0,4.4,1.9,4.4,4.4v1.2c4.6,0.7,8.6,2,12.3,4.1c1.6,0.9,3,2.5,3,5.1c0,3.2-2.5,5.7-5.8,5.7
			c-1,0-2-0.3-3-0.8c-2.4-1.3-4.7-2.3-7-2.9v12.9c12.9,3.5,18.4,8.7,18.4,18.2c0,9.5-7.3,15.6-17.9,16.8v4.5c0,2.5-1.9,4.4-4.4,4.4
			c-2.5,0-4.4-1.9-4.4-4.4v-4.6c-6-0.8-11.7-2.9-16.7-5.9c-1.8-1.1-2.9-2.8-2.9-5.1c0-3.3,2.5-5.8,5.8-5.8c1.1,0,2.3,0.4,3.3,1.1
			c3.6,2.3,6.9,3.9,10.8,4.7v-13.5c-12.2-3.3-18.2-8-18.2-18c0-9.3,7.1-15.6,17.8-16.7v-1C96.4,65.2,98.3,63.3,100.8,63.3z
			 M96.8,90.7V79.3c-4.1,0.6-5.8,2.6-5.8,5.3C91,87.2,92.2,89,96.8,90.7z M104.8,105.5v11.8c4-0.6,6-2.5,6-5.5
			C110.8,109,109.3,107.1,104.8,105.5z"/>
	</g>
</g>
</svg>
