<?xml version="1.0" encoding="utf-8"?>
<!-- Generator: Adobe Illustrator 22.1.0, SVG Export Plug-In . SVG Version: 6.00 Build 0)  -->
<svg version="1.1" id="Camada_1" xmlns="http://www.w3.org/2000/svg" xmlns:xlink="http://www.w3.org/1999/xlink" x="0px" y="0px"
	 viewBox="0 0 200 200" style="enable-background:new 0 0 200 200;" xml:space="preserve">
<style type="text/css">
	.st0{fill:#7F5100;}
	.st1{fill:#5B3800;}
	.st2{fill:#FFDB64;}
	.st3{fill:#FFFFFF;}
	.st4{fill:#1A1A1A;}
	.st5{fill:#00CCFF;}
	.st6{fill:#CCCCCC;}
	.st7{fill:#E5AA63;}
	.st8{fill:#333333;}
	.st9{fill:#666666;}
	.st10{fill:#F94E63;}
	.st11{fill:#8899A6;}
	.st12{fill:#F4900C;}
	.st13{fill:#009B34;}
	.st14{fill:#FFDB59;}
	.st15{fill:#F59000;}
	.st16{fill:#FB4C60;}
	.st17{fill:#096EDF;}
	.st18{fill:#292F33;}
	.st19{fill:#F3D29E;}
	.st20{fill:#805100;}
	.st21{fill:#66757F;}
	.st22{fill:#138F3E;}
	.st23{fill:#CCD6DD;}
	.st24{fill:#AAB8C2;}
	.st25{fill:#F3D2A2;}
	.st26{fill-rule:evenodd;clip-rule:evenodd;fill:#292F33;}
	.st27{fill:#404040;}
	.st28{fill:#F2F2F2;}
	.st29{fill:#1771DD;}
	.st30{fill:#009B3A;}
	.st31{fill:#55ACEE;}
	.st32{fill:#999999;}
	.st33{fill:#EF9645;}
	.st34{fill:#FFA766;}
	.st35{fill:#99AAB5;}
	.st36{fill:#E1E8ED;}
	.st37{fill:#FFCC4D;}
	.st38{fill:#FFCC3E;}
	.st39{fill:#00CAFF;}
	.st40{fill:#E9CC39;}
	.st41{fill:#D6B736;}
	.st42{fill:#3AAA35;}
	.st43{fill:#95C11F;}
	.st44{fill:#E30613;}
	.st45{fill:#BE1622;}
	.st46{fill:#E6332A;}
	.st47{fill:#009FE3;}
	.st48{fill:#2791D8;}
	.st49{fill:#3BBFF2;}
	.st50{opacity:0.8;enable-background:new    ;}
	.st51{fill:#BDD7B8;}
	.st52{fill:#8E562E;}
	.st53{fill:#3558A0;}
	.st54{fill:#FAD220;}
	.st55{fill:#FF5000;}
	.st56{fill:#FF000E;}
	.st57{fill:#880082;}
	.st58{fill:#FDCB58;}
</style>
<g>
	<g>
		<path class="st2" d="M99.5,57.1c9.4,0,18.2,2.6,25.7,7L110,17.2c-3.1-9.7-16.9-9.7-19.9,0L75,63.4C82.3,59.4,90.7,57.1,99.5,57.1z
			"/>
	</g>
	<g>
		<path class="st2" d="M49,107.6c0-15.1,6.6-28.7,17.2-38H17.8c-10.2,0-14.4,13-6.1,19l38.1,27.7C49.2,113.5,49,110.6,49,107.6z"/>
	</g>
	<g>
		<path class="st2" d="M145.9,127.8c-6.9,15.8-21.6,27.5-39.3,30l38,27.6c8.2,6,19.3-2.1,16.2-11.7L145.9,127.8z"/>
	</g>
	<g>
		<path class="st2" d="M53.7,129l-14.5,44.5c-3.1,9.7,7.9,17.7,16.2,11.7l37.9-27.5C75.6,155.6,60.9,144.4,53.7,129z"/>
	</g>
	<g>
		<path class="st2" d="M182.2,69.7h-49.3c10.5,9.3,17.2,22.8,17.2,38c0,3.3-0.4,6.4-0.9,9.5l39.2-28.5
			C196.6,82.7,192.3,69.7,182.2,69.7z"/>
	</g>
	<g>
		<path class="st30" d="M111.3,169.8l-11.3-8.2l-11.3,8.2l-2.4,1.7l-14.9,10.8l2.4,4.2c1.9,3.3,6.1,4.4,9.4,2.5l16.7-9.7l16.7,9.7
			c3.3,1.9,7.5,0.8,9.4-2.5l2.4-4.2l-14.8-10.8L111.3,169.8z"/>
	</g>
	<g>
		<path class="st30" d="M180.5,102.2l-14.8,10.9l-2.3,1.7l-11.2,8.3l4.4,13.2l0.9,2.7l5.8,17.4l4.7-1.1c3.7-0.8,6.1-4.5,5.2-8.2
			l-4.1-18.8l14.2-13c2.8-2.6,3-6.9,0.4-9.7L180.5,102.2z"/>
	</g>
	<g>
		<path class="st30" d="M42.5,136.4l4.4-13.2l-11.2-8.3l-2.3-1.7l-14.9-10.9l-3.3,3.6c-2.6,2.8-2.4,7.2,0.4,9.7l14.2,13l-4.1,18.7
			c-0.8,3.7,1.6,7.4,5.2,8.2l4.7,1.1l5.8-17.4L42.5,136.4z"/>
	</g>
	<g>
		<path class="st30" d="M33.5,63.4h18.4h2.9h13.9L73,50.1l0.9-2.7l5.7-17.4l-4.4-2c-3.4-1.6-7.5,0-9.1,3.4l-7.9,17.6l-19.2,2
			c-3.8,0.4-6.5,3.8-6.1,7.5L33.5,63.4z"/>
	</g>
	<g>
		<path class="st30" d="M126.9,50.1l4.4,13.3h13.9h2.9h18.4l0.5-4.8c0.4-3.8-2.4-7.2-6.1-7.5l-19.2-2l-7.9-17.6
			c-1.6-3.4-5.6-5-9.1-3.4l-4.4,2l5.7,17.4L126.9,50.1z"/>
	</g>
	<g>
		<path class="st29" d="M99.5,75.9c-17.5,0-31.7,14.2-31.7,31.7s14.2,31.7,31.7,31.7s31.7-14.2,31.7-31.7
			C131.3,90.1,117,75.9,99.5,75.9z M93.7,100.1l-2.4,1.7l0.9,2.8c0.1,0.5-0.4,0.9-0.9,0.6l-2.4-1.7l-1.3,0.9l-1.1,0.8
			c-0.2,0.1-0.5,0.1-0.6,0c-0.2-0.1-0.3-0.4-0.2-0.6l0.9-2.8l-1.2-0.9l-1.1-0.8c-0.1-0.1-0.1-0.1-0.1-0.2c-0.1-0.1-0.1-0.3-0.1-0.4
			c0.1-0.2,0.3-0.4,0.5-0.4h2.9l0.2-0.7l0.6-2.1c0.1-0.5,0.8-0.5,1-0.1c0,0,0,0,0.1,0.1l0.9,2.8h2.9c0.2,0,0.3,0.1,0.4,0.2
			C94,99.5,94,99.9,93.7,100.1z M109.1,124.1l-2.4,1.7l0.9,2.8l0,0l0,0c0.1,0.1,0.1,0.2,0,0.4c-0.1,0.3-0.5,0.5-0.9,0.3l-2.4-1.7
			l-1.6,1.2l-0.7,0.5c-0.3,0.2-0.6,0.1-0.7-0.1c-0.1-0.1-0.2-0.3-0.1-0.5l0.9-2.8l-2.4-1.7c-0.1-0.1-0.1-0.1-0.1-0.1
			c-0.2-0.4,0-0.9,0.4-0.9h2.9l0.9-2.8c0.1-0.4,0.6-0.5,0.9-0.3c0.1,0.1,0.1,0.1,0.2,0.3l0.5,1.6l0.4,1.1h2.9c0.4,0,0.6,0.4,0.5,0.7
			C109.2,123.9,109.2,124.1,109.1,124.1z M109.3,87.7c0,0.1-0.1,0.2-0.2,0.3l-2.4,1.7l0.9,2.8l0,0l0,0c0.1,0.1,0,0.3-0.1,0.4
			c-0.1,0.3-0.5,0.4-0.8,0.2l0,0l0,0l-0.4-0.3l-1.9-1.4l-2.1,1.5l-0.4,0.2c-0.2,0.1-0.5,0.1-0.6,0c-0.2-0.1-0.3-0.4-0.2-0.6l0.6-1.9
			l0.3-0.9L99.7,88c0,0,0,0,0-0.1c-0.4-0.4-0.1-0.9,0.4-0.9h2.9l0.9-2.8c0.1-0.4,0.6-0.5,0.9-0.2c0.1,0.1,0.1,0.1,0.1,0.2l0.5,1.5
			l0.4,1.3h2.9C109.2,87,109.4,87.4,109.3,87.7z M121.5,98.1L121.5,98.1L121.5,98.1l-0.6,0.4l-1.8,1.3l0.9,2.8l0,0l0,0
			c0.1,0.2,0,0.4-0.2,0.6l0,0c0,0,0,0-0.1,0c-0.1,0.1-0.1,0.1-0.3,0.1c-0.1,0-0.2,0-0.4-0.1l-1.6-1.1l-0.8-0.6l-2.4,1.7l0,0
			c-0.1,0.1-0.4,0.1-0.5,0.1c-0.3-0.1-0.4-0.4-0.4-0.6l0.4-1.1l0.6-1.6l-1.1-0.8l-1.3-0.9c-0.4-0.3-0.2-1,0.3-1h2.9l0.9-2.8
			c0.1-0.1,0.1-0.2,0.2-0.3c0.3-0.2,0.7-0.1,0.9,0.3l0.4,1.2l0.5,1.5h2.9C121.7,97.1,121.9,97.8,121.5,98.1L121.5,98.1z"/>
	</g>
</g>
</svg>
