<?xml version="1.0" encoding="utf-8"?>
<!-- Generator: Adobe Illustrator 22.1.0, SVG Export Plug-In . SVG Version: 6.00 Build 0)  -->
<svg version="1.1" id="Camada_1" xmlns="http://www.w3.org/2000/svg" xmlns:xlink="http://www.w3.org/1999/xlink" x="0px" y="0px"
	 viewBox="0 0 200 200" style="enable-background:new 0 0 200 200;" xml:space="preserve">
<style type="text/css">
	.st0{fill:#7F5100;}
	.st1{fill:#5B3800;}
	.st2{fill:#FFDB64;}
	.st3{fill:#FFFFFF;}
	.st4{fill:#1A1A1A;}
	.st5{fill:#00CCFF;}
	.st6{fill:#CCCCCC;}
	.st7{fill:#E5AA63;}
	.st8{fill:#333333;}
	.st9{fill:#666666;}
	.st10{fill:#F94E63;}
	.st11{fill:#8899A6;}
	.st12{fill:#F4900C;}
	.st13{fill:#009B34;}
	.st14{fill:#FFDB59;}
	.st15{fill:#F59000;}
	.st16{fill:#FB4C60;}
	.st17{fill:#096EDF;}
	.st18{fill:#292F33;}
	.st19{fill:#F3D29E;}
	.st20{fill:#805100;}
	.st21{fill:#66757F;}
	.st22{fill:#138F3E;}
	.st23{fill:#CCD6DD;}
	.st24{fill:#AAB8C2;}
	.st25{fill:#F3D2A2;}
	.st26{fill-rule:evenodd;clip-rule:evenodd;fill:#292F33;}
	.st27{fill:#404040;}
	.st28{fill:#F2F2F2;}
	.st29{fill:#1771DD;}
	.st30{fill:#009B3A;}
	.st31{fill:#55ACEE;}
	.st32{fill:#999999;}
	.st33{fill:#EF9645;}
	.st34{fill:#FFA766;}
	.st35{fill:#99AAB5;}
	.st36{fill:#E1E8ED;}
	.st37{fill:#FFCC4D;}
	.st38{fill:#FFCC3E;}
	.st39{fill:#00CAFF;}
	.st40{fill:#E9CC39;}
	.st41{fill:#D6B736;}
	.st42{fill:#3AAA35;}
	.st43{fill:#95C11F;}
	.st44{fill:#E30613;}
	.st45{fill:#BE1622;}
	.st46{fill:#E6332A;}
	.st47{fill:#009FE3;}
	.st48{fill:#2791D8;}
	.st49{fill:#3BBFF2;}
	.st50{opacity:0.8;enable-background:new    ;}
	.st51{fill:#BDD7B8;}
	.st52{fill:#8E562E;}
	.st53{fill:#3558A0;}
	.st54{fill:#FAD220;}
	.st55{fill:#FF5000;}
	.st56{fill:#FF000E;}
	.st57{fill:#880082;}
	.st58{fill:#FDCB58;}
</style>
<g>
	<path class="st11" d="M78.6,155.9c0-2.3-0.2-4.5-0.7-6.6L154.1,73c2.1,0.5,4.3,0.7,6.6,0.7c16.4,0,29.3-13.6,29.3-30
		c0-3.3-3.7-8.1-7.4-4.4l-11.1,11.1c0,0-6.7,4.4-14-3s-3-14-3-14l11.1-11.1c3.7-3.7-1.1-7.5-4.5-7.5c-16.4,0-29.8,13.1-29.8,29.4
		c0,2.3,0.1,4.4,0.6,6.5L55.6,127c-2.1-0.5-4.4-0.8-6.7-0.8c-16.4,0-29.2,13.6-29.2,30c0,3.3,3.8,8.2,7.5,4.5l11.1-11.1
		c0,0,6.7-4.4,14,3s3,14,3,14l-11.1,11.1c-3.7,3.7,1.1,7.4,4.4,7.4C65,185.1,78.6,172.2,78.6,155.9z"/>
	<g>
		<path class="st12" d="M175.9,182.2c-3.4,0-6.7-1.3-9.3-3.8L34.4,46c-5.1-5.1-5.1-13.4,0-18.5c5.1-5.1,13.4-5.1,18.5,0l132.3,132.3
			c5.1,5.1,5.1,13.4,0,18.5C182.6,180.9,179.3,182.2,175.9,182.2z"/>
		<path class="st21" d="M105.4,32.5c1.3-1.3,1.2-3.4-0.2-4.6C91,16.1,69.8,16.9,56.5,30.2L32.6,54.1c-1.2,1.2-3.2,1.2-4.4,0l0,0
			c-1.2-1.2-3.2-1.2-4.4,0L10.9,67c-1.2,1.2-1.2,3.2,0,4.4l30,30c1.2,1.2,3.2,1.2,4.4,0l12.9-12.9c1.2-1.2,1.2-3.2,0-4.4l0,0
			c-1.2-1.2-1.2-3.2,0-4.4L105.4,32.5z"/>
	</g>
</g>
</svg>
