<?xml version="1.0" encoding="utf-8"?>
<!-- Generator: Adobe Illustrator 22.1.0, SVG Export Plug-In . SVG Version: 6.00 Build 0)  -->
<svg version="1.1" id="Camada_1" xmlns="http://www.w3.org/2000/svg" xmlns:xlink="http://www.w3.org/1999/xlink" x="0px" y="0px"
	 viewBox="0 0 200 200" style="enable-background:new 0 0 200 200;" xml:space="preserve">
<style type="text/css">
	.st0{fill:#7F5100;}
	.st1{fill:#5B3800;}
	.st2{fill:#FFDB64;}
	.st3{fill:#FFFFFF;}
	.st4{fill:#1A1A1A;}
	.st5{fill:#00CCFF;}
	.st6{fill:#CCCCCC;}
	.st7{fill:#E5AA63;}
	.st8{fill:#333333;}
	.st9{fill:#666666;}
	.st10{fill:#F94E63;}
	.st11{fill:#8899A6;}
	.st12{fill:#F4900C;}
	.st13{fill:#009B34;}
	.st14{fill:#FFDB59;}
	.st15{fill:#F59000;}
	.st16{fill:#FB4C60;}
	.st17{fill:#096EDF;}
	.st18{fill:#292F33;}
	.st19{fill:#F3D29E;}
	.st20{fill:#805100;}
	.st21{fill:#66757F;}
	.st22{fill:#138F3E;}
	.st23{fill:#CCD6DD;}
	.st24{fill:#AAB8C2;}
	.st25{fill:#F3D2A2;}
	.st26{fill-rule:evenodd;clip-rule:evenodd;fill:#292F33;}
	.st27{fill:#404040;}
	.st28{fill:#F2F2F2;}
	.st29{fill:#1771DD;}
	.st30{fill:#009B3A;}
	.st31{fill:#55ACEE;}
	.st32{fill:#999999;}
	.st33{fill:#EF9645;}
	.st34{fill:#FFA766;}
	.st35{fill:#99AAB5;}
	.st36{fill:#E1E8ED;}
	.st37{fill:#FFCC4D;}
	.st38{fill:#FFCC3E;}
	.st39{fill:#00CAFF;}
	.st40{fill:#E9CC39;}
	.st41{fill:#D6B736;}
	.st42{fill:#3AAA35;}
	.st43{fill:#95C11F;}
	.st44{fill:#E30613;}
	.st45{fill:#BE1622;}
	.st46{fill:#E6332A;}
	.st47{fill:#009FE3;}
	.st48{fill:#2791D8;}
	.st49{fill:#3BBFF2;}
	.st50{opacity:0.8;enable-background:new    ;}
	.st51{fill:#BDD7B8;}
	.st52{fill:#8E562E;}
	.st53{fill:#3558A0;}
	.st54{fill:#FAD220;}
	.st55{fill:#FF5000;}
	.st56{fill:#FF000E;}
	.st57{fill:#880082;}
	.st58{fill:#FDCB58;}
</style>
<g>
	<path class="st18" d="M66,172.2v4.4c0,7.4-6,13.4-13.4,13.4h-4.9c-7.4,0-13.4-6-13.4-13.4v-19.7c0-0.2,0-0.3,0-0.5
		c0.5,8.8,7.8,15.8,16.6,15.8H66z"/>
	<path class="st18" d="M165.6,156.9v19.7c0,7.4-6,13.4-13.4,13.4h-4.9c-7.4,0-13.4-6-13.4-13.4v-4.4h15c8.8,0,16.1-7,16.6-15.7
		C165.6,156.6,165.6,156.8,165.6,156.9z"/>
	<path class="st21" d="M168,101.4h-9.2V89.7c0-15.6-12.7-28.2-28.2-28.2H69.4c-15.6,0-28.2,12.7-28.2,28.2v11.7H32
		c-3.1,0-5.6,2.5-5.6,5.6c0,3.1,2.5,5.6,5.6,5.6h2.4v43c0,0.2,0,0.4,0,0.7v0.2c0.5,8.8,7.8,15.8,16.6,15.8h97.9
		c8.8,0,16.1-7,16.6-15.7c0-0.3,0-0.7,0-1v-43h2.3c3.1,0,5.6-2.5,5.6-5.6C173.6,103.9,171.1,101.4,168,101.4z M57.9,85.1
		c0-6.9,5.6-12.5,12.5-12.5h59.3c6.9,0,12.5,5.6,12.5,12.5v24.1c0,1.9-1.5,3.4-3.3,3.4H61.2c-1.9,0-3.3-1.5-3.3-3.4V85.1z
		 M60.9,146.4c-0.6,0.2-1.3,0.3-2,0.3c-2.5,0-4.6-1.2-5.9-3.1c-0.8-1.1-1.2-2.5-1.2-4c0-3.9,3.2-7.1,7.1-7.1c3.9,0,7.1,3.2,7.1,7.1
		C66,142.8,63.9,145.5,60.9,146.4z M147,143.5c-1.3,1.9-3.4,3.1-5.9,3.1c-0.7,0-1.3-0.1-2-0.3c-3-0.9-5.2-3.6-5.2-6.8
		c0-3.9,3.2-7.1,7.1-7.1c3.9,0,7.1,3.2,7.1,7.1C148.2,141,147.7,142.4,147,143.5z"/>
	<path class="st9" d="M142.1,85.1v24.1c0,1.9-1.5,3.4-3.3,3.4H61.2c-1.9,0-3.3-1.5-3.3-3.4V85.1c0-6.9,5.6-12.5,12.5-12.5h59.3
		C136.6,72.6,142.1,78.2,142.1,85.1z"/>
	<path class="st3" d="M142.1,85.1v24.1c0,1.9-1.5,3.4-3.3,3.4H61.2c-1.9,0-3.3-1.5-3.3-3.4V85.1c0-6.9,5.6-12.5,12.5-12.5h59.3
		C136.6,72.6,142.1,78.2,142.1,85.1z"/>
	<path class="st5" d="M47,36L47,36l0.1-0.3c0,0,0-0.1,0.1-0.1L58.9,10l11.7,25.6c0,0,0,0.1,0.1,0.1l0.1,0.3l0,0
		c0.6,1.5,0.9,3,0.9,4.7c0,7.1-5.7,12.8-12.8,12.8s-12.8-5.7-12.8-12.8C46.1,39,46.5,37.4,47,36z"/>
	<path class="st5" d="M88.1,36L88.1,36l0.1-0.3c0,0,0-0.1,0.1-0.1L100,10l11.7,25.6c0,0,0,0.1,0.1,0.1l0.1,0.3l0,0
		c0.6,1.5,0.9,3,0.9,4.7c0,7.1-5.7,12.8-12.8,12.8s-12.8-5.7-12.8-12.8C87.2,39,87.5,37.4,88.1,36z"/>
	<path class="st5" d="M129.2,36L129.2,36l0.1-0.3c0,0,0-0.1,0.1-0.1L141.1,10l11.7,25.6c0,0,0,0.1,0.1,0.1L153,36l0,0
		c0.6,1.5,0.9,3,0.9,4.7c0,7.1-5.7,12.8-12.8,12.8c-7.1,0-12.8-5.7-12.8-12.8C128.3,39,128.6,37.4,129.2,36z"/>
	<path class="st37" d="M66,139.5c0,3.2-2.2,6-5.2,6.8c-0.6,0.2-1.3,0.3-2,0.3c-2.5,0-4.6-1.2-5.9-3.1c-0.8-1.1-1.2-2.5-1.2-4
		c0-3.9,3.2-7.1,7.1-7.1C62.8,132.4,66,135.6,66,139.5z"/>
	<path class="st37" d="M148.2,139.5c0,1.5-0.4,2.9-1.2,4c-1.3,1.9-3.4,3.1-5.9,3.1c-0.7,0-1.3-0.1-2-0.3c-3-0.9-5.2-3.6-5.2-6.8
		c0-3.9,3.2-7.1,7.1-7.1C145,132.4,148.2,135.6,148.2,139.5z"/>
</g>
</svg>
