<?xml version="1.0" encoding="utf-8"?>
<!-- Generator: Adobe Illustrator 22.1.0, SVG Export Plug-In . SVG Version: 6.00 Build 0)  -->
<svg version="1.1" id="Camada_1" xmlns="http://www.w3.org/2000/svg" xmlns:xlink="http://www.w3.org/1999/xlink" x="0px" y="0px"
	 viewBox="0 0 200 200" style="enable-background:new 0 0 200 200;" xml:space="preserve">
<style type="text/css">
	.st0{fill:#7F5100;}
	.st1{fill:#5B3800;}
	.st2{fill:#FFDB64;}
	.st3{fill:#FFFFFF;}
	.st4{fill:#1A1A1A;}
	.st5{fill:#00CCFF;}
	.st6{fill:#CCCCCC;}
	.st7{fill:#E5AA63;}
	.st8{fill:#333333;}
	.st9{fill:#666666;}
	.st10{fill:#F94E63;}
	.st11{fill:#8899A6;}
	.st12{fill:#F4900C;}
	.st13{fill:#009B34;}
	.st14{fill:#FFDB59;}
	.st15{fill:#F59000;}
	.st16{fill:#FB4C60;}
	.st17{fill:#096EDF;}
	.st18{fill:#292F33;}
	.st19{fill:#F3D29E;}
	.st20{fill:#805100;}
	.st21{fill:#66757F;}
	.st22{fill:#138F3E;}
	.st23{fill:#CCD6DD;}
	.st24{fill:#AAB8C2;}
	.st25{fill:#F3D2A2;}
	.st26{fill-rule:evenodd;clip-rule:evenodd;fill:#292F33;}
	.st27{fill:#404040;}
	.st28{fill:#F2F2F2;}
	.st29{fill:#1771DD;}
	.st30{fill:#009B3A;}
	.st31{fill:#55ACEE;}
	.st32{fill:#999999;}
	.st33{fill:#EF9645;}
	.st34{fill:#FFA766;}
	.st35{fill:#99AAB5;}
	.st36{fill:#E1E8ED;}
	.st37{fill:#FFCC4D;}
	.st38{fill:#FFCC3E;}
	.st39{fill:#00CAFF;}
	.st40{fill:#E9CC39;}
	.st41{fill:#D6B736;}
	.st42{fill:#3AAA35;}
	.st43{fill:#95C11F;}
	.st44{fill:#E30613;}
	.st45{fill:#BE1622;}
	.st46{fill:#E6332A;}
	.st47{fill:#009FE3;}
	.st48{fill:#2791D8;}
	.st49{fill:#3BBFF2;}
	.st50{opacity:0.8;enable-background:new    ;}
	.st51{fill:#BDD7B8;}
	.st52{fill:#8E562E;}
	.st53{fill:#3558A0;}
	.st54{fill:#FAD220;}
	.st55{fill:#FF5000;}
	.st56{fill:#FF000E;}
	.st57{fill:#880082;}
	.st58{fill:#FDCB58;}
</style>
<g>
	<g>
		<g>
			<g>
				<g>
					<path class="st2" d="M47.7,110.4c0-9.1,4-17.2,10.3-22.8c5.4-4.8,12.4-7.7,20.2-7.7c9.7,0,18.4,4.6,24,11.6
						c4.1,5.2,6.5,11.7,6.5,18.8c0,16.8-13.7,30.5-30.5,30.5C61.4,140.9,47.7,127.2,47.7,110.4z"/>
					<path class="st2" d="M185.4,115.2c0,41.3-33.5,74.8-74.8,74.8c-27.6,0-51.7-14.9-64.7-37.2l10.3-10.3c0.4-0.4,0.4-1,0-1.4
						l-4.1-4.1l0.5-0.5c6.6,6.4,15.5,10.4,25.4,10.4c20.1,0,36.4-16.3,36.4-36.4c0-6.9-1.9-13.3-5.2-18.8C103,81.1,91.4,74,78.2,74
						C67.4,74,57.7,78.7,51,86.2c-5.7,6.4-9.2,14.9-9.2,24.2c0,7.9,2.5,15.1,6.7,21.1l-0.9,0.9l-3.4-3.4c-0.4-0.4-1-0.4-1.4,0
						l-4.7,4.7c-1.5-5.9-2.3-12.1-2.3-18.6c0-11.1,2.4-21.6,6.8-31.1c3-6.6,7-12.7,11.7-18.1c0,0,0,0,0,0c0.2,0.1,0.4,0.2,0.6,0.3
						c0,0,0,0,0,0c0.3,0.2,0.7,0.3,1,0.4c22.8,7.7,43,8.7,53.6,8.5c0,0,0.1,0,0.1,0c0,0,0,0,0,0c0.2,0,0.3-0.1,0.5-0.1
						c0.2,0,0.4,0.1,0.6,0.1c0,0,0,0,0.1,0c10.6,0.2,30.9-0.8,53.6-8.5c0.8-0.3,1.6-0.7,2.2-1.1c0,0,0,0,0,0
						c4.8,5.4,8.8,11.6,11.9,18.3C183,93.4,185.4,104,185.4,115.2z"/>
				</g>
				<g>
					<g>
						<path class="st21" d="M102.1,91.6c-16.5-0.4-31.6-1.8-44.1-4c5.4-4.8,12.4-7.7,20.2-7.7C87.9,79.9,96.5,84.5,102.1,91.6z"/>
						<path class="st21" d="M196.6,71.6c0,4.6-6.7,8.9-18,12.2c-15.8,4.7-40.5,7.8-68.4,7.8c-0.3,0-0.6,0-0.8,0
							C103,81.1,91.4,74,78.2,74C67.4,74,57.7,78.7,51,86.2c-3-0.7-5.8-1.4-8.4-2.1c-11.7-3.4-18.7-7.7-18.7-12.4
							c0-5.8,10.8-11.1,28.1-14.8c0.1,0,0.1,0,0.2,0L51.5,58c-1.4,2.9-0.1,6.1,2.8,7.9c0.2,0.1,0.4,0.2,0.6,0.3c0,0,0,0,0,0
							c0.3,0.2,0.7,0.3,1,0.4c22.8,7.7,43,8.7,53.6,8.5c0,0,0.1,0,0.1,0c0,0,0,0,0,0c0.2,0,0.3-0.1,0.5-0.1c0.2,0,0.4,0.1,0.6,0.1
							c0,0,0,0,0.1,0c10.6,0.2,30.9-0.8,53.6-8.5c0.8-0.3,1.6-0.7,2.2-1.1c0.1-0.1,0.2-0.2,0.3-0.3c0.1,0,0.1-0.1,0.2-0.1
							c0.1-0.1,0.2-0.1,0.2-0.2c0.1-0.1,0.1-0.1,0.2-0.2c0.1-0.1,0.2-0.2,0.2-0.3c0.1-0.1,0.2-0.2,0.2-0.3c0.1-0.1,0.1-0.2,0.2-0.3
							c0.1-0.1,0.1-0.2,0.2-0.3c0-0.1,0.1-0.1,0.1-0.2c0.1-0.1,0.1-0.1,0.1-0.2c0.1-0.1,0.1-0.2,0.2-0.3c0-0.1,0.1-0.2,0.1-0.3
							c0.1-0.2,0.1-0.3,0.2-0.5c0.3-1,0.4-2,0.2-3c0-0.2-0.1-0.4-0.2-0.6c-0.1-0.2-0.1-0.4-0.2-0.6l-0.6-1.2
							C185.7,60.5,196.6,65.8,196.6,71.6z"/>
					</g>
					<g>
						<g>
							<path class="st21" d="M168.4,56.8L168.4,56.8l-4.1-8.7c-4.6,1.6-9.1,2.9-13.5,3.9c-1.9,0.5-3.7,0.9-5.5,1.2
								c-10.9,2.3-20.6,3.1-27.9,3.3c-2.5,0.1-4.7,0.1-6.6,0.1c-0.2,0-0.4-0.1-0.6-0.1c-0.2,0-0.4,0.1-0.6,0.1c-1.9,0-4,0-6.5-0.1
								c-7.3-0.2-17-1-28-3.3c-1.6-0.3-3.2-0.7-4.9-1.1c-4.5-1.1-9.2-2.4-14.1-4l15.8-34c1.4-3.1,5.4-4.8,9.2-4.1l29.2,5.7l29.2-5.7
								c3.8-0.8,7.8,0.9,9.2,4.1L168.4,56.8z"/>
						</g>
						<g>
							<path class="st21" d="M110.7,75.2c-0.2,0-0.3,0-0.5,0.1c-0.2,0-0.4,0-0.6,0c-10.6,0.2-30.9-0.8-53.6-8.5
								c-0.4-0.1-0.8-0.3-1.1-0.5c0.3,0.2,0.7,0.3,1,0.4c22.8,7.7,43,8.7,53.6,8.5c0,0,0.1,0,0.1,0c0,0,0,0,0,0
								c0.2,0,0.3-0.1,0.5-0.1C110.4,75.2,110.5,75.2,110.7,75.2z"/>
						</g>
						<g>
							<path class="st21" d="M169.2,62.2c-0.4,1.3-1.3,2.5-2.5,3.4c-0.6,0.5-1.4,0.9-2.2,1.2c-22.8,7.7-43.1,8.7-53.6,8.5
								c-0.2,0-0.4,0-0.6,0c-0.2,0-0.4,0-0.6-0.1c0.2,0,0.3-0.1,0.5-0.1c0.2,0,0.4,0.1,0.6,0.1c0,0,0,0,0.1,0
								c10.6,0.2,30.9-0.8,53.6-8.5c0.8-0.3,1.6-0.7,2.2-1.1C167.9,64.7,168.7,63.5,169.2,62.2z"/>
						</g>
					</g>
				</g>
			</g>
		</g>
		<g>
			<g>
				<g>
					<path class="st4" d="M56.3,142.5l-10.3,10.3l-28.8,28.8c-0.4,0.5-1,0.5-1.4,0.1l-12-12c-0.4-0.4-0.4-1,0-1.4l34.5-34.5l4.7-4.7
						c0.4-0.4,1-0.4,1.4,0l12,12C56.7,141.5,56.7,142.1,56.3,142.5z"/>
				</g>
				<g class="st50">
					<path class="st51" d="M108.7,110.4c0,16.8-13.7,30.5-30.5,30.5c-16.8,0-30.5-13.7-30.5-30.5c0-9.1,4-17.2,10.3-22.8
						c5.4-4.8,12.4-7.7,20.2-7.7c9.7,0,18.4,4.6,24,11.6C106.2,96.8,108.7,103.3,108.7,110.4z"/>
				</g>
			</g>
			<g>
				<path class="st4" d="M109.4,91.6C103,81.1,91.4,74,78.2,74C67.4,74,57.7,78.7,51,86.2c-5.7,6.4-9.2,14.9-9.2,24.2
					c0,7.9,2.5,15.1,6.7,21.1l-0.9,0.9l4.6,4.6l0.5-0.5c6.6,6.4,15.5,10.4,25.4,10.4c20.1,0,36.4-16.3,36.4-36.4
					C114.6,103.6,112.7,97.1,109.4,91.6z M78.2,140.9c-16.8,0-30.5-13.7-30.5-30.5c0-9.1,4-17.2,10.3-22.8
					c5.4-4.8,12.4-7.7,20.2-7.7c9.7,0,18.4,4.6,24,11.6c4.1,5.2,6.5,11.7,6.5,18.8C108.7,127.2,95,140.9,78.2,140.9z"/>
			</g>
			<g>
				<path class="st4" d="M149.5,112.8c-0.3,0-0.7-0.1-1-0.2c-3.1-1.5-8.5-1.5-11.5,0c-1.2,0.6-2.6,0.1-3.2-1.1
					c-0.6-1.2-0.1-2.6,1.1-3.2c4.4-2.1,11.3-2.1,15.7,0c1.2,0.6,1.7,2,1.1,3.2C151.2,112.3,150.4,112.8,149.5,112.8z"/>
			</g>
			<g>
				<circle class="st4" cx="79.9" cy="109.2" r="11.2"/>
			</g>
		</g>
	</g>
	<g>
		<path class="st4" d="M169.2,62.2c-0.4,1.3-1.3,2.5-2.5,3.3c-0.6,0.5-1.4,0.9-2.2,1.1c-22.8,7.7-43.1,8.7-53.6,8.5c0,0,0,0-0.1,0
			c-0.2,0-0.4-0.1-0.6-0.1c-0.2,0-0.3,0-0.5,0.1c0,0,0,0,0,0c0,0-0.1,0-0.1,0c-10.6,0.2-30.9-0.8-53.6-8.5c-0.4-0.1-0.7-0.3-1-0.4
			c0,0,0,0,0,0c-0.2-0.1-0.4-0.2-0.6-0.3c-2.9-1.8-4.2-5-2.8-7.9l0.6-1.2l4-8.6c4.8,1.6,9.5,3,14.1,4c1.7,0.4,3.3,0.8,4.9,1.1
			c11,2.3,20.7,3.1,28,3.3c2.4,0.1,4.6,0.1,6.5,0.1c0.2,0,0.4-0.1,0.6-0.1c0.2,0,0.4,0.1,0.6,0.1c1.9,0,4.1,0,6.6-0.1
			c7.3-0.2,17-1,27.9-3.3c1.8-0.4,3.7-0.8,5.5-1.2c4.3-1.1,8.9-2.3,13.5-3.9l4,8.7h0l0.6,1.2c0.1,0.2,0.2,0.4,0.2,0.6
			c0.1,0.2,0.1,0.4,0.2,0.6C169.6,60.2,169.5,61.3,169.2,62.2z"/>
	</g>
</g>
</svg>
