<?xml version="1.0" encoding="utf-8"?>
<!-- Generator: Adobe Illustrator 22.1.0, SVG Export Plug-In . SVG Version: 6.00 Build 0)  -->
<svg version="1.1" id="Camada_1" xmlns="http://www.w3.org/2000/svg" xmlns:xlink="http://www.w3.org/1999/xlink" x="0px" y="0px"
	 viewBox="0 0 200 200" style="enable-background:new 0 0 200 200;" xml:space="preserve">
<style type="text/css">
	.st0{fill:#7F5100;}
	.st1{fill:#5B3800;}
	.st2{fill:#FFDB64;}
	.st3{fill:#FFFFFF;}
	.st4{fill:#1A1A1A;}
	.st5{fill:#00CCFF;}
	.st6{fill:#CCCCCC;}
	.st7{fill:#E5AA63;}
	.st8{fill:#333333;}
	.st9{fill:#666666;}
	.st10{fill:#F94E63;}
	.st11{fill:#8899A6;}
	.st12{fill:#F4900C;}
	.st13{fill:#009B34;}
	.st14{fill:#FFDB59;}
	.st15{fill:#F59000;}
	.st16{fill:#FB4C60;}
	.st17{fill:#096EDF;}
	.st18{fill:#292F33;}
	.st19{fill:#F3D29E;}
	.st20{fill:#805100;}
	.st21{fill:#66757F;}
	.st22{fill:#138F3E;}
	.st23{fill:#CCD6DD;}
	.st24{fill:#AAB8C2;}
	.st25{fill:#F3D2A2;}
	.st26{fill-rule:evenodd;clip-rule:evenodd;fill:#292F33;}
	.st27{fill:#404040;}
	.st28{fill:#F2F2F2;}
	.st29{fill:#1771DD;}
	.st30{fill:#009B3A;}
	.st31{fill:#55ACEE;}
	.st32{fill:#999999;}
	.st33{fill:#EF9645;}
	.st34{fill:#FFA766;}
	.st35{fill:#99AAB5;}
	.st36{fill:#E1E8ED;}
	.st37{fill:#FFCC4D;}
	.st38{fill:#FFCC3E;}
	.st39{fill:#00CAFF;}
	.st40{fill:#E9CC39;}
	.st41{fill:#D6B736;}
	.st42{fill:#3AAA35;}
	.st43{fill:#95C11F;}
	.st44{fill:#E30613;}
	.st45{fill:#BE1622;}
	.st46{fill:#E6332A;}
	.st47{fill:#009FE3;}
	.st48{fill:#2791D8;}
	.st49{fill:#3BBFF2;}
	.st50{opacity:0.8;enable-background:new    ;}
	.st51{fill:#BDD7B8;}
	.st52{fill:#8E562E;}
	.st53{fill:#3558A0;}
	.st54{fill:#FAD220;}
	.st55{fill:#FF5000;}
	.st56{fill:#FF000E;}
	.st57{fill:#880082;}
	.st58{fill:#FDCB58;}
</style>
<g>
	<path class="st21" d="M198.5,185.4v2c0,1.5-1.2,2.6-2.6,2.6H4.1c-1.4,0-2.6-1.2-2.6-2.6v-2c0-1.4,1.2-2.6,2.6-2.6h9.5v-13.5
		c0-2.4,2-4.3,4.3-4.3h164.2c2.4,0,4.3,2,4.3,4.3v13.5h9.5C197.4,182.8,198.5,184,198.5,185.4z"/>
	<g>
		<path class="st10" d="M60.7,85.4h-42c-3.6,0-6.6,3-6.6,6.6s3,6.6,6.6,6.6h13.8v45.5c0,4,3.2,7.2,7.2,7.2c4,0,7.2-3.2,7.2-7.2V98.6
			h13.8c3.6,0,6.6-3,6.6-6.6S64.3,85.4,60.7,85.4z"/>
		<path class="st10" d="M102.9,111.6c-11.3-2.9-14.1-4.3-14.1-8.6v-0.2c0-3.2,2.9-5.7,8.4-5.7c4.5,0,9,1.6,13.7,4.4
			c1.1,0.7,2.2,1,3.6,1c3.7,0,6.7-2.9,6.7-6.6c0-2.8-1.6-4.8-3.2-5.7c-5.9-3.7-12.8-5.8-20.7-5.8c-13.4,0-22.9,7.8-22.9,19.7v0.2
			c0,13,8.5,16.6,21.7,20c10.9,2.8,13.2,4.7,13.2,8.3v0.2c0,3.8-3.5,6.2-9.4,6.2c-6.3,0-11.8-2.2-16.7-5.9c-0.9-0.7-2.2-1.3-4.1-1.3
			c-3.7,0-6.7,2.9-6.7,6.6c0,2.2,1.1,4.3,2.7,5.4c7.3,5.2,16,7.8,24.6,7.8c14.1,0,24-7.3,24-20.3v-0.2
			C123.6,119.8,116.1,115.1,102.9,111.6z"/>
		<path class="st10" d="M180,137.9h-29.6v-13.7h24.9c3.5,0,6.4-2.8,6.4-6.4c0-3.5-2.9-6.4-6.4-6.4h-24.9V98.2h29.1
			c3.5,0,6.4-2.8,6.4-6.4c0-3.5-2.9-6.4-6.4-6.4h-36.2c-4,0-7.2,3.2-7.2,7.2v51c0,4,3.2,7.2,7.2,7.2H180c3.5,0,6.4-2.8,6.4-6.4
			C186.5,140.8,183.6,137.9,180,137.9z"/>
	</g>
	<path class="st21" d="M186.4,63.4c0.1-1.3-0.5-2.7-1.9-3.5L102,10.6c-1.2-0.7-2.8-0.7-4,0L15.5,59.9c-1.4,0.8-2,2.2-1.9,3.5
		c0,0.1,0,0.1,0,0.2v5.1c0,1.7,1.4,3.1,3.1,3.1h166.8c1.7,0,3.1-1.4,3.1-3.1v-5.1C186.5,63.5,186.4,63.4,186.4,63.4z"/>
</g>
</svg>
