<?xml version="1.0" encoding="utf-8"?>
<!-- Generator: Adobe Illustrator 22.1.0, SVG Export Plug-In . SVG Version: 6.00 Build 0)  -->
<svg version="1.1" id="Camada_1" xmlns="http://www.w3.org/2000/svg" xmlns:xlink="http://www.w3.org/1999/xlink" x="0px" y="0px"
	 viewBox="0 0 200 200" style="enable-background:new 0 0 200 200;" xml:space="preserve">
<style type="text/css">
	.st0{fill:#7F5100;}
	.st1{fill:#5B3800;}
	.st2{fill:#FFDB64;}
	.st3{fill:#FFFFFF;}
	.st4{fill:#1A1A1A;}
	.st5{fill:#00CCFF;}
	.st6{fill:#CCCCCC;}
	.st7{fill:#E5AA63;}
	.st8{fill:#333333;}
	.st9{fill:#666666;}
	.st10{fill:#F94E63;}
	.st11{fill:#8899A6;}
	.st12{fill:#F4900C;}
	.st13{fill:#009B34;}
	.st14{fill:#FFDB59;}
	.st15{fill:#F59000;}
	.st16{fill:#FB4C60;}
	.st17{fill:#096EDF;}
	.st18{fill:#292F33;}
	.st19{fill:#F3D29E;}
	.st20{fill:#805100;}
	.st21{fill:#66757F;}
	.st22{fill:#138F3E;}
	.st23{fill:#CCD6DD;}
	.st24{fill:#AAB8C2;}
	.st25{fill:#F3D2A2;}
	.st26{fill-rule:evenodd;clip-rule:evenodd;fill:#292F33;}
	.st27{fill:#404040;}
	.st28{fill:#F2F2F2;}
	.st29{fill:#1771DD;}
	.st30{fill:#009B3A;}
	.st31{fill:#55ACEE;}
	.st32{fill:#999999;}
	.st33{fill:#EF9645;}
	.st34{fill:#FFA766;}
	.st35{fill:#99AAB5;}
	.st36{fill:#E1E8ED;}
	.st37{fill:#FFCC4D;}
	.st38{fill:#FFCC3E;}
	.st39{fill:#00CAFF;}
	.st40{fill:#E9CC39;}
	.st41{fill:#D6B736;}
	.st42{fill:#3AAA35;}
	.st43{fill:#95C11F;}
	.st44{fill:#E30613;}
	.st45{fill:#BE1622;}
	.st46{fill:#E6332A;}
	.st47{fill:#009FE3;}
	.st48{fill:#2791D8;}
	.st49{fill:#3BBFF2;}
	.st50{opacity:0.8;enable-background:new    ;}
	.st51{fill:#BDD7B8;}
	.st52{fill:#8E562E;}
	.st53{fill:#3558A0;}
	.st54{fill:#FAD220;}
	.st55{fill:#FF5000;}
	.st56{fill:#FF000E;}
	.st57{fill:#880082;}
	.st58{fill:#FDCB58;}
</style>
<g>
	<g>
		<path class="st4" d="M22.5,127.5c-8.1,0-14.7-6.6-14.7-14.7c0-1.5,1.2-2.7,2.7-2.7s2.7,1.2,2.7,2.7c0,5.2,4.2,9.4,9.4,9.4
			s9.4-4.2,9.4-9.4c0-1.5,1.2-2.7,2.7-2.7c1.5,0,2.7,1.2,2.7,2.7C37.2,120.9,30.6,127.5,22.5,127.5z"/>
	</g>
	<g>
		<path class="st34" d="M189.1,108.3h-2.9c-1.8,0-3.4-1.2-3.8-3c-1.4-5.4-3.7-10.6-7-15.3c-1.1-1.6-0.9-3.7,0.4-5l5.2-5.2
			c2.5-2.5,0.7-6.7-2.8-6.7h-19.1c-0.7,0-1.5-0.2-2.1-0.6c-5.2-3.3-11-6.2-17.2-8.4c-0.1,0.5-0.3,0.9-0.4,1.4c0,0,0,0,0,0.1
			c-0.1,0.4-0.3,0.8-0.4,1.2c-0.3,0.9-0.7,1.7-1.1,2.6c-0.1,0.2-0.2,0.4-0.3,0.6c-0.2,0.4-0.4,0.8-0.6,1.1c-0.2,0.3-0.4,0.7-0.6,1
			c0,0,0,0.1-0.1,0.1c-0.2,0.4-0.4,0.7-0.6,1c0,0-0.1,0.1-0.1,0.1c-0.3,0.4-0.5,0.8-0.8,1.2c-0.3,0.4-0.5,0.7-0.8,1.1
			c-0.1,0.1-0.1,0.1-0.2,0.2c-0.3,0.3-0.5,0.7-0.8,1c-0.2,0.2-0.4,0.5-0.6,0.7c-0.1,0.2-0.3,0.3-0.4,0.5c-0.2,0.2-0.3,0.4-0.5,0.6
			c-0.1,0.2-0.3,0.3-0.5,0.5h0l0,0c-3-0.9-6.2-1.6-9.4-2.1c-0.4-0.1-0.8-0.1-1.2-0.2c-0.4,0-0.7-0.1-1.1-0.1c-0.1,0-0.1,0-0.2,0h0
			c-0.1,0-0.1,0-0.1,0s-0.1,0-0.1,0h0c-1.1-0.1-2.1-0.3-3.2-0.4c0,0,0,0-0.1,0c-0.1,0-0.2,0-0.3,0c-0.1,0-0.1,0-0.2,0
			c0,0-0.1,0-0.1,0c0,0,0,0-0.1,0c-0.5,0-0.9-0.1-1.4-0.1c-0.5,0-1-0.1-1.5-0.1c-0.5,0-1-0.1-1.5-0.1c-0.4,0-0.8,0-1.2,0
			c-0.6,0-1.2,0-1.7,0c-4.8,0-9.5,0.4-14,1.1c-3.3,0.5-6.4,1.3-9.5,2.1l0,0C82,79.4,80,80.1,78,80.9c-0.2,0.1-0.5,0.2-0.7,0.3
			c-2.9,1.2-5.8,2.6-8.5,4.2c-0.2,0.1-0.5,0.2-0.8,0.3h0c-0.3,0.1-0.7,0.1-1,0h0c-0.7-0.1-1.4-0.6-1.8-1.3c-0.7-1.3-0.3-2.9,1-3.7
			c4.4-2.6,9.2-4.7,14.2-6.4c-0.3-0.4-0.6-0.8-0.8-1.2c-0.3-0.4-0.5-0.8-0.7-1.2c0,0,0-0.1-0.1-0.1c-0.2-0.4-0.5-0.8-0.7-1.2
			c0,0,0,0,0,0c-0.2-0.3-0.4-0.7-0.5-1c-0.1-0.2-0.2-0.3-0.2-0.5c-0.3-0.6-0.6-1.2-0.8-1.9c-0.1-0.2-0.2-0.5-0.3-0.7
			c-0.1-0.3-0.2-0.6-0.3-0.9c-0.1-0.2-0.1-0.4-0.2-0.6c-0.1-0.4-0.2-0.8-0.3-1.1c-25.7,9.1-43.6,28.7-43.9,51.5v0c0,0.2,0,0.4,0,0.6
			c0,1.5,0.1,3,0.2,4.5c0.1,1.1,0.3,2.2,0.5,3.3c1.6,9,6,17.3,12.5,24.5c0.7,0.7,1,1.7,1,2.7v24.1c0,2.2,1.7,3.9,3.9,3.9h10.4
			c1,0,2-0.4,2.8-1.1l8.7-8.7c1.1-1.1,2.6-1.4,4-0.9c9.7,3.4,20.6,5.3,32.1,5.3c11.5,0,22.3-1.9,32-5.3c1.4-0.5,3-0.1,4,0.9l8.7,8.7
			c0.7,0.7,1.7,1.1,2.8,1.1h10.4c2.2,0,3.9-1.8,3.9-3.9v-23.6c0.4-1,1-2.4,1.4-3.4l21-21c0.7-0.7,1.1-1.7,1.1-2.8v-12.2
			C193,110,191.2,108.3,189.1,108.3z M162.4,115.2c-3.7,0-6.7-3-6.7-6.7s3-6.7,6.7-6.7c3.7,0,6.7,3,6.7,6.7S166.1,115.2,162.4,115.2
			z"/>
	</g>
	<g>
		<path class="st12" d="M132,77.8c-0.2,0.2-0.3,0.4-0.5,0.6c-0.1,0.2-0.3,0.3-0.5,0.5h0l0,0c-3-0.9-6.2-1.6-9.4-2.1
			c-0.4-0.1-0.8-0.1-1.2-0.2c-2.3-0.3-4.6-0.6-7-0.7c-0.5,0-1-0.1-1.5-0.1c-0.5,0-1-0.1-1.5-0.1c-0.4,0-0.8,0-1.2,0
			c-0.6,0-1.2,0-1.7,0c-4.8,0-9.5,0.4-14,1.1c-3.3,0.5-6.4,1.3-9.5,2.1l0,0c-0.2-0.2-0.3-0.3-0.5-0.5c-0.2-0.2-0.4-0.4-0.5-0.5
			c2.9-0.9,5.9-1.6,9-2.1c5-0.9,10.3-1.4,15.6-1.4c5.3,0,10.5,0.5,15.6,1.4C126.2,76.2,129.2,76.9,132,77.8z"/>
	</g>
	<g>
		<circle class="st12" cx="162.4" cy="108.5" r="6.7"/>
	</g>
	<g>
		<circle class="st4" cx="162.4" cy="108.5" r="6.7"/>
	</g>
	<g>
		<path class="st4" d="M84,78.8C82,79.4,80,80.1,78,80.9c-0.2,0.1-0.5,0.2-0.7,0.3c-2.9,1.2-5.8,2.6-8.5,4.2
			c-0.2,0.1-0.5,0.2-0.8,0.3h0c-0.3,0.1-0.7,0.1-1,0h0c-0.7-0.1-1.4-0.6-1.8-1.3c-0.7-1.3-0.3-2.9,1-3.7c4.4-2.6,9.2-4.7,14.2-6.4
			c0,0.1,0.1,0.1,0.1,0.1c0.2,0.3,0.5,0.6,0.7,1c0,0,0.1,0.1,0.1,0.1c0.3,0.3,0.6,0.7,0.8,1c0.3,0.4,0.7,0.8,1,1.1
			c0.2,0.2,0.3,0.4,0.5,0.5C83.7,78.5,83.9,78.7,84,78.8z"/>
		<path class="st4" d="M150.1,84.4c-0.4,0.7-1.1,1.1-1.8,1.3c0,0,0,0,0,0c-0.1,0-0.3,0-0.5,0c-0.2,0-0.4,0-0.6-0.1h0
			c-0.3-0.1-0.5-0.2-0.8-0.3c-2.7-1.6-5.5-3-8.5-4.2c-0.2-0.1-0.5-0.2-0.7-0.3c-2-0.8-4.1-1.5-6.2-2.1h0c-3-0.9-6.1-1.6-9.3-2.2
			c-4.6-0.8-9.3-1.2-14.2-1.2c-4.8,0-9.6,0.4-14.2,1.2c-3.2,0.5-6.3,1.3-9.4,2.2c-0.2-0.2-0.3-0.3-0.5-0.5c-0.2-0.2-0.4-0.4-0.5-0.5
			c2.9-0.9,5.9-1.6,9-2.1c5-0.9,10.3-1.4,15.6-1.4c5.3,0,10.5,0.5,15.6,1.4c3,0.5,6,1.2,8.9,2.1c0.1-0.1,0.3-0.3,0.4-0.5
			c0.2-0.2,0.4-0.4,0.6-0.7c0.3-0.3,0.6-0.7,0.8-1c0.1-0.1,0.1-0.1,0.2-0.2c0.3-0.4,0.5-0.7,0.8-1.1c5,1.7,9.8,3.8,14.3,6.4
			C150.4,81.5,150.8,83.1,150.1,84.4z"/>
	</g>
	<g>
		<g>
			<path class="st35" d="M123.2,75.6c-5-0.9-10.3-1.4-15.6-1.4c-5.3,0-10.5,0.5-15.6,1.4c-3.1,0.5-6,1.3-9,2.1
				c0.2,0.2,0.3,0.4,0.5,0.5c0.1,0.2,0.3,0.3,0.5,0.5l0,0c3.1-0.9,6.2-1.6,9.5-2.1c4.5-0.7,9.2-1.1,14-1.1c0.6,0,1.2,0,1.7,0
				c0.4,0,0.8,0,1.2,0c0.5,0,1,0,1.5,0.1c0.5,0,1,0.1,1.5,0.1c2.4,0.1,4.7,0.4,7,0.7c0.4,0.1,0.8,0.1,1.2,0.2
				c3.2,0.5,6.4,1.2,9.4,2.1l0,0h0c0.2-0.2,0.3-0.3,0.5-0.5c0.2-0.2,0.4-0.4,0.5-0.6C129.2,76.9,126.2,76.2,123.2,75.6z"/>
			<path class="st21" d="M141,55c0,3.1-0.4,6.2-1.3,9c-0.1,0.5-0.3,0.9-0.4,1.4c0,0,0,0,0,0.1c-0.1,0.4-0.3,0.8-0.4,1.2
				c-0.3,0.9-0.7,1.7-1.1,2.6c-0.1,0.2-0.2,0.4-0.3,0.6c-0.2,0.4-0.4,0.8-0.6,1.1c-0.2,0.3-0.4,0.7-0.6,1c0,0,0,0.1-0.1,0.1
				c-0.2,0.4-0.4,0.7-0.6,1c0,0-0.1,0.1-0.1,0.1c-0.3,0.4-0.5,0.8-0.8,1.2c-0.3,0.4-0.5,0.7-0.8,1.1c-0.1,0.1-0.1,0.1-0.2,0.2
				c-0.3,0.3-0.5,0.7-0.8,1c-0.2,0.2-0.4,0.5-0.6,0.7c-0.1,0.2-0.3,0.3-0.4,0.5c-2.9-0.9-5.8-1.6-8.9-2.1c0.5-0.4,1-0.8,1.5-1.2
				c0.8-0.7,1.6-1.5,2.3-2.3c2.6-2.9,4.6-6.4,5.7-10.3c0.6-2.2,1-4.6,1-7c0-14.4-11.7-26-26-26c-14.4,0-26,11.6-26,26
				c0,2.4,0.3,4.8,1,7c1.1,3.9,3.1,7.5,5.7,10.4c0.7,0.8,1.5,1.6,2.3,2.3c0.5,0.4,1,0.8,1.5,1.2c-3.1,0.5-6,1.3-9,2.1
				c-0.3-0.4-0.7-0.8-1-1.1c-0.3-0.3-0.6-0.7-0.8-1c0,0-0.1-0.1-0.1-0.1c-0.2-0.3-0.5-0.6-0.7-1c0,0-0.1-0.1-0.1-0.1
				c-0.3-0.4-0.6-0.8-0.8-1.2c-0.3-0.4-0.5-0.8-0.7-1.2c0,0,0-0.1-0.1-0.1c-0.2-0.4-0.4-0.8-0.7-1.2c0,0,0,0,0,0
				c-0.2-0.3-0.4-0.7-0.5-1c-0.1-0.2-0.2-0.3-0.2-0.5c-0.3-0.6-0.6-1.2-0.8-1.9c-0.1-0.2-0.2-0.5-0.3-0.7c-0.1-0.3-0.2-0.6-0.3-0.9
				c-0.1-0.2-0.1-0.4-0.2-0.6c-0.1-0.4-0.2-0.8-0.3-1.1c-0.8-2.9-1.2-5.9-1.2-9c0-18.5,15-33.4,33.4-33.4C126,21.6,141,36.5,141,55z
				"/>
		</g>
		<path class="st36" d="M133.6,54.8c0,2.4-0.3,4.8-1,7c-1.1,3.9-3.1,7.4-5.7,10.3c-0.7,0.8-1.5,1.6-2.3,2.3c-0.5,0.4-1,0.8-1.5,1.2
			c-5-0.9-10.3-1.4-15.6-1.4c-5.3,0-10.5,0.5-15.6,1.4c-0.5-0.4-1-0.8-1.5-1.2c-0.8-0.7-1.6-1.5-2.3-2.3c-2.6-2.9-4.6-6.5-5.7-10.4
			c-0.6-2.2-1-4.6-1-7c0-14.4,11.6-26,26-26C122,28.8,133.6,40.4,133.6,54.8z"/>
		<path class="st36" d="M123.2,75.6c-0.3,0.2-0.5,0.4-0.8,0.6c-0.2,0.1-0.4,0.3-0.6,0.4c0,0-0.1,0.1-0.1,0.1
			c-0.4-0.1-0.8-0.1-1.2-0.2c-2.3-0.3-4.6-0.6-7-0.7c-0.5,0-1-0.1-1.5-0.1c-0.5,0-1-0.1-1.5-0.1c-0.4,0-0.8,0-1.2,0
			c-0.6,0-1.2,0-1.7,0c-4.8,0-9.5,0.4-14,1.1c-0.1,0-0.1-0.1-0.1-0.1c-0.2-0.1-0.4-0.3-0.6-0.4c-0.3-0.2-0.5-0.4-0.8-0.6
			c5-0.9,10.3-1.4,15.6-1.4C112.9,74.3,118.1,74.7,123.2,75.6z"/>
	</g>
	<g>
		<path class="st4" d="M148.3,85.6c0,0-0.1,0.1-0.1,0.1c0,0,0,0,0,0c-0.1,0-0.3-1.1-0.5-1.1c-0.1,0-0.1,0.2-0.2,0.2
			c-0.1,0-0.7,0.3-0.8,0.3l0.1,0.2c-3.8-2.2-6.1-2.9-9-4c-0.2-0.1-0.5-0.2-0.7-0.3c-5.6-2.2-11.6-3.7-17.9-4.5c0,0,0,0,0,0
			c-0.1,0-0.1,0-0.2,0c0,0,0,0,0,0c-0.1,0-0.1,0-0.1,0c0,0-0.1,0-0.1,0c0,0,0,0,0,0h0c-1.1-0.1-2.1-0.3-3.2-0.4h0c0,0-0.1,0-0.1,0
			c-0.1,0-0.1,0-0.2,0c0,0,0,0-0.1,0c-0.1,0-0.1,0-0.2,0c0,0,0,0,0,0c-0.1,0-0.2,0-0.4,0h0c0,0-0.1,0-0.1,0c-2.3-0.2-4.6-0.3-7-0.3
			c-10.5,0-20.5,1.8-29.6,5.3c2-0.8,4-1.5,6.1-2.1c-0.2-0.2-0.3-0.3-0.5-0.5c-0.2-0.2-0.4-0.4-0.5-0.5c2.9-0.9,5.9-1.6,9-2.1
			c5-0.9,10.3-1.4,15.6-1.4c5.3,0,10.5,0.5,15.6,1.4c3,0.5,6,1.2,8.9,2.1c5.7,1.7,11.1,4,16.1,6.9C148.4,84.8,148.5,85.2,148.3,85.6
			z"/>
	</g>
</g>
</svg>
