<?xml version="1.0" encoding="utf-8"?>
<!-- Generator: Adobe Illustrator 22.1.0, SVG Export Plug-In . SVG Version: 6.00 Build 0)  -->
<svg version="1.1" id="Camada_1" xmlns="http://www.w3.org/2000/svg" xmlns:xlink="http://www.w3.org/1999/xlink" x="0px" y="0px"
	 viewBox="0 0 200 200" style="enable-background:new 0 0 200 200;" xml:space="preserve">
<style type="text/css">
	.st0{fill:#7F5100;}
	.st1{fill:#5B3800;}
	.st2{fill:#FFDB64;}
	.st3{fill:#FFFFFF;}
	.st4{fill:#1A1A1A;}
	.st5{fill:#00CCFF;}
	.st6{fill:#CCCCCC;}
	.st7{fill:#E5AA63;}
	.st8{fill:#333333;}
	.st9{fill:#666666;}
	.st10{fill:#F94E63;}
	.st11{fill:#8899A6;}
	.st12{fill:#F4900C;}
	.st13{fill:#009B34;}
	.st14{fill:#FFDB59;}
	.st15{fill:#F59000;}
	.st16{fill:#FB4C60;}
	.st17{fill:#096EDF;}
	.st18{fill:#292F33;}
	.st19{fill:#F3D29E;}
	.st20{fill:#805100;}
	.st21{fill:#66757F;}
	.st22{fill:#138F3E;}
	.st23{fill:#CCD6DD;}
	.st24{fill:#AAB8C2;}
	.st25{fill:#F3D2A2;}
	.st26{fill-rule:evenodd;clip-rule:evenodd;fill:#292F33;}
	.st27{fill:#404040;}
	.st28{fill:#F2F2F2;}
	.st29{fill:#1771DD;}
	.st30{fill:#009B3A;}
	.st31{fill:#55ACEE;}
	.st32{fill:#999999;}
	.st33{fill:#EF9645;}
	.st34{fill:#FFA766;}
	.st35{fill:#99AAB5;}
	.st36{fill:#E1E8ED;}
	.st37{fill:#FFCC4D;}
	.st38{fill:#FFCC3E;}
	.st39{fill:#00CAFF;}
	.st40{fill:#E9CC39;}
	.st41{fill:#D6B736;}
	.st42{fill:#3AAA35;}
	.st43{fill:#95C11F;}
	.st44{fill:#E30613;}
	.st45{fill:#BE1622;}
	.st46{fill:#E6332A;}
	.st47{fill:#009FE3;}
	.st48{fill:#2791D8;}
	.st49{fill:#3BBFF2;}
	.st50{opacity:0.8;enable-background:new    ;}
	.st51{fill:#BDD7B8;}
	.st52{fill:#8E562E;}
	.st53{fill:#3558A0;}
	.st54{fill:#FAD220;}
	.st55{fill:#FF5000;}
	.st56{fill:#FF000E;}
	.st57{fill:#880082;}
	.st58{fill:#FDCB58;}
</style>
<g>
	<path class="st18" d="M38.9,139.5l-2.8-1.1l-9.9-3.9l-2.5-4.6c0,0,1.1-4.7,9.5-7.9c0.3,5.2,1.2,10.2,2.6,15c0.9,0.3,1.9,0.6,3,0.9
		L38.9,139.5z"/>
	<path class="st18" d="M177,129.9l-2.5,4.6l-10.7,4.2l-2,0.8l0.2-1.4c0.8-0.2,1.5-0.5,2.2-0.7c1.5-4.9,2.4-10.1,2.7-15.5
		C175.9,125,177,129.9,177,129.9z"/>
	<circle class="st4" cx="67.9" cy="103.1" r="6.7"/>
	<circle class="st4" cx="132.1" cy="103.1" r="6.7"/>
	<g>
		<path class="st25" d="M100,73.2c-0.1,0-0.2,0-0.3,0c0,0,0.1,0,0.1,0C99.9,73.2,100,73.1,100,73.2c0,0,0.1,0,0.1,0c0,0,0.1,0,0.1,0
			C100.2,73.2,100.1,73.2,100,73.2z"/>
		<path class="st25" d="M167,118.3c0,1.2,0,2.4-0.1,3.5c-0.3,5.4-1.2,10.6-2.7,15.5c-0.7,0.2-1.5,0.5-2.2,0.7
			c-10.7,3.2-26.1,5.6-43.8,6.6l-14.5,14.5c-1.6,1.6-4.2,1.6-5.8,0l-14.4-14.4c-18.1-0.9-33.9-3.3-44.9-6.6c-1-0.3-2-0.6-3-0.9
			c-1.4-4.8-2.3-9.8-2.6-15c-0.1-1.2-0.1-2.5-0.1-3.8c0-6.4,0.9-12.5,2.5-18.3c1.8,1.3,4.1,3.2,4.7,5.1c1,2.8,2.9,21,8.5,25.7
			c5.9,4.9,28,3.1,32.2,1c9.5-4.7,10.6-20,12.3-26.7c0.9-3.8,6.6-3.8,6.6-3.8s5.7,0,6.6,3.8c1.7,6.7,2.9,22,12.3,26.7
			c4.2,2.1,26.4,3.9,32.2-0.9c5.7-4.7,7.6-22.9,8.5-25.8c0.6-1.9,3-3.8,4.7-5.1C166.1,105.8,167,111.9,167,118.3z"/>
		<path class="st25" d="M38.9,139.5l-2.8-1.1c-0.1-0.4-0.3-0.9-0.4-1.3c0.9,0.3,1.9,0.6,3,0.9L38.9,139.5z"/>
		<path class="st25" d="M164.4,99.9c-1.8,1.3-4.1,3.2-4.7,5.1c-1,2.8-2.9,21-8.5,25.8c-5.9,4.9-28,3.1-32.2,0.9
			c-9.5-4.7-10.6-20-12.3-26.7c-0.9-3.8-6.6-3.8-6.6-3.8s-5.7,0-6.6,3.8c-1.7,6.7-2.8,21.9-12.3,26.7c-4.2,2.1-26.4,3.9-32.2-1
			c-5.7-4.7-7.6-22.9-8.5-25.7c-0.6-1.9-3-3.8-4.7-5.1c0.8-2.9,1.9-5.8,3.1-8.5c1.4-3.2,3.1-6.3,4.9-9.2c14.1,3.5,34.2,5.7,56.4,5.7
			c22.3,0,42.3-2.2,56.4-5.7c1.9,2.9,3.5,6,4.9,9.2C162.6,94.2,163.6,97,164.4,99.9z"/>
		<path class="st25" d="M164.2,137.3c-0.1,0.5-0.3,0.9-0.4,1.4l-2,0.8l0.2-1.4C162.8,137.8,163.5,137.6,164.2,137.3z"/>
		<path class="st26" d="M166.3,92.8c-0.5-0.5-2.2-0.9-5-1.3c-8.2-1.2-25.3-1.6-43.4,0.4c-4.8,0.5-6.6,1.9-18,1.9
			c-11.4,0-13.2-1.4-18-1.9c-18-2-35.1-1.5-43.4-0.4c-2.8,0.4-4.5,0.8-5,1.3c-0.9,0.9-0.9,4.7,0,5.7c0.3,0.3,1,0.8,1.9,1.5
			c1.8,1.3,4.1,3.2,4.7,5.1c1,2.8,2.9,21,8.5,25.7c5.9,4.9,28,3.1,32.2,1c9.5-4.7,10.6-20,12.3-26.7c0.9-3.8,6.6-3.8,6.6-3.8
			s5.7,0,6.6,3.8c1.7,6.7,2.9,22,12.3,26.7c4.2,2.1,26.4,3.9,32.2-0.9c5.7-4.7,7.6-22.9,8.5-25.8c0.6-1.9,3-3.8,4.7-5.1
			c0.9-0.7,1.6-1.2,1.9-1.5C167.3,97.5,167.3,93.7,166.3,92.8z"/>
		<g>
			<path class="st27" d="M148.5,65.5c-1.8,0.6-3.5,1.2-5.2,1.7c-18.2,5.4-34.1,6.1-42.8,6c-0.1,0-0.2,0-0.3,0c0,0-0.1,0-0.1,0
				c0,0-0.1,0-0.1,0s-0.1,0-0.1,0c0,0-0.1,0-0.1,0c-0.1,0-0.2,0-0.3,0c-8.6,0.1-24.5-0.6-42.8-6c-1.7-0.5-3.4-1.1-5.2-1.7
				c-3.6-1.2-5.5-4.7-4-7.8l0.5-1l3.6-7.8c6,2,11.7,3.5,17.1,4.6c3.1,0.6,6.1,1.2,8.9,1.6c6.1,0.9,11.5,1.2,16,1.4
				c2.2,0.1,4.2,0.1,5.9,0c0.2,0,0.4,0,0.5-0.1c0.2,0,0.4,0.1,0.5,0.1c1.7,0,3.7,0,5.9,0c4.5-0.1,9.9-0.5,16-1.4
				c2.8-0.4,5.8-0.9,8.9-1.6c5.4-1.1,11.2-2.6,17.1-4.6l3.6,7.8l0.5,1C154,60.8,152.2,64.3,148.5,65.5z"/>
			<path class="st21" d="M177.3,70c0,4.7-7.9,9-20.9,12.2c-14.1,3.5-34.2,5.7-56.4,5.7c-22.3,0-42.3-2.2-56.4-5.7
				C30.6,79,22.7,74.7,22.7,70c0-5.2,9.7-9.9,25.2-13.2l-0.5,1c-1.4,3.1,0.4,6.5,4,7.8c1.8,0.6,3.5,1.2,5.2,1.7
				c18.2,5.4,34.1,6.1,42.8,6c0.1,0,0.2,0,0.3,0c0.1,0,0.2,0,0.3,0c0.1,0,0.2,0,0.3,0c0.1,0,0.2,0,0.3,0c8.7,0.1,24.6-0.6,42.8-6
				c1.7-0.5,3.4-1.1,5.2-1.7c3.6-1.2,5.5-4.7,4-7.8l-0.5-1C167.6,60,177.3,64.7,177.3,70z"/>
			<path class="st21" d="M100.3,73.2c-0.1,0-0.2,0-0.3,0c-0.1,0-0.2,0-0.3,0c0,0,0.1,0,0.1,0c0,0,0.1,0,0.1,0s0.1,0,0.1,0
				C100.2,73.2,100.2,73.2,100.3,73.2z"/>
			<g>
				<path class="st21" d="M148.5,49c-6,2-11.7,3.5-17.1,4.6c-3.1,0.6-6.1,1.2-8.9,1.6c-6.1,0.9-11.5,1.2-16,1.4
					c-2.2,0.1-4.2,0.1-5.9,0c-0.2,0-0.4,0-0.5-0.1c-0.2,0-0.3,0.1-0.5,0.1c-1.7,0-3.7,0-5.9,0c-4.5-0.1-9.9-0.5-16-1.4
					c-2.8-0.4-5.8-0.9-8.9-1.6C63.3,52.5,57.5,51,51.5,49l14.1-30.4c1.3-2.8,4.8-4.3,8.2-3.7l26.1,5.2l26.1-5.2
					c3.5-0.7,7,0.9,8.3,3.7L148.5,49z"/>
				<path class="st21" d="M100.1,73.2c0,0-0.1,0-0.1,0c-0.1,0-0.2,0-0.3,0c0,0,0.1,0,0.1,0c0,0,0.1,0,0.1,0S100.1,73.2,100.1,73.2z"
					/>
				<path class="st21" d="M100.3,73.2c-0.1,0-0.2,0-0.3,0c0,0-0.1,0-0.1,0c0,0,0.1,0,0.1,0s0.1,0,0.1,0
					C100.2,73.2,100.2,73.2,100.3,73.2z"/>
			</g>
		</g>
	</g>
	<path class="st21" d="M177,129.9l-15.3,45.1c-0.8,2.3-2.7,4-5.1,4.6c-14.1,3.4-33.9,5.5-55.9,5.5H100c-0.5,0-0.9,0-1.4,0
		c-21.4-0.1-40.7-2.2-54.5-5.5c-2.4-0.6-4.3-2.3-5.1-4.6l-15.4-45.1l2.5,4.6l9.9,3.9l2.8,1.1l-0.2-1.4c10.9,3.3,26.7,5.7,44.9,6.6
		L98,159.1c1.6,1.6,4.2,1.6,5.8,0l14.5-14.5c17.7-1,33.1-3.3,43.8-6.6l-0.2,1.4l2-0.8l10.7-4.2L177,129.9z"/>
	<path class="st21" d="M38.9,139.5l-2.8-1.1l-9.9-3.9l-2.5-4.6c1.8,2.6,6,5,12.1,7.1c0.9,0.3,1.9,0.6,3,0.9L38.9,139.5z"/>
	<path class="st21" d="M177,129.9l-2.5,4.6l-10.7,4.2l-2,0.8l0.2-1.4c0.8-0.2,1.5-0.5,2.2-0.7C170.7,135.2,175.2,132.7,177,129.9z"
		/>
</g>
</svg>
