<?xml version="1.0" encoding="utf-8"?>
<!-- Generator: Adobe Illustrator 22.1.0, SVG Export Plug-In . SVG Version: 6.00 Build 0)  -->
<svg version="1.1" id="Camada_1" xmlns="http://www.w3.org/2000/svg" xmlns:xlink="http://www.w3.org/1999/xlink" x="0px" y="0px"
	 viewBox="0 0 200 200" style="enable-background:new 0 0 200 200;" xml:space="preserve">
<style type="text/css">
	.st0{fill:#7F5100;}
	.st1{fill:#5B3800;}
	.st2{fill:#FFDB64;}
	.st3{fill:#FFFFFF;}
	.st4{fill:#1A1A1A;}
	.st5{fill:#00CCFF;}
	.st6{fill:#CCCCCC;}
	.st7{fill:#E5AA63;}
	.st8{fill:#333333;}
	.st9{fill:#666666;}
	.st10{fill:#F94E63;}
	.st11{fill:#8899A6;}
	.st12{fill:#F4900C;}
	.st13{fill:#009B34;}
	.st14{fill:#FFDB59;}
	.st15{fill:#F59000;}
	.st16{fill:#FB4C60;}
	.st17{fill:#096EDF;}
	.st18{fill:#292F33;}
	.st19{fill:#F3D29E;}
	.st20{fill:#805100;}
	.st21{fill:#66757F;}
	.st22{fill:#138F3E;}
	.st23{fill:#CCD6DD;}
	.st24{fill:#AAB8C2;}
	.st25{fill:#F3D2A2;}
	.st26{fill-rule:evenodd;clip-rule:evenodd;fill:#292F33;}
	.st27{fill:#404040;}
	.st28{fill:#F2F2F2;}
	.st29{fill:#1771DD;}
	.st30{fill:#009B3A;}
	.st31{fill:#55ACEE;}
	.st32{fill:#999999;}
	.st33{fill:#EF9645;}
	.st34{fill:#FFA766;}
	.st35{fill:#99AAB5;}
	.st36{fill:#E1E8ED;}
	.st37{fill:#FFCC4D;}
	.st38{fill:#FFCC3E;}
	.st39{fill:#00CAFF;}
	.st40{fill:#E9CC39;}
	.st41{fill:#D6B736;}
	.st42{fill:#3AAA35;}
	.st43{fill:#95C11F;}
	.st44{fill:#E30613;}
	.st45{fill:#BE1622;}
	.st46{fill:#E6332A;}
	.st47{fill:#009FE3;}
	.st48{fill:#2791D8;}
	.st49{fill:#3BBFF2;}
	.st50{opacity:0.8;enable-background:new    ;}
	.st51{fill:#BDD7B8;}
	.st52{fill:#8E562E;}
	.st53{fill:#3558A0;}
	.st54{fill:#FAD220;}
	.st55{fill:#FF5000;}
	.st56{fill:#FF000E;}
	.st57{fill:#880082;}
	.st58{fill:#FDCB58;}
</style>
<g>
	<g>
		<path class="st18" d="M130.2,18.7H69.8c-6.6,0-12,5.4-12,12v17h13.8V32.6h56.7v15.2h13.9v-17C142.2,24.1,136.9,18.7,130.2,18.7z"
			/>
	</g>
	<g>
		<path class="st18" d="M187.2,111.7v58.5c0,6.1-5,11.1-11.1,11.1H23c-6.1,0-11.1-5-11.1-11.1v-59.5c1.2,2,3,3.6,5.1,4.7
			c17.6,8.9,41.9,14.9,69.2,16.4c-2.2-0.4-3.9-2.4-3.9-4.8c0-2.7,2.2-4.9,4.8-4.9h25.7c2.7,0,4.8,2.2,4.8,4.9c0,2.4-1.7,4.3-3.8,4.8
			c27.1-1.5,51.1-7.5,68.7-16.2C184.4,114.6,186,113.3,187.2,111.7z"/>
	</g>
	<g>
		<path class="st9" d="M190,58.9v44.8c0,3-1,5.8-2.8,8c-1.2,1.6-2.8,2.9-4.7,3.8c-17.6,8.7-41.7,14.7-68.7,16.2
			c2.2-0.5,3.8-2.4,3.8-4.8c0-2.7-2.1-4.9-4.8-4.9H87.1c-2.6,0-4.8,2.2-4.8,4.9c0,2.4,1.6,4.4,3.9,4.8c-27.3-1.5-51.6-7.5-69.2-16.4
			c-2.1-1.1-3.9-2.7-5.1-4.7c-1.2-2-1.9-4.3-1.9-6.8V58.8c0-6.1,5-11.1,11.1-11.1h157.8C185,47.8,190,52.8,190,58.9z"/>
		<path class="st9" d="M117.7,127c0,2.4-1.7,4.3-3.8,4.8c0,0,0,0,0,0c-0.1,0-0.2,0-0.2,0c-0.6,0-1.1,0.1-1.7,0.1
			c-3.9,0.2-7.9,0.3-11.9,0.3c-4,0-8-0.1-12-0.3c-0.6,0-1.1-0.1-1.7-0.1c0,0-0.1,0-0.1,0c-2.2-0.4-3.9-2.4-3.9-4.8
			c0-2.7,2.2-4.9,4.8-4.9h25.7C115.6,122.1,117.7,124.3,117.7,127z"/>
	</g>
	<g>
		<path class="st38" d="M107.3,147.6H92.7c-3.5,0-6.3-2.8-6.3-6.3v-9.4c0-3.5,2.8-6.3,6.3-6.3h14.6c3.5,0,6.3,2.8,6.3,6.3v9.4
			C113.6,144.7,110.8,147.6,107.3,147.6L107.3,147.6z"/>
	</g>
	<g>
		<path class="st15" d="M117.7,127c0,2.4-1.7,4.3-3.8,4.8c0,0,0,0,0,0c-0.1,0-0.2,0-0.2,0c-0.2,0-0.5,0.1-0.7,0.1H87.1
			c-0.3,0-0.5,0-0.8-0.1c0,0-0.1,0-0.1,0c-2.2-0.4-3.9-2.4-3.9-4.8c0-2.7,2.2-4.9,4.8-4.9h25.7C115.6,122.1,117.7,124.3,117.7,127z"
			/>
	</g>
</g>
</svg>
