<?xml version="1.0" encoding="utf-8"?>
<!-- Generator: Adobe Illustrator 22.1.0, SVG Export Plug-In . SVG Version: 6.00 Build 0)  -->
<svg version="1.1" id="Camada_1" xmlns="http://www.w3.org/2000/svg" xmlns:xlink="http://www.w3.org/1999/xlink" x="0px" y="0px"
	 viewBox="0 0 200 200" style="enable-background:new 0 0 200 200;" xml:space="preserve">
<style type="text/css">
	.st0{fill:#7F5100;}
	.st1{fill:#5B3800;}
	.st2{fill:#FFDB64;}
	.st3{fill:#FFFFFF;}
	.st4{fill:#1A1A1A;}
	.st5{fill:#00CCFF;}
	.st6{fill:#CCCCCC;}
	.st7{fill:#E5AA63;}
	.st8{fill:#333333;}
	.st9{fill:#666666;}
	.st10{fill:#F94E63;}
	.st11{fill:#8899A6;}
	.st12{fill:#F4900C;}
	.st13{fill:#009B34;}
	.st14{fill:#FFDB59;}
	.st15{fill:#F59000;}
	.st16{fill:#FB4C60;}
	.st17{fill:#096EDF;}
	.st18{fill:#292F33;}
	.st19{fill:#F3D29E;}
	.st20{fill:#805100;}
	.st21{fill:#66757F;}
	.st22{fill:#138F3E;}
	.st23{fill:#CCD6DD;}
	.st24{fill:#AAB8C2;}
	.st25{fill:#F3D2A2;}
	.st26{fill-rule:evenodd;clip-rule:evenodd;fill:#292F33;}
	.st27{fill:#404040;}
	.st28{fill:#F2F2F2;}
	.st29{fill:#1771DD;}
	.st30{fill:#009B3A;}
	.st31{fill:#55ACEE;}
	.st32{fill:#999999;}
	.st33{fill:#EF9645;}
	.st34{fill:#FFA766;}
	.st35{fill:#99AAB5;}
	.st36{fill:#E1E8ED;}
	.st37{fill:#FFCC4D;}
	.st38{fill:#FFCC3E;}
	.st39{fill:#00CAFF;}
	.st40{fill:#E9CC39;}
	.st41{fill:#D6B736;}
	.st42{fill:#3AAA35;}
	.st43{fill:#95C11F;}
	.st44{fill:#E30613;}
	.st45{fill:#BE1622;}
	.st46{fill:#E6332A;}
	.st47{fill:#009FE3;}
	.st48{fill:#2791D8;}
	.st49{fill:#3BBFF2;}
	.st50{opacity:0.8;enable-background:new    ;}
	.st51{fill:#BDD7B8;}
	.st52{fill:#8E562E;}
	.st53{fill:#3558A0;}
	.st54{fill:#FAD220;}
	.st55{fill:#FF5000;}
	.st56{fill:#FF000E;}
	.st57{fill:#880082;}
	.st58{fill:#FDCB58;}
</style>
<g>
	<g>
		<path class="st25" d="M78.2,29.9l0,3.4c-9.3,3.7-16,12.8-16,23.4c0,0.7,0,1.4,0.1,2.1c-1.5,0.3-2.9,0.7-4.2,1.2l0.1-30.2
			c0,0,0-10,10-10C78.2,19.9,78.2,29.8,78.2,29.9z"/>
		<path class="st25" d="M103.2,20l-0.1,17.2c-4.3-3.5-9.8-5.6-15.8-5.6c-1.4,0-2.8,0.1-4.2,0.4l0-12c0,0,0-10,10-10
			C103.2,10,103.2,19.9,103.2,20z"/>
		<path class="st25" d="M166.6,82.4l-7.3,25.4c-2.9,10.1-5.6,20.2-7,30.6c-4.1,29.3-29.2,51.8-59.6,51.7
			c-33.1-0.1-59.9-27.1-59.8-60.2c0-1.8,0.1-3.4,0.3-5l-0.3,0l0.2-75c0,0,0-10,10-10c9.9,0,10,9.9,10,10l0,12.8
			c-6.7,4.5-11,12.1-11,20.8c0,13.9,11.2,25.1,25.1,25.1c8,0,15.1-3.7,19.7-9.5c3.6,2,7.8,3.2,12.3,3.2c13.9,0,25.1-11.2,25.1-25.1
			c0-9-4.7-16.9-11.8-21.3c-0.2-4.9-1.7-9.5-4.3-13.3l0-17.6c0,0,0-10,10-10c9.9,0,9.9,9.8,9.9,10L128,94.5l0,5.6v10.2
			c1.6-0.1,3.3-0.2,5-0.2l14.7-34.2c0,0,3.2-9.5,12.7-6.2C169.8,72.9,166.6,82.4,166.6,82.4z"/>
	</g>
	<g>
		<g>
			<path class="st21" d="M112.5,55.9c-0.2-4.9-1.7-9.5-4.3-13.3c-1.4-2-3.1-3.9-5-5.4c-4.3-3.5-9.8-5.6-15.8-5.6
				c-1.4,0-2.8,0.1-4.2,0.4c-1.8,0.3-3.4,0.7-5,1.4c-9.3,3.7-16,12.8-16,23.4c0,0.7,0,1.4,0.1,2.1c-1.5,0.3-2.9,0.7-4.2,1.2
				c-1.8,0.7-3.4,1.6-5,2.6c-6.7,4.5-11,12.1-11,20.8c0,13.9,11.2,25.1,25.1,25.1c8,0,15.1-3.7,19.7-9.5c3.6,2,7.8,3.2,12.3,3.2
				c13.9,0,25.1-11.2,25.1-25.1C124.3,68.2,119.6,60.3,112.5,55.9z M78.2,39.4c1.6-0.8,3.2-1.5,5-1.9c1.4-0.3,2.8-0.5,4.2-0.5
				c6.4,0,12.2,3.1,15.7,7.9c0,0,0,0,0,0c1.8,2.4,3,5.2,3.5,8.2c-1.2-0.4-2.3-0.6-3.6-0.8c-1.3-0.2-2.6-0.3-4-0.3
				c-6.1,0-11.7,2.2-16.1,5.8c-1.3,1.1-2.5,2.3-3.6,3.7c-0.5-0.2-0.9-0.5-1.4-0.7c-3.1-1.5-6.5-2.4-10.1-2.5c0-0.6-0.1-1.2-0.1-1.8
				C67.9,49.1,72,42.7,78.2,39.4z M85.3,90.8c-0.8,1.8-1.8,3.5-3,5c-3.6,4.3-9,7.1-15,7.1c-10.8,0-19.6-8.8-19.6-19.6
				c0-5.2,2-10,5.4-13.5c1.5-1.5,3.1-2.8,5-3.8c1.6-0.9,3.4-1.5,5.3-1.9c1.3-0.3,2.6-0.4,3.9-0.4c0.7,0,1.4,0,2,0.1h0
				c2.6,0.3,5.1,1.1,7.3,2.3c0.5,0.3,1,0.6,1.5,0.9c1.1,0.7,2.1,1.6,3.1,2.5c0.7,0.7,1.3,1.5,1.9,2.3c0.9,1.3,1.7,2.7,2.3,4.2
				c0.7,1.8,1.2,3.8,1.3,5.8c0,0.5,0.1,1,0.1,1.5C86.8,86,86.3,88.5,85.3,90.8z M99.2,96.6c-3.4,0-6.5-0.9-9.3-2.3
				c1.6-3.3,2.4-6.9,2.4-10.8c0-0.7,0-1.4-0.1-2.1c-0.1-1.9-0.5-3.8-1.1-5.6c-1.4-4.3-3.9-8.1-7.2-11c3.6-4.4,9.1-7.3,15.2-7.3
				c1.3,0,2.6,0.1,3.9,0.4c1.3,0.3,2.5,0.7,3.7,1.2c0.4,0.2,0.9,0.4,1.3,0.6c1.4,0.7,2.6,1.5,3.8,2.5c4.2,3.6,6.9,8.9,6.9,14.9
				C118.8,87.9,110,96.6,99.2,96.6z"/>
		</g>
		<g>
			<path class="st36" d="M106.7,53.2c-1.2-0.4-2.3-0.6-3.6-0.8c-1.3-0.2-2.6-0.3-4-0.3c-6.1,0-11.7,2.2-16.1,5.8
				c-1.3,1.1-2.5,2.3-3.6,3.7c-0.5-0.2-0.9-0.5-1.4-0.7c-3.1-1.5-6.5-2.4-10.1-2.5c0-0.6-0.1-1.2-0.1-1.8c0-7.4,4.2-13.9,10.3-17.2
				c1.6-0.8,3.2-1.5,5-1.9c1.4-0.3,2.8-0.5,4.2-0.5c6.4,0,12.2,3.1,15.7,7.9c0,0,0,0,0,0C104.9,47.4,106.1,50.2,106.7,53.2z"/>
		</g>
	</g>
	<g>
		<g>
			<path class="st36" d="M118.8,77.1c0,10.8-8.8,19.5-19.6,19.5c-3.4,0-6.5-0.9-9.3-2.3c1.6-3.3,2.4-6.9,2.4-10.8
				c0-0.7,0-1.4-0.1-2.1c-0.1-1.9-0.5-3.8-1.1-5.6c-1.4-4.3-3.9-8.1-7.2-11c3.6-4.4,9.1-7.3,15.2-7.3c1.3,0,2.6,0.1,3.9,0.4
				c1.3,0.3,2.5,0.7,3.7,1.2c0.4,0.2,0.9,0.4,1.3,0.6c1.4,0.7,2.6,1.5,3.8,2.5C116.1,65.8,118.8,71.1,118.8,77.1z"/>
		</g>
	</g>
	<g>
		<g>
			<path class="st36" d="M86.8,83.4c0,2.7-0.5,5.2-1.5,7.5c-0.8,1.8-1.8,3.5-3,5c-3.6,4.3-9,7.1-15,7.1c-10.8,0-19.6-8.8-19.6-19.6
				c0-5.2,2-10,5.4-13.5c1.5-1.5,3.1-2.8,5-3.8c1.6-0.9,3.4-1.5,5.3-1.9c1.3-0.3,2.6-0.4,3.9-0.4c0.7,0,1.4,0,2,0.1h0
				c2.6,0.3,5.1,1.1,7.3,2.3c0.5,0.3,1,0.6,1.5,0.9c1.1,0.7,2.1,1.6,3.1,2.5c0.7,0.7,1.3,1.5,1.9,2.3c0.9,1.3,1.7,2.7,2.3,4.2
				c0.7,1.8,1.2,3.8,1.3,5.8C86.8,82.3,86.8,82.9,86.8,83.4z"/>
		</g>
	</g>
	<g>
		<path class="st33" d="M79.3,155.6c-2.3,0-4.1-1.8-4.1-4.1c0-25.1,20.4-45.6,45.6-45.6c2.3,0,4.1,1.8,4.1,4.1s-1.8,4.1-4.1,4.1
			c-20.6,0-37.4,16.8-37.4,37.4C83.4,153.8,81.5,155.6,79.3,155.6z"/>
	</g>
</g>
</svg>
