<?xml version="1.0" encoding="utf-8"?>
<!-- Generator: Adobe Illustrator 22.1.0, SVG Export Plug-In . SVG Version: 6.00 Build 0)  -->
<svg version="1.1" id="Camada_1" xmlns="http://www.w3.org/2000/svg" xmlns:xlink="http://www.w3.org/1999/xlink" x="0px" y="0px"
	 viewBox="0 0 200 200" style="enable-background:new 0 0 200 200;" xml:space="preserve">
<style type="text/css">
	.st0{fill:#7F5100;}
	.st1{fill:#5B3800;}
	.st2{fill:#FFDB64;}
	.st3{fill:#FFFFFF;}
	.st4{fill:#1A1A1A;}
	.st5{fill:#00CCFF;}
	.st6{fill:#CCCCCC;}
	.st7{fill:#E5AA63;}
	.st8{fill:#333333;}
	.st9{fill:#666666;}
	.st10{fill:#F94E63;}
	.st11{fill:#8899A6;}
	.st12{fill:#F4900C;}
	.st13{fill:#009B34;}
	.st14{fill:#FFDB59;}
	.st15{fill:#F59000;}
	.st16{fill:#FB4C60;}
	.st17{fill:#096EDF;}
	.st18{fill:#292F33;}
	.st19{fill:#F3D29E;}
	.st20{fill:#805100;}
	.st21{fill:#66757F;}
	.st22{fill:#138F3E;}
	.st23{fill:#CCD6DD;}
	.st24{fill:#AAB8C2;}
	.st25{fill:#F3D2A2;}
	.st26{fill-rule:evenodd;clip-rule:evenodd;fill:#292F33;}
	.st27{fill:#404040;}
	.st28{fill:#F2F2F2;}
	.st29{fill:#1771DD;}
	.st30{fill:#009B3A;}
	.st31{fill:#55ACEE;}
	.st32{fill:#999999;}
	.st33{fill:#EF9645;}
	.st34{fill:#FFA766;}
	.st35{fill:#99AAB5;}
	.st36{fill:#E1E8ED;}
	.st37{fill:#FFCC4D;}
	.st38{fill:#FFCC3E;}
	.st39{fill:#00CAFF;}
	.st40{fill:#E9CC39;}
	.st41{fill:#D6B736;}
	.st42{fill:#3AAA35;}
	.st43{fill:#95C11F;}
	.st44{fill:#E30613;}
	.st45{fill:#BE1622;}
	.st46{fill:#E6332A;}
	.st47{fill:#009FE3;}
	.st48{fill:#2791D8;}
	.st49{fill:#3BBFF2;}
	.st50{opacity:0.8;enable-background:new    ;}
	.st51{fill:#BDD7B8;}
	.st52{fill:#8E562E;}
	.st53{fill:#3558A0;}
	.st54{fill:#FAD220;}
	.st55{fill:#FF5000;}
	.st56{fill:#FF000E;}
	.st57{fill:#880082;}
	.st58{fill:#FDCB58;}
</style>
<g>
	<g>
		<g>
			<path class="st4" d="M14.1,145.5c-7,0-12.7-5.7-12.7-12.7c0-1.3,1-2.3,2.3-2.3s2.3,1,2.3,2.3c0,4.5,3.6,8.1,8.1,8.1
				s8.1-3.6,8.1-8.1c0-1.3,1-2.3,2.3-2.3c1.3,0,2.3,1,2.3,2.3C26.8,139.8,21.1,145.5,14.1,145.5z"/>
		</g>
	</g>
	<g>
		<g>
			<path class="st34" d="M161.3,142.8v-10.5c0-1.9-1.5-3.4-3.4-3.4h-2.6c-1.6,0-2.9-1.1-3.3-2.6c-1.2-4.7-3.2-9.1-6-13.2
				c-0.9-1.4-0.8-3.2,0.4-4.3l4.5-4.5c2.1-2.1,0.6-5.8-2.4-5.8H132c-0.7,0-1.3-0.2-1.8-0.5c-11.5-7.4-26.4-11.9-42.7-11.9
				c-36.3,0-65.7,22.2-65.7,49.6c0,10.3,4.2,20,11.4,27.9c0.6,0.6,0.9,1.4,0.9,2.3v20.8c0,1.9,1.5,3.4,3.4,3.4h9
				c0.9,0,1.8-0.4,2.4-1l7.5-7.5c0.9-0.9,2.3-1.2,3.5-0.8c8.4,3,17.8,4.6,27.7,4.6s19.3-1.7,27.7-4.6c1.2-0.4,2.6-0.1,3.5,0.8
				l7.5,7.5c0.6,0.6,1.5,1,2.4,1h9c1.9,0,3.4-1.5,3.4-3.4v-20.4c0.4-0.9,0.8-2,1.2-2.9l18.1-18.1
				C160.9,144.6,161.3,143.7,161.3,142.8z"/>
		</g>
	</g>
	<g>
		<g>
			<circle class="st4" cx="134.9" cy="129.1" r="5.8"/>
		</g>
	</g>
	<g>
		<g>
			<path class="st4" d="M122.3,109.4c-0.4,0-0.8-0.1-1.2-0.3c-9.7-5.6-21.3-8.6-33.5-8.6c-12.2,0-23.8,3-33.5,8.6
				c-1.1,0.6-2.5,0.3-3.2-0.8c-0.6-1.1-0.3-2.5,0.8-3.2c10.4-6,22.8-9.2,35.8-9.2c13.1,0,25.5,3.2,35.8,9.2c1.1,0.6,1.5,2.1,0.8,3.2
				C123.8,109,123,109.4,122.3,109.4z"/>
		</g>
	</g>
	<g>
		<g>
			<path class="st12" d="M116.5,18.3l2.5,2.5l-12.4,12.4l-2.5-2.5c-3.4-3.4-3.4-9,0-12.4C107.4,14.9,113,14.9,116.5,18.3z"/>
			<path class="st12" d="M196.1,110.3c-1.7,1.7-4,2.6-6.2,2.6c-2.3,0-4.5-0.9-6.2-2.6l-54.8-54.8l12.4-12.4l54.8,54.8
				C199.5,101.3,199.5,106.9,196.1,110.3z"/>
		</g>
	</g>
	<g>
		<g>
			<path class="st21" d="M163.2,21.3l-21.9,21.9l-12.4,12.4l-6.9,6.9c-0.5,0.5-0.8,1.2-0.8,1.9c0,0.7,0.3,1.4,0.8,1.9
				c1.1,1.1,1.1,2.8,0,3.8l-11.2,11.2c-1.1,1.1-2.8,1.1-3.9,0L80.7,55.2c-1.1-1.1-1.1-2.8,0-3.8l11.2-11.2c0.5-0.5,1.2-0.8,1.9-0.8
				c0.7,0,1.4,0.3,1.9,0.8c1.1,1.1,2.8,1.1,3.8,0l19.3-19.3l1.5-1.5c11.6-11.6,30.1-12.3,42.5-2C164.2,18.3,164.3,20.2,163.2,21.3z"
				/>
		</g>
	</g>
</g>
</svg>
