<?xml version="1.0" encoding="utf-8"?>
<!-- Generator: Adobe Illustrator 22.1.0, SVG Export Plug-In . SVG Version: 6.00 Build 0)  -->
<svg version="1.1" id="Camada_1" xmlns="http://www.w3.org/2000/svg" xmlns:xlink="http://www.w3.org/1999/xlink" x="0px" y="0px"
	 viewBox="0 0 200 200" style="enable-background:new 0 0 200 200;" xml:space="preserve">
<style type="text/css">
	.st0{fill:#7F5100;}
	.st1{fill:#5B3800;}
	.st2{fill:#FFDB64;}
	.st3{fill:#FFFFFF;}
	.st4{fill:#1A1A1A;}
	.st5{fill:#00CCFF;}
	.st6{fill:#CCCCCC;}
	.st7{fill:#E5AA63;}
	.st8{fill:#333333;}
	.st9{fill:#666666;}
	.st10{fill:#F94E63;}
	.st11{fill:#8899A6;}
	.st12{fill:#F4900C;}
	.st13{fill:#009B34;}
	.st14{fill:#FFDB59;}
	.st15{fill:#F59000;}
	.st16{fill:#FB4C60;}
	.st17{fill:#096EDF;}
	.st18{fill:#292F33;}
	.st19{fill:#F3D29E;}
	.st20{fill:#805100;}
	.st21{fill:#66757F;}
	.st22{fill:#138F3E;}
	.st23{fill:#CCD6DD;}
	.st24{fill:#AAB8C2;}
	.st25{fill:#F3D2A2;}
	.st26{fill-rule:evenodd;clip-rule:evenodd;fill:#292F33;}
	.st27{fill:#404040;}
	.st28{fill:#F2F2F2;}
	.st29{fill:#1771DD;}
	.st30{fill:#009B3A;}
	.st31{fill:#55ACEE;}
	.st32{fill:#999999;}
	.st33{fill:#EF9645;}
	.st34{fill:#FFA766;}
	.st35{fill:#99AAB5;}
	.st36{fill:#E1E8ED;}
	.st37{fill:#FFCC4D;}
	.st38{fill:#FFCC3E;}
	.st39{fill:#00CAFF;}
	.st40{fill:#E9CC39;}
	.st41{fill:#D6B736;}
	.st42{fill:#3AAA35;}
	.st43{fill:#95C11F;}
	.st44{fill:#E30613;}
	.st45{fill:#BE1622;}
	.st46{fill:#E6332A;}
	.st47{fill:#009FE3;}
	.st48{fill:#2791D8;}
	.st49{fill:#3BBFF2;}
	.st50{opacity:0.8;enable-background:new    ;}
	.st51{fill:#BDD7B8;}
	.st52{fill:#8E562E;}
	.st53{fill:#3558A0;}
	.st54{fill:#FAD220;}
	.st55{fill:#FF5000;}
	.st56{fill:#FF000E;}
	.st57{fill:#880082;}
	.st58{fill:#FDCB58;}
</style>
<g>
	<g>
		<rect x="164" y="89.2" class="st9" width="5.2" height="7.1"/>
	</g>
	<g>
		<path class="st9" d="M174.8,71.3c-3.1,0-5.6,2.5-5.6,5.6v31.8c0,3.1,2.5,5.6,5.6,5.6s5.6-2.5,5.6-5.6V76.9
			C180.3,73.8,177.8,71.3,174.8,71.3z"/>
		<path class="st9" d="M30.8,76.9c0-3.1-2.5-5.6-5.6-5.6s-5.6,2.5-5.6,5.6v31.8c0,3.1,2.5,5.6,5.6,5.6s5.6-2.5,5.6-5.6V96.3H36v-7.1
			h-5.2V76.9z"/>
	</g>
	<g>
		<path class="st18" d="M66,172.2v4.4c0,7.4-6,13.4-13.4,13.4h-4.9c-7.3,0-13.4-6-13.4-13.4v-19.7c0-0.2,0-0.4,0-0.6
			c0.4,8.8,7.7,15.9,16.6,15.9H66z"/>
	</g>
	<g>
		<path class="st18" d="M165.5,156.9v19.7c0,7.4-6,13.4-13.4,13.4h-4.9c-7.3,0-13.4-6-13.4-13.4v-4.4h15c8.9,0,16.2-7.1,16.6-15.9
			C165.5,156.5,165.5,156.7,165.5,156.9z"/>
	</g>
	<g>
		<path class="st38" d="M165.5,30.6v124.9c0,0.3,0,0.5,0,0.8c-0.4,8.8-7.7,15.9-16.6,15.9H51c-8.9,0-16.2-7.1-16.6-15.9
			c0-0.3,0-0.5,0-0.8V30.7c0-3.6,2-6.9,5.3-8.5C54.7,14.7,76.1,10,100,10c23.9,0,45.4,4.7,60.4,12.2C163.6,23.8,165.5,27,165.5,30.6
			z"/>
	</g>
	<g>
		<path class="st39" d="M156.9,110.9V57.8c0-6.9-5.6-12.5-12.5-12.5H55.6c-6.9,0-12.5,5.6-12.5,12.5v53.1c0,1.8,1.5,3.3,3.3,3.3h107
			C155.3,114.2,156.9,112.7,156.9,110.9L156.9,110.9z"/>
	</g>
	<g>
		<path class="st3" d="M66,139.5c0,3.9-3.2,7.1-7.1,7.1s-7.1-3.2-7.1-7.1c0-3.9,3.2-7.1,7.1-7.1C62.8,132.5,66,135.7,66,139.5
			L66,139.5z"/>
	</g>
	<g>
		<path class="st3" d="M148.1,139.5c0,3.9-3.2,7.1-7.1,7.1s-7.1-3.2-7.1-7.1c0-3.9,3.2-7.1,7.1-7.1
			C144.9,132.5,148.1,135.7,148.1,139.5L148.1,139.5z"/>
	</g>
	<g>
		<path class="st3" d="M135.4,35.8H64.5c-3,0-5.4-2.4-5.4-5.4s2.4-5.4,5.4-5.4h70.9c3,0,5.4,2.4,5.4,5.4
			C140.8,33.4,138.4,35.8,135.4,35.8L135.4,35.8z"/>
	</g>
</g>
</svg>
