<svg xmlns="http://www.w3.org/2000/svg" width="23" height="23" viewBox="0 0 23 23">
    <g fill="#66757F" fill-rule="evenodd">
        <path d="M5.378 1.73a3.647 3.647 0 0 0-3.646 3.639V16.69a3.647 3.647 0 0 0 3.646 3.64H16.72a3.647 3.647 0 0 0 3.646-3.64V5.37a3.647 3.647 0 0 0-3.646-3.64H5.378zM16.72 22.058H5.378C2.413 22.059 0 19.65 0 16.69V5.37C0 2.409 2.413 0 5.378 0H16.72c2.966 0 5.379 2.408 5.379 5.369V16.69c0 2.96-2.413 5.369-5.38 5.369z"/>
        <path d="M10.61 6.73a3.879 3.879 0 0 0-3.877 3.87 3.879 3.879 0 0 0 7.756 0 3.88 3.88 0 0 0-3.879-3.87m0 9.471c-3.093 0-5.61-2.512-5.61-5.6C5 7.512 7.517 5 10.61 5c3.094 0 5.611 2.513 5.611 5.6 0 3.089-2.517 5.601-5.61 5.601M18.38 5.188c0 .656-.533 1.188-1.19 1.188a1.189 1.189 0 1 1 1.19-1.188"/>
    </g>
</svg>
