<svg xmlns="http://www.w3.org/2000/svg" width="24" height="24" viewBox="0 0 24 24">
    <g fill="#66757F" fill-rule="evenodd">
        <path d="M1.202 7.91v15.454h4.431V7.909zM3.36 5.977c1.705 0 2.728-1.136 2.728-2.727C6.088 1.773 5.065.523 3.36.523 1.77.523.634 1.659.634 3.25c0 1.59 1.023 2.727 2.727 2.727zM23.358 23.364v-8.637c0-4.772-2.5-7.045-5.568-7.045-2.5 0-4.09 1.477-4.43 2.613V7.91h-5c.114 1.25 0 15.455 0 15.455h5v-8.41c0-.454 0-.909.113-1.25.34-.909 1.022-1.931 2.386-1.931 1.704 0 2.5 1.477 2.5 3.522v7.955h4.999v.114z"/>
    </g>
</svg>
