<svg xmlns="http://www.w3.org/2000/svg" width="23" height="19" viewBox="0 0 23 19">
    <path fill="#66757F" fill-rule="evenodd" d="M0 16.068a9.32 9.32 0 0 0 1.093.064 9.207 9.207 0 0 0 5.692-1.959 4.588 4.588 0 0 1-4.282-3.177 4.59 4.59 0 0 0 2.07-.079A4.58 4.58 0 0 1 .897 6.432l.001-.058c.618.343 1.324.55 2.076.572A4.57 4.57 0 0 1 1.555.838 13.016 13.016 0 0 0 11 5.618 4.58 4.58 0 0 1 15.466 0c1.318 0 2.51.557 3.346 1.446a9.205 9.205 0 0 0 2.91-1.11 4.592 4.592 0 0 1-2.016 2.53 9.152 9.152 0 0 0 2.633-.72 9.323 9.323 0 0 1-2.286 2.369c.008.196.013.393.013.591 0 6.045-4.61 13.017-13.041 13.017-2.589 0-4.997-.757-7.025-2.055z"/>
</svg>
