<svg xmlns="http://www.w3.org/2000/svg" width="12" height="22" viewBox="0 0 12 22">
    <path fill="#66757F" fill-rule="evenodd" d="M3.795 21.52c.002-.052.005-.104.005-.155v-9.322-.119H.69c-.138 0-.139 0-.139-.133 0-1.163.002-2.326-.002-3.489 0-.106.032-.133.135-.132.993.003 1.986.002 2.978.002h.14V8.06c.001-.967-.007-1.934.008-2.901.01-.778.161-1.53.501-2.237A4.057 4.057 0 0 1 6.481.872a5.117 5.117 0 0 1 2.056-.39c.814.012 1.626.048 2.439.077.151.005.301.031.453.039.084.004.112.035.112.12-.003.481-.002.963-.002 1.445 0 .567-.002 1.135.002 1.703.001.099-.027.129-.127.128-.617-.004-1.235-.012-1.852.002-.28.007-.564.038-.838.098-.528.115-.84.463-.946.987a3.501 3.501 0 0 0-.068.644c-.008.788-.003 1.576-.003 2.364 0 .024.003.047.005.083h3.548c.149 0 .15 0 .133.141-.081.62-.164 1.24-.244 1.859-.067.517-.132 1.035-.194 1.554-.023.198-.019.198-.218.198H7.707v9.368c0 .076-.002.152-.003.227h-3.91z"/>
</svg>
