<svg xmlns="http://www.w3.org/2000/svg" width="82" height="82" viewBox="0 0 82 82">
    <g fill="none" fill-rule="evenodd">
        <path stroke="#FFF" stroke-width="1.5" d="M80.75 40.75c0 22.091-17.909 40-40 40s-40-17.909-40-40 17.909-40 40-40 40 17.909 40 40z"/>
        <path fill="#FFF" d="M37.157 57.58c.003-.081.009-.164.009-.246V42.229h-4.97c-.22 0-.221-.001-.221-.213 0-1.86.002-3.721-.004-5.582 0-.17.052-.213.216-.212 1.586.006 3.17.003 4.757.003h.222v-.18c.003-1.546-.01-3.094.013-4.641.018-1.244.258-2.45.8-3.578.739-1.533 1.895-2.63 3.468-3.282a8.168 8.168 0 0 1 3.285-.624c1.298.02 2.596.078 3.894.125.242.008.482.049.723.062.135.007.18.057.179.19-.005.772-.002 1.543-.002 2.313 0 .909-.004 1.817.003 2.726 0 .158-.044.206-.204.205-.985-.007-1.971-.02-2.956.004-.448.01-.902.059-1.34.155-.842.185-1.341.742-1.51 1.58a5.557 5.557 0 0 0-.11 1.03c-.011 1.26-.004 2.522-.004 3.783 0 .037.005.075.009.132h5.665c.238 0 .242 0 .213.227-.13.99-.262 1.982-.39 2.973a259.7 259.7 0 0 0-.31 2.487c-.036.316-.03.317-.347.317h-4.84v14.989c0 .12-.003.242-.004.363h-6.244z"/>
    </g>
</svg>
