<svg xmlns="http://www.w3.org/2000/svg" width="82" height="82" viewBox="0 0 82 82">
    <g fill="none" fill-rule="evenodd">
        <path stroke="#FFF" stroke-width="1.5" d="M80.762 40.75c0 22.091-17.909 40-40 40s-40-17.909-40-40 17.909-40 40-40 40 17.909 40 40z"/>
        <path fill="#FFF" d="M34.143 55.248a20.719 20.719 0 0 1-11.22-3.288c.572.067 1.155.102 1.746.102 3.429 0 6.585-1.17 9.09-3.134a7.329 7.329 0 0 1-6.837-5.084 7.337 7.337 0 0 0 3.306-.126 7.322 7.322 0 0 1-5.872-7.269 7.254 7.254 0 0 0 3.315.915 7.315 7.315 0 0 1-3.257-6.093c0-1.34.362-2.597.992-3.679a20.777 20.777 0 0 0 15.088 7.648 7.322 7.322 0 0 1 12.474-6.676 14.637 14.637 0 0 0 4.648-1.777 7.34 7.34 0 0 1-3.22 4.05 14.592 14.592 0 0 0 4.205-1.153 14.884 14.884 0 0 1-3.651 3.79c.014.314.02.63.02.947 0 9.672-7.363 20.827-20.827 20.827"/>
    </g>
</svg>
