<svg xmlns="http://www.w3.org/2000/svg" width="82" height="82" viewBox="0 0 82 82">
    <g fill="none" fill-rule="evenodd">
        <path stroke="#FFF" stroke-width="1.5" d="M80.762 40.762c0 22.091-17.909 40-40 40s-40-17.909-40-40 17.909-40 40-40 40 17.909 40 40z"/>
        <path fill="#FFF" d="M43.426 47.518l-5.987-6.426-11.589 5.822 12.358-12.908 5.877 5.823 11.59-5.823-12.249 13.512zm-2.664-26.756c-11.046 0-20 8.954-20 20 0 6.469 3.898 11.865 3.898 11.865l-2.441 7.28 7.521-2.453s4.9 3.308 11.022 3.308c11.046 0 20-8.954 20-20s-8.954-20-20-20z"/>
    </g>
</svg>
