<svg xmlns="http://www.w3.org/2000/svg" width="82" height="82" viewBox="0 0 82 82">
    <g fill="none" fill-rule="evenodd">
        <path stroke="#FFF" stroke-width="1.5" d="M80.75 40.762c0 22.091-17.909 40-40 40s-40-17.909-40-40 17.909-40 40-40 40 17.909 40 40z"/>
        <path fill="#FFF" d="M51.895 50.051c-1.414 1.526-4.42 2.233-5.844 1.835-1.424-.398-6.13-1.63-9.2-4.493-3.07-2.863-5.557-5.876-6.575-8.098-1.016-2.223-.96-3.541-.904-4.163.057-.621.384-3.501 2.311-4.736 0 0 .643-.407.98-.407h1.874s.503.087.734.611c.231.524 1.813 4.24 1.93 4.527.118.286.425.996-.068 1.631-.492.635-1.522 1.821-1.522 1.821s-.408.367-.054.951c.353.585 1.596 2.513 3.221 3.97 1.626 1.456 3.616 2.528 4.608 2.854.993.326 1.21-.109 1.59-.598.381-.489 1.564-1.984 1.564-1.984s.408-.598 1.21-.231c.801.366 4.702 2.256 4.702 2.256s.476.082.503.612c.027.53.354 2.116-1.06 3.642M40.75 20.762c-11.046 0-20 8.954-20 20 0 6.469 3.897 11.864 3.897 11.864l-2.44 7.281 7.52-2.454s4.901 3.309 11.023 3.309c11.045 0 20-8.954 20-20s-8.955-20-20-20"/>
    </g>
</svg>
